<svg width="4533" height="2249" viewBox="0 0 4533 2249" fill="none" xmlns="http://www.w3.org/2000/svg">
<g clip-path="url(#clip0_232_51)">
<rect x="4" y="643" width="1512" height="1606" fill="#FFFEE9"/>
<path d="M1629.28 725.365C1638.63 684.08 1622.88 585.336 1586.5 538C1540 477.5 1485.5 495.5 1465.1 512.665C1479.37 372.295 1367.48 255.921 1231.09 244.723C1167.97 239.561 1103.23 257.084 1051.37 293.355C1027 245.991 1004.23 203.474 964.94 166.709C802.046 14.2982 516.577 42.8882 369.695 203.551C313.646 264.87 278.401 344.887 271.068 427.657C192.383 372.34 79.5285 416.728 19.7298 480.496C-61.7143 567.307 -69.9152 706.912 1.72707 800.815C69.7386 889.956 175.572 943.727 279.825 978.612C532.066 1062.96 817.901 1061.32 1077.76 1017.28C1203.54 995.94 1331.38 965.618 1446.54 909.338C1527.82 869.621 1629.79 781.463 1648 701L1629.28 725.365Z" fill="#FFFEE9"/>
<path d="M619.255 210.48C619.255 210.48 613.12 213.587 610.913 212.439C608.705 211.29 590.006 182.204 586.881 181.803C583.756 181.402 584.954 218.86 582.527 220.637C580.1 222.415 541.413 242.134 543.765 247.405C546.114 252.661 582.467 241.324 584.065 244.003C585.662 246.682 587.975 283.365 592.446 286.074C596.916 288.769 602.018 249.427 607.189 248.305C612.36 247.183 644.778 256.639 648.839 254.842C652.899 253.045 627.648 234.565 627.318 232.134C626.988 229.703 646.238 196.492 644.916 195.846C643.595 195.2 619.257 210.494 619.257 210.494L619.255 210.48Z" stroke="#FFE33B" stroke-width="5.25" stroke-miterlimit="10"/>
<path d="M1100.77 636.469C1101.2 637.393 1112.89 638.966 1112.17 641.306C1111.45 643.646 1101.02 645.286 1100.49 647.544C1099.96 649.803 1102.41 658.053 1100.3 658.344C1098.19 658.635 1090.63 648.029 1088.41 649.043C1086.19 650.056 1075.25 655.952 1075.61 653.336C1075.97 650.712 1082.82 642.23 1081.97 640.382C1081.13 638.534 1073.12 632.817 1073.36 631.371C1073.59 629.925 1088.07 635.135 1089.03 633.808C1089.98 632.482 1093.58 622.793 1094.87 622.651C1096.15 622.509 1100.77 636.469 1100.77 636.469Z" stroke="#71BDFE" stroke-width="5.25" stroke-miterlimit="10"/>
<path d="M764.772 2085.47C765.198 2086.39 776.886 2087.97 776.168 2090.31C775.451 2092.65 765.019 2094.29 764.489 2096.54C763.958 2098.8 766.409 2107.05 764.302 2107.34C762.194 2107.63 754.632 2097.03 752.413 2098.04C750.193 2099.06 739.253 2104.95 739.612 2102.34C739.97 2099.71 746.816 2091.23 745.971 2089.38C745.127 2087.53 737.123 2081.82 737.355 2080.37C737.587 2078.93 752.069 2084.13 753.025 2082.81C753.982 2081.48 757.584 2071.79 758.869 2071.65C760.147 2071.51 764.772 2085.47 764.772 2085.47Z" stroke="#71BDFE" stroke-width="5.25" stroke-miterlimit="10"/>
<path d="M1356.95 522.452C1353.33 527.951 1348.66 534.202 1343.28 540.571C1339.24 545.368 1335.19 549.762 1331.38 553.568C1325.97 553.15 1320.82 552.222 1316.19 550.929C1309.16 548.983 1303.33 546.198 1299.8 543.107C1298.01 541.548 1289.25 529.033 1302.3 522.233C1315.35 515.406 1330.16 526.343 1330.16 526.343C1330.16 526.343 1333.6 506.922 1343.96 505.159C1348.29 504.427 1351.28 506.196 1353.25 508.504C1354.67 510.143 1355.57 512.058 1356.06 513.527C1356.78 515.686 1357.08 518.843 1356.96 522.462L1356.95 522.452Z" stroke="#908EEB" stroke-width="5.25" stroke-linecap="round" stroke-linejoin="round"/>
<path d="M1343.3 553.678C1339.28 553.946 1335.28 553.897 1331.39 553.563C1335.19 549.762 1339.25 545.363 1343.29 540.566C1348.66 534.197 1353.33 527.946 1356.96 522.447C1356.63 535.044 1351.54 553.129 1343.31 553.673L1343.3 553.678Z" stroke="#908EEB" stroke-width="5.25" stroke-linecap="round" stroke-linejoin="round"/>
<path d="M1316.19 550.929C1320.82 552.222 1325.98 553.15 1331.38 553.568C1321.15 563.816 1312.61 569.709 1310.2 567.688C1308.27 566.035 1310.76 559.57 1316.19 550.929Z" stroke="#908EEB" stroke-width="5.25" stroke-linecap="round" stroke-linejoin="round"/>
<path d="M1356.95 522.452C1357.08 518.838 1356.77 515.675 1356.06 513.517C1355.57 512.047 1354.67 510.132 1353.24 508.493C1358.75 504.096 1362.87 502.081 1364.43 503.395C1366.53 505.185 1363.4 512.64 1356.95 522.451L1356.95 522.452Z" stroke="#908EEB" stroke-width="5.25" stroke-linecap="round" stroke-linejoin="round"/>
<path d="M150.463 2024.37C146.835 2029.87 142.168 2036.12 136.794 2042.49C132.75 2047.29 128.698 2051.68 124.891 2055.49C119.483 2055.07 114.325 2054.14 109.699 2052.85C102.67 2050.9 96.8434 2048.12 93.3072 2045.03C91.5218 2043.47 82.7616 2030.95 95.8144 2024.15C108.864 2017.33 123.671 2028.26 123.671 2028.26C123.671 2028.26 127.11 2008.84 137.47 2007.08C141.799 2006.35 144.791 2008.12 146.759 2010.42C148.184 2012.06 149.084 2013.98 149.571 2015.45C150.287 2017.61 150.589 2020.76 150.467 2024.38L150.463 2024.37Z" stroke="#908EEB" stroke-width="5.25" stroke-linecap="round" stroke-linejoin="round"/>
<path d="M136.81 2055.6C132.79 2055.87 128.791 2055.82 124.896 2055.48C128.698 2051.68 132.756 2047.28 136.8 2042.49C142.174 2036.12 146.84 2029.87 150.468 2024.37C150.139 2036.96 145.045 2055.05 136.816 2055.59L136.81 2055.6Z" stroke="#908EEB" stroke-width="5.25" stroke-linecap="round" stroke-linejoin="round"/>
<path d="M109.699 2052.85C114.326 2054.14 119.489 2055.07 124.891 2055.49C114.656 2065.74 106.117 2071.63 103.706 2069.61C101.776 2067.95 104.271 2061.49 109.699 2052.85Z" stroke="#908EEB" stroke-width="5.25" stroke-linecap="round" stroke-linejoin="round"/>
<path d="M150.463 2024.37C150.589 2020.76 150.282 2017.59 149.566 2015.44C149.079 2013.97 148.179 2012.05 146.754 2010.41C152.262 2006.02 156.383 2004 157.935 2005.31C160.044 2007.11 156.911 2014.56 150.457 2024.37L150.463 2024.37Z" stroke="#908EEB" stroke-width="5.25" stroke-linecap="round" stroke-linejoin="round"/>
<path d="M145.417 653.567C144.231 656.821 104.779 648.372 109.315 637.776C111.325 633.087 111.726 629.174 112.83 623.537C113.566 619.779 87.6849 608.315 94.0972 604.301C95.7828 603.252 102.825 603.663 119.665 609.55C131.375 613.638 132.404 613.651 132.35 617.432C132.286 622.176 129.744 628.901 127.552 635.139C125.934 639.75 146.38 650.918 145.417 653.567Z" stroke="#71BDFE" stroke-width="5.25" stroke-miterlimit="10"/>
<path d="M1292.02 988.517C1290.83 991.771 1251.38 983.322 1255.91 972.726C1257.93 968.037 1258.33 964.124 1259.43 958.487C1260.17 954.729 1234.29 943.265 1240.7 939.252C1242.38 938.202 1249.43 938.613 1266.27 944.5C1277.98 948.588 1279 948.601 1278.95 952.383C1278.89 957.126 1276.34 963.851 1274.15 970.089C1272.53 974.7 1292.98 985.868 1292.02 988.517Z" stroke="#71BDFE" stroke-width="5.25" stroke-miterlimit="10"/>
<path d="M887.673 301.35C876.35 300.897 866.791 293.699 864.092 283.967C860.541 271.183 870.431 259.855 879.099 255.351C880.891 254.423 891.694 248.809 901.877 254.55C907.226 257.564 913.587 264.376 912.597 273.269C911.613 282.118 903.824 288.841 895.444 289.581C888.862 290.161 879.713 287.246 877.224 279.419C875.315 273.424 877.511 265.199 883.922 262.301C890.4 259.375 899.244 262.753 900.804 268.185C901.789 271.608 900.218 277.023 896.517 277.812C893.934 278.364 890.792 276.559 889.011 273.264" stroke="#FE8961" stroke-width="5.25" stroke-linecap="round" stroke-linejoin="round"/>
<path d="M232.473 1023.75C221.15 1023.3 211.592 1016.1 208.892 1006.37C205.341 993.582 215.231 982.255 223.899 977.751C225.691 976.823 236.494 971.209 246.678 976.95C252.027 979.964 258.388 986.776 257.398 995.669C256.413 1004.52 248.625 1011.24 240.245 1011.98C233.662 1012.56 224.513 1009.65 222.024 1001.82C220.116 995.824 222.311 987.599 228.722 984.701C235.2 981.775 244.045 985.153 245.605 990.585C246.589 994.007 245.018 999.423 241.318 1000.21C238.734 1000.76 235.593 998.959 233.811 995.663" stroke="#FE8961" stroke-width="5.25" stroke-linecap="round" stroke-linejoin="round"/>
<path d="M1376.97 2064.3C1365.65 2063.85 1356.09 2056.65 1353.39 2046.92C1349.84 2034.13 1359.73 2022.81 1368.4 2018.3C1370.19 2017.37 1380.99 2011.76 1391.18 2017.5C1396.53 2020.51 1402.89 2027.33 1401.9 2036.22C1400.91 2045.07 1393.12 2051.79 1384.74 2052.53C1378.16 2053.11 1369.01 2050.2 1366.52 2042.37C1364.62 2036.37 1366.81 2028.15 1373.22 2025.25C1379.7 2022.33 1388.54 2025.7 1390.1 2031.14C1391.09 2034.56 1389.52 2039.97 1385.82 2040.76C1383.23 2041.31 1380.09 2039.51 1378.31 2036.21" stroke="#FE8961" stroke-width="5.25" stroke-linecap="round" stroke-linejoin="round"/>
<rect x="40" y="1848" width="1362" height="349" fill="#FFFEE9"/>
<rect x="3020" y="643" width="1512" height="1606" fill="#FFFEE9"/>
<path d="M4645.28 725.365C4654.63 684.08 4638.88 585.336 4602.5 538C4556 477.5 4501.5 495.5 4481.1 512.665C4495.37 372.295 4383.48 255.921 4247.09 244.723C4183.97 239.561 4119.23 257.084 4067.37 293.355C4043 245.991 4020.23 203.474 3980.94 166.709C3818.05 14.2982 3532.58 42.8882 3385.7 203.551C3329.65 264.87 3294.4 344.887 3287.07 427.657C3208.38 372.34 3095.53 416.728 3035.73 480.496C2954.29 567.307 2946.08 706.912 3017.73 800.815C3085.74 889.956 3191.57 943.727 3295.83 978.612C3548.07 1062.96 3833.9 1061.32 4093.76 1017.28C4219.54 995.94 4347.38 965.618 4462.54 909.338C4543.82 869.621 4645.79 781.463 4664 701L4645.28 725.365Z" fill="#FFFEE9"/>
<path d="M3643.26 210.48C3643.26 210.48 3637.12 213.587 3634.91 212.439C3632.71 211.29 3614.01 182.204 3610.88 181.803C3607.76 181.402 3608.95 218.86 3606.53 220.637C3604.1 222.415 3565.41 242.134 3567.76 247.405C3570.11 252.661 3606.47 241.324 3608.06 244.003C3609.66 246.682 3611.98 283.365 3616.45 286.074C3620.92 288.769 3626.02 249.427 3631.19 248.305C3636.36 247.183 3668.78 256.639 3672.84 254.842C3676.9 253.045 3651.65 234.565 3651.32 232.134C3650.99 229.703 3670.24 196.492 3668.92 195.846C3667.59 195.2 3643.26 210.494 3643.26 210.494L3643.26 210.48Z" stroke="#FFE33B" stroke-width="5.25" stroke-miterlimit="10"/>
<path d="M4124.77 636.469C4125.2 637.393 4136.89 638.966 4136.17 641.306C4135.45 643.646 4125.02 645.286 4124.49 647.544C4123.96 649.803 4126.41 658.053 4124.3 658.344C4122.19 658.635 4114.63 648.029 4112.41 649.043C4110.19 650.056 4099.25 655.952 4099.61 653.336C4099.97 650.712 4106.82 642.23 4105.97 640.382C4105.13 638.534 4097.12 632.817 4097.36 631.371C4097.59 629.925 4112.07 635.135 4113.03 633.808C4113.98 632.482 4117.58 622.793 4118.87 622.651C4120.15 622.509 4124.77 636.469 4124.77 636.469Z" stroke="#71BDFE" stroke-width="5.25" stroke-miterlimit="10"/>
<path d="M3788.77 2085.47C3789.2 2086.39 3800.89 2087.97 3800.17 2090.31C3799.45 2092.65 3789.02 2094.29 3788.49 2096.54C3787.96 2098.8 3790.41 2107.05 3788.3 2107.34C3786.19 2107.63 3778.63 2097.03 3776.41 2098.04C3774.19 2099.06 3763.25 2104.95 3763.61 2102.34C3763.97 2099.71 3770.82 2091.23 3769.97 2089.38C3769.13 2087.53 3761.12 2081.82 3761.36 2080.37C3761.59 2078.93 3776.07 2084.13 3777.03 2082.81C3777.98 2081.48 3781.58 2071.79 3782.87 2071.65C3784.15 2071.51 3788.77 2085.47 3788.77 2085.47Z" stroke="#71BDFE" stroke-width="5.25" stroke-miterlimit="10"/>
<path d="M4380.95 522.452C4377.33 527.951 4372.66 534.202 4367.28 540.571C4363.24 545.368 4359.19 549.762 4355.38 553.568C4349.97 553.15 4344.82 552.222 4340.19 550.929C4333.16 548.983 4327.33 546.198 4323.8 543.107C4322.01 541.548 4313.25 529.033 4326.3 522.233C4339.35 515.406 4354.16 526.343 4354.16 526.343C4354.16 526.343 4357.6 506.922 4367.96 505.159C4372.29 504.427 4375.28 506.196 4377.25 508.504C4378.67 510.143 4379.57 512.058 4380.06 513.527C4380.78 515.686 4381.08 518.843 4380.96 522.462L4380.95 522.452Z" stroke="#908EEB" stroke-width="5.25" stroke-linecap="round" stroke-linejoin="round"/>
<path d="M4367.3 553.678C4363.28 553.946 4359.28 553.897 4355.39 553.563C4359.19 549.762 4363.25 545.363 4367.29 540.566C4372.66 534.197 4377.33 527.946 4380.96 522.447C4380.63 535.044 4375.54 553.129 4367.31 553.673L4367.3 553.678Z" stroke="#908EEB" stroke-width="5.25" stroke-linecap="round" stroke-linejoin="round"/>
<path d="M4340.19 550.929C4344.82 552.222 4349.98 553.15 4355.38 553.568C4345.15 563.816 4336.61 569.709 4334.2 567.688C4332.27 566.035 4334.76 559.57 4340.19 550.929Z" stroke="#908EEB" stroke-width="5.25" stroke-linecap="round" stroke-linejoin="round"/>
<path d="M4380.95 522.452C4381.08 518.838 4380.77 515.675 4380.06 513.517C4379.57 512.047 4378.67 510.132 4377.24 508.493C4382.75 504.096 4386.87 502.081 4388.43 503.395C4390.53 505.185 4387.4 512.64 4380.95 522.451L4380.95 522.452Z" stroke="#908EEB" stroke-width="5.25" stroke-linecap="round" stroke-linejoin="round"/>
<path d="M3174.46 2024.37C3170.83 2029.87 3166.17 2036.12 3160.79 2042.49C3156.75 2047.29 3152.7 2051.68 3148.89 2055.49C3143.48 2055.07 3138.33 2054.14 3133.7 2052.85C3126.67 2050.9 3120.84 2048.12 3117.31 2045.03C3115.52 2043.47 3106.76 2030.95 3119.81 2024.15C3132.86 2017.33 3147.67 2028.26 3147.67 2028.26C3147.67 2028.26 3151.11 2008.84 3161.47 2007.08C3165.8 2006.35 3168.79 2008.12 3170.76 2010.42C3172.18 2012.06 3173.08 2013.98 3173.57 2015.45C3174.29 2017.61 3174.59 2020.76 3174.47 2024.38L3174.46 2024.37Z" stroke="#908EEB" stroke-width="5.25" stroke-linecap="round" stroke-linejoin="round"/>
<path d="M3160.81 2055.6C3156.79 2055.87 3152.79 2055.82 3148.9 2055.48C3152.7 2051.68 3156.76 2047.28 3160.8 2042.49C3166.17 2036.12 3170.84 2029.87 3174.47 2024.37C3174.14 2036.96 3169.05 2055.05 3160.82 2055.59L3160.81 2055.6Z" stroke="#908EEB" stroke-width="5.25" stroke-linecap="round" stroke-linejoin="round"/>
<path d="M3133.7 2052.85C3138.33 2054.14 3143.49 2055.07 3148.89 2055.49C3138.66 2065.74 3130.12 2071.63 3127.71 2069.61C3125.78 2067.95 3128.27 2061.49 3133.7 2052.85Z" stroke="#908EEB" stroke-width="5.25" stroke-linecap="round" stroke-linejoin="round"/>
<path d="M3174.46 2024.37C3174.59 2020.76 3174.28 2017.59 3173.57 2015.44C3173.08 2013.97 3172.18 2012.05 3170.75 2010.41C3176.26 2006.02 3180.38 2004 3181.94 2005.31C3184.04 2007.11 3180.91 2014.56 3174.46 2024.37L3174.46 2024.37Z" stroke="#908EEB" stroke-width="5.25" stroke-linecap="round" stroke-linejoin="round"/>
<path d="M3187.42 653.567C3186.23 656.821 3146.78 648.372 3151.31 637.776C3153.33 633.087 3153.73 629.174 3154.83 623.537C3155.57 619.779 3129.68 608.315 3136.1 604.301C3137.78 603.252 3144.83 603.663 3161.67 609.55C3173.38 613.638 3174.4 613.651 3174.35 617.432C3174.29 622.176 3171.74 628.901 3169.55 635.139C3167.93 639.75 3188.38 650.918 3187.42 653.567Z" stroke="#71BDFE" stroke-width="5.25" stroke-miterlimit="10"/>
<path d="M4316.02 988.517C4314.83 991.771 4275.38 983.322 4279.91 972.726C4281.93 968.037 4282.33 964.124 4283.43 958.487C4284.17 954.729 4258.29 943.265 4264.7 939.252C4266.38 938.202 4273.43 938.613 4290.27 944.5C4301.98 948.588 4303 948.601 4302.95 952.383C4302.89 957.126 4300.34 963.851 4298.15 970.089C4296.53 974.7 4316.98 985.868 4316.02 988.517Z" stroke="#71BDFE" stroke-width="5.25" stroke-miterlimit="10"/>
<path d="M3911.67 301.35C3900.35 300.897 3890.79 293.699 3888.09 283.967C3884.54 271.183 3894.43 259.855 3903.1 255.351C3904.89 254.423 3915.69 248.809 3925.88 254.55C3931.23 257.564 3937.59 264.376 3936.6 273.269C3935.61 282.118 3927.82 288.841 3919.44 289.581C3912.86 290.161 3903.71 287.246 3901.22 279.419C3899.32 273.424 3901.51 265.199 3907.92 262.301C3914.4 259.375 3923.24 262.753 3924.8 268.185C3925.79 271.608 3924.22 277.023 3920.52 277.812C3917.93 278.364 3914.79 276.559 3913.01 273.264" stroke="#FE8961" stroke-width="5.25" stroke-linecap="round" stroke-linejoin="round"/>
<path d="M3256.47 1023.75C3245.15 1023.3 3235.59 1016.1 3232.89 1006.37C3229.34 993.582 3239.23 982.255 3247.9 977.751C3249.69 976.823 3260.49 971.209 3270.68 976.95C3276.03 979.964 3282.39 986.776 3281.4 995.669C3280.41 1004.52 3272.62 1011.24 3264.24 1011.98C3257.66 1012.56 3248.51 1009.65 3246.02 1001.82C3244.12 995.824 3246.31 987.599 3252.72 984.701C3259.2 981.775 3268.04 985.153 3269.6 990.585C3270.59 994.007 3269.02 999.423 3265.32 1000.21C3262.73 1000.76 3259.59 998.959 3257.81 995.663" stroke="#FE8961" stroke-width="5.25" stroke-linecap="round" stroke-linejoin="round"/>
<path d="M4400.97 2064.3C4389.65 2063.85 4380.09 2056.65 4377.39 2046.92C4373.84 2034.13 4383.73 2022.81 4392.4 2018.3C4394.19 2017.37 4404.99 2011.76 4415.18 2017.5C4420.53 2020.51 4426.89 2027.33 4425.9 2036.22C4424.91 2045.07 4417.12 2051.79 4408.74 2052.53C4402.16 2053.11 4393.01 2050.2 4390.52 2042.37C4388.62 2036.37 4390.81 2028.15 4397.22 2025.25C4403.7 2022.33 4412.54 2025.7 4414.1 2031.14C4415.09 2034.56 4413.52 2039.97 4409.82 2040.76C4407.23 2041.31 4404.09 2039.51 4402.31 2036.21" stroke="#FE8961" stroke-width="5.25" stroke-linecap="round" stroke-linejoin="round"/>
<rect x="3080" y="1855" width="1362" height="349" fill="#FFFEE9"/>
<rect x="1512" y="643" width="1512" height="1606" fill="#FFFEE9"/>
<path d="M3137.28 725.365C3146.63 684.08 3130.88 585.336 3094.5 538C3048 477.5 2993.5 495.5 2973.1 512.665C2987.37 372.295 2875.48 255.921 2739.09 244.723C2675.97 239.561 2611.23 257.084 2559.37 293.355C2535 245.991 2512.23 203.474 2472.94 166.709C2310.05 14.2982 2024.58 42.8882 1877.7 203.551C1821.65 264.87 1786.4 344.887 1779.07 427.657C1700.38 372.34 1587.53 416.728 1527.73 480.496C1446.29 567.307 1438.08 706.912 1509.73 800.815C1577.74 889.956 1683.57 943.727 1787.83 978.612C2040.07 1062.96 2325.9 1061.32 2585.76 1017.28C2711.54 995.94 2839.38 965.618 2954.54 909.338C3035.82 869.621 3137.79 781.463 3156 701L3137.28 725.365Z" fill="#FFFEE9"/>
<path d="M2131.26 210.48C2131.26 210.48 2125.12 213.587 2122.91 212.439C2120.71 211.29 2102.01 182.204 2098.88 181.803C2095.76 181.402 2096.95 218.86 2094.53 220.637C2092.1 222.415 2053.41 242.134 2055.76 247.405C2058.11 252.661 2094.47 241.324 2096.06 244.003C2097.66 246.682 2099.98 283.365 2104.45 286.074C2108.92 288.769 2114.02 249.427 2119.19 248.305C2124.36 247.183 2156.78 256.639 2160.84 254.842C2164.9 253.045 2139.65 234.565 2139.32 232.134C2138.99 229.703 2158.24 196.492 2156.92 195.846C2155.59 195.2 2131.26 210.494 2131.26 210.494L2131.26 210.48Z" stroke="#FFE33B" stroke-width="5.25" stroke-miterlimit="10"/>
<path d="M2612.77 636.469C2613.2 637.393 2624.89 638.966 2624.17 641.306C2623.45 643.646 2613.02 645.286 2612.49 647.544C2611.96 649.803 2614.41 658.053 2612.3 658.344C2610.19 658.635 2602.63 648.029 2600.41 649.043C2598.19 650.056 2587.25 655.952 2587.61 653.336C2587.97 650.712 2594.82 642.23 2593.97 640.382C2593.13 638.534 2585.12 632.817 2585.36 631.371C2585.59 629.925 2600.07 635.135 2601.03 633.808C2601.98 632.482 2605.58 622.793 2606.87 622.651C2608.15 622.509 2612.77 636.469 2612.77 636.469Z" stroke="#71BDFE" stroke-width="5.25" stroke-miterlimit="10"/>
<path d="M2276.77 2085.47C2277.2 2086.39 2288.89 2087.97 2288.17 2090.31C2287.45 2092.65 2277.02 2094.29 2276.49 2096.54C2275.96 2098.8 2278.41 2107.05 2276.3 2107.34C2274.19 2107.63 2266.63 2097.03 2264.41 2098.04C2262.19 2099.06 2251.25 2104.95 2251.61 2102.34C2251.97 2099.71 2258.82 2091.23 2257.97 2089.38C2257.13 2087.53 2249.12 2081.82 2249.36 2080.37C2249.59 2078.93 2264.07 2084.13 2265.03 2082.81C2265.98 2081.48 2269.58 2071.79 2270.87 2071.65C2272.15 2071.51 2276.77 2085.47 2276.77 2085.47Z" stroke="#71BDFE" stroke-width="5.25" stroke-miterlimit="10"/>
<path d="M2868.95 522.452C2865.33 527.951 2860.66 534.202 2855.28 540.571C2851.24 545.368 2847.19 549.762 2843.38 553.568C2837.97 553.15 2832.82 552.222 2828.19 550.929C2821.16 548.984 2815.33 546.198 2811.8 543.107C2810.01 541.548 2801.25 529.033 2814.3 522.233C2827.35 515.407 2842.16 526.343 2842.16 526.343C2842.16 526.343 2845.6 506.922 2855.96 505.159C2860.29 504.427 2863.28 506.196 2865.25 508.504C2866.67 510.143 2867.57 512.058 2868.06 513.528C2868.78 515.686 2869.08 518.844 2868.96 522.463L2868.95 522.452Z" stroke="#908EEB" stroke-width="5.25" stroke-linecap="round" stroke-linejoin="round"/>
<path d="M2855.3 553.678C2851.28 553.946 2847.28 553.897 2843.39 553.563C2847.19 549.762 2851.25 545.363 2855.29 540.566C2860.66 534.197 2865.33 527.946 2868.96 522.447C2868.63 535.044 2863.54 553.129 2855.31 553.673L2855.3 553.678Z" stroke="#908EEB" stroke-width="5.25" stroke-linecap="round" stroke-linejoin="round"/>
<path d="M2828.19 550.929C2832.82 552.222 2837.98 553.15 2843.38 553.568C2833.15 563.816 2824.61 569.709 2822.2 567.688C2820.27 566.035 2822.76 559.57 2828.19 550.929Z" stroke="#908EEB" stroke-width="5.25" stroke-linecap="round" stroke-linejoin="round"/>
<path d="M2868.95 522.452C2869.08 518.839 2868.77 515.675 2868.06 513.517C2867.57 512.048 2866.67 510.132 2865.24 508.493C2870.75 504.096 2874.87 502.081 2876.43 503.395C2878.53 505.186 2875.4 512.64 2868.95 522.451L2868.95 522.452Z" stroke="#908EEB" stroke-width="5.25" stroke-linecap="round" stroke-linejoin="round"/>
<path d="M1662.46 2024.37C1658.83 2029.87 1654.17 2036.12 1648.79 2042.49C1644.75 2047.29 1640.7 2051.68 1636.89 2055.49C1631.48 2055.07 1626.33 2054.14 1621.7 2052.85C1614.67 2050.9 1608.84 2048.12 1605.31 2045.03C1603.52 2043.47 1594.76 2030.95 1607.81 2024.15C1620.86 2017.33 1635.67 2028.26 1635.67 2028.26C1635.67 2028.26 1639.11 2008.84 1649.47 2007.08C1653.8 2006.35 1656.79 2008.12 1658.76 2010.42C1660.18 2012.06 1661.08 2013.98 1661.57 2015.45C1662.29 2017.61 1662.59 2020.76 1662.47 2024.38L1662.46 2024.37Z" stroke="#908EEB" stroke-width="5.25" stroke-linecap="round" stroke-linejoin="round"/>
<path d="M1648.81 2055.6C1644.79 2055.87 1640.79 2055.82 1636.9 2055.48C1640.7 2051.68 1644.76 2047.28 1648.8 2042.49C1654.17 2036.12 1658.84 2029.87 1662.47 2024.37C1662.14 2036.96 1657.05 2055.05 1648.82 2055.59L1648.81 2055.6Z" stroke="#908EEB" stroke-width="5.25" stroke-linecap="round" stroke-linejoin="round"/>
<path d="M1621.7 2052.85C1626.33 2054.14 1631.49 2055.07 1636.89 2055.49C1626.66 2065.74 1618.12 2071.63 1615.71 2069.61C1613.78 2067.95 1616.27 2061.49 1621.7 2052.85Z" stroke="#908EEB" stroke-width="5.25" stroke-linecap="round" stroke-linejoin="round"/>
<path d="M1662.46 2024.37C1662.59 2020.76 1662.28 2017.59 1661.57 2015.44C1661.08 2013.97 1660.18 2012.05 1658.75 2010.41C1664.26 2006.02 1668.38 2004 1669.94 2005.31C1672.04 2007.11 1668.91 2014.56 1662.46 2024.37L1662.46 2024.37Z" stroke="#908EEB" stroke-width="5.25" stroke-linecap="round" stroke-linejoin="round"/>
<path d="M1657.42 653.567C1656.23 656.821 1616.78 648.372 1621.31 637.776C1623.33 633.087 1623.73 629.174 1624.83 623.537C1625.57 619.779 1599.68 608.315 1606.1 604.301C1607.78 603.252 1614.83 603.663 1631.67 609.55C1643.38 613.638 1644.4 613.651 1644.35 617.432C1644.29 622.176 1641.74 628.901 1639.55 635.139C1637.93 639.75 1658.38 650.918 1657.42 653.567Z" stroke="#71BDFE" stroke-width="5.25" stroke-miterlimit="10"/>
<path d="M2804.02 988.517C2802.83 991.771 2763.38 983.322 2767.91 972.726C2769.93 968.037 2770.33 964.124 2771.43 958.487C2772.17 954.729 2746.29 943.265 2752.7 939.252C2754.38 938.202 2761.43 938.613 2778.27 944.5C2789.98 948.588 2791 948.601 2790.95 952.383C2790.89 957.126 2788.34 963.851 2786.15 970.089C2784.53 974.7 2804.98 985.868 2804.02 988.517Z" stroke="#71BDFE" stroke-width="5.25" stroke-miterlimit="10"/>
<path d="M2399.67 301.35C2388.35 300.897 2378.79 293.699 2376.09 283.967C2372.54 271.183 2382.43 259.855 2391.1 255.351C2392.89 254.423 2403.69 248.809 2413.88 254.55C2419.23 257.564 2425.59 264.376 2424.6 273.269C2423.61 282.118 2415.82 288.841 2407.44 289.581C2400.86 290.161 2391.71 287.246 2389.22 279.419C2387.32 273.424 2389.51 265.199 2395.92 262.301C2402.4 259.375 2411.24 262.753 2412.8 268.185C2413.79 271.608 2412.22 277.023 2408.52 277.812C2405.93 278.364 2402.79 276.559 2401.01 273.264" stroke="#FE8961" stroke-width="5.25" stroke-linecap="round" stroke-linejoin="round"/>
<path d="M1744.47 1023.75C1733.15 1023.3 1723.59 1016.1 1720.89 1006.37C1717.34 993.582 1727.23 982.255 1735.9 977.751C1737.69 976.823 1748.49 971.209 1758.68 976.95C1764.03 979.964 1770.39 986.776 1769.4 995.669C1768.41 1004.52 1760.62 1011.24 1752.24 1011.98C1745.66 1012.56 1736.51 1009.65 1734.02 1001.82C1732.12 995.824 1734.31 987.599 1740.72 984.701C1747.2 981.775 1756.04 985.153 1757.6 990.585C1758.59 994.007 1757.02 999.423 1753.32 1000.21C1750.73 1000.76 1747.59 998.959 1745.81 995.663" stroke="#FE8961" stroke-width="5.25" stroke-linecap="round" stroke-linejoin="round"/>
<path d="M2888.97 2064.3C2877.65 2063.85 2868.09 2056.65 2865.39 2046.92C2861.84 2034.13 2871.73 2022.81 2880.4 2018.3C2882.19 2017.37 2892.99 2011.76 2903.18 2017.5C2908.53 2020.51 2914.89 2027.33 2913.9 2036.22C2912.91 2045.07 2905.12 2051.79 2896.74 2052.53C2890.16 2053.11 2881.01 2050.2 2878.52 2042.37C2876.62 2036.37 2878.81 2028.15 2885.22 2025.25C2891.7 2022.33 2900.54 2025.7 2902.1 2031.14C2903.09 2034.56 2901.52 2039.97 2897.82 2040.76C2895.23 2041.31 2892.09 2039.51 2890.31 2036.21" stroke="#FE8961" stroke-width="5.25" stroke-linecap="round" stroke-linejoin="round"/>
<rect x="1587" y="1855" width="1362" height="349" fill="#FFFEE9"/>
</g>
<defs>
<clipPath id="clip0_232_51">
<rect width="4533" height="2249" fill="white"/>
</clipPath>
</defs>
</svg>
