<svg width="1524" height="444" viewBox="0 0 1524 444" fill="none" xmlns="http://www.w3.org/2000/svg">
<rect width="1524" height="444" fill="#5096EC"/>
<path d="M96.9984 61.1632C96.9984 61.1632 94.4271 62.4652 93.5018 61.984C92.5766 61.5028 84.7394 49.3124 83.4298 49.1443C82.1201 48.9762 82.6223 64.6752 81.605 65.4202C80.5877 66.1653 64.3736 74.43 65.3591 76.6388C66.3437 78.8416 81.5797 74.0902 82.2494 75.213C82.919 76.3359 83.8883 91.7104 85.7623 92.8457C87.6355 93.9751 89.7741 77.4866 91.9412 77.0163C94.1083 76.546 107.695 80.5089 109.397 79.7559C111.099 79.0029 100.516 71.2577 100.378 70.2387C100.239 69.2197 108.307 55.3004 107.753 55.0297C107.199 54.759 96.9992 61.1692 96.9992 61.1692L96.9984 61.1632Z" stroke="#FFF89B" stroke-width="5.25" stroke-miterlimit="10"/>
<path d="M173.86 205.5C172.78 205.2 171.91 204.93 171.25 204.69C170.59 204.51 170.26 204.42 170.26 204.42C170.38 204.12 170.32 203.85 170.08 203.61C169.9 203.37 169.48 203.22 168.82 203.16C167.92 202.62 167.08 201.93 166.3 201.09C165.58 200.31 164.98 199.53 164.5 198.75C164.02 197.97 163.66 197.31 163.42 196.77C163 195.87 162.79 195.33 162.79 195.15C162.85 194.91 163.21 194.64 163.87 194.34C164.53 193.86 165.01 193.71 165.31 193.89C165.67 194.07 166.09 194.67 166.57 195.69C167.35 197.07 168.67 198.12 170.53 198.84C172.45 199.56 174.58 199.89 176.92 199.83C179.32 199.71 181.6 199.17 183.76 198.21C185.98 197.31 187.36 196.38 187.9 195.42C188.5 194.4 188.29 193.11 187.27 191.55C187.09 191.07 186.88 190.68 186.64 190.38C186.4 190.08 186.01 189.69 185.47 189.21C184.99 188.73 184.18 187.95 183.04 186.87C182.14 186.45 181.3 186.06 180.52 185.7C179.8 185.34 179.02 184.95 178.18 184.53C177.22 184.05 176.05 183.36 174.67 182.46C173.35 181.5 172.09 180.45 170.89 179.31C169.69 178.17 168.82 177.12 168.28 176.16C167.32 175.26 166.6 174.03 166.12 172.47C165.64 170.85 165.46 169.14 165.58 167.34C165.7 165.54 166.15 163.92 166.93 162.48C167.29 161.64 167.89 160.62 168.73 159.42C169.63 158.16 170.62 156.9 171.7 155.64C172.78 154.38 173.83 153.24 174.85 152.22C175.87 151.2 176.71 150.48 177.37 150.06C177.85 149.58 178.36 149.1 178.9 148.62C179.44 148.08 179.71 147.81 179.71 147.81C179.77 147.51 179.86 147.36 179.98 147.36C180.16 147.36 180.25 147.36 180.25 147.36C180.55 147.18 181.21 146.88 182.23 146.46C183.25 146.04 184.36 145.26 185.56 144.12C189.58 142.2 192.85 140.79 195.37 139.89C197.89 138.99 199.96 138.54 201.58 138.54C203.08 138.6 204.43 138.96 205.63 139.62C206.89 140.22 207.91 141.03 208.69 142.05C209.53 143.07 210.04 144.3 210.22 145.74C210.64 147.18 210.52 148.86 209.86 150.78C209.2 152.64 208.21 154.41 206.89 156.09C205.63 157.71 204.25 158.94 202.75 159.78C201.07 160.5 199.93 160.83 199.33 160.77C198.79 160.65 198.55 160.02 198.61 158.88C198.61 158.4 198.76 157.83 199.06 157.17C199.42 156.51 200.35 155.34 201.85 153.66C203.77 150.84 204.94 148.59 205.36 146.91C205.78 145.23 205.39 144.3 204.19 144.12C203.83 144 203.17 144 202.21 144.12C201.31 144.24 200.29 144.42 199.15 144.66C198.07 144.84 197.14 145.05 196.36 145.29C195.58 145.47 195.19 145.62 195.19 145.74C195.19 145.74 195.19 145.83 195.19 146.01C195.19 146.19 195.07 146.25 194.83 146.19C194.71 146.19 194.2 146.43 193.3 146.91C192.4 147.39 191.32 148.02 190.06 148.8C188.8 149.58 187.54 150.36 186.28 151.14C185.02 151.92 183.94 152.61 183.04 153.21C182.2 153.75 181.75 154.08 181.69 154.2C181.57 154.86 180.88 155.46 179.62 156C178.42 156.72 177.31 157.77 176.29 159.15C175.33 160.53 174.25 162.24 173.05 164.28C172.03 165.66 171.31 167.16 170.89 168.78C170.47 170.34 170.47 171.6 170.89 172.56C171.19 173.52 172.12 174.75 173.68 176.25C175.24 177.75 177.19 179.19 179.53 180.57C181.57 181.71 183.4 182.85 185.02 183.99C186.64 185.07 187.96 186.12 188.98 187.14C190.06 188.16 190.78 189.06 191.14 189.84C191.86 190.86 192.37 191.91 192.67 192.99C193.03 194.01 193.21 195 193.21 195.96C193.27 196.92 193.18 197.79 192.94 198.57C192.52 199.53 191.77 200.52 190.69 201.54C189.67 202.56 188.8 203.04 188.08 202.98C187.42 203.16 186.91 203.37 186.55 203.61C186.25 203.85 185.89 204.06 185.47 204.24C185.05 204.48 184.15 204.72 182.77 204.96C181.45 205.2 179.98 205.35 178.36 205.41C176.74 205.53 175.24 205.56 173.86 205.5ZM210.837 200.37C210.177 200.25 209.487 199.92 208.767 199.38C208.107 198.78 207.507 198.12 206.967 197.4C206.487 196.62 206.157 195.93 205.977 195.33C205.977 195.21 205.887 195.06 205.707 194.88C205.587 194.7 205.527 194.61 205.527 194.61C205.287 194.43 205.137 193.65 205.077 192.27C205.077 190.83 205.167 189.24 205.347 187.5C205.527 185.76 205.737 184.38 205.977 183.36C206.277 182.4 206.727 181.11 207.327 179.49C207.927 177.81 208.437 176.31 208.857 174.99L211.287 169.77L207.687 168.78C207.267 168.66 206.907 168.42 206.607 168.06C206.367 167.7 206.247 167.4 206.247 167.16C206.247 166.68 206.517 166.11 207.057 165.45C207.597 164.73 207.987 164.37 208.227 164.37C208.527 164.43 209.067 164.46 209.847 164.46C210.687 164.46 211.497 164.43 212.277 164.37C213.057 164.31 213.537 164.25 213.717 164.19C213.957 164.07 214.197 163.92 214.437 163.74C214.677 163.5 214.857 163.17 214.977 162.75C215.277 162.09 215.547 161.49 215.787 160.95C216.027 160.35 216.357 159.69 216.777 158.97C217.197 158.19 217.527 157.53 217.767 156.99C218.067 156.45 218.517 155.7 219.117 154.74C219.417 154.32 219.747 153.81 220.107 153.21C220.467 152.61 220.917 152.1 221.457 151.68C221.997 151.2 222.537 150.99 223.077 151.05C223.677 151.05 224.427 151.44 225.327 152.22C225.807 152.82 226.077 153.27 226.137 153.57C226.197 153.87 225.957 154.44 225.417 155.28C224.937 156.3 224.367 157.32 223.707 158.34C223.107 159.36 222.537 160.38 221.997 161.4C221.037 162.72 220.857 163.47 221.457 163.65C222.057 163.83 223.737 163.71 226.497 163.29C228.237 162.99 229.497 163.08 230.277 163.56C231.057 163.98 231.507 164.7 231.627 165.72C231.807 167.16 231.657 168.03 231.177 168.33C230.697 168.63 229.317 168.78 227.037 168.78C225.597 169.02 224.367 169.17 223.347 169.23C222.327 169.23 221.577 169.23 221.097 169.23C220.317 169.29 219.807 169.32 219.567 169.32C219.327 169.32 218.967 169.38 218.487 169.5C218.007 169.62 217.647 169.83 217.407 170.13C217.227 170.37 217.017 170.73 216.777 171.21C216.537 171.45 216.177 172.08 215.697 173.1C215.217 174.12 214.617 175.23 213.897 176.43C213.057 178.95 212.337 181.47 211.737 183.99C211.137 186.45 210.657 188.85 210.297 191.19C210.057 192.69 210.087 193.74 210.387 194.34C210.687 194.88 211.467 195.21 212.727 195.33C213.387 195.39 214.437 195.39 215.877 195.33C217.377 195.21 218.547 195.03 219.387 194.79C220.047 194.49 220.737 194.19 221.457 193.89C222.177 193.53 222.837 193.17 223.437 192.81C223.977 192.51 224.517 192.21 225.057 191.91C225.597 191.55 225.867 191.37 225.867 191.37C226.167 190.89 226.497 190.74 226.857 190.92C227.217 191.1 227.517 191.55 227.757 192.27C227.757 192.99 227.607 193.74 227.307 194.52C227.007 195.3 225.897 196.23 223.977 197.31C221.277 198.99 218.787 200.01 216.507 200.37C214.287 200.67 212.397 200.67 210.837 200.37ZM232.352 197.76C232.112 197.28 231.812 196.92 231.452 196.68C231.092 196.38 230.912 196.11 230.912 195.87C230.912 195.63 230.882 195.39 230.822 195.15C230.822 194.85 230.702 194.58 230.462 194.34C230.162 193.98 230.192 193.17 230.552 191.91C230.912 190.59 231.512 189 232.352 187.14C233.192 185.22 234.182 183.21 235.322 181.11C235.802 180.63 236.282 180 236.762 179.22C237.242 178.44 237.602 177.93 237.842 177.69C237.842 177.45 237.932 177.24 238.112 177.06C238.292 176.82 238.502 176.7 238.742 176.7V176.16C238.742 175.86 239.012 175.35 239.552 174.63C240.152 173.91 240.872 173.13 241.712 172.29C242.552 171.39 243.422 170.55 244.322 169.77C245.222 168.93 245.972 168.33 246.572 167.97C247.832 167.13 249.122 166.62 250.442 166.44C251.822 166.26 252.992 166.56 253.952 167.34C254.132 167.52 254.432 167.82 254.852 168.24C255.272 168.66 255.752 169.14 256.292 169.68C256.892 170.16 257.492 170.67 258.092 171.21L261.422 174.18L259.802 178.68C259.022 181.08 258.812 183.18 259.172 184.98C259.592 186.78 260.192 188.34 260.972 189.66C261.272 190.32 261.872 190.95 262.772 191.55C263.732 192.15 264.632 192.51 265.472 192.63C265.952 192.69 266.402 192.87 266.822 193.17C267.242 193.47 267.452 193.95 267.452 194.61C267.452 195.21 267.332 195.69 267.092 196.05C266.852 196.41 266.432 196.65 265.832 196.77C263.852 197.01 261.992 196.53 260.252 195.33C258.572 194.13 257.012 192.15 255.572 189.39C255.332 189.03 255.002 188.37 254.582 187.41C254.222 186.39 254.012 185.73 253.952 185.43C253.712 185.73 253.262 186.3 252.602 187.14C251.942 187.92 251.432 188.49 251.072 188.85C246.812 193.17 243.122 196.08 240.002 197.58C236.942 199.02 234.392 199.08 232.352 197.76ZM235.592 192.72C235.592 193.14 236.222 193.14 237.482 192.72C238.802 192.24 240.212 191.4 241.712 190.2C243.752 188.46 245.792 186.54 247.832 184.44C249.932 182.34 251.612 180.39 252.872 178.59L254.852 175.35C254.252 173.97 253.592 173.04 252.872 172.56C252.212 172.02 251.642 171.75 251.162 171.75C250.382 171.75 249.212 172.47 247.652 173.91C246.152 175.35 244.532 177.27 242.792 179.67C241.052 182.07 239.402 184.71 237.842 187.59C237.242 188.79 236.702 189.96 236.222 191.1C235.802 192.18 235.592 192.72 235.592 192.72ZM267.769 222.69C266.449 222.93 265.549 222.96 265.069 222.78C264.589 222.6 263.929 222.3 263.089 221.88C262.429 221.4 261.919 221.04 261.559 220.8C261.199 220.56 261.019 220.32 261.019 220.08C261.019 219.9 261.079 219.69 261.199 219.45C261.319 219.27 261.529 219.09 261.829 218.91C262.189 218.79 262.669 218.73 263.269 218.73C263.689 218.97 264.379 219.09 265.339 219.09C266.359 219.09 266.989 218.97 267.229 218.73C267.229 218.73 267.499 218.55 268.039 218.19C268.639 217.89 269.419 217.65 270.379 217.47C272.239 216.57 273.889 215.43 275.329 214.05C276.769 212.67 278.149 210.87 279.469 208.65C280.009 207.81 280.579 206.82 281.179 205.68C281.779 204.6 282.199 203.52 282.439 202.44C282.919 201.24 283.459 199.62 284.059 197.58C284.719 195.54 285.289 193.53 285.769 191.55C286.249 189.51 286.519 187.98 286.579 186.96C286.939 183.6 287.509 180.51 288.289 177.69C289.129 174.81 289.849 171.6 290.449 168.06C290.809 167.22 291.079 166.74 291.259 166.62C291.439 166.44 291.829 166.35 292.429 166.35C293.089 166.35 293.569 166.41 293.869 166.53C294.229 166.59 294.619 166.95 295.039 167.61C295.639 168.75 295.849 170.1 295.669 171.66C295.549 173.16 295.099 174.48 294.319 175.62C293.719 176.46 293.179 177.78 292.699 179.58C292.279 181.32 291.859 183.51 291.439 186.15C291.139 187.47 290.809 189.03 290.449 190.83C290.149 192.57 289.819 194.52 289.459 196.68C289.219 197.28 288.889 198.21 288.469 199.47C288.049 200.67 287.779 201.63 287.659 202.35C287.599 202.59 287.419 203.07 287.119 203.79C286.819 204.51 286.519 205.2 286.219 205.86C285.919 206.58 285.709 207.06 285.589 207.3C283.249 212.16 280.579 215.88 277.579 218.46C274.579 221.04 271.309 222.45 267.769 222.69ZM274.609 196.59C273.949 196.59 273.259 196.23 272.539 195.51C271.879 194.79 271.429 194.22 271.189 193.8C270.949 193.2 270.649 192.63 270.289 192.09C269.929 191.55 269.659 190.89 269.479 190.11C269.359 189.33 269.419 188.37 269.659 187.23C269.899 186.45 270.229 185.34 270.649 183.9C271.129 182.4 271.639 180.78 272.179 179.04C272.779 177.3 273.379 175.59 273.979 173.91C274.639 172.17 275.239 170.64 275.779 169.32C276.319 167.94 276.799 166.95 277.219 166.35C277.579 165.87 277.969 165.57 278.389 165.45C278.869 165.33 279.349 165.39 279.829 165.63C280.309 165.81 280.729 166.2 281.089 166.8C281.749 167.64 282.019 168.36 281.899 168.96C281.779 169.56 281.239 170.73 280.279 172.47C280.039 173.13 279.739 173.85 279.379 174.63C279.019 175.35 278.839 175.83 278.839 176.07C278.779 176.19 278.659 176.61 278.479 177.33C278.359 177.99 278.209 178.62 278.029 179.22C277.849 179.82 277.669 180.12 277.489 180.12C277.249 180.36 276.979 181.05 276.679 182.19C276.379 183.27 276.109 184.5 275.869 185.88C275.629 187.2 275.479 188.37 275.419 189.39C275.359 190.35 275.449 190.83 275.689 190.83C277.549 190.83 279.469 190.11 281.449 188.67C283.489 187.23 285.529 185.13 287.569 182.37L289.099 188.76C288.259 189.18 287.479 189.63 286.759 190.11C286.039 190.53 285.379 191.04 284.779 191.64C284.599 191.88 284.179 192.21 283.519 192.63C282.859 193.05 282.199 193.44 281.539 193.8C280.939 194.1 280.549 194.25 280.369 194.25C280.369 194.25 280.279 194.28 280.099 194.34C279.979 194.34 279.919 194.46 279.919 194.7C279.919 194.82 279.529 195.06 278.749 195.42C277.969 195.72 277.159 195.99 276.319 196.23C275.479 196.47 274.909 196.59 274.609 196.59ZM326.18 205.5C324.2 205.2 322.85 204.45 322.13 203.25C321.47 202.11 321.32 200.34 321.68 197.94C322.04 196.8 322.25 195.78 322.31 194.88C322.43 193.92 322.7 193.32 323.12 193.08C323.12 193.08 323.15 192.99 323.21 192.81C323.33 192.63 323.3 192.45 323.12 192.27C323.12 191.49 323.39 190.41 323.93 189.03C324.05 188.67 324.2 188.25 324.38 187.77C324.62 187.23 324.74 186.96 324.74 186.96C324.44 186.48 324.44 186.09 324.74 185.79C325.04 185.49 325.34 185.22 325.64 184.98C326 184.68 326.03 184.35 325.73 183.99C325.61 183.75 325.76 183.21 326.18 182.37C326.6 181.47 327.08 180.54 327.62 179.58C328.16 178.62 328.52 177.87 328.7 177.33C328.7 177.21 328.85 176.79 329.15 176.07C329.45 175.35 329.81 174.51 330.23 173.55C330.65 172.59 331.04 171.72 331.4 170.94C331.82 170.16 332.09 169.65 332.21 169.41C332.81 169.11 332.57 168.9 331.49 168.78C330.41 168.66 329.27 168.63 328.07 168.69C326.21 168.63 324.71 168.54 323.57 168.42C322.49 168.3 321.59 168.03 320.87 167.61C320.15 166.77 319.88 166.17 320.06 165.81C320.3 165.39 321.02 165.15 322.22 165.09C323 165.03 323.6 165 324.02 165C324.5 165 325.1 164.97 325.82 164.91C326.6 164.79 327.8 164.64 329.42 164.46L334.01 164.1L334.28 162.57C334.76 161.79 335.15 161.1 335.45 160.5C335.81 159.84 336.11 159.18 336.35 158.52C336.59 157.86 336.77 157.17 336.89 156.45C336.89 156.45 337.16 155.97 337.7 155.01C338.24 153.99 338.57 152.94 338.69 151.86C339.41 150.66 340.04 149.58 340.58 148.62C341.12 147.6 341.45 146.97 341.57 146.73C342.23 146.19 342.68 145.92 342.92 145.92C343.22 145.92 343.82 146.22 344.72 146.82C345.26 147.12 345.74 147.48 346.16 147.9C346.58 148.32 346.85 148.77 346.97 149.25C347.09 149.67 346.91 150.09 346.43 150.51C346.31 150.75 346.13 151.2 345.89 151.86C345.65 152.46 345.47 152.97 345.35 153.39C344.99 153.81 344.54 154.5 344 155.46C343.52 156.36 343.19 157.29 343.01 158.25C342.53 159.27 342.08 160.2 341.66 161.04C341.24 161.82 340.91 162.21 340.67 162.21C340.79 162.81 341.15 163.11 341.75 163.11C342.35 163.05 343.34 162.99 344.72 162.93C345.86 162.81 346.64 162.69 347.06 162.57C347.54 162.39 348.08 162.45 348.68 162.75C348.98 163.17 349.22 163.65 349.4 164.19C349.58 164.73 349.61 165.24 349.49 165.72C349.43 166.14 349.19 166.44 348.77 166.62C348.47 166.62 347.84 166.8 346.88 167.16C345.98 167.46 344.84 167.64 343.46 167.7L338.69 168.15L337.16 171.21C336.74 171.99 336.38 172.71 336.08 173.37C335.78 173.97 335.57 174.33 335.45 174.45C335.45 174.81 335.24 175.35 334.82 176.07C334.46 176.79 334.07 177.57 333.65 178.41C333.29 179.43 332.87 180.36 332.39 181.2C331.97 182.04 331.76 182.46 331.76 182.46C331.52 182.46 331.4 182.64 331.4 183C331.7 183.72 331.61 184.26 331.13 184.62C330.83 184.8 330.56 185.07 330.32 185.43C330.14 185.73 330.05 185.88 330.05 185.88C330.29 186.12 330.32 186.42 330.14 186.78C330.02 187.14 329.84 187.53 329.6 187.95C329.6 188.43 329.45 189.12 329.15 190.02C328.91 190.92 328.64 191.76 328.34 192.54C328.4 193.62 328.46 194.31 328.52 194.61C328.58 194.91 328.73 195.03 328.97 194.97C329.27 195.03 329.54 195.03 329.78 194.97C330.02 194.91 330.26 194.88 330.5 194.88C331.34 194.52 330.89 196.62 329.15 201.18C328.19 202.68 327.53 203.76 327.17 204.42C326.81 205.14 326.48 205.5 326.18 205.5ZM367.225 200.82C366.805 201.06 366.235 200.97 365.515 200.55C364.855 200.13 364.195 199.5 363.535 198.66C363.115 197.94 362.815 197.16 362.635 196.32C362.515 195.48 362.455 194.31 362.455 192.81C362.515 191.61 362.455 190.83 362.275 190.47C362.155 190.11 361.825 190.17 361.285 190.65C360.745 191.07 359.815 191.94 358.495 193.26C356.995 194.76 355.555 195.93 354.175 196.77C352.855 197.61 351.775 198 350.935 197.94C350.515 197.94 350.035 197.73 349.495 197.31C349.015 196.83 348.565 196.26 348.145 195.6C347.725 194.88 347.365 194.16 347.065 193.44C346.705 192.12 346.645 190.44 346.885 188.4C347.185 186.3 347.665 184.11 348.325 181.83C348.985 179.55 349.735 177.39 350.575 175.35C351.475 173.31 352.375 171.66 353.275 170.4C354.235 169.14 355.075 168.51 355.795 168.51C356.275 168.51 356.695 168.75 357.055 169.23C357.475 169.71 357.895 170.46 358.315 171.48C358.555 171.9 358.645 172.26 358.585 172.56C358.585 172.86 358.345 173.22 357.865 173.64C357.325 174.36 356.695 175.44 355.975 176.88C355.315 178.32 354.655 179.88 353.995 181.56C353.395 183.24 352.855 184.86 352.375 186.42C351.895 187.98 351.565 189.27 351.385 190.29C351.205 191.25 351.235 191.73 351.475 191.73C352.315 191.73 353.305 191.4 354.445 190.74C355.645 190.02 356.785 189.15 357.865 188.13C359.125 186.87 360.235 185.49 361.195 183.99C362.215 182.49 363.235 180.9 364.255 179.22C365.035 178.02 365.845 176.7 366.685 175.26C367.585 173.82 368.155 172.8 368.395 172.2C369.235 170.64 369.865 169.59 370.285 169.05C370.705 168.45 371.215 168.06 371.815 167.88C372.115 167.88 372.385 167.88 372.625 167.88C372.925 167.88 373.075 167.88 373.075 167.88C373.435 167.94 373.855 168.21 374.335 168.69C374.815 168.93 375.085 169.17 375.145 169.41C375.205 169.59 375.235 169.83 375.235 170.13C374.995 170.73 374.605 171.63 374.065 172.83C373.585 173.97 373.225 174.81 372.985 175.35C371.845 177.93 370.705 180.48 369.565 183C368.485 185.46 367.705 187.98 367.225 190.56C367.105 191.4 367.075 192.39 367.135 193.53C367.255 194.61 367.435 195.39 367.675 195.87C367.855 196.23 368.065 196.65 368.305 197.13C368.605 197.55 368.935 197.91 369.295 198.21C369.835 198.57 369.925 198.96 369.565 199.38C369.265 199.8 368.845 200.16 368.305 200.46C367.765 200.7 367.405 200.82 367.225 200.82ZM409.446 196.86C408.246 196.86 407.256 196.62 406.476 196.14C405.696 195.6 405.036 194.73 404.496 193.53C404.256 192.69 404.046 191.76 403.866 190.74C403.746 189.66 403.686 188.67 403.686 187.77C403.686 186.81 403.776 186.18 403.956 185.88C404.196 185.64 404.286 185.22 404.226 184.62C404.226 183.96 404.226 183.27 404.226 182.55C404.166 181.35 403.866 180.69 403.326 180.57C402.846 180.39 402.126 180.57 401.166 181.11C400.086 181.77 398.676 182.67 396.936 183.81C395.196 184.89 393.366 186.09 391.446 187.41C389.586 188.73 387.816 190.11 386.136 191.55C384.816 192.99 384.006 194.1 383.706 194.88C383.466 195.6 383.106 195.96 382.626 195.96C382.146 196.2 381.726 196.23 381.366 196.05C381.066 195.81 380.616 195.45 380.016 194.97C379.596 194.49 379.176 194.04 378.756 193.62C378.336 193.14 378.066 192.78 377.946 192.54C377.946 192.24 378.036 191.61 378.216 190.65C378.396 189.69 378.606 188.73 378.846 187.77C379.146 186.81 379.356 186.18 379.476 185.88C379.776 185.88 380.016 185.58 380.196 184.98C380.436 184.38 380.796 183.72 381.276 183C381.396 182.28 381.696 181.32 382.176 180.12C382.716 178.86 383.196 177.75 383.616 176.79C384.456 175.35 385.026 174.15 385.326 173.19C385.686 172.23 385.926 171.03 386.046 169.59C385.986 169.35 386.046 169.14 386.226 168.96C386.406 168.72 386.616 168.6 386.856 168.6C387.336 168.12 387.906 168 388.566 168.24C389.226 168.42 389.826 168.87 390.366 169.59C391.446 171.03 391.866 172.53 391.626 174.09C391.446 175.59 390.486 177.75 388.746 180.57C388.326 181.53 387.996 182.28 387.756 182.82C387.576 183.3 387.486 183.69 387.486 183.99C387.486 183.99 387.786 183.78 388.386 183.36C389.046 182.94 389.766 182.46 390.546 181.92C391.386 181.32 392.046 180.87 392.526 180.57C392.826 180.27 393.516 179.73 394.596 178.95C395.676 178.17 396.816 177.42 398.016 176.7C399.276 175.92 400.206 175.47 400.806 175.35C401.286 175.11 401.796 174.9 402.336 174.72C402.876 174.48 403.266 174.36 403.506 174.36C403.986 174.36 404.586 174.63 405.306 175.17C406.086 175.65 406.806 176.25 407.466 176.97C408.126 177.63 408.516 178.2 408.636 178.68C408.636 178.92 408.636 179.16 408.636 179.4C408.696 179.64 408.756 179.88 408.816 180.12C409.056 180.9 409.176 181.95 409.176 183.27C409.236 184.59 409.206 185.79 409.086 186.87C408.966 187.95 408.756 188.58 408.456 188.76C408.456 188.76 408.456 188.85 408.456 189.03C408.516 189.15 408.666 189.21 408.906 189.21C408.906 189.45 408.906 189.6 408.906 189.66C408.606 189.66 408.486 189.93 408.546 190.47C408.606 190.95 408.786 191.49 409.086 192.09C409.446 192.69 409.806 193.17 410.166 193.53C410.886 194.25 411.186 194.94 411.066 195.6C410.946 196.2 410.406 196.62 409.446 196.86ZM422.603 198.84C420.263 197.88 418.733 196.56 418.013 194.88C417.353 193.14 417.233 190.47 417.653 186.87C417.773 185.01 417.833 183.78 417.833 183.18C417.833 182.58 417.503 181.98 416.843 181.38C416.663 181.14 416.333 180.81 415.853 180.39C415.433 179.97 415.253 179.61 415.313 179.31C415.253 178.89 415.283 178.44 415.403 177.96C415.523 177.42 415.703 177.15 415.943 177.15C416.183 177.15 416.423 177.09 416.663 176.97C416.963 176.85 417.233 176.85 417.473 176.97C417.713 176.97 417.983 177 418.283 177.06C418.583 177.12 418.733 177.27 418.733 177.51C418.973 177.93 419.363 177.99 419.903 177.69C420.443 177.33 421.013 176.55 421.613 175.35C422.213 174.39 422.993 173.43 423.953 172.47C424.973 171.51 425.963 170.64 426.923 169.86C427.943 169.02 428.783 168.42 429.443 168.06C429.743 167.94 430.193 167.79 430.793 167.61C431.393 167.43 432.023 167.28 432.683 167.16C433.403 167.04 434.003 167.01 434.483 167.07C435.563 167.13 436.463 167.43 437.183 167.97C437.963 168.51 438.683 169.14 439.343 169.86C440.123 170.4 440.603 171.12 440.783 172.02C441.023 172.92 441.083 173.88 440.963 174.9C440.843 175.92 440.573 176.85 440.153 177.69C439.973 178.29 439.463 179.01 438.623 179.85C437.783 180.69 436.823 181.5 435.743 182.28C434.663 183.06 433.673 183.63 432.773 183.99C431.993 184.17 430.973 184.32 429.713 184.44C428.513 184.56 427.373 184.62 426.293 184.62C425.273 184.56 424.583 184.44 424.223 184.26C423.803 184.02 423.473 184.35 423.233 185.25C422.993 186.15 422.813 187.44 422.693 189.12C422.573 190.44 422.573 191.4 422.693 192C422.813 192.6 422.933 193.02 423.053 193.26C423.473 193.68 424.043 194.22 424.763 194.88C425.543 195.48 426.623 195.57 428.003 195.15C429.143 194.85 430.253 194.07 431.333 192.81C432.473 191.55 433.523 190.53 434.483 189.75C434.723 189.33 435.113 189.09 435.653 189.03C436.253 188.91 436.883 188.94 437.543 189.12C438.203 189.54 438.473 190.05 438.353 190.65C438.293 191.19 437.993 192.03 437.453 193.17C437.273 193.59 436.853 194.13 436.193 194.79C435.593 195.39 434.903 196.02 434.123 196.68C433.403 197.28 432.743 197.76 432.143 198.12C430.343 199.08 428.663 199.59 427.103 199.65C425.543 199.65 424.043 199.38 422.603 198.84ZM427.913 180.57C429.233 180.27 430.283 180.06 431.063 179.94C431.843 179.82 432.593 179.49 433.313 178.95C434.033 178.35 434.933 177.24 436.013 175.62C436.253 174.96 436.313 174.3 436.193 173.64C436.133 172.98 435.983 172.53 435.743 172.29C435.203 171.69 434.543 171.51 433.763 171.75C433.043 171.93 432.353 172.26 431.693 172.74C431.273 172.92 430.643 173.37 429.803 174.09C429.023 174.75 428.243 175.53 427.463 176.43C426.683 177.27 426.053 178.05 425.573 178.77C425.093 179.49 424.973 179.91 425.213 180.03C425.093 180.27 425.423 180.42 426.203 180.48C427.043 180.54 427.613 180.57 427.913 180.57ZM466.811 200.1C466.571 200.1 466.211 200.07 465.731 200.01C465.311 199.89 464.951 199.62 464.651 199.2C463.751 198.12 463.181 197.22 462.941 196.5C462.701 195.78 462.671 194.73 462.851 193.35C462.971 192.45 463.031 191.67 463.031 191.01C463.091 190.29 463.151 189.69 463.211 189.21C462.971 188.97 462.521 189.15 461.861 189.75C461.261 190.29 460.421 190.98 459.341 191.82C457.301 194.16 455.471 195.96 453.851 197.22C452.291 198.42 450.881 199.23 449.621 199.65C448.361 200.01 447.161 200.13 446.021 200.01C445.001 199.89 444.191 199.47 443.591 198.75C442.991 197.97 442.601 196.98 442.421 195.78C442.301 194.58 442.301 193.29 442.421 191.91C442.661 189.93 443.081 188.04 443.681 186.24C444.341 184.44 445.391 182.43 446.831 180.21C447.491 179.01 448.361 177.84 449.441 176.7C450.581 175.5 451.811 174.45 453.131 173.55C454.511 172.59 455.831 171.9 457.091 171.48C458.471 170.94 459.881 170.64 461.321 170.58C462.761 170.46 464.051 170.58 465.191 170.94C465.911 171.3 466.481 171.48 466.901 171.48C467.381 171.48 467.741 171.18 467.981 170.58C468.281 170.1 468.581 169.38 468.881 168.42C469.181 167.4 469.541 166.53 469.961 165.81L471.941 159.96C472.601 158.34 473.321 156.63 474.101 154.83C474.881 153.03 475.811 150.84 476.891 148.26C477.911 146.34 478.751 145.23 479.411 144.93C480.071 144.57 480.821 144.81 481.661 145.65C482.321 146.43 482.561 147.33 482.381 148.35C482.201 149.31 481.661 150.87 480.761 153.03C480.341 153.69 479.981 154.32 479.681 154.92C479.381 155.46 478.961 156.33 478.421 157.53C477.641 159.39 476.921 161.07 476.261 162.57C475.601 164.01 474.911 165.66 474.191 167.52C473.951 168.48 473.621 169.59 473.201 170.85C472.841 172.11 472.541 173.25 472.301 174.27C472.121 175.23 471.911 176.13 471.671 176.97C471.491 177.75 471.281 178.14 471.041 178.14C470.561 178.68 470.111 179.64 469.691 181.02C469.271 182.34 468.911 183.72 468.611 185.16C468.371 186.6 468.161 187.8 467.981 188.76C467.861 189.48 467.771 190.41 467.711 191.55C467.651 192.69 467.621 193.8 467.621 194.88C467.621 195.9 467.621 196.62 467.621 197.04C467.621 198.36 467.591 199.2 467.531 199.56C467.471 199.92 467.231 200.1 466.811 200.1ZM447.641 194.43C448.901 194.43 450.221 193.89 451.601 192.81C453.041 191.73 454.481 190.53 455.921 189.21C456.821 188.37 457.781 187.26 458.801 185.88C459.881 184.5 460.901 183.12 461.861 181.74C462.881 180.36 463.691 179.16 464.291 178.14C464.891 177.06 465.191 176.4 465.191 176.16C465.191 175.86 464.921 175.65 464.381 175.53C463.841 175.41 463.211 175.35 462.491 175.35C461.831 175.29 461.291 175.32 460.871 175.44C459.551 175.74 458.231 176.34 456.911 177.24C455.651 178.14 454.271 179.49 452.771 181.29C451.211 183.21 449.921 185.19 448.901 187.23C447.941 189.27 447.341 190.98 447.101 192.36C446.861 193.74 447.041 194.43 447.641 194.43Z" fill="#FFF89B"/>
<path d="M495.962 164.6H512.412C513.345 164.6 514.115 164.927 514.722 165.58C515.375 166.187 515.702 166.957 515.702 167.89C515.702 168.777 515.375 169.523 514.722 170.13C514.115 170.737 513.345 171.04 512.412 171.04H495.962C495.028 171.04 494.235 170.737 493.582 170.13C492.975 169.477 492.672 168.707 492.672 167.82C492.672 166.887 492.975 166.117 493.582 165.51C494.235 164.903 495.028 164.6 495.962 164.6ZM503.312 155.5C504.338 155.5 505.178 155.85 505.832 156.55C506.485 157.203 506.812 158.043 506.812 159.07V191.55C506.812 192.39 506.952 193.067 507.232 193.58C507.512 194.093 507.885 194.443 508.352 194.63C508.865 194.817 509.378 194.91 509.892 194.91C510.405 194.91 510.848 194.817 511.222 194.63C511.642 194.443 512.132 194.35 512.692 194.35C513.252 194.35 513.765 194.607 514.232 195.12C514.698 195.633 514.932 196.333 514.932 197.22C514.932 198.34 514.325 199.25 513.112 199.95C511.898 200.65 510.592 201 509.192 201C508.398 201 507.465 200.93 506.392 200.79C505.318 200.65 504.268 200.3 503.242 199.74C502.262 199.18 501.445 198.293 500.792 197.08C500.138 195.82 499.812 194.07 499.812 191.83V159.07C499.812 158.043 500.138 157.203 500.792 156.55C501.492 155.85 502.332 155.5 503.312 155.5ZM556.992 182.59C556.992 186.323 556.175 189.637 554.542 192.53C552.908 195.377 550.692 197.617 547.892 199.25C545.092 200.883 541.942 201.7 538.442 201.7C534.942 201.7 531.792 200.883 528.992 199.25C526.192 197.617 523.952 195.377 522.272 192.53C520.638 189.637 519.822 186.323 519.822 182.59C519.822 178.81 520.638 175.497 522.272 172.65C523.952 169.757 526.192 167.493 528.992 165.86C531.792 164.18 534.942 163.34 538.442 163.34C541.942 163.34 545.092 164.18 547.892 165.86C550.692 167.493 552.908 169.757 554.542 172.65C556.175 175.497 556.992 178.81 556.992 182.59ZM549.992 182.59C549.992 180.023 549.478 177.807 548.452 175.94C547.425 174.027 546.025 172.533 544.252 171.46C542.525 170.34 540.588 169.78 538.442 169.78C536.295 169.78 534.335 170.34 532.562 171.46C530.788 172.533 529.388 174.027 528.362 175.94C527.335 177.807 526.822 180.023 526.822 182.59C526.822 185.063 527.335 187.257 528.362 189.17C529.388 191.083 530.788 192.577 532.562 193.65C534.335 194.723 536.295 195.26 538.442 195.26C540.588 195.26 542.525 194.723 544.252 193.65C546.025 192.577 547.425 191.083 548.452 189.17C549.478 187.257 549.992 185.063 549.992 182.59ZM579.427 195.26C579.007 194.607 578.821 193.86 578.867 193.02C578.914 192.133 579.404 191.387 580.337 190.78C580.991 190.36 581.667 190.197 582.367 190.29C583.114 190.337 583.814 190.687 584.467 191.34C585.774 192.787 587.221 193.93 588.807 194.77C590.441 195.61 592.401 196.03 594.687 196.03C595.621 195.983 596.577 195.843 597.557 195.61C598.537 195.33 599.377 194.863 600.077 194.21C600.777 193.51 601.127 192.507 601.127 191.2C601.127 190.033 600.754 189.1 600.007 188.4C599.261 187.7 598.281 187.14 597.067 186.72C595.854 186.253 594.547 185.833 593.147 185.46C591.654 185.04 590.137 184.573 588.597 184.06C587.104 183.547 585.751 182.893 584.537 182.1C583.324 181.26 582.321 180.187 581.527 178.88C580.781 177.573 580.407 175.963 580.407 174.05C580.407 171.857 581.014 169.967 582.227 168.38C583.487 166.793 585.097 165.557 587.057 164.67C589.064 163.783 591.234 163.34 593.567 163.34C594.921 163.34 596.344 163.527 597.837 163.9C599.331 164.227 600.777 164.763 602.177 165.51C603.577 166.257 604.791 167.237 605.817 168.45C606.284 169.057 606.541 169.78 606.587 170.62C606.681 171.46 606.307 172.207 605.467 172.86C604.907 173.327 604.231 173.537 603.437 173.49C602.644 173.443 601.991 173.187 601.477 172.72C600.591 171.6 599.447 170.737 598.047 170.13C596.647 169.477 595.061 169.15 593.287 169.15C592.401 169.15 591.467 169.29 590.487 169.57C589.554 169.803 588.761 170.247 588.107 170.9C587.454 171.553 587.127 172.51 587.127 173.77C587.127 174.937 587.501 175.87 588.247 176.57C589.041 177.27 590.067 177.853 591.327 178.32C592.587 178.787 593.964 179.207 595.457 179.58C596.904 179.953 598.327 180.397 599.727 180.91C601.174 181.423 602.457 182.1 603.577 182.94C604.744 183.733 605.677 184.783 606.377 186.09C607.124 187.35 607.497 188.96 607.497 190.92C607.497 193.207 606.821 195.167 605.467 196.8C604.161 198.387 602.481 199.6 600.427 200.44C598.421 201.28 596.297 201.7 594.057 201.7C591.397 201.7 588.737 201.233 586.077 200.3C583.464 199.32 581.247 197.64 579.427 195.26ZM630.775 201.7C626.902 201.7 623.542 200.907 620.695 199.32C617.848 197.687 615.632 195.47 614.045 192.67C612.505 189.823 611.735 186.58 611.735 182.94C611.735 178.833 612.552 175.333 614.185 172.44C615.865 169.5 618.035 167.26 620.695 165.72C623.355 164.133 626.178 163.34 629.165 163.34C631.452 163.34 633.622 163.807 635.675 164.74C637.728 165.627 639.548 166.887 641.135 168.52C642.768 170.107 644.052 171.997 644.985 174.19C645.918 176.337 646.408 178.693 646.455 181.26C646.408 182.193 646.035 182.963 645.335 183.57C644.635 184.177 643.818 184.48 642.885 184.48H615.655L613.975 178.53H640.295L638.965 179.79V178.04C638.872 176.407 638.335 174.983 637.355 173.77C636.375 172.51 635.162 171.553 633.715 170.9C632.268 170.2 630.752 169.85 629.165 169.85C627.765 169.85 626.412 170.083 625.105 170.55C623.845 170.97 622.702 171.67 621.675 172.65C620.695 173.63 619.902 174.937 619.295 176.57C618.735 178.157 618.455 180.14 618.455 182.52C618.455 185.087 618.992 187.327 620.065 189.24C621.138 191.153 622.585 192.647 624.405 193.72C626.225 194.747 628.232 195.26 630.425 195.26C632.152 195.26 633.575 195.097 634.695 194.77C635.815 194.397 636.748 193.953 637.495 193.44C638.242 192.927 638.895 192.437 639.455 191.97C640.155 191.55 640.855 191.34 641.555 191.34C642.395 191.34 643.095 191.643 643.655 192.25C644.215 192.81 644.495 193.487 644.495 194.28C644.495 195.307 643.982 196.24 642.955 197.08C641.695 198.293 639.945 199.367 637.705 200.3C635.512 201.233 633.202 201.7 630.775 201.7ZM670.117 201.7C666.244 201.7 662.884 200.907 660.037 199.32C657.191 197.687 654.974 195.47 653.387 192.67C651.847 189.823 651.077 186.58 651.077 182.94C651.077 178.833 651.894 175.333 653.527 172.44C655.207 169.5 657.377 167.26 660.037 165.72C662.697 164.133 665.521 163.34 668.507 163.34C670.794 163.34 672.964 163.807 675.017 164.74C677.071 165.627 678.891 166.887 680.477 168.52C682.111 170.107 683.394 171.997 684.327 174.19C685.261 176.337 685.751 178.693 685.797 181.26C685.751 182.193 685.377 182.963 684.677 183.57C683.977 184.177 683.161 184.48 682.227 184.48H654.997L653.317 178.53H679.637L678.307 179.79V178.04C678.214 176.407 677.677 174.983 676.697 173.77C675.717 172.51 674.504 171.553 673.057 170.9C671.611 170.2 670.094 169.85 668.507 169.85C667.107 169.85 665.754 170.083 664.447 170.55C663.187 170.97 662.044 171.67 661.017 172.65C660.037 173.63 659.244 174.937 658.637 176.57C658.077 178.157 657.797 180.14 657.797 182.52C657.797 185.087 658.334 187.327 659.407 189.24C660.481 191.153 661.927 192.647 663.747 193.72C665.567 194.747 667.574 195.26 669.767 195.26C671.494 195.26 672.917 195.097 674.037 194.77C675.157 194.397 676.091 193.953 676.837 193.44C677.584 192.927 678.237 192.437 678.797 191.97C679.497 191.55 680.197 191.34 680.897 191.34C681.737 191.34 682.437 191.643 682.997 192.25C683.557 192.81 683.837 193.487 683.837 194.28C683.837 195.307 683.324 196.24 682.297 197.08C681.037 198.293 679.287 199.367 677.047 200.3C674.854 201.233 672.544 201.7 670.117 201.7ZM198.81 243.83C199.697 243.83 200.467 244.18 201.12 244.88C201.82 245.533 202.17 246.397 202.17 247.47C202.17 247.703 202.147 247.937 202.1 248.17C202.053 248.403 201.983 248.613 201.89 248.8L191.18 278.76C190.9 279.553 190.41 280.16 189.71 280.58C189.01 280.953 188.287 281.093 187.54 281C186.187 280.907 185.183 280.16 184.53 278.76L176.62 257.76L178.23 257.9L170.95 278.76C170.297 280.16 169.293 280.907 167.94 281C167.24 281.093 166.517 280.953 165.77 280.58C165.07 280.16 164.58 279.553 164.3 278.76L153.52 248.8C153.333 248.38 153.24 247.937 153.24 247.47C153.24 246.49 153.543 245.65 154.15 244.95C154.803 244.203 155.667 243.83 156.74 243.83C157.487 243.83 158.14 244.017 158.7 244.39C159.307 244.763 159.727 245.323 159.96 246.07L168.92 271.34L167.31 271.2L174.59 252.09C175.197 250.643 176.27 249.92 177.81 249.92C178.65 249.92 179.303 250.107 179.77 250.48C180.237 250.853 180.61 251.39 180.89 252.09L188.31 271.27L186.42 271.48L195.45 246.07C195.917 244.577 197.037 243.83 198.81 243.83ZM226.439 243.55C229.659 243.55 232.155 244.25 233.929 245.65C235.702 247.003 236.939 248.847 237.639 251.18C238.385 253.513 238.759 256.08 238.759 258.88V277.43C238.759 278.457 238.409 279.32 237.709 280.02C237.055 280.673 236.239 281 235.259 281C234.232 281 233.392 280.673 232.739 280.02C232.085 279.32 231.759 278.457 231.759 277.43V258.88C231.759 257.247 231.525 255.753 231.059 254.4C230.639 253.047 229.869 251.973 228.749 251.18C227.675 250.387 226.159 249.99 224.199 249.99C222.379 249.99 220.745 250.387 219.299 251.18C217.899 251.973 216.802 253.047 216.009 254.4C215.262 255.753 214.889 257.247 214.889 258.88V277.43C214.889 278.457 214.539 279.32 213.839 280.02C213.185 280.673 212.369 281 211.389 281C210.362 281 209.522 280.673 208.869 280.02C208.215 279.32 207.889 278.457 207.889 277.43V232.77C207.889 231.743 208.215 230.903 208.869 230.25C209.522 229.55 210.362 229.2 211.389 229.2C212.369 229.2 213.185 229.55 213.839 230.25C214.539 230.903 214.889 231.743 214.889 232.77V251.88L213.629 252.58C213.955 251.553 214.492 250.503 215.239 249.43C216.032 248.357 216.989 247.377 218.109 246.49C219.275 245.603 220.559 244.903 221.959 244.39C223.359 243.83 224.852 243.55 226.439 243.55ZM277.264 243.62C278.291 243.62 279.131 243.97 279.784 244.67C280.437 245.323 280.764 246.163 280.764 247.19V277.43C280.764 278.457 280.437 279.32 279.784 280.02C279.131 280.673 278.291 281 277.264 281C276.284 281 275.444 280.673 274.744 280.02C274.091 279.32 273.764 278.457 273.764 277.43V272.39L275.234 272.6C275.234 273.44 274.884 274.373 274.184 275.4C273.531 276.427 272.621 277.43 271.454 278.41C270.287 279.343 268.911 280.137 267.324 280.79C265.737 281.397 264.034 281.7 262.214 281.7C258.994 281.7 256.101 280.883 253.534 279.25C250.967 277.57 248.937 275.283 247.444 272.39C245.951 269.497 245.204 266.207 245.204 262.52C245.204 258.74 245.951 255.427 247.444 252.58C248.937 249.687 250.944 247.423 253.464 245.79C256.031 244.157 258.877 243.34 262.004 243.34C264.011 243.34 265.854 243.667 267.534 244.32C269.261 244.973 270.754 245.813 272.014 246.84C273.274 247.867 274.231 248.963 274.884 250.13C275.584 251.25 275.934 252.323 275.934 253.35L273.764 253.56V247.19C273.764 246.21 274.091 245.37 274.744 244.67C275.444 243.97 276.284 243.62 277.264 243.62ZM262.984 275.26C265.177 275.26 267.114 274.7 268.794 273.58C270.474 272.46 271.781 270.943 272.714 269.03C273.647 267.07 274.114 264.9 274.114 262.52C274.114 260.093 273.647 257.923 272.714 256.01C271.781 254.097 270.474 252.58 268.794 251.46C267.114 250.34 265.177 249.78 262.984 249.78C260.837 249.78 258.924 250.34 257.244 251.46C255.611 252.58 254.304 254.097 253.324 256.01C252.391 257.923 251.924 260.093 251.924 262.52C251.924 264.9 252.391 267.07 253.324 269.03C254.304 270.943 255.611 272.46 257.244 273.58C258.924 274.7 260.837 275.26 262.984 275.26ZM288.681 244.6H305.131C306.064 244.6 306.834 244.927 307.441 245.58C308.094 246.187 308.421 246.957 308.421 247.89C308.421 248.777 308.094 249.523 307.441 250.13C306.834 250.737 306.064 251.04 305.131 251.04H288.681C287.747 251.04 286.954 250.737 286.301 250.13C285.694 249.477 285.391 248.707 285.391 247.82C285.391 246.887 285.694 246.117 286.301 245.51C286.954 244.903 287.747 244.6 288.681 244.6ZM296.031 235.5C297.057 235.5 297.897 235.85 298.551 236.55C299.204 237.203 299.531 238.043 299.531 239.07V271.55C299.531 272.39 299.671 273.067 299.951 273.58C300.231 274.093 300.604 274.443 301.071 274.63C301.584 274.817 302.097 274.91 302.611 274.91C303.124 274.91 303.567 274.817 303.941 274.63C304.361 274.443 304.851 274.35 305.411 274.35C305.971 274.35 306.484 274.607 306.951 275.12C307.417 275.633 307.651 276.333 307.651 277.22C307.651 278.34 307.044 279.25 305.831 279.95C304.617 280.65 303.311 281 301.911 281C301.117 281 300.184 280.93 299.111 280.79C298.037 280.65 296.987 280.3 295.961 279.74C294.981 279.18 294.164 278.293 293.511 277.08C292.857 275.82 292.531 274.07 292.531 271.83V239.07C292.531 238.043 292.857 237.203 293.511 236.55C294.211 235.85 295.051 235.5 296.031 235.5ZM375.765 243.83C376.652 243.83 377.422 244.18 378.075 244.88C378.775 245.533 379.125 246.397 379.125 247.47C379.125 247.703 379.102 247.937 379.055 248.17C379.008 248.403 378.938 248.613 378.845 248.8L368.135 278.76C367.855 279.553 367.365 280.16 366.665 280.58C365.965 280.953 365.242 281.093 364.495 281C363.142 280.907 362.138 280.16 361.485 278.76L353.575 257.76L355.185 257.9L347.905 278.76C347.252 280.16 346.248 280.907 344.895 281C344.195 281.093 343.472 280.953 342.725 280.58C342.025 280.16 341.535 279.553 341.255 278.76L330.475 248.8C330.288 248.38 330.195 247.937 330.195 247.47C330.195 246.49 330.498 245.65 331.105 244.95C331.758 244.203 332.622 243.83 333.695 243.83C334.442 243.83 335.095 244.017 335.655 244.39C336.262 244.763 336.682 245.323 336.915 246.07L345.875 271.34L344.265 271.2L351.545 252.09C352.152 250.643 353.225 249.92 354.765 249.92C355.605 249.92 356.258 250.107 356.725 250.48C357.192 250.853 357.565 251.39 357.845 252.09L365.265 271.27L363.375 271.48L372.405 246.07C372.872 244.577 373.992 243.83 375.765 243.83ZM401.994 281.7C398.12 281.7 394.76 280.907 391.914 279.32C389.067 277.687 386.85 275.47 385.264 272.67C383.724 269.823 382.954 266.58 382.954 262.94C382.954 258.833 383.77 255.333 385.404 252.44C387.084 249.5 389.254 247.26 391.914 245.72C394.574 244.133 397.397 243.34 400.384 243.34C402.67 243.34 404.84 243.807 406.894 244.74C408.947 245.627 410.767 246.887 412.354 248.52C413.987 250.107 415.27 251.997 416.204 254.19C417.137 256.337 417.627 258.693 417.674 261.26C417.627 262.193 417.254 262.963 416.554 263.57C415.854 264.177 415.037 264.48 414.104 264.48H386.874L385.194 258.53H411.514L410.184 259.79V258.04C410.09 256.407 409.554 254.983 408.574 253.77C407.594 252.51 406.38 251.553 404.934 250.9C403.487 250.2 401.97 249.85 400.384 249.85C398.984 249.85 397.63 250.083 396.324 250.55C395.064 250.97 393.92 251.67 392.894 252.65C391.914 253.63 391.12 254.937 390.514 256.57C389.954 258.157 389.674 260.14 389.674 262.52C389.674 265.087 390.21 267.327 391.284 269.24C392.357 271.153 393.804 272.647 395.624 273.72C397.444 274.747 399.45 275.26 401.644 275.26C403.37 275.26 404.794 275.097 405.914 274.77C407.034 274.397 407.967 273.953 408.714 273.44C409.46 272.927 410.114 272.437 410.674 271.97C411.374 271.55 412.074 271.34 412.774 271.34C413.614 271.34 414.314 271.643 414.874 272.25C415.434 272.81 415.714 273.487 415.714 274.28C415.714 275.307 415.2 276.24 414.174 277.08C412.914 278.293 411.164 279.367 408.924 280.3C406.73 281.233 404.42 281.7 401.994 281.7ZM432.866 238.23C432.866 239.677 432.446 241.123 431.606 242.57C430.813 244.017 429.786 245.23 428.526 246.21C427.266 247.143 425.936 247.61 424.536 247.61C424.069 247.61 423.579 247.423 423.066 247.05C422.599 246.677 422.366 246.047 422.366 245.16C422.366 244.227 422.646 243.69 423.206 243.55C423.813 243.363 424.396 243.13 424.956 242.85C425.609 242.523 426.123 242.127 426.496 241.66C426.869 241.147 427.056 240.54 427.056 239.84C427.056 239.327 426.823 238.883 426.356 238.51C425.936 238.137 425.376 237.95 424.676 237.95C424.396 237.95 424.069 237.997 423.696 238.09C423.323 238.137 423.019 238.253 422.786 238.44C422.366 238.207 422.016 237.927 421.736 237.6C421.456 237.273 421.316 236.783 421.316 236.13C421.316 234.87 421.899 233.797 423.066 232.91C424.233 232.023 425.563 231.58 427.056 231.58C428.829 231.58 430.229 232.21 431.256 233.47C432.329 234.683 432.866 236.27 432.866 238.23ZM443.649 281C442.623 281 441.783 280.673 441.129 280.02C440.476 279.32 440.149 278.457 440.149 277.43V247.75C440.149 246.723 440.476 245.883 441.129 245.23C441.783 244.53 442.623 244.18 443.649 244.18C444.629 244.18 445.446 244.53 446.099 245.23C446.799 245.883 447.149 246.723 447.149 247.75V255.59L446.449 252.58C446.823 251.273 447.383 250.06 448.129 248.94C448.923 247.82 449.856 246.84 450.929 246C452.003 245.16 453.193 244.507 454.499 244.04C455.853 243.573 457.253 243.34 458.699 243.34C459.913 243.34 460.963 243.667 461.849 244.32C462.736 244.973 463.179 245.79 463.179 246.77C463.179 248.03 462.853 248.963 462.199 249.57C461.546 250.13 460.823 250.41 460.029 250.41C459.329 250.41 458.653 250.27 457.999 249.99C457.346 249.663 456.576 249.5 455.689 249.5C454.709 249.5 453.706 249.757 452.679 250.27C451.653 250.783 450.719 251.553 449.879 252.58C449.039 253.56 448.363 254.727 447.849 256.08C447.383 257.433 447.149 258.95 447.149 260.63V277.43C447.149 278.457 446.799 279.32 446.099 280.02C445.446 280.673 444.629 281 443.649 281ZM483.585 281.7C479.711 281.7 476.351 280.907 473.505 279.32C470.658 277.687 468.441 275.47 466.855 272.67C465.315 269.823 464.545 266.58 464.545 262.94C464.545 258.833 465.361 255.333 466.995 252.44C468.675 249.5 470.845 247.26 473.505 245.72C476.165 244.133 478.988 243.34 481.975 243.34C484.261 243.34 486.431 243.807 488.485 244.74C490.538 245.627 492.358 246.887 493.945 248.52C495.578 250.107 496.861 251.997 497.795 254.19C498.728 256.337 499.218 258.693 499.265 261.26C499.218 262.193 498.845 262.963 498.145 263.57C497.445 264.177 496.628 264.48 495.695 264.48H468.465L466.785 258.53H493.105L491.775 259.79V258.04C491.681 256.407 491.145 254.983 490.165 253.77C489.185 252.51 487.971 251.553 486.525 250.9C485.078 250.2 483.561 249.85 481.975 249.85C480.575 249.85 479.221 250.083 477.915 250.55C476.655 250.97 475.511 251.67 474.485 252.65C473.505 253.63 472.711 254.937 472.105 256.57C471.545 258.157 471.265 260.14 471.265 262.52C471.265 265.087 471.801 267.327 472.875 269.24C473.948 271.153 475.395 272.647 477.215 273.72C479.035 274.747 481.041 275.26 483.235 275.26C484.961 275.26 486.385 275.097 487.505 274.77C488.625 274.397 489.558 273.953 490.305 273.44C491.051 272.927 491.705 272.437 492.265 271.97C492.965 271.55 493.665 271.34 494.365 271.34C495.205 271.34 495.905 271.643 496.465 272.25C497.025 272.81 497.305 273.487 497.305 274.28C497.305 275.307 496.791 276.24 495.765 277.08C494.505 278.293 492.755 279.367 490.515 280.3C488.321 281.233 486.011 281.7 483.585 281.7ZM551.299 244.18C552.279 244.18 553.096 244.53 553.749 245.23C554.449 245.883 554.799 246.723 554.799 247.75V266.16C554.799 271.013 553.446 274.817 550.739 277.57C548.033 280.277 544.206 281.63 539.259 281.63C534.359 281.63 530.556 280.277 527.849 277.57C525.189 274.817 523.859 271.013 523.859 266.16V247.75C523.859 246.723 524.186 245.883 524.839 245.23C525.493 244.53 526.333 244.18 527.359 244.18C528.339 244.18 529.156 244.53 529.809 245.23C530.509 245.883 530.859 246.723 530.859 247.75V266.16C530.859 269.193 531.559 271.457 532.959 272.95C534.406 274.443 536.506 275.19 539.259 275.19C542.059 275.19 544.183 274.443 545.629 272.95C547.076 271.457 547.799 269.193 547.799 266.16V247.75C547.799 246.723 548.126 245.883 548.779 245.23C549.433 244.53 550.273 244.18 551.299 244.18ZM581.683 243.55C584.95 243.55 587.843 244.367 590.363 246C592.93 247.633 594.96 249.873 596.453 252.72C597.947 255.52 598.693 258.787 598.693 262.52C598.693 266.253 597.947 269.567 596.453 272.46C594.96 275.307 592.953 277.547 590.433 279.18C587.913 280.813 585.067 281.63 581.893 281.63C580.12 281.63 578.44 281.35 576.853 280.79C575.267 280.23 573.867 279.507 572.653 278.62C571.44 277.687 570.437 276.707 569.643 275.68C568.897 274.653 568.43 273.697 568.243 272.81L570.133 271.9V291.43C570.133 292.457 569.783 293.297 569.083 293.95C568.43 294.65 567.613 295 566.633 295C565.607 295 564.767 294.65 564.113 293.95C563.46 293.297 563.133 292.457 563.133 291.43V247.61C563.133 246.63 563.46 245.79 564.113 245.09C564.767 244.39 565.607 244.04 566.633 244.04C567.613 244.04 568.43 244.39 569.083 245.09C569.783 245.79 570.133 246.63 570.133 247.61V252.44L569.013 251.81C569.153 250.923 569.597 250.013 570.343 249.08C571.09 248.1 572.023 247.19 573.143 246.35C574.31 245.51 575.617 244.833 577.063 244.32C578.557 243.807 580.097 243.55 581.683 243.55ZM580.913 249.99C578.673 249.99 576.713 250.55 575.033 251.67C573.4 252.743 572.117 254.213 571.183 256.08C570.25 257.947 569.783 260.093 569.783 262.52C569.783 264.9 570.25 267.07 571.183 269.03C572.117 270.943 573.4 272.46 575.033 273.58C576.713 274.653 578.673 275.19 580.913 275.19C583.107 275.19 585.02 274.653 586.653 273.58C588.287 272.46 589.57 270.943 590.503 269.03C591.483 267.07 591.973 264.9 591.973 262.52C591.973 260.14 591.483 258.017 590.503 256.15C589.57 254.237 588.287 252.743 586.653 251.67C585.02 250.55 583.107 249.99 580.913 249.99ZM622.802 244.6H639.252C640.186 244.6 640.956 244.927 641.562 245.58C642.216 246.187 642.542 246.957 642.542 247.89C642.542 248.777 642.216 249.523 641.562 250.13C640.956 250.737 640.186 251.04 639.252 251.04H622.802C621.869 251.04 621.076 250.737 620.422 250.13C619.816 249.477 619.512 248.707 619.512 247.82C619.512 246.887 619.816 246.117 620.422 245.51C621.076 244.903 621.869 244.6 622.802 244.6ZM630.152 235.5C631.179 235.5 632.019 235.85 632.672 236.55C633.326 237.203 633.652 238.043 633.652 239.07V271.55C633.652 272.39 633.792 273.067 634.072 273.58C634.352 274.093 634.726 274.443 635.192 274.63C635.706 274.817 636.219 274.91 636.732 274.91C637.246 274.91 637.689 274.817 638.062 274.63C638.482 274.443 638.972 274.35 639.532 274.35C640.092 274.35 640.606 274.607 641.072 275.12C641.539 275.633 641.772 276.333 641.772 277.22C641.772 278.34 641.166 279.25 639.952 279.95C638.739 280.65 637.432 281 636.032 281C635.239 281 634.306 280.93 633.232 280.79C632.159 280.65 631.109 280.3 630.082 279.74C629.102 279.18 628.286 278.293 627.632 277.08C626.979 275.82 626.652 274.07 626.652 271.83V239.07C626.652 238.043 626.979 237.203 627.632 236.55C628.332 235.85 629.172 235.5 630.152 235.5ZM683.832 262.59C683.832 266.323 683.016 269.637 681.382 272.53C679.749 275.377 677.532 277.617 674.732 279.25C671.932 280.883 668.782 281.7 665.282 281.7C661.782 281.7 658.632 280.883 655.832 279.25C653.032 277.617 650.792 275.377 649.112 272.53C647.479 269.637 646.662 266.323 646.662 262.59C646.662 258.81 647.479 255.497 649.112 252.65C650.792 249.757 653.032 247.493 655.832 245.86C658.632 244.18 661.782 243.34 665.282 243.34C668.782 243.34 671.932 244.18 674.732 245.86C677.532 247.493 679.749 249.757 681.382 252.65C683.016 255.497 683.832 258.81 683.832 262.59ZM676.832 262.59C676.832 260.023 676.319 257.807 675.292 255.94C674.266 254.027 672.866 252.533 671.092 251.46C669.366 250.34 667.429 249.78 665.282 249.78C663.136 249.78 661.176 250.34 659.402 251.46C657.629 252.533 656.229 254.027 655.202 255.94C654.176 257.807 653.662 260.023 653.662 262.59C653.662 265.063 654.176 267.257 655.202 269.17C656.229 271.083 657.629 272.577 659.402 273.65C661.176 274.723 663.136 275.26 665.282 275.26C667.429 275.26 669.366 274.723 671.092 273.65C672.866 272.577 674.266 271.083 675.292 269.17C676.319 267.257 676.832 265.063 676.832 262.59ZM693.015 280.93C691.849 280.93 690.939 280.603 690.285 279.95C689.679 279.297 689.375 278.387 689.375 277.22V275.96C689.375 274.793 689.679 273.883 690.285 273.23C690.939 272.577 691.849 272.25 693.015 272.25H693.785C694.952 272.25 695.839 272.577 696.445 273.23C697.052 273.883 697.355 274.793 697.355 275.96V277.22C697.355 278.387 697.052 279.297 696.445 279.95C695.839 280.603 694.952 280.93 693.785 280.93H693.015Z" fill="#FFFEE9"/>
<path d="M1340.32 357.35C1329 356.897 1319.44 349.699 1316.74 339.967C1313.19 327.183 1323.08 315.855 1331.75 311.351C1333.54 310.423 1344.34 304.809 1354.53 310.55C1359.88 313.564 1366.24 320.376 1365.25 329.269C1364.26 338.118 1356.47 344.841 1348.09 345.581C1341.51 346.161 1332.36 343.246 1329.87 335.419C1327.97 329.424 1330.16 321.199 1336.57 318.301C1343.05 315.375 1351.89 318.753 1353.45 324.185C1354.44 327.608 1352.87 333.023 1349.17 333.812C1346.58 334.364 1343.44 332.559 1341.66 329.264" stroke="#71BDFE" stroke-width="5.25" stroke-linecap="round" stroke-linejoin="round"/>
<path d="M668 351.135C668 353.185 668.342 355.607 669.543 358.19C670.874 361.055 679.326 363.879 698.381 367.503C711.117 369.925 730.76 368.735 742.159 368.393C756.322 367.969 761.157 365.298 765.117 362.373C769.038 359.477 771.179 353.93 772.214 347.387C773.132 341.589 771.883 337.686 770.335 335.791C766.963 331.664 758.113 332.499 751.881 333.7C748.931 334.269 747.036 336.972 745.829 339.896C745.203 341.416 744.965 343.163 745.301 344.897C746.959 353.44 761.799 359.728 781.113 365.267C792.151 368.432 804.599 367.7 817.504 367.187C831.508 366.631 844.293 362.544 854.454 358.242C871.221 347.377 881.263 338.38 882.987 335.797C883.686 334.58 884.028 333.555 885.415 331.464" stroke="#FFF89B" stroke-width="6" stroke-linecap="round"/>
<path d="M863.673 336.64C866.075 336.299 872.95 333.555 878.152 330.61C880.101 329.507 882.299 328.71 884.364 327.504C885.37 326.917 886.43 326.639 887.641 327.83C891.627 336.278 891.968 341.113 892.657 343.867C893.004 345.254 893.345 346.621 893.697 351.135" stroke="#FFF89B" stroke-width="6" stroke-linecap="round"/>
<path d="M771.651 87.008C772.046 90.1458 774.879 97.5527 776.391 106.25C778.064 115.875 768.197 122.397 762.108 131.055C758.356 136.39 756.935 142.37 758.272 147.899C761.711 162.112 774.827 165.554 777.429 173.234C781.546 185.384 773.276 193.203 768.816 200.106C766.415 203.823 764.854 207.545 763.939 210.899C761.911 218.323 769.9 224.986 778.091 236.015C783.89 243.823 773.591 251.805 769.923 258.722C767.295 263.68 767.664 269.366 767.769 273.285C770.393 279.421 775.367 285.86 775.344 300.491C774.703 303.643 773.609 305.154 772.42 308.277" stroke="#71BDFE" stroke-width="6" stroke-linecap="round"/>
</svg>
