<svg width="1524" height="444" viewBox="0 0 1524 444" fill="none" xmlns="http://www.w3.org/2000/svg">
<path d="M954.117 184.861L955.362 182.884C955.997 183.401 956.632 183.831 957.267 184.173C957.901 184.515 958.546 184.769 959.2 184.935C959.864 185.101 960.538 185.184 961.222 185.184C962.218 185.184 963.087 185.018 963.829 184.686C964.581 184.354 965.167 183.895 965.587 183.309C966.007 182.713 966.217 182.029 966.217 181.258C966.217 180.418 965.978 179.725 965.499 179.178C965.03 178.621 964.42 178.147 963.668 177.757C962.916 177.366 962.115 176.995 961.266 176.644C960.553 176.341 959.845 176.019 959.142 175.677C958.439 175.335 957.799 174.939 957.223 174.49C956.656 174.031 956.202 173.479 955.86 172.835C955.519 172.19 955.348 171.414 955.348 170.506C955.348 169.344 955.641 168.318 956.227 167.43C956.813 166.541 957.623 165.848 958.658 165.35C959.703 164.852 960.904 164.603 962.262 164.603C963.18 164.603 964.103 164.725 965.03 164.969C965.958 165.203 966.857 165.55 967.726 166.009L966.671 168.118C965.987 167.718 965.27 167.41 964.518 167.195C963.775 166.98 963.043 166.873 962.32 166.873C961.461 166.873 960.704 167.02 960.05 167.312C959.405 167.596 958.898 167.996 958.526 168.514C958.165 169.021 957.984 169.617 957.984 170.301C957.984 171.062 958.204 171.702 958.644 172.22C959.093 172.737 959.669 173.187 960.372 173.567C961.085 173.938 961.837 174.3 962.628 174.651C963.38 174.983 964.122 175.335 964.855 175.706C965.597 176.067 966.266 176.497 966.861 176.995C967.467 177.483 967.95 178.069 968.312 178.753C968.673 179.437 968.854 180.262 968.854 181.229C968.854 182.469 968.541 183.558 967.916 184.495C967.291 185.423 966.412 186.146 965.279 186.663C964.156 187.181 962.838 187.439 961.324 187.439C959.996 187.439 958.732 187.225 957.53 186.795C956.329 186.365 955.191 185.721 954.117 184.861ZM973.922 167.723C973.512 167.723 973.165 167.581 972.882 167.298C972.608 167.005 972.472 166.653 972.472 166.243C972.472 165.843 972.608 165.501 972.882 165.218C973.165 164.935 973.512 164.793 973.922 164.793C974.342 164.793 974.693 164.935 974.977 165.218C975.26 165.501 975.401 165.843 975.401 166.243C975.401 166.653 975.26 167.005 974.977 167.298C974.693 167.581 974.342 167.723 973.922 167.723ZM975.123 187H972.721V172.352H975.123V187ZM1002.94 187H1000.54V179.192C1000.54 177.62 1000.19 176.399 999.498 175.53C998.815 174.651 997.848 174.212 996.598 174.212C995.338 174.212 994.347 174.656 993.624 175.545C992.911 176.424 992.555 177.64 992.555 179.192V187H990.152V179.192C990.152 177.62 989.806 176.399 989.112 175.53C988.419 174.651 987.447 174.212 986.197 174.212C984.938 174.212 983.946 174.656 983.224 175.545C982.511 176.424 982.154 177.64 982.154 179.192V187H979.752V172.352H981.715L981.817 174.974C982.306 174.017 982.97 173.294 983.81 172.806C984.659 172.308 985.66 172.059 986.813 172.059C988.043 172.059 989.093 172.337 989.962 172.894C990.841 173.44 991.495 174.227 991.925 175.252C992.403 174.207 993.082 173.416 993.961 172.879C994.85 172.332 995.909 172.059 997.14 172.059C998.966 172.059 1000.39 172.64 1001.4 173.802C1002.43 174.954 1002.94 176.565 1002.94 178.636V187ZM1009.61 194.324H1007.2V172.352H1009.34L1009.46 174.49C1010.14 173.738 1010.97 173.147 1011.93 172.718C1012.9 172.278 1013.96 172.059 1015.11 172.059C1016.55 172.059 1017.83 172.391 1018.97 173.055C1020.11 173.719 1021.01 174.627 1021.66 175.779C1022.33 176.922 1022.66 178.221 1022.66 179.676C1022.66 181.121 1022.33 182.42 1021.66 183.572C1021.01 184.725 1020.11 185.633 1018.97 186.297C1017.83 186.961 1016.55 187.293 1015.11 187.293C1014.01 187.293 1012.98 187.093 1012.04 186.692C1011.1 186.292 1010.29 185.735 1009.61 185.022V194.324ZM1014.92 185.096C1015.95 185.096 1016.86 184.866 1017.65 184.407C1018.44 183.938 1019.05 183.294 1019.49 182.474C1019.94 181.653 1020.17 180.716 1020.17 179.661C1020.17 178.597 1019.94 177.659 1019.49 176.849C1019.04 176.028 1018.42 175.384 1017.63 174.915C1016.85 174.446 1015.95 174.212 1014.94 174.212C1013.97 174.212 1013.1 174.427 1012.32 174.856C1011.54 175.286 1010.92 175.877 1010.44 176.629C1009.96 177.371 1009.68 178.221 1009.61 179.178V180.174C1009.68 181.131 1009.96 181.98 1010.43 182.723C1010.89 183.465 1011.51 184.046 1012.29 184.466C1013.07 184.886 1013.95 185.096 1014.92 185.096ZM1028.59 187H1026.04V165.027H1028.59V187ZM1037.77 194.324H1035.15L1038.23 186.883L1031.23 172.352H1033.88L1039.39 184.114L1044.25 172.352H1046.86L1037.77 194.324ZM1072.08 187H1069.5V168.646L1062.16 183.309H1059.84L1052.53 168.733V187H1049.95V165.027H1053.27L1061.01 180.599L1068.71 165.027H1072.08V187ZM1089.48 185.198C1087.67 186.595 1085.67 187.293 1083.48 187.293C1081.95 187.293 1080.59 186.951 1079.38 186.268C1078.17 185.584 1077.21 184.656 1076.5 183.484C1075.81 182.303 1075.46 180.97 1075.46 179.485C1075.46 178.06 1075.79 176.79 1076.43 175.677C1077.08 174.554 1077.96 173.67 1079.08 173.025C1080.21 172.381 1081.48 172.059 1082.91 172.059C1084.37 172.059 1085.66 172.41 1086.77 173.113C1087.9 173.816 1088.77 174.793 1089.4 176.043C1090.02 177.293 1090.33 178.738 1090.33 180.379V180.848H1078.07C1078.25 181.707 1078.6 182.454 1079.13 183.089C1079.65 183.724 1080.31 184.217 1081.1 184.568C1081.91 184.92 1082.79 185.096 1083.77 185.096C1085.45 185.096 1086.98 184.544 1088.37 183.44L1089.48 185.198ZM1077.98 178.797H1088.06C1087.96 177.889 1087.67 177.098 1087.21 176.424C1086.76 175.74 1086.18 175.208 1085.46 174.827C1084.74 174.446 1083.94 174.256 1083.04 174.256C1082.13 174.256 1081.31 174.446 1080.58 174.827C1079.85 175.208 1079.26 175.74 1078.8 176.424C1078.36 177.098 1078.08 177.889 1077.98 178.797ZM1093.72 187V165.027H1100.04C1102.74 165.027 1105.05 165.467 1106.99 166.346C1108.93 167.225 1110.42 168.484 1111.46 170.125C1112.5 171.766 1113.02 173.729 1113.02 176.014C1113.02 178.289 1112.5 180.252 1111.46 181.902C1110.42 183.543 1108.93 184.803 1106.99 185.682C1105.05 186.561 1102.74 187 1100.04 187H1093.72ZM1096.29 184.715H1100.16C1102.32 184.715 1104.16 184.373 1105.68 183.689C1107.21 183.006 1108.37 182.015 1109.17 180.716C1109.98 179.417 1110.39 177.85 1110.39 176.014C1110.39 174.178 1109.98 172.61 1109.17 171.312C1108.37 170.013 1107.21 169.021 1105.68 168.338C1104.16 167.654 1102.32 167.312 1100.16 167.312H1096.29V184.715ZM1123.04 187.293C1121.59 187.293 1120.28 186.961 1119.12 186.297C1117.96 185.633 1117.04 184.729 1116.36 183.587C1115.7 182.435 1115.37 181.131 1115.37 179.676C1115.37 178.23 1115.7 176.937 1116.36 175.794C1117.04 174.642 1117.96 173.733 1119.12 173.069C1120.28 172.396 1121.59 172.059 1123.04 172.059C1124.5 172.059 1125.8 172.396 1126.95 173.069C1128.11 173.733 1129.01 174.642 1129.68 175.794C1130.34 176.937 1130.67 178.23 1130.67 179.676C1130.67 181.131 1130.34 182.435 1129.68 183.587C1129.01 184.729 1128.11 185.633 1126.95 186.297C1125.8 186.961 1124.5 187.293 1123.04 187.293ZM1123.03 185.125C1124.01 185.125 1124.9 184.886 1125.68 184.407C1126.46 183.929 1127.08 183.279 1127.53 182.459C1127.98 181.639 1128.21 180.711 1128.21 179.676C1128.21 178.641 1127.98 177.713 1127.53 176.893C1127.08 176.072 1126.46 175.423 1125.68 174.944C1124.9 174.466 1124.01 174.227 1123.03 174.227C1122.04 174.227 1121.15 174.466 1120.36 174.944C1119.58 175.423 1118.96 176.072 1118.5 176.893C1118.05 177.713 1117.83 178.641 1117.83 179.676C1117.83 180.711 1118.05 181.639 1118.5 182.459C1118.96 183.279 1119.58 183.929 1120.36 184.407C1121.15 184.886 1122.04 185.125 1123.03 185.125ZM1136.61 187H1134.06V165.027H1136.61V187ZM1143.7 187H1141.15V165.027H1143.7V187ZM1147.21 185.726L1147.84 183.47C1148.19 183.802 1148.59 184.09 1149.04 184.334C1149.49 184.578 1149.97 184.769 1150.46 184.905C1150.96 185.032 1151.47 185.096 1151.97 185.096C1152.88 185.096 1153.61 184.896 1154.17 184.495C1154.73 184.095 1155.01 183.572 1155.01 182.928C1155.01 182.459 1154.86 182.073 1154.57 181.771C1154.28 181.458 1153.91 181.189 1153.44 180.965C1152.97 180.74 1152.47 180.525 1151.93 180.32C1151.28 180.066 1150.63 179.778 1149.98 179.456C1149.34 179.134 1148.8 178.709 1148.37 178.182C1147.95 177.654 1147.74 176.961 1147.74 176.102C1147.74 175.281 1147.95 174.568 1148.36 173.963C1148.77 173.357 1149.34 172.889 1150.07 172.557C1150.81 172.225 1151.66 172.059 1152.62 172.059C1154.06 172.059 1155.48 172.42 1156.88 173.143L1156.16 175.311C1155.85 175.105 1155.49 174.925 1155.08 174.769C1154.67 174.603 1154.25 174.476 1153.82 174.388C1153.39 174.3 1152.98 174.256 1152.6 174.256C1151.89 174.256 1151.31 174.422 1150.88 174.754C1150.44 175.076 1150.22 175.511 1150.22 176.058C1150.22 176.37 1150.3 176.658 1150.48 176.922C1150.67 177.176 1150.97 177.43 1151.4 177.684C1151.83 177.938 1152.43 178.221 1153.19 178.533C1153.86 178.807 1154.53 179.119 1155.18 179.471C1155.84 179.812 1156.38 180.257 1156.81 180.804C1157.25 181.341 1157.47 182.044 1157.47 182.913C1157.47 183.772 1157.24 184.534 1156.78 185.198C1156.33 185.853 1155.7 186.365 1154.89 186.736C1154.09 187.107 1153.16 187.293 1152.11 187.293C1150.36 187.293 1148.73 186.771 1147.21 185.726ZM1172.16 185.857C1170.9 185.857 1169.79 185.584 1168.83 185.037C1167.88 184.49 1167.13 183.729 1166.58 182.752C1166.04 181.775 1165.77 180.647 1165.77 179.368C1165.77 177.981 1166.09 176.736 1166.71 175.633C1167.34 174.529 1168.18 173.655 1169.26 173.011C1170.34 172.366 1171.56 172.044 1172.91 172.044C1174.02 172.044 1175.01 172.269 1175.87 172.718C1176.73 173.157 1177.43 173.782 1177.96 174.593L1178.09 172.981H1180.38C1180.3 173.548 1180.22 174.163 1180.14 174.827C1180.07 175.481 1180.01 176.15 1179.94 176.834C1179.88 177.508 1179.82 178.157 1179.76 178.782C1179.71 179.407 1179.67 179.969 1179.64 180.467C1179.62 180.955 1179.6 181.341 1179.6 181.624C1179.6 182.2 1179.75 182.684 1180.05 183.074C1180.36 183.465 1180.72 183.66 1181.15 183.66C1181.62 183.66 1182.04 183.426 1182.4 182.957C1182.77 182.488 1183.06 181.849 1183.26 181.038C1183.48 180.228 1183.59 179.314 1183.59 178.299C1183.59 176.336 1183.17 174.622 1182.35 173.157C1181.53 171.683 1180.38 170.54 1178.9 169.729C1177.42 168.909 1175.69 168.499 1173.71 168.499C1172.08 168.499 1170.57 168.777 1169.19 169.334C1167.8 169.891 1166.59 170.672 1165.55 171.678C1164.53 172.674 1163.73 173.851 1163.15 175.208C1162.58 176.565 1162.3 178.045 1162.3 179.646C1162.3 181.512 1162.69 183.147 1163.46 184.554C1164.23 185.95 1165.31 187.034 1166.7 187.806C1168.08 188.587 1169.7 188.978 1171.54 188.978C1173.83 188.978 1175.88 188.411 1177.7 187.278L1178.78 189.241C1176.31 190.53 1173.79 191.175 1171.22 191.175C1168.97 191.175 1166.98 190.691 1165.26 189.725C1163.55 188.758 1162.21 187.415 1161.25 185.696C1160.29 183.968 1159.81 181.971 1159.81 179.705C1159.81 177.781 1160.16 176.009 1160.85 174.388C1161.54 172.757 1162.52 171.336 1163.77 170.125C1165.03 168.914 1166.5 167.977 1168.19 167.312C1169.88 166.639 1171.71 166.302 1173.7 166.302C1175.51 166.302 1177.17 166.585 1178.68 167.151C1180.18 167.718 1181.48 168.523 1182.57 169.568C1183.67 170.613 1184.51 171.849 1185.11 173.274C1185.7 174.7 1186 176.272 1186 177.991C1186 179.505 1185.78 180.857 1185.33 182.049C1184.89 183.23 1184.28 184.163 1183.5 184.847C1182.73 185.521 1181.85 185.857 1180.86 185.857C1180.04 185.857 1179.35 185.618 1178.78 185.14C1178.21 184.651 1177.82 183.978 1177.61 183.118C1176.99 183.997 1176.22 184.676 1175.28 185.154C1174.35 185.623 1173.31 185.857 1172.16 185.857ZM1172.53 183.66C1173.39 183.66 1174.19 183.479 1174.9 183.118C1175.61 182.747 1176.2 182.244 1176.67 181.609C1177.14 180.965 1177.44 180.237 1177.56 179.427L1177.64 178.577C1177.64 177.708 1177.45 176.951 1177.08 176.307C1176.72 175.652 1176.21 175.145 1175.56 174.783C1174.91 174.422 1174.16 174.241 1173.3 174.241C1172.34 174.241 1171.49 174.466 1170.72 174.915C1169.96 175.354 1169.36 175.96 1168.92 176.731C1168.48 177.493 1168.26 178.357 1168.26 179.324C1168.26 180.623 1168.65 181.673 1169.43 182.474C1170.22 183.265 1171.25 183.66 1172.53 183.66ZM1195.6 187C1194.19 187 1192.93 186.673 1191.8 186.019C1190.69 185.364 1189.81 184.476 1189.17 183.353C1188.52 182.22 1188.2 180.945 1188.2 179.529C1188.2 178.104 1188.52 176.829 1189.17 175.706C1189.81 174.583 1190.69 173.694 1191.8 173.04C1192.93 172.386 1194.2 172.059 1195.61 172.059C1196.74 172.059 1197.78 172.273 1198.73 172.703C1199.68 173.123 1200.48 173.709 1201.15 174.461L1201.27 172.352H1203.39V186.619C1203.39 188.26 1203.07 189.676 1202.42 190.867C1201.78 192.068 1200.86 192.991 1199.67 193.636C1198.48 194.29 1197.06 194.617 1195.42 194.617C1193.1 194.617 1191.08 193.846 1189.36 192.303L1190.41 190.369C1191.75 191.756 1193.38 192.449 1195.32 192.449C1196.48 192.449 1197.48 192.205 1198.32 191.717C1199.17 191.238 1199.83 190.56 1200.28 189.681C1200.75 188.802 1200.99 187.762 1200.99 186.561V184.759C1200.32 185.452 1199.53 185.999 1198.6 186.399C1197.68 186.8 1196.68 187 1195.6 187ZM1195.8 184.876C1196.76 184.876 1197.63 184.661 1198.41 184.231C1199.19 183.792 1199.82 183.196 1200.28 182.444C1200.75 181.683 1200.99 180.823 1200.99 179.866V179.192C1200.99 178.226 1200.75 177.366 1200.28 176.614C1199.82 175.862 1199.19 175.271 1198.41 174.842C1197.63 174.402 1196.76 174.183 1195.8 174.183C1194.82 174.183 1193.93 174.417 1193.15 174.886C1192.37 175.354 1191.75 175.994 1191.29 176.805C1190.84 177.605 1190.62 178.514 1190.62 179.529C1190.62 180.545 1190.84 181.458 1191.29 182.269C1191.75 183.079 1192.37 183.719 1193.15 184.188C1193.93 184.646 1194.82 184.876 1195.8 184.876ZM1230.99 187H1228.59V179.192C1228.59 177.62 1228.24 176.399 1227.54 175.53C1226.86 174.651 1225.89 174.212 1224.64 174.212C1223.38 174.212 1222.39 174.656 1221.67 175.545C1220.96 176.424 1220.6 177.64 1220.6 179.192V187H1218.2V179.192C1218.2 177.62 1217.85 176.399 1217.16 175.53C1216.47 174.651 1215.49 174.212 1214.24 174.212C1212.98 174.212 1211.99 174.656 1211.27 175.545C1210.56 176.424 1210.2 177.64 1210.2 179.192V187H1207.8V172.352H1209.76L1209.86 174.974C1210.35 174.017 1211.02 173.294 1211.86 172.806C1212.71 172.308 1213.71 172.059 1214.86 172.059C1216.09 172.059 1217.14 172.337 1218.01 172.894C1218.89 173.44 1219.54 174.227 1219.97 175.252C1220.45 174.207 1221.13 173.416 1222.01 172.879C1222.9 172.332 1223.96 172.059 1225.19 172.059C1227.01 172.059 1228.43 172.64 1229.45 173.802C1230.47 174.954 1230.99 176.565 1230.99 178.636V187ZM1247.07 187H1245.01L1244.84 185.066C1244.31 185.76 1243.62 186.307 1242.79 186.707C1241.96 187.098 1241.04 187.293 1240.01 187.293C1238.96 187.293 1238.01 187.088 1237.18 186.678C1236.35 186.258 1235.7 185.687 1235.22 184.964C1234.75 184.241 1234.52 183.421 1234.52 182.503C1234.52 181.536 1234.77 180.687 1235.28 179.954C1235.8 179.212 1236.5 178.631 1237.37 178.211C1238.26 177.791 1239.27 177.581 1240.39 177.581C1241.12 177.581 1241.87 177.674 1242.63 177.859C1243.39 178.035 1244.07 178.279 1244.67 178.592V177.977C1244.67 177.195 1244.47 176.531 1244.08 175.984C1243.69 175.428 1243.17 175.003 1242.52 174.71C1241.86 174.407 1241.14 174.256 1240.35 174.256C1239.66 174.256 1238.97 174.383 1238.25 174.637C1237.54 174.881 1236.86 175.262 1236.2 175.779L1235.41 173.714C1236.26 173.167 1237.15 172.757 1238.09 172.483C1239.03 172.2 1239.96 172.059 1240.88 172.059C1242.14 172.059 1243.24 172.317 1244.16 172.835C1245.08 173.343 1245.8 174.07 1246.31 175.018C1246.82 175.955 1247.07 177.068 1247.07 178.357V187ZM1240.44 185.096C1241.19 185.096 1241.88 184.939 1242.5 184.627C1243.13 184.314 1243.63 183.865 1244.02 183.279C1244.42 182.684 1244.63 181.98 1244.67 181.17V180.921C1244.13 180.501 1243.53 180.179 1242.85 179.954C1242.19 179.72 1241.51 179.603 1240.82 179.603C1239.73 179.603 1238.82 179.866 1238.09 180.394C1237.37 180.921 1237.01 181.59 1237.01 182.4C1237.01 182.908 1237.15 183.367 1237.45 183.777C1237.75 184.188 1238.16 184.51 1238.68 184.744C1239.2 184.979 1239.78 185.096 1240.44 185.096ZM1252.59 167.723C1252.18 167.723 1251.84 167.581 1251.55 167.298C1251.28 167.005 1251.14 166.653 1251.14 166.243C1251.14 165.843 1251.28 165.501 1251.55 165.218C1251.84 164.935 1252.18 164.793 1252.59 164.793C1253.01 164.793 1253.37 164.935 1253.65 165.218C1253.93 165.501 1254.07 165.843 1254.07 166.243C1254.07 166.653 1253.93 167.005 1253.65 167.298C1253.37 167.581 1253.01 167.723 1252.59 167.723ZM1253.79 187H1251.39V172.352H1253.79V187ZM1260.97 187H1258.42V165.027H1260.97V187ZM1266.63 187.293C1266.2 187.293 1265.85 187.161 1265.57 186.897C1265.31 186.624 1265.18 186.272 1265.18 185.843C1265.18 185.403 1265.31 185.047 1265.57 184.773C1265.85 184.5 1266.2 184.363 1266.63 184.363C1267.06 184.363 1267.41 184.5 1267.68 184.773C1267.96 185.047 1268.11 185.403 1268.11 185.843C1268.11 186.272 1267.96 186.624 1267.68 186.897C1267.41 187.161 1267.06 187.293 1266.63 187.293ZM1284.04 184.891C1283.33 185.662 1282.49 186.258 1281.51 186.678C1280.53 187.088 1279.48 187.293 1278.36 187.293C1276.91 187.293 1275.6 186.961 1274.43 186.297C1273.28 185.633 1272.37 184.725 1271.7 183.572C1271.03 182.42 1270.7 181.121 1270.7 179.676C1270.7 178.221 1271.03 176.922 1271.7 175.779C1272.37 174.627 1273.28 173.719 1274.43 173.055C1275.6 172.391 1276.91 172.059 1278.36 172.059C1279.47 172.059 1280.52 172.264 1281.5 172.674C1282.47 173.084 1283.32 173.675 1284.03 174.446L1282.59 175.955C1282.08 175.408 1281.46 174.988 1280.73 174.695C1280.02 174.402 1279.26 174.256 1278.46 174.256C1277.44 174.256 1276.52 174.49 1275.72 174.959C1274.93 175.418 1274.31 176.053 1273.85 176.863C1273.4 177.674 1273.17 178.606 1273.17 179.661C1273.17 180.716 1273.4 181.653 1273.85 182.474C1274.31 183.294 1274.93 183.938 1275.72 184.407C1276.52 184.866 1277.44 185.096 1278.46 185.096C1279.26 185.096 1280.03 184.949 1280.75 184.656C1281.47 184.354 1282.09 183.934 1282.59 183.396L1284.04 184.891ZM1293.93 187.293C1292.48 187.293 1291.17 186.961 1290.01 186.297C1288.84 185.633 1287.93 184.729 1287.25 183.587C1286.59 182.435 1286.26 181.131 1286.26 179.676C1286.26 178.23 1286.59 176.937 1287.25 175.794C1287.93 174.642 1288.84 173.733 1290.01 173.069C1291.17 172.396 1292.48 172.059 1293.93 172.059C1295.39 172.059 1296.69 172.396 1297.84 173.069C1299 173.733 1299.9 174.642 1300.57 175.794C1301.23 176.937 1301.56 178.23 1301.56 179.676C1301.56 181.131 1301.23 182.435 1300.57 183.587C1299.9 184.729 1299 185.633 1297.84 186.297C1296.69 186.961 1295.39 187.293 1293.93 187.293ZM1293.92 185.125C1294.9 185.125 1295.79 184.886 1296.57 184.407C1297.35 183.929 1297.96 183.279 1298.41 182.459C1298.87 181.639 1299.1 180.711 1299.1 179.676C1299.1 178.641 1298.87 177.713 1298.41 176.893C1297.96 176.072 1297.35 175.423 1296.57 174.944C1295.79 174.466 1294.9 174.227 1293.92 174.227C1292.93 174.227 1292.04 174.466 1291.25 174.944C1290.47 175.423 1289.85 176.072 1289.39 176.893C1288.94 177.713 1288.72 178.641 1288.72 179.676C1288.72 180.711 1288.94 181.639 1289.39 182.459C1289.85 183.279 1290.47 183.929 1291.25 184.407C1292.04 184.886 1292.93 185.125 1293.92 185.125ZM1328.14 187H1325.73V179.192C1325.73 177.62 1325.39 176.399 1324.69 175.53C1324.01 174.651 1323.04 174.212 1321.79 174.212C1320.53 174.212 1319.54 174.656 1318.82 175.545C1318.11 176.424 1317.75 177.64 1317.75 179.192V187H1315.35V179.192C1315.35 177.62 1315 176.399 1314.31 175.53C1313.61 174.651 1312.64 174.212 1311.39 174.212C1310.13 174.212 1309.14 174.656 1308.42 175.545C1307.71 176.424 1307.35 177.64 1307.35 179.192V187H1304.95V172.352H1306.91L1307.01 174.974C1307.5 174.017 1308.17 173.294 1309 172.806C1309.85 172.308 1310.86 172.059 1312.01 172.059C1313.24 172.059 1314.29 172.337 1315.16 172.894C1316.04 173.44 1316.69 174.227 1317.12 175.252C1317.6 174.207 1318.28 173.416 1319.16 172.879C1320.04 172.332 1321.1 172.059 1322.34 172.059C1324.16 172.059 1325.58 172.64 1326.6 173.802C1327.62 174.954 1328.14 176.565 1328.14 178.636V187Z" fill="white"/>
<path d="M96.9984 61.1632C96.9984 61.1632 94.4271 62.4652 93.5018 61.984C92.5766 61.5028 84.7394 49.3124 83.4298 49.1443C82.1201 48.9762 82.6223 64.6752 81.605 65.4202C80.5877 66.1653 64.3736 74.43 65.3591 76.6388C66.3437 78.8416 81.5797 74.0902 82.2494 75.213C82.919 76.3359 83.8883 91.7104 85.7623 92.8457C87.6355 93.9751 89.7741 77.4866 91.9412 77.0163C94.1083 76.546 107.695 80.5089 109.397 79.7559C111.099 79.0029 100.516 71.2577 100.378 70.2387C100.239 69.2197 108.307 55.3004 107.753 55.0297C107.199 54.759 96.9992 61.1692 96.9992 61.1692L96.9984 61.1632Z" stroke="#FFF89B" stroke-width="5.25" stroke-miterlimit="10"/>
<path d="M955.427 262.861L956.672 260.884C957.307 261.401 957.941 261.831 958.576 262.173C959.211 262.515 959.855 262.769 960.51 262.935C961.174 263.101 961.848 263.184 962.531 263.184C963.527 263.184 964.396 263.018 965.139 262.686C965.891 262.354 966.477 261.895 966.896 261.309C967.316 260.713 967.526 260.029 967.526 259.258C967.526 258.418 967.287 257.725 966.809 257.178C966.34 256.621 965.729 256.147 964.978 255.757C964.226 255.366 963.425 254.995 962.575 254.644C961.862 254.341 961.154 254.019 960.451 253.677C959.748 253.335 959.108 252.939 958.532 252.49C957.966 252.031 957.512 251.479 957.17 250.835C956.828 250.19 956.657 249.414 956.657 248.506C956.657 247.344 956.95 246.318 957.536 245.43C958.122 244.541 958.933 243.848 959.968 243.35C961.013 242.852 962.214 242.603 963.571 242.603C964.489 242.603 965.412 242.725 966.34 242.969C967.268 243.203 968.166 243.55 969.035 244.009L967.98 246.118C967.297 245.718 966.579 245.41 965.827 245.195C965.085 244.98 964.353 244.873 963.63 244.873C962.771 244.873 962.014 245.02 961.359 245.312C960.715 245.596 960.207 245.996 959.836 246.514C959.475 247.021 959.294 247.617 959.294 248.301C959.294 249.062 959.514 249.702 959.953 250.22C960.402 250.737 960.979 251.187 961.682 251.567C962.395 251.938 963.146 252.3 963.938 252.651C964.689 252.983 965.432 253.335 966.164 253.706C966.906 254.067 967.575 254.497 968.171 254.995C968.776 255.483 969.26 256.069 969.621 256.753C969.982 257.437 970.163 258.262 970.163 259.229C970.163 260.469 969.851 261.558 969.226 262.495C968.601 263.423 967.722 264.146 966.589 264.663C965.466 265.181 964.147 265.439 962.634 265.439C961.306 265.439 960.041 265.225 958.84 264.795C957.639 264.365 956.501 263.721 955.427 262.861ZM975.231 245.723C974.821 245.723 974.475 245.581 974.191 245.298C973.918 245.005 973.781 244.653 973.781 244.243C973.781 243.843 973.918 243.501 974.191 243.218C974.475 242.935 974.821 242.793 975.231 242.793C975.651 242.793 976.003 242.935 976.286 243.218C976.569 243.501 976.711 243.843 976.711 244.243C976.711 244.653 976.569 245.005 976.286 245.298C976.003 245.581 975.651 245.723 975.231 245.723ZM976.433 265H974.03V250.352H976.433V265ZM1004.25 265H1001.85V257.192C1001.85 255.62 1001.5 254.399 1000.81 253.53C1000.12 252.651 999.157 252.212 997.907 252.212C996.647 252.212 995.656 252.656 994.934 253.545C994.221 254.424 993.864 255.64 993.864 257.192V265H991.462V257.192C991.462 255.62 991.115 254.399 990.422 253.53C989.729 252.651 988.757 252.212 987.507 252.212C986.247 252.212 985.256 252.656 984.533 253.545C983.82 254.424 983.464 255.64 983.464 257.192V265H981.062V250.352H983.024L983.127 252.974C983.615 252.017 984.279 251.294 985.119 250.806C985.969 250.308 986.97 250.059 988.122 250.059C989.353 250.059 990.402 250.337 991.271 250.894C992.15 251.44 992.805 252.227 993.234 253.252C993.713 252.207 994.392 251.416 995.271 250.879C996.159 250.332 997.219 250.059 998.449 250.059C1000.28 250.059 1001.7 250.64 1002.71 251.802C1003.74 252.954 1004.25 254.565 1004.25 256.636V265ZM1010.92 272.324H1008.51V250.352H1010.65L1010.77 252.49C1011.45 251.738 1012.28 251.147 1013.24 250.718C1014.21 250.278 1015.27 250.059 1016.42 250.059C1017.86 250.059 1019.14 250.391 1020.28 251.055C1021.42 251.719 1022.32 252.627 1022.97 253.779C1023.63 254.922 1023.97 256.221 1023.97 257.676C1023.97 259.121 1023.63 260.42 1022.97 261.572C1022.32 262.725 1021.42 263.633 1020.28 264.297C1019.14 264.961 1017.86 265.293 1016.42 265.293C1015.32 265.293 1014.29 265.093 1013.35 264.692C1012.41 264.292 1011.6 263.735 1010.92 263.022V272.324ZM1016.23 263.096C1017.26 263.096 1018.17 262.866 1018.96 262.407C1019.75 261.938 1020.36 261.294 1020.8 260.474C1021.25 259.653 1021.48 258.716 1021.48 257.661C1021.48 256.597 1021.25 255.659 1020.8 254.849C1020.35 254.028 1019.73 253.384 1018.94 252.915C1018.16 252.446 1017.26 252.212 1016.25 252.212C1015.28 252.212 1014.41 252.427 1013.62 252.856C1012.85 253.286 1012.23 253.877 1011.75 254.629C1011.27 255.371 1010.99 256.221 1010.92 257.178V258.174C1010.99 259.131 1011.27 259.98 1011.74 260.723C1012.2 261.465 1012.82 262.046 1013.6 262.466C1014.38 262.886 1015.26 263.096 1016.23 263.096ZM1029.9 265H1027.35V243.027H1029.9V265ZM1039.08 272.324H1036.46L1039.54 264.883L1032.54 250.352H1035.19L1040.7 262.114L1045.56 250.352H1048.17L1039.08 272.324ZM1073.39 265H1070.81V246.646L1063.47 261.309H1061.14L1053.83 246.733V265H1051.26V243.027H1054.58L1062.32 258.599L1070.02 243.027H1073.39V265ZM1090.79 263.198C1088.98 264.595 1086.97 265.293 1084.79 265.293C1083.26 265.293 1081.9 264.951 1080.69 264.268C1079.47 263.584 1078.52 262.656 1077.81 261.484C1077.12 260.303 1076.77 258.97 1076.77 257.485C1076.77 256.06 1077.1 254.79 1077.74 253.677C1078.39 252.554 1079.27 251.67 1080.39 251.025C1081.52 250.381 1082.79 250.059 1084.22 250.059C1085.68 250.059 1086.97 250.41 1088.08 251.113C1089.21 251.816 1090.08 252.793 1090.71 254.043C1091.33 255.293 1091.64 256.738 1091.64 258.379V258.848H1079.38C1079.56 259.707 1079.91 260.454 1080.44 261.089C1080.96 261.724 1081.62 262.217 1082.41 262.568C1083.21 262.92 1084.1 263.096 1085.08 263.096C1086.76 263.096 1088.29 262.544 1089.68 261.44L1090.79 263.198ZM1079.29 256.797H1089.37C1089.26 255.889 1088.98 255.098 1088.52 254.424C1088.07 253.74 1087.49 253.208 1086.76 252.827C1086.05 252.446 1085.25 252.256 1084.35 252.256C1083.44 252.256 1082.62 252.446 1081.89 252.827C1081.16 253.208 1080.57 253.74 1080.11 254.424C1079.67 255.098 1079.39 255.889 1079.29 256.797ZM1096.14 265.293C1095.71 265.293 1095.36 265.161 1095.08 264.897C1094.82 264.624 1094.69 264.272 1094.69 263.843C1094.69 263.403 1094.82 263.047 1095.08 262.773C1095.36 262.5 1095.71 262.363 1096.14 262.363C1096.57 262.363 1096.92 262.5 1097.19 262.773C1097.48 263.047 1097.62 263.403 1097.62 263.843C1097.62 264.272 1097.48 264.624 1097.19 264.897C1096.92 265.161 1096.57 265.293 1096.14 265.293ZM1101.82 265V243.027H1108.15C1110.85 243.027 1113.16 243.467 1115.09 244.346C1117.04 245.225 1118.53 246.484 1119.56 248.125C1120.61 249.766 1121.13 251.729 1121.13 254.014C1121.13 256.289 1120.61 258.252 1119.56 259.902C1118.53 261.543 1117.04 262.803 1115.09 263.682C1113.16 264.561 1110.85 265 1108.15 265H1101.82ZM1104.4 262.715H1108.27C1110.43 262.715 1112.27 262.373 1113.79 261.689C1115.31 261.006 1116.48 260.015 1117.28 258.716C1118.09 257.417 1118.49 255.85 1118.49 254.014C1118.49 252.178 1118.09 250.61 1117.28 249.312C1116.48 248.013 1115.31 247.021 1113.79 246.338C1112.27 245.654 1110.43 245.312 1108.27 245.312H1104.4V262.715ZM1131.15 265.293C1129.69 265.293 1128.39 264.961 1127.22 264.297C1126.06 263.633 1125.14 262.729 1124.47 261.587C1123.81 260.435 1123.47 259.131 1123.47 257.676C1123.47 256.23 1123.81 254.937 1124.47 253.794C1125.14 252.642 1126.06 251.733 1127.22 251.069C1128.39 250.396 1129.69 250.059 1131.15 250.059C1132.6 250.059 1133.91 250.396 1135.06 251.069C1136.21 251.733 1137.12 252.642 1137.79 253.794C1138.45 254.937 1138.78 256.23 1138.78 257.676C1138.78 259.131 1138.45 260.435 1137.79 261.587C1137.12 262.729 1136.21 263.633 1135.06 264.297C1133.91 264.961 1132.6 265.293 1131.15 265.293ZM1131.13 263.125C1132.12 263.125 1133 262.886 1133.79 262.407C1134.57 261.929 1135.18 261.279 1135.63 260.459C1136.09 259.639 1136.32 258.711 1136.32 257.676C1136.32 256.641 1136.09 255.713 1135.63 254.893C1135.18 254.072 1134.57 253.423 1133.79 252.944C1133 252.466 1132.12 252.227 1131.13 252.227C1130.15 252.227 1129.26 252.466 1128.47 252.944C1127.69 253.423 1127.07 254.072 1126.61 254.893C1126.16 255.713 1125.93 256.641 1125.93 257.676C1125.93 258.711 1126.16 259.639 1126.61 260.459C1127.07 261.279 1127.69 261.929 1128.47 262.407C1129.26 262.886 1130.15 263.125 1131.13 263.125ZM1144.71 265H1142.17V243.027H1144.71V265ZM1151.8 265H1149.25V243.027H1151.8V265ZM1155.32 263.726L1155.95 261.47C1156.3 261.802 1156.7 262.09 1157.15 262.334C1157.6 262.578 1158.07 262.769 1158.57 262.905C1159.07 263.032 1159.57 263.096 1160.08 263.096C1160.99 263.096 1161.72 262.896 1162.28 262.495C1162.83 262.095 1163.11 261.572 1163.11 260.928C1163.11 260.459 1162.97 260.073 1162.67 259.771C1162.39 259.458 1162.01 259.189 1161.54 258.965C1161.08 258.74 1160.57 258.525 1160.04 258.32C1159.38 258.066 1158.73 257.778 1158.09 257.456C1157.44 257.134 1156.91 256.709 1156.48 256.182C1156.06 255.654 1155.85 254.961 1155.85 254.102C1155.85 253.281 1156.05 252.568 1156.46 251.963C1156.87 251.357 1157.44 250.889 1158.18 250.557C1158.92 250.225 1159.77 250.059 1160.72 250.059C1162.17 250.059 1163.59 250.42 1164.99 251.143L1164.27 253.311C1163.96 253.105 1163.6 252.925 1163.19 252.769C1162.78 252.603 1162.36 252.476 1161.93 252.388C1161.5 252.3 1161.09 252.256 1160.71 252.256C1160 252.256 1159.42 252.422 1158.98 252.754C1158.54 253.076 1158.32 253.511 1158.32 254.058C1158.32 254.37 1158.41 254.658 1158.59 254.922C1158.77 255.176 1159.08 255.43 1159.51 255.684C1159.94 255.938 1160.53 256.221 1161.3 256.533C1161.97 256.807 1162.63 257.119 1163.29 257.471C1163.94 257.812 1164.48 258.257 1164.91 258.804C1165.35 259.341 1165.57 260.044 1165.57 260.913C1165.57 261.772 1165.34 262.534 1164.88 263.198C1164.44 263.853 1163.81 264.365 1163 264.736C1162.19 265.107 1161.27 265.293 1160.21 265.293C1158.46 265.293 1156.83 264.771 1155.32 263.726Z" fill="white"/>
<path d="M870 165.775C870 165.902 870 166.029 870 170.666C870 175.302 870 184.444 870.064 189.344C870.129 194.243 870.257 194.624 870.581 194.948C871.299 195.665 874.135 196.167 883.106 196.744C889.879 197.18 901.208 196.941 907.295 196.877C915.211 196.795 917.794 195.663 919.746 194.253C920.564 193.662 920.79 192.712 920.985 187.945C921.164 183.562 921.052 175.179 920.987 170.608C920.897 164.229 920.272 161.428 919.756 159.688C919.638 159.293 919.111 159.111 918.655 159.044C916.213 158.683 913.398 160.643 911.64 161.156C909.308 161.838 906.64 161.797 902.053 162.247C894.045 163.033 888.192 162.439 886.769 162.632C882.896 163.156 880.795 163.082 878.581 163.465C876.496 163.826 874.427 164.105 872.344 164.49C871.98 164.558 872.206 165.252 872.529 165.831C873.248 167.117 877.369 170.619 884.624 176.187C891.916 181.784 896.886 183.728 897.728 184.049C898.634 184.395 899.742 183.478 903.415 180.234C906.611 177.412 912.361 172.039 915.535 169.165C919.879 165.267 921.176 163.474 922.217 161.934C922.478 161.547 922.735 161.166 923 160.773" stroke="#FFFEE9" stroke-width="5" stroke-linecap="round"/>
<path d="M891.517 231.216C890.984 231.216 887.071 231.216 881.026 231.382C876.074 231.518 875.117 232.89 873.996 233.517C872.57 234.314 871.443 236.646 870.854 238.542C870.141 240.838 870.271 245.605 870.048 249.713C869.953 251.462 870.002 254.368 870.179 256.817C870.67 263.592 871.433 265.891 871.704 268.035C871.984 270.24 873.224 271.511 876.442 273.815C880.159 276.477 884.869 276.378 889.061 276.63C895.903 277.04 900.655 276.632 901.995 276.506C905.481 276.179 907.287 276.212 908.991 276.004C910.959 275.763 912.757 275.458 914.504 274.832C915.961 274.31 917.776 273.367 919.346 271.904C920.785 270.564 920.739 269.179 921.322 267.88C922.009 266.348 922.17 263.412 922.489 261.386C922.7 260.042 922.802 258.955 922.937 255.88C923.053 253.221 922.982 248.324 922.938 245.637C922.873 241.691 922.536 240.019 922.177 238.804C921.833 237.64 921.191 236.5 920.52 235.493C919.765 234.36 918.416 233.735 917.339 233.187C916.263 232.639 915.189 232.307 913.488 232.138C911.278 231.92 909.724 231.467 908.196 231.217C906.738 230.978 905.152 230.713 903.892 230.463C902.636 230.214 901.204 230.044 897.002 230C895.256 229.982 894.211 230.628 893.134 230.755C892.864 230.796 892.598 230.879 892.239 230.922C891.88 230.964 891.436 230.964 890.979 230.964" stroke="#FFFEE9" stroke-width="5" stroke-linecap="round"/>
<path d="M894.475 244.036C893.316 244.036 890.457 244.368 888.341 245.331C886.684 246.084 885.966 248.38 885.377 251.185C884.666 254.57 885.686 257.686 886.357 259.109C887.303 261.113 890.602 263.045 892.632 263.935C894.301 264.667 898.477 264.649 901.372 264.149C902.768 263.907 903.614 262.557 904.869 260.969C906.136 259.367 906.394 256.449 906.488 251.805C906.54 249.268 905.415 248.314 903.939 246.932C902.698 245.77 901.204 245.378 900.127 244.834C899.139 244.335 897.977 244.373 896.9 244.037C896.363 243.87 895.822 243.702 895.242 243.576C894.927 243.533 894.572 243.533 894.206 243.533" stroke="#FFFEE9" stroke-width="5" stroke-linecap="round"/>
<path d="M910.707 240.67C910.707 240.775 910.707 241.194 910.79 241.773C910.823 241.999 911.042 242.039 911.267 242.066C911.493 242.093 911.772 242.093 911.944 241.989C912.621 241.577 912.398 240.778 912.314 240.436C912.277 240.285 912.063 240.25 911.893 240.223C911.723 240.196 911.556 240.196 911.414 240.275C911.272 240.353 911.16 240.509 911.102 240.694C911.045 240.879 911.045 241.088 911.045 241.303" stroke="#FFFEE9" stroke-width="5" stroke-linecap="round"/>
<path d="M173.86 205.5C172.78 205.2 171.91 204.93 171.25 204.69C170.59 204.51 170.26 204.42 170.26 204.42C170.38 204.12 170.32 203.85 170.08 203.61C169.9 203.37 169.48 203.22 168.82 203.16C167.92 202.62 167.08 201.93 166.3 201.09C165.58 200.31 164.98 199.53 164.5 198.75C164.02 197.97 163.66 197.31 163.42 196.77C163 195.87 162.79 195.33 162.79 195.15C162.85 194.91 163.21 194.64 163.87 194.34C164.53 193.86 165.01 193.71 165.31 193.89C165.67 194.07 166.09 194.67 166.57 195.69C167.35 197.07 168.67 198.12 170.53 198.84C172.45 199.56 174.58 199.89 176.92 199.83C179.32 199.71 181.6 199.17 183.76 198.21C185.98 197.31 187.36 196.38 187.9 195.42C188.5 194.4 188.29 193.11 187.27 191.55C187.09 191.07 186.88 190.68 186.64 190.38C186.4 190.08 186.01 189.69 185.47 189.21C184.99 188.73 184.18 187.95 183.04 186.87C182.14 186.45 181.3 186.06 180.52 185.7C179.8 185.34 179.02 184.95 178.18 184.53C177.22 184.05 176.05 183.36 174.67 182.46C173.35 181.5 172.09 180.45 170.89 179.31C169.69 178.17 168.82 177.12 168.28 176.16C167.32 175.26 166.6 174.03 166.12 172.47C165.64 170.85 165.46 169.14 165.58 167.34C165.7 165.54 166.15 163.92 166.93 162.48C167.29 161.64 167.89 160.62 168.73 159.42C169.63 158.16 170.62 156.9 171.7 155.64C172.78 154.38 173.83 153.24 174.85 152.22C175.87 151.2 176.71 150.48 177.37 150.06C177.85 149.58 178.36 149.1 178.9 148.62C179.44 148.08 179.71 147.81 179.71 147.81C179.77 147.51 179.86 147.36 179.98 147.36C180.16 147.36 180.25 147.36 180.25 147.36C180.55 147.18 181.21 146.88 182.23 146.46C183.25 146.04 184.36 145.26 185.56 144.12C189.58 142.2 192.85 140.79 195.37 139.89C197.89 138.99 199.96 138.54 201.58 138.54C203.08 138.6 204.43 138.96 205.63 139.62C206.89 140.22 207.91 141.03 208.69 142.05C209.53 143.07 210.04 144.3 210.22 145.74C210.64 147.18 210.52 148.86 209.86 150.78C209.2 152.64 208.21 154.41 206.89 156.09C205.63 157.71 204.25 158.94 202.75 159.78C201.07 160.5 199.93 160.83 199.33 160.77C198.79 160.65 198.55 160.02 198.61 158.88C198.61 158.4 198.76 157.83 199.06 157.17C199.42 156.51 200.35 155.34 201.85 153.66C203.77 150.84 204.94 148.59 205.36 146.91C205.78 145.23 205.39 144.3 204.19 144.12C203.83 144 203.17 144 202.21 144.12C201.31 144.24 200.29 144.42 199.15 144.66C198.07 144.84 197.14 145.05 196.36 145.29C195.58 145.47 195.19 145.62 195.19 145.74C195.19 145.74 195.19 145.83 195.19 146.01C195.19 146.19 195.07 146.25 194.83 146.19C194.71 146.19 194.2 146.43 193.3 146.91C192.4 147.39 191.32 148.02 190.06 148.8C188.8 149.58 187.54 150.36 186.28 151.14C185.02 151.92 183.94 152.61 183.04 153.21C182.2 153.75 181.75 154.08 181.69 154.2C181.57 154.86 180.88 155.46 179.62 156C178.42 156.72 177.31 157.77 176.29 159.15C175.33 160.53 174.25 162.24 173.05 164.28C172.03 165.66 171.31 167.16 170.89 168.78C170.47 170.34 170.47 171.6 170.89 172.56C171.19 173.52 172.12 174.75 173.68 176.25C175.24 177.75 177.19 179.19 179.53 180.57C181.57 181.71 183.4 182.85 185.02 183.99C186.64 185.07 187.96 186.12 188.98 187.14C190.06 188.16 190.78 189.06 191.14 189.84C191.86 190.86 192.37 191.91 192.67 192.99C193.03 194.01 193.21 195 193.21 195.96C193.27 196.92 193.18 197.79 192.94 198.57C192.52 199.53 191.77 200.52 190.69 201.54C189.67 202.56 188.8 203.04 188.08 202.98C187.42 203.16 186.91 203.37 186.55 203.61C186.25 203.85 185.89 204.06 185.47 204.24C185.05 204.48 184.15 204.72 182.77 204.96C181.45 205.2 179.98 205.35 178.36 205.41C176.74 205.53 175.24 205.56 173.86 205.5ZM210.837 200.37C210.177 200.25 209.487 199.92 208.767 199.38C208.107 198.78 207.507 198.12 206.967 197.4C206.487 196.62 206.157 195.93 205.977 195.33C205.977 195.21 205.887 195.06 205.707 194.88C205.587 194.7 205.527 194.61 205.527 194.61C205.287 194.43 205.137 193.65 205.077 192.27C205.077 190.83 205.167 189.24 205.347 187.5C205.527 185.76 205.737 184.38 205.977 183.36C206.277 182.4 206.727 181.11 207.327 179.49C207.927 177.81 208.437 176.31 208.857 174.99L211.287 169.77L207.687 168.78C207.267 168.66 206.907 168.42 206.607 168.06C206.367 167.7 206.247 167.4 206.247 167.16C206.247 166.68 206.517 166.11 207.057 165.45C207.597 164.73 207.987 164.37 208.227 164.37C208.527 164.43 209.067 164.46 209.847 164.46C210.687 164.46 211.497 164.43 212.277 164.37C213.057 164.31 213.537 164.25 213.717 164.19C213.957 164.07 214.197 163.92 214.437 163.74C214.677 163.5 214.857 163.17 214.977 162.75C215.277 162.09 215.547 161.49 215.787 160.95C216.027 160.35 216.357 159.69 216.777 158.97C217.197 158.19 217.527 157.53 217.767 156.99C218.067 156.45 218.517 155.7 219.117 154.74C219.417 154.32 219.747 153.81 220.107 153.21C220.467 152.61 220.917 152.1 221.457 151.68C221.997 151.2 222.537 150.99 223.077 151.05C223.677 151.05 224.427 151.44 225.327 152.22C225.807 152.82 226.077 153.27 226.137 153.57C226.197 153.87 225.957 154.44 225.417 155.28C224.937 156.3 224.367 157.32 223.707 158.34C223.107 159.36 222.537 160.38 221.997 161.4C221.037 162.72 220.857 163.47 221.457 163.65C222.057 163.83 223.737 163.71 226.497 163.29C228.237 162.99 229.497 163.08 230.277 163.56C231.057 163.98 231.507 164.7 231.627 165.72C231.807 167.16 231.657 168.03 231.177 168.33C230.697 168.63 229.317 168.78 227.037 168.78C225.597 169.02 224.367 169.17 223.347 169.23C222.327 169.23 221.577 169.23 221.097 169.23C220.317 169.29 219.807 169.32 219.567 169.32C219.327 169.32 218.967 169.38 218.487 169.5C218.007 169.62 217.647 169.83 217.407 170.13C217.227 170.37 217.017 170.73 216.777 171.21C216.537 171.45 216.177 172.08 215.697 173.1C215.217 174.12 214.617 175.23 213.897 176.43C213.057 178.95 212.337 181.47 211.737 183.99C211.137 186.45 210.657 188.85 210.297 191.19C210.057 192.69 210.087 193.74 210.387 194.34C210.687 194.88 211.467 195.21 212.727 195.33C213.387 195.39 214.437 195.39 215.877 195.33C217.377 195.21 218.547 195.03 219.387 194.79C220.047 194.49 220.737 194.19 221.457 193.89C222.177 193.53 222.837 193.17 223.437 192.81C223.977 192.51 224.517 192.21 225.057 191.91C225.597 191.55 225.867 191.37 225.867 191.37C226.167 190.89 226.497 190.74 226.857 190.92C227.217 191.1 227.517 191.55 227.757 192.27C227.757 192.99 227.607 193.74 227.307 194.52C227.007 195.3 225.897 196.23 223.977 197.31C221.277 198.99 218.787 200.01 216.507 200.37C214.287 200.67 212.397 200.67 210.837 200.37ZM232.352 197.76C232.112 197.28 231.812 196.92 231.452 196.68C231.092 196.38 230.912 196.11 230.912 195.87C230.912 195.63 230.882 195.39 230.822 195.15C230.822 194.85 230.702 194.58 230.462 194.34C230.162 193.98 230.192 193.17 230.552 191.91C230.912 190.59 231.512 189 232.352 187.14C233.192 185.22 234.182 183.21 235.322 181.11C235.802 180.63 236.282 180 236.762 179.22C237.242 178.44 237.602 177.93 237.842 177.69C237.842 177.45 237.932 177.24 238.112 177.06C238.292 176.82 238.502 176.7 238.742 176.7V176.16C238.742 175.86 239.012 175.35 239.552 174.63C240.152 173.91 240.872 173.13 241.712 172.29C242.552 171.39 243.422 170.55 244.322 169.77C245.222 168.93 245.972 168.33 246.572 167.97C247.832 167.13 249.122 166.62 250.442 166.44C251.822 166.26 252.992 166.56 253.952 167.34C254.132 167.52 254.432 167.82 254.852 168.24C255.272 168.66 255.752 169.14 256.292 169.68C256.892 170.16 257.492 170.67 258.092 171.21L261.422 174.18L259.802 178.68C259.022 181.08 258.812 183.18 259.172 184.98C259.592 186.78 260.192 188.34 260.972 189.66C261.272 190.32 261.872 190.95 262.772 191.55C263.732 192.15 264.632 192.51 265.472 192.63C265.952 192.69 266.402 192.87 266.822 193.17C267.242 193.47 267.452 193.95 267.452 194.61C267.452 195.21 267.332 195.69 267.092 196.05C266.852 196.41 266.432 196.65 265.832 196.77C263.852 197.01 261.992 196.53 260.252 195.33C258.572 194.13 257.012 192.15 255.572 189.39C255.332 189.03 255.002 188.37 254.582 187.41C254.222 186.39 254.012 185.73 253.952 185.43C253.712 185.73 253.262 186.3 252.602 187.14C251.942 187.92 251.432 188.49 251.072 188.85C246.812 193.17 243.122 196.08 240.002 197.58C236.942 199.02 234.392 199.08 232.352 197.76ZM235.592 192.72C235.592 193.14 236.222 193.14 237.482 192.72C238.802 192.24 240.212 191.4 241.712 190.2C243.752 188.46 245.792 186.54 247.832 184.44C249.932 182.34 251.612 180.39 252.872 178.59L254.852 175.35C254.252 173.97 253.592 173.04 252.872 172.56C252.212 172.02 251.642 171.75 251.162 171.75C250.382 171.75 249.212 172.47 247.652 173.91C246.152 175.35 244.532 177.27 242.792 179.67C241.052 182.07 239.402 184.71 237.842 187.59C237.242 188.79 236.702 189.96 236.222 191.1C235.802 192.18 235.592 192.72 235.592 192.72ZM267.769 222.69C266.449 222.93 265.549 222.96 265.069 222.78C264.589 222.6 263.929 222.3 263.089 221.88C262.429 221.4 261.919 221.04 261.559 220.8C261.199 220.56 261.019 220.32 261.019 220.08C261.019 219.9 261.079 219.69 261.199 219.45C261.319 219.27 261.529 219.09 261.829 218.91C262.189 218.79 262.669 218.73 263.269 218.73C263.689 218.97 264.379 219.09 265.339 219.09C266.359 219.09 266.989 218.97 267.229 218.73C267.229 218.73 267.499 218.55 268.039 218.19C268.639 217.89 269.419 217.65 270.379 217.47C272.239 216.57 273.889 215.43 275.329 214.05C276.769 212.67 278.149 210.87 279.469 208.65C280.009 207.81 280.579 206.82 281.179 205.68C281.779 204.6 282.199 203.52 282.439 202.44C282.919 201.24 283.459 199.62 284.059 197.58C284.719 195.54 285.289 193.53 285.769 191.55C286.249 189.51 286.519 187.98 286.579 186.96C286.939 183.6 287.509 180.51 288.289 177.69C289.129 174.81 289.849 171.6 290.449 168.06C290.809 167.22 291.079 166.74 291.259 166.62C291.439 166.44 291.829 166.35 292.429 166.35C293.089 166.35 293.569 166.41 293.869 166.53C294.229 166.59 294.619 166.95 295.039 167.61C295.639 168.75 295.849 170.1 295.669 171.66C295.549 173.16 295.099 174.48 294.319 175.62C293.719 176.46 293.179 177.78 292.699 179.58C292.279 181.32 291.859 183.51 291.439 186.15C291.139 187.47 290.809 189.03 290.449 190.83C290.149 192.57 289.819 194.52 289.459 196.68C289.219 197.28 288.889 198.21 288.469 199.47C288.049 200.67 287.779 201.63 287.659 202.35C287.599 202.59 287.419 203.07 287.119 203.79C286.819 204.51 286.519 205.2 286.219 205.86C285.919 206.58 285.709 207.06 285.589 207.3C283.249 212.16 280.579 215.88 277.579 218.46C274.579 221.04 271.309 222.45 267.769 222.69ZM274.609 196.59C273.949 196.59 273.259 196.23 272.539 195.51C271.879 194.79 271.429 194.22 271.189 193.8C270.949 193.2 270.649 192.63 270.289 192.09C269.929 191.55 269.659 190.89 269.479 190.11C269.359 189.33 269.419 188.37 269.659 187.23C269.899 186.45 270.229 185.34 270.649 183.9C271.129 182.4 271.639 180.78 272.179 179.04C272.779 177.3 273.379 175.59 273.979 173.91C274.639 172.17 275.239 170.64 275.779 169.32C276.319 167.94 276.799 166.95 277.219 166.35C277.579 165.87 277.969 165.57 278.389 165.45C278.869 165.33 279.349 165.39 279.829 165.63C280.309 165.81 280.729 166.2 281.089 166.8C281.749 167.64 282.019 168.36 281.899 168.96C281.779 169.56 281.239 170.73 280.279 172.47C280.039 173.13 279.739 173.85 279.379 174.63C279.019 175.35 278.839 175.83 278.839 176.07C278.779 176.19 278.659 176.61 278.479 177.33C278.359 177.99 278.209 178.62 278.029 179.22C277.849 179.82 277.669 180.12 277.489 180.12C277.249 180.36 276.979 181.05 276.679 182.19C276.379 183.27 276.109 184.5 275.869 185.88C275.629 187.2 275.479 188.37 275.419 189.39C275.359 190.35 275.449 190.83 275.689 190.83C277.549 190.83 279.469 190.11 281.449 188.67C283.489 187.23 285.529 185.13 287.569 182.37L289.099 188.76C288.259 189.18 287.479 189.63 286.759 190.11C286.039 190.53 285.379 191.04 284.779 191.64C284.599 191.88 284.179 192.21 283.519 192.63C282.859 193.05 282.199 193.44 281.539 193.8C280.939 194.1 280.549 194.25 280.369 194.25C280.369 194.25 280.279 194.28 280.099 194.34C279.979 194.34 279.919 194.46 279.919 194.7C279.919 194.82 279.529 195.06 278.749 195.42C277.969 195.72 277.159 195.99 276.319 196.23C275.479 196.47 274.909 196.59 274.609 196.59ZM326.18 205.5C324.2 205.2 322.85 204.45 322.13 203.25C321.47 202.11 321.32 200.34 321.68 197.94C322.04 196.8 322.25 195.78 322.31 194.88C322.43 193.92 322.7 193.32 323.12 193.08C323.12 193.08 323.15 192.99 323.21 192.81C323.33 192.63 323.3 192.45 323.12 192.27C323.12 191.49 323.39 190.41 323.93 189.03C324.05 188.67 324.2 188.25 324.38 187.77C324.62 187.23 324.74 186.96 324.74 186.96C324.44 186.48 324.44 186.09 324.74 185.79C325.04 185.49 325.34 185.22 325.64 184.98C326 184.68 326.03 184.35 325.73 183.99C325.61 183.75 325.76 183.21 326.18 182.37C326.6 181.47 327.08 180.54 327.62 179.58C328.16 178.62 328.52 177.87 328.7 177.33C328.7 177.21 328.85 176.79 329.15 176.07C329.45 175.35 329.81 174.51 330.23 173.55C330.65 172.59 331.04 171.72 331.4 170.94C331.82 170.16 332.09 169.65 332.21 169.41C332.81 169.11 332.57 168.9 331.49 168.78C330.41 168.66 329.27 168.63 328.07 168.69C326.21 168.63 324.71 168.54 323.57 168.42C322.49 168.3 321.59 168.03 320.87 167.61C320.15 166.77 319.88 166.17 320.06 165.81C320.3 165.39 321.02 165.15 322.22 165.09C323 165.03 323.6 165 324.02 165C324.5 165 325.1 164.97 325.82 164.91C326.6 164.79 327.8 164.64 329.42 164.46L334.01 164.1L334.28 162.57C334.76 161.79 335.15 161.1 335.45 160.5C335.81 159.84 336.11 159.18 336.35 158.52C336.59 157.86 336.77 157.17 336.89 156.45C336.89 156.45 337.16 155.97 337.7 155.01C338.24 153.99 338.57 152.94 338.69 151.86C339.41 150.66 340.04 149.58 340.58 148.62C341.12 147.6 341.45 146.97 341.57 146.73C342.23 146.19 342.68 145.92 342.92 145.92C343.22 145.92 343.82 146.22 344.72 146.82C345.26 147.12 345.74 147.48 346.16 147.9C346.58 148.32 346.85 148.77 346.97 149.25C347.09 149.67 346.91 150.09 346.43 150.51C346.31 150.75 346.13 151.2 345.89 151.86C345.65 152.46 345.47 152.97 345.35 153.39C344.99 153.81 344.54 154.5 344 155.46C343.52 156.36 343.19 157.29 343.01 158.25C342.53 159.27 342.08 160.2 341.66 161.04C341.24 161.82 340.91 162.21 340.67 162.21C340.79 162.81 341.15 163.11 341.75 163.11C342.35 163.05 343.34 162.99 344.72 162.93C345.86 162.81 346.64 162.69 347.06 162.57C347.54 162.39 348.08 162.45 348.68 162.75C348.98 163.17 349.22 163.65 349.4 164.19C349.58 164.73 349.61 165.24 349.49 165.72C349.43 166.14 349.19 166.44 348.77 166.62C348.47 166.62 347.84 166.8 346.88 167.16C345.98 167.46 344.84 167.64 343.46 167.7L338.69 168.15L337.16 171.21C336.74 171.99 336.38 172.71 336.08 173.37C335.78 173.97 335.57 174.33 335.45 174.45C335.45 174.81 335.24 175.35 334.82 176.07C334.46 176.79 334.07 177.57 333.65 178.41C333.29 179.43 332.87 180.36 332.39 181.2C331.97 182.04 331.76 182.46 331.76 182.46C331.52 182.46 331.4 182.64 331.4 183C331.7 183.72 331.61 184.26 331.13 184.62C330.83 184.8 330.56 185.07 330.32 185.43C330.14 185.73 330.05 185.88 330.05 185.88C330.29 186.12 330.32 186.42 330.14 186.78C330.02 187.14 329.84 187.53 329.6 187.95C329.6 188.43 329.45 189.12 329.15 190.02C328.91 190.92 328.64 191.76 328.34 192.54C328.4 193.62 328.46 194.31 328.52 194.61C328.58 194.91 328.73 195.03 328.97 194.97C329.27 195.03 329.54 195.03 329.78 194.97C330.02 194.91 330.26 194.88 330.5 194.88C331.34 194.52 330.89 196.62 329.15 201.18C328.19 202.68 327.53 203.76 327.17 204.42C326.81 205.14 326.48 205.5 326.18 205.5ZM367.225 200.82C366.805 201.06 366.235 200.97 365.515 200.55C364.855 200.13 364.195 199.5 363.535 198.66C363.115 197.94 362.815 197.16 362.635 196.32C362.515 195.48 362.455 194.31 362.455 192.81C362.515 191.61 362.455 190.83 362.275 190.47C362.155 190.11 361.825 190.17 361.285 190.65C360.745 191.07 359.815 191.94 358.495 193.26C356.995 194.76 355.555 195.93 354.175 196.77C352.855 197.61 351.775 198 350.935 197.94C350.515 197.94 350.035 197.73 349.495 197.31C349.015 196.83 348.565 196.26 348.145 195.6C347.725 194.88 347.365 194.16 347.065 193.44C346.705 192.12 346.645 190.44 346.885 188.4C347.185 186.3 347.665 184.11 348.325 181.83C348.985 179.55 349.735 177.39 350.575 175.35C351.475 173.31 352.375 171.66 353.275 170.4C354.235 169.14 355.075 168.51 355.795 168.51C356.275 168.51 356.695 168.75 357.055 169.23C357.475 169.71 357.895 170.46 358.315 171.48C358.555 171.9 358.645 172.26 358.585 172.56C358.585 172.86 358.345 173.22 357.865 173.64C357.325 174.36 356.695 175.44 355.975 176.88C355.315 178.32 354.655 179.88 353.995 181.56C353.395 183.24 352.855 184.86 352.375 186.42C351.895 187.98 351.565 189.27 351.385 190.29C351.205 191.25 351.235 191.73 351.475 191.73C352.315 191.73 353.305 191.4 354.445 190.74C355.645 190.02 356.785 189.15 357.865 188.13C359.125 186.87 360.235 185.49 361.195 183.99C362.215 182.49 363.235 180.9 364.255 179.22C365.035 178.02 365.845 176.7 366.685 175.26C367.585 173.82 368.155 172.8 368.395 172.2C369.235 170.64 369.865 169.59 370.285 169.05C370.705 168.45 371.215 168.06 371.815 167.88C372.115 167.88 372.385 167.88 372.625 167.88C372.925 167.88 373.075 167.88 373.075 167.88C373.435 167.94 373.855 168.21 374.335 168.69C374.815 168.93 375.085 169.17 375.145 169.41C375.205 169.59 375.235 169.83 375.235 170.13C374.995 170.73 374.605 171.63 374.065 172.83C373.585 173.97 373.225 174.81 372.985 175.35C371.845 177.93 370.705 180.48 369.565 183C368.485 185.46 367.705 187.98 367.225 190.56C367.105 191.4 367.075 192.39 367.135 193.53C367.255 194.61 367.435 195.39 367.675 195.87C367.855 196.23 368.065 196.65 368.305 197.13C368.605 197.55 368.935 197.91 369.295 198.21C369.835 198.57 369.925 198.96 369.565 199.38C369.265 199.8 368.845 200.16 368.305 200.46C367.765 200.7 367.405 200.82 367.225 200.82ZM409.446 196.86C408.246 196.86 407.256 196.62 406.476 196.14C405.696 195.6 405.036 194.73 404.496 193.53C404.256 192.69 404.046 191.76 403.866 190.74C403.746 189.66 403.686 188.67 403.686 187.77C403.686 186.81 403.776 186.18 403.956 185.88C404.196 185.64 404.286 185.22 404.226 184.62C404.226 183.96 404.226 183.27 404.226 182.55C404.166 181.35 403.866 180.69 403.326 180.57C402.846 180.39 402.126 180.57 401.166 181.11C400.086 181.77 398.676 182.67 396.936 183.81C395.196 184.89 393.366 186.09 391.446 187.41C389.586 188.73 387.816 190.11 386.136 191.55C384.816 192.99 384.006 194.1 383.706 194.88C383.466 195.6 383.106 195.96 382.626 195.96C382.146 196.2 381.726 196.23 381.366 196.05C381.066 195.81 380.616 195.45 380.016 194.97C379.596 194.49 379.176 194.04 378.756 193.62C378.336 193.14 378.066 192.78 377.946 192.54C377.946 192.24 378.036 191.61 378.216 190.65C378.396 189.69 378.606 188.73 378.846 187.77C379.146 186.81 379.356 186.18 379.476 185.88C379.776 185.88 380.016 185.58 380.196 184.98C380.436 184.38 380.796 183.72 381.276 183C381.396 182.28 381.696 181.32 382.176 180.12C382.716 178.86 383.196 177.75 383.616 176.79C384.456 175.35 385.026 174.15 385.326 173.19C385.686 172.23 385.926 171.03 386.046 169.59C385.986 169.35 386.046 169.14 386.226 168.96C386.406 168.72 386.616 168.6 386.856 168.6C387.336 168.12 387.906 168 388.566 168.24C389.226 168.42 389.826 168.87 390.366 169.59C391.446 171.03 391.866 172.53 391.626 174.09C391.446 175.59 390.486 177.75 388.746 180.57C388.326 181.53 387.996 182.28 387.756 182.82C387.576 183.3 387.486 183.69 387.486 183.99C387.486 183.99 387.786 183.78 388.386 183.36C389.046 182.94 389.766 182.46 390.546 181.92C391.386 181.32 392.046 180.87 392.526 180.57C392.826 180.27 393.516 179.73 394.596 178.95C395.676 178.17 396.816 177.42 398.016 176.7C399.276 175.92 400.206 175.47 400.806 175.35C401.286 175.11 401.796 174.9 402.336 174.72C402.876 174.48 403.266 174.36 403.506 174.36C403.986 174.36 404.586 174.63 405.306 175.17C406.086 175.65 406.806 176.25 407.466 176.97C408.126 177.63 408.516 178.2 408.636 178.68C408.636 178.92 408.636 179.16 408.636 179.4C408.696 179.64 408.756 179.88 408.816 180.12C409.056 180.9 409.176 181.95 409.176 183.27C409.236 184.59 409.206 185.79 409.086 186.87C408.966 187.95 408.756 188.58 408.456 188.76C408.456 188.76 408.456 188.85 408.456 189.03C408.516 189.15 408.666 189.21 408.906 189.21C408.906 189.45 408.906 189.6 408.906 189.66C408.606 189.66 408.486 189.93 408.546 190.47C408.606 190.95 408.786 191.49 409.086 192.09C409.446 192.69 409.806 193.17 410.166 193.53C410.886 194.25 411.186 194.94 411.066 195.6C410.946 196.2 410.406 196.62 409.446 196.86ZM422.603 198.84C420.263 197.88 418.733 196.56 418.013 194.88C417.353 193.14 417.233 190.47 417.653 186.87C417.773 185.01 417.833 183.78 417.833 183.18C417.833 182.58 417.503 181.98 416.843 181.38C416.663 181.14 416.333 180.81 415.853 180.39C415.433 179.97 415.253 179.61 415.313 179.31C415.253 178.89 415.283 178.44 415.403 177.96C415.523 177.42 415.703 177.15 415.943 177.15C416.183 177.15 416.423 177.09 416.663 176.97C416.963 176.85 417.233 176.85 417.473 176.97C417.713 176.97 417.983 177 418.283 177.06C418.583 177.12 418.733 177.27 418.733 177.51C418.973 177.93 419.363 177.99 419.903 177.69C420.443 177.33 421.013 176.55 421.613 175.35C422.213 174.39 422.993 173.43 423.953 172.47C424.973 171.51 425.963 170.64 426.923 169.86C427.943 169.02 428.783 168.42 429.443 168.06C429.743 167.94 430.193 167.79 430.793 167.61C431.393 167.43 432.023 167.28 432.683 167.16C433.403 167.04 434.003 167.01 434.483 167.07C435.563 167.13 436.463 167.43 437.183 167.97C437.963 168.51 438.683 169.14 439.343 169.86C440.123 170.4 440.603 171.12 440.783 172.02C441.023 172.92 441.083 173.88 440.963 174.9C440.843 175.92 440.573 176.85 440.153 177.69C439.973 178.29 439.463 179.01 438.623 179.85C437.783 180.69 436.823 181.5 435.743 182.28C434.663 183.06 433.673 183.63 432.773 183.99C431.993 184.17 430.973 184.32 429.713 184.44C428.513 184.56 427.373 184.62 426.293 184.62C425.273 184.56 424.583 184.44 424.223 184.26C423.803 184.02 423.473 184.35 423.233 185.25C422.993 186.15 422.813 187.44 422.693 189.12C422.573 190.44 422.573 191.4 422.693 192C422.813 192.6 422.933 193.02 423.053 193.26C423.473 193.68 424.043 194.22 424.763 194.88C425.543 195.48 426.623 195.57 428.003 195.15C429.143 194.85 430.253 194.07 431.333 192.81C432.473 191.55 433.523 190.53 434.483 189.75C434.723 189.33 435.113 189.09 435.653 189.03C436.253 188.91 436.883 188.94 437.543 189.12C438.203 189.54 438.473 190.05 438.353 190.65C438.293 191.19 437.993 192.03 437.453 193.17C437.273 193.59 436.853 194.13 436.193 194.79C435.593 195.39 434.903 196.02 434.123 196.68C433.403 197.28 432.743 197.76 432.143 198.12C430.343 199.08 428.663 199.59 427.103 199.65C425.543 199.65 424.043 199.38 422.603 198.84ZM427.913 180.57C429.233 180.27 430.283 180.06 431.063 179.94C431.843 179.82 432.593 179.49 433.313 178.95C434.033 178.35 434.933 177.24 436.013 175.62C436.253 174.96 436.313 174.3 436.193 173.64C436.133 172.98 435.983 172.53 435.743 172.29C435.203 171.69 434.543 171.51 433.763 171.75C433.043 171.93 432.353 172.26 431.693 172.74C431.273 172.92 430.643 173.37 429.803 174.09C429.023 174.75 428.243 175.53 427.463 176.43C426.683 177.27 426.053 178.05 425.573 178.77C425.093 179.49 424.973 179.91 425.213 180.03C425.093 180.27 425.423 180.42 426.203 180.48C427.043 180.54 427.613 180.57 427.913 180.57ZM466.811 200.1C466.571 200.1 466.211 200.07 465.731 200.01C465.311 199.89 464.951 199.62 464.651 199.2C463.751 198.12 463.181 197.22 462.941 196.5C462.701 195.78 462.671 194.73 462.851 193.35C462.971 192.45 463.031 191.67 463.031 191.01C463.091 190.29 463.151 189.69 463.211 189.21C462.971 188.97 462.521 189.15 461.861 189.75C461.261 190.29 460.421 190.98 459.341 191.82C457.301 194.16 455.471 195.96 453.851 197.22C452.291 198.42 450.881 199.23 449.621 199.65C448.361 200.01 447.161 200.13 446.021 200.01C445.001 199.89 444.191 199.47 443.591 198.75C442.991 197.97 442.601 196.98 442.421 195.78C442.301 194.58 442.301 193.29 442.421 191.91C442.661 189.93 443.081 188.04 443.681 186.24C444.341 184.44 445.391 182.43 446.831 180.21C447.491 179.01 448.361 177.84 449.441 176.7C450.581 175.5 451.811 174.45 453.131 173.55C454.511 172.59 455.831 171.9 457.091 171.48C458.471 170.94 459.881 170.64 461.321 170.58C462.761 170.46 464.051 170.58 465.191 170.94C465.911 171.3 466.481 171.48 466.901 171.48C467.381 171.48 467.741 171.18 467.981 170.58C468.281 170.1 468.581 169.38 468.881 168.42C469.181 167.4 469.541 166.53 469.961 165.81L471.941 159.96C472.601 158.34 473.321 156.63 474.101 154.83C474.881 153.03 475.811 150.84 476.891 148.26C477.911 146.34 478.751 145.23 479.411 144.93C480.071 144.57 480.821 144.81 481.661 145.65C482.321 146.43 482.561 147.33 482.381 148.35C482.201 149.31 481.661 150.87 480.761 153.03C480.341 153.69 479.981 154.32 479.681 154.92C479.381 155.46 478.961 156.33 478.421 157.53C477.641 159.39 476.921 161.07 476.261 162.57C475.601 164.01 474.911 165.66 474.191 167.52C473.951 168.48 473.621 169.59 473.201 170.85C472.841 172.11 472.541 173.25 472.301 174.27C472.121 175.23 471.911 176.13 471.671 176.97C471.491 177.75 471.281 178.14 471.041 178.14C470.561 178.68 470.111 179.64 469.691 181.02C469.271 182.34 468.911 183.72 468.611 185.16C468.371 186.6 468.161 187.8 467.981 188.76C467.861 189.48 467.771 190.41 467.711 191.55C467.651 192.69 467.621 193.8 467.621 194.88C467.621 195.9 467.621 196.62 467.621 197.04C467.621 198.36 467.591 199.2 467.531 199.56C467.471 199.92 467.231 200.1 466.811 200.1ZM447.641 194.43C448.901 194.43 450.221 193.89 451.601 192.81C453.041 191.73 454.481 190.53 455.921 189.21C456.821 188.37 457.781 187.26 458.801 185.88C459.881 184.5 460.901 183.12 461.861 181.74C462.881 180.36 463.691 179.16 464.291 178.14C464.891 177.06 465.191 176.4 465.191 176.16C465.191 175.86 464.921 175.65 464.381 175.53C463.841 175.41 463.211 175.35 462.491 175.35C461.831 175.29 461.291 175.32 460.871 175.44C459.551 175.74 458.231 176.34 456.911 177.24C455.651 178.14 454.271 179.49 452.771 181.29C451.211 183.21 449.921 185.19 448.901 187.23C447.941 189.27 447.341 190.98 447.101 192.36C446.861 193.74 447.041 194.43 447.641 194.43Z" fill="#FFF89B"/>
<path d="M495.962 164.6H512.412C513.345 164.6 514.115 164.927 514.722 165.58C515.375 166.187 515.702 166.957 515.702 167.89C515.702 168.777 515.375 169.523 514.722 170.13C514.115 170.737 513.345 171.04 512.412 171.04H495.962C495.028 171.04 494.235 170.737 493.582 170.13C492.975 169.477 492.672 168.707 492.672 167.82C492.672 166.887 492.975 166.117 493.582 165.51C494.235 164.903 495.028 164.6 495.962 164.6ZM503.312 155.5C504.338 155.5 505.178 155.85 505.832 156.55C506.485 157.203 506.812 158.043 506.812 159.07V191.55C506.812 192.39 506.952 193.067 507.232 193.58C507.512 194.093 507.885 194.443 508.352 194.63C508.865 194.817 509.378 194.91 509.892 194.91C510.405 194.91 510.848 194.817 511.222 194.63C511.642 194.443 512.132 194.35 512.692 194.35C513.252 194.35 513.765 194.607 514.232 195.12C514.698 195.633 514.932 196.333 514.932 197.22C514.932 198.34 514.325 199.25 513.112 199.95C511.898 200.65 510.592 201 509.192 201C508.398 201 507.465 200.93 506.392 200.79C505.318 200.65 504.268 200.3 503.242 199.74C502.262 199.18 501.445 198.293 500.792 197.08C500.138 195.82 499.812 194.07 499.812 191.83V159.07C499.812 158.043 500.138 157.203 500.792 156.55C501.492 155.85 502.332 155.5 503.312 155.5ZM556.992 182.59C556.992 186.323 556.175 189.637 554.542 192.53C552.908 195.377 550.692 197.617 547.892 199.25C545.092 200.883 541.942 201.7 538.442 201.7C534.942 201.7 531.792 200.883 528.992 199.25C526.192 197.617 523.952 195.377 522.272 192.53C520.638 189.637 519.822 186.323 519.822 182.59C519.822 178.81 520.638 175.497 522.272 172.65C523.952 169.757 526.192 167.493 528.992 165.86C531.792 164.18 534.942 163.34 538.442 163.34C541.942 163.34 545.092 164.18 547.892 165.86C550.692 167.493 552.908 169.757 554.542 172.65C556.175 175.497 556.992 178.81 556.992 182.59ZM549.992 182.59C549.992 180.023 549.478 177.807 548.452 175.94C547.425 174.027 546.025 172.533 544.252 171.46C542.525 170.34 540.588 169.78 538.442 169.78C536.295 169.78 534.335 170.34 532.562 171.46C530.788 172.533 529.388 174.027 528.362 175.94C527.335 177.807 526.822 180.023 526.822 182.59C526.822 185.063 527.335 187.257 528.362 189.17C529.388 191.083 530.788 192.577 532.562 193.65C534.335 194.723 536.295 195.26 538.442 195.26C540.588 195.26 542.525 194.723 544.252 193.65C546.025 192.577 547.425 191.083 548.452 189.17C549.478 187.257 549.992 185.063 549.992 182.59ZM579.427 195.26C579.007 194.607 578.821 193.86 578.867 193.02C578.914 192.133 579.404 191.387 580.337 190.78C580.991 190.36 581.667 190.197 582.367 190.29C583.114 190.337 583.814 190.687 584.467 191.34C585.774 192.787 587.221 193.93 588.807 194.77C590.441 195.61 592.401 196.03 594.687 196.03C595.621 195.983 596.577 195.843 597.557 195.61C598.537 195.33 599.377 194.863 600.077 194.21C600.777 193.51 601.127 192.507 601.127 191.2C601.127 190.033 600.754 189.1 600.007 188.4C599.261 187.7 598.281 187.14 597.067 186.72C595.854 186.253 594.547 185.833 593.147 185.46C591.654 185.04 590.137 184.573 588.597 184.06C587.104 183.547 585.751 182.893 584.537 182.1C583.324 181.26 582.321 180.187 581.527 178.88C580.781 177.573 580.407 175.963 580.407 174.05C580.407 171.857 581.014 169.967 582.227 168.38C583.487 166.793 585.097 165.557 587.057 164.67C589.064 163.783 591.234 163.34 593.567 163.34C594.921 163.34 596.344 163.527 597.837 163.9C599.331 164.227 600.777 164.763 602.177 165.51C603.577 166.257 604.791 167.237 605.817 168.45C606.284 169.057 606.541 169.78 606.587 170.62C606.681 171.46 606.307 172.207 605.467 172.86C604.907 173.327 604.231 173.537 603.437 173.49C602.644 173.443 601.991 173.187 601.477 172.72C600.591 171.6 599.447 170.737 598.047 170.13C596.647 169.477 595.061 169.15 593.287 169.15C592.401 169.15 591.467 169.29 590.487 169.57C589.554 169.803 588.761 170.247 588.107 170.9C587.454 171.553 587.127 172.51 587.127 173.77C587.127 174.937 587.501 175.87 588.247 176.57C589.041 177.27 590.067 177.853 591.327 178.32C592.587 178.787 593.964 179.207 595.457 179.58C596.904 179.953 598.327 180.397 599.727 180.91C601.174 181.423 602.457 182.1 603.577 182.94C604.744 183.733 605.677 184.783 606.377 186.09C607.124 187.35 607.497 188.96 607.497 190.92C607.497 193.207 606.821 195.167 605.467 196.8C604.161 198.387 602.481 199.6 600.427 200.44C598.421 201.28 596.297 201.7 594.057 201.7C591.397 201.7 588.737 201.233 586.077 200.3C583.464 199.32 581.247 197.64 579.427 195.26ZM630.775 201.7C626.902 201.7 623.542 200.907 620.695 199.32C617.848 197.687 615.632 195.47 614.045 192.67C612.505 189.823 611.735 186.58 611.735 182.94C611.735 178.833 612.552 175.333 614.185 172.44C615.865 169.5 618.035 167.26 620.695 165.72C623.355 164.133 626.178 163.34 629.165 163.34C631.452 163.34 633.622 163.807 635.675 164.74C637.728 165.627 639.548 166.887 641.135 168.52C642.768 170.107 644.052 171.997 644.985 174.19C645.918 176.337 646.408 178.693 646.455 181.26C646.408 182.193 646.035 182.963 645.335 183.57C644.635 184.177 643.818 184.48 642.885 184.48H615.655L613.975 178.53H640.295L638.965 179.79V178.04C638.872 176.407 638.335 174.983 637.355 173.77C636.375 172.51 635.162 171.553 633.715 170.9C632.268 170.2 630.752 169.85 629.165 169.85C627.765 169.85 626.412 170.083 625.105 170.55C623.845 170.97 622.702 171.67 621.675 172.65C620.695 173.63 619.902 174.937 619.295 176.57C618.735 178.157 618.455 180.14 618.455 182.52C618.455 185.087 618.992 187.327 620.065 189.24C621.138 191.153 622.585 192.647 624.405 193.72C626.225 194.747 628.232 195.26 630.425 195.26C632.152 195.26 633.575 195.097 634.695 194.77C635.815 194.397 636.748 193.953 637.495 193.44C638.242 192.927 638.895 192.437 639.455 191.97C640.155 191.55 640.855 191.34 641.555 191.34C642.395 191.34 643.095 191.643 643.655 192.25C644.215 192.81 644.495 193.487 644.495 194.28C644.495 195.307 643.982 196.24 642.955 197.08C641.695 198.293 639.945 199.367 637.705 200.3C635.512 201.233 633.202 201.7 630.775 201.7ZM670.117 201.7C666.244 201.7 662.884 200.907 660.037 199.32C657.191 197.687 654.974 195.47 653.387 192.67C651.847 189.823 651.077 186.58 651.077 182.94C651.077 178.833 651.894 175.333 653.527 172.44C655.207 169.5 657.377 167.26 660.037 165.72C662.697 164.133 665.521 163.34 668.507 163.34C670.794 163.34 672.964 163.807 675.017 164.74C677.071 165.627 678.891 166.887 680.477 168.52C682.111 170.107 683.394 171.997 684.327 174.19C685.261 176.337 685.751 178.693 685.797 181.26C685.751 182.193 685.377 182.963 684.677 183.57C683.977 184.177 683.161 184.48 682.227 184.48H654.997L653.317 178.53H679.637L678.307 179.79V178.04C678.214 176.407 677.677 174.983 676.697 173.77C675.717 172.51 674.504 171.553 673.057 170.9C671.611 170.2 670.094 169.85 668.507 169.85C667.107 169.85 665.754 170.083 664.447 170.55C663.187 170.97 662.044 171.67 661.017 172.65C660.037 173.63 659.244 174.937 658.637 176.57C658.077 178.157 657.797 180.14 657.797 182.52C657.797 185.087 658.334 187.327 659.407 189.24C660.481 191.153 661.927 192.647 663.747 193.72C665.567 194.747 667.574 195.26 669.767 195.26C671.494 195.26 672.917 195.097 674.037 194.77C675.157 194.397 676.091 193.953 676.837 193.44C677.584 192.927 678.237 192.437 678.797 191.97C679.497 191.55 680.197 191.34 680.897 191.34C681.737 191.34 682.437 191.643 682.997 192.25C683.557 192.81 683.837 193.487 683.837 194.28C683.837 195.307 683.324 196.24 682.297 197.08C681.037 198.293 679.287 199.367 677.047 200.3C674.854 201.233 672.544 201.7 670.117 201.7ZM198.81 243.83C199.697 243.83 200.467 244.18 201.12 244.88C201.82 245.533 202.17 246.397 202.17 247.47C202.17 247.703 202.147 247.937 202.1 248.17C202.053 248.403 201.983 248.613 201.89 248.8L191.18 278.76C190.9 279.553 190.41 280.16 189.71 280.58C189.01 280.953 188.287 281.093 187.54 281C186.187 280.907 185.183 280.16 184.53 278.76L176.62 257.76L178.23 257.9L170.95 278.76C170.297 280.16 169.293 280.907 167.94 281C167.24 281.093 166.517 280.953 165.77 280.58C165.07 280.16 164.58 279.553 164.3 278.76L153.52 248.8C153.333 248.38 153.24 247.937 153.24 247.47C153.24 246.49 153.543 245.65 154.15 244.95C154.803 244.203 155.667 243.83 156.74 243.83C157.487 243.83 158.14 244.017 158.7 244.39C159.307 244.763 159.727 245.323 159.96 246.07L168.92 271.34L167.31 271.2L174.59 252.09C175.197 250.643 176.27 249.92 177.81 249.92C178.65 249.92 179.303 250.107 179.77 250.48C180.237 250.853 180.61 251.39 180.89 252.09L188.31 271.27L186.42 271.48L195.45 246.07C195.917 244.577 197.037 243.83 198.81 243.83ZM226.439 243.55C229.659 243.55 232.155 244.25 233.929 245.65C235.702 247.003 236.939 248.847 237.639 251.18C238.385 253.513 238.759 256.08 238.759 258.88V277.43C238.759 278.457 238.409 279.32 237.709 280.02C237.055 280.673 236.239 281 235.259 281C234.232 281 233.392 280.673 232.739 280.02C232.085 279.32 231.759 278.457 231.759 277.43V258.88C231.759 257.247 231.525 255.753 231.059 254.4C230.639 253.047 229.869 251.973 228.749 251.18C227.675 250.387 226.159 249.99 224.199 249.99C222.379 249.99 220.745 250.387 219.299 251.18C217.899 251.973 216.802 253.047 216.009 254.4C215.262 255.753 214.889 257.247 214.889 258.88V277.43C214.889 278.457 214.539 279.32 213.839 280.02C213.185 280.673 212.369 281 211.389 281C210.362 281 209.522 280.673 208.869 280.02C208.215 279.32 207.889 278.457 207.889 277.43V232.77C207.889 231.743 208.215 230.903 208.869 230.25C209.522 229.55 210.362 229.2 211.389 229.2C212.369 229.2 213.185 229.55 213.839 230.25C214.539 230.903 214.889 231.743 214.889 232.77V251.88L213.629 252.58C213.955 251.553 214.492 250.503 215.239 249.43C216.032 248.357 216.989 247.377 218.109 246.49C219.275 245.603 220.559 244.903 221.959 244.39C223.359 243.83 224.852 243.55 226.439 243.55ZM277.264 243.62C278.291 243.62 279.131 243.97 279.784 244.67C280.437 245.323 280.764 246.163 280.764 247.19V277.43C280.764 278.457 280.437 279.32 279.784 280.02C279.131 280.673 278.291 281 277.264 281C276.284 281 275.444 280.673 274.744 280.02C274.091 279.32 273.764 278.457 273.764 277.43V272.39L275.234 272.6C275.234 273.44 274.884 274.373 274.184 275.4C273.531 276.427 272.621 277.43 271.454 278.41C270.287 279.343 268.911 280.137 267.324 280.79C265.737 281.397 264.034 281.7 262.214 281.7C258.994 281.7 256.101 280.883 253.534 279.25C250.967 277.57 248.937 275.283 247.444 272.39C245.951 269.497 245.204 266.207 245.204 262.52C245.204 258.74 245.951 255.427 247.444 252.58C248.937 249.687 250.944 247.423 253.464 245.79C256.031 244.157 258.877 243.34 262.004 243.34C264.011 243.34 265.854 243.667 267.534 244.32C269.261 244.973 270.754 245.813 272.014 246.84C273.274 247.867 274.231 248.963 274.884 250.13C275.584 251.25 275.934 252.323 275.934 253.35L273.764 253.56V247.19C273.764 246.21 274.091 245.37 274.744 244.67C275.444 243.97 276.284 243.62 277.264 243.62ZM262.984 275.26C265.177 275.26 267.114 274.7 268.794 273.58C270.474 272.46 271.781 270.943 272.714 269.03C273.647 267.07 274.114 264.9 274.114 262.52C274.114 260.093 273.647 257.923 272.714 256.01C271.781 254.097 270.474 252.58 268.794 251.46C267.114 250.34 265.177 249.78 262.984 249.78C260.837 249.78 258.924 250.34 257.244 251.46C255.611 252.58 254.304 254.097 253.324 256.01C252.391 257.923 251.924 260.093 251.924 262.52C251.924 264.9 252.391 267.07 253.324 269.03C254.304 270.943 255.611 272.46 257.244 273.58C258.924 274.7 260.837 275.26 262.984 275.26ZM288.681 244.6H305.131C306.064 244.6 306.834 244.927 307.441 245.58C308.094 246.187 308.421 246.957 308.421 247.89C308.421 248.777 308.094 249.523 307.441 250.13C306.834 250.737 306.064 251.04 305.131 251.04H288.681C287.747 251.04 286.954 250.737 286.301 250.13C285.694 249.477 285.391 248.707 285.391 247.82C285.391 246.887 285.694 246.117 286.301 245.51C286.954 244.903 287.747 244.6 288.681 244.6ZM296.031 235.5C297.057 235.5 297.897 235.85 298.551 236.55C299.204 237.203 299.531 238.043 299.531 239.07V271.55C299.531 272.39 299.671 273.067 299.951 273.58C300.231 274.093 300.604 274.443 301.071 274.63C301.584 274.817 302.097 274.91 302.611 274.91C303.124 274.91 303.567 274.817 303.941 274.63C304.361 274.443 304.851 274.35 305.411 274.35C305.971 274.35 306.484 274.607 306.951 275.12C307.417 275.633 307.651 276.333 307.651 277.22C307.651 278.34 307.044 279.25 305.831 279.95C304.617 280.65 303.311 281 301.911 281C301.117 281 300.184 280.93 299.111 280.79C298.037 280.65 296.987 280.3 295.961 279.74C294.981 279.18 294.164 278.293 293.511 277.08C292.857 275.82 292.531 274.07 292.531 271.83V239.07C292.531 238.043 292.857 237.203 293.511 236.55C294.211 235.85 295.051 235.5 296.031 235.5ZM375.765 243.83C376.652 243.83 377.422 244.18 378.075 244.88C378.775 245.533 379.125 246.397 379.125 247.47C379.125 247.703 379.102 247.937 379.055 248.17C379.008 248.403 378.938 248.613 378.845 248.8L368.135 278.76C367.855 279.553 367.365 280.16 366.665 280.58C365.965 280.953 365.242 281.093 364.495 281C363.142 280.907 362.138 280.16 361.485 278.76L353.575 257.76L355.185 257.9L347.905 278.76C347.252 280.16 346.248 280.907 344.895 281C344.195 281.093 343.472 280.953 342.725 280.58C342.025 280.16 341.535 279.553 341.255 278.76L330.475 248.8C330.288 248.38 330.195 247.937 330.195 247.47C330.195 246.49 330.498 245.65 331.105 244.95C331.758 244.203 332.622 243.83 333.695 243.83C334.442 243.83 335.095 244.017 335.655 244.39C336.262 244.763 336.682 245.323 336.915 246.07L345.875 271.34L344.265 271.2L351.545 252.09C352.152 250.643 353.225 249.92 354.765 249.92C355.605 249.92 356.258 250.107 356.725 250.48C357.192 250.853 357.565 251.39 357.845 252.09L365.265 271.27L363.375 271.48L372.405 246.07C372.872 244.577 373.992 243.83 375.765 243.83ZM401.994 281.7C398.12 281.7 394.76 280.907 391.914 279.32C389.067 277.687 386.85 275.47 385.264 272.67C383.724 269.823 382.954 266.58 382.954 262.94C382.954 258.833 383.77 255.333 385.404 252.44C387.084 249.5 389.254 247.26 391.914 245.72C394.574 244.133 397.397 243.34 400.384 243.34C402.67 243.34 404.84 243.807 406.894 244.74C408.947 245.627 410.767 246.887 412.354 248.52C413.987 250.107 415.27 251.997 416.204 254.19C417.137 256.337 417.627 258.693 417.674 261.26C417.627 262.193 417.254 262.963 416.554 263.57C415.854 264.177 415.037 264.48 414.104 264.48H386.874L385.194 258.53H411.514L410.184 259.79V258.04C410.09 256.407 409.554 254.983 408.574 253.77C407.594 252.51 406.38 251.553 404.934 250.9C403.487 250.2 401.97 249.85 400.384 249.85C398.984 249.85 397.63 250.083 396.324 250.55C395.064 250.97 393.92 251.67 392.894 252.65C391.914 253.63 391.12 254.937 390.514 256.57C389.954 258.157 389.674 260.14 389.674 262.52C389.674 265.087 390.21 267.327 391.284 269.24C392.357 271.153 393.804 272.647 395.624 273.72C397.444 274.747 399.45 275.26 401.644 275.26C403.37 275.26 404.794 275.097 405.914 274.77C407.034 274.397 407.967 273.953 408.714 273.44C409.46 272.927 410.114 272.437 410.674 271.97C411.374 271.55 412.074 271.34 412.774 271.34C413.614 271.34 414.314 271.643 414.874 272.25C415.434 272.81 415.714 273.487 415.714 274.28C415.714 275.307 415.2 276.24 414.174 277.08C412.914 278.293 411.164 279.367 408.924 280.3C406.73 281.233 404.42 281.7 401.994 281.7ZM432.866 238.23C432.866 239.677 432.446 241.123 431.606 242.57C430.813 244.017 429.786 245.23 428.526 246.21C427.266 247.143 425.936 247.61 424.536 247.61C424.069 247.61 423.579 247.423 423.066 247.05C422.599 246.677 422.366 246.047 422.366 245.16C422.366 244.227 422.646 243.69 423.206 243.55C423.813 243.363 424.396 243.13 424.956 242.85C425.609 242.523 426.123 242.127 426.496 241.66C426.869 241.147 427.056 240.54 427.056 239.84C427.056 239.327 426.823 238.883 426.356 238.51C425.936 238.137 425.376 237.95 424.676 237.95C424.396 237.95 424.069 237.997 423.696 238.09C423.323 238.137 423.019 238.253 422.786 238.44C422.366 238.207 422.016 237.927 421.736 237.6C421.456 237.273 421.316 236.783 421.316 236.13C421.316 234.87 421.899 233.797 423.066 232.91C424.233 232.023 425.563 231.58 427.056 231.58C428.829 231.58 430.229 232.21 431.256 233.47C432.329 234.683 432.866 236.27 432.866 238.23ZM443.649 281C442.623 281 441.783 280.673 441.129 280.02C440.476 279.32 440.149 278.457 440.149 277.43V247.75C440.149 246.723 440.476 245.883 441.129 245.23C441.783 244.53 442.623 244.18 443.649 244.18C444.629 244.18 445.446 244.53 446.099 245.23C446.799 245.883 447.149 246.723 447.149 247.75V255.59L446.449 252.58C446.823 251.273 447.383 250.06 448.129 248.94C448.923 247.82 449.856 246.84 450.929 246C452.003 245.16 453.193 244.507 454.499 244.04C455.853 243.573 457.253 243.34 458.699 243.34C459.913 243.34 460.963 243.667 461.849 244.32C462.736 244.973 463.179 245.79 463.179 246.77C463.179 248.03 462.853 248.963 462.199 249.57C461.546 250.13 460.823 250.41 460.029 250.41C459.329 250.41 458.653 250.27 457.999 249.99C457.346 249.663 456.576 249.5 455.689 249.5C454.709 249.5 453.706 249.757 452.679 250.27C451.653 250.783 450.719 251.553 449.879 252.58C449.039 253.56 448.363 254.727 447.849 256.08C447.383 257.433 447.149 258.95 447.149 260.63V277.43C447.149 278.457 446.799 279.32 446.099 280.02C445.446 280.673 444.629 281 443.649 281ZM483.585 281.7C479.711 281.7 476.351 280.907 473.505 279.32C470.658 277.687 468.441 275.47 466.855 272.67C465.315 269.823 464.545 266.58 464.545 262.94C464.545 258.833 465.361 255.333 466.995 252.44C468.675 249.5 470.845 247.26 473.505 245.72C476.165 244.133 478.988 243.34 481.975 243.34C484.261 243.34 486.431 243.807 488.485 244.74C490.538 245.627 492.358 246.887 493.945 248.52C495.578 250.107 496.861 251.997 497.795 254.19C498.728 256.337 499.218 258.693 499.265 261.26C499.218 262.193 498.845 262.963 498.145 263.57C497.445 264.177 496.628 264.48 495.695 264.48H468.465L466.785 258.53H493.105L491.775 259.79V258.04C491.681 256.407 491.145 254.983 490.165 253.77C489.185 252.51 487.971 251.553 486.525 250.9C485.078 250.2 483.561 249.85 481.975 249.85C480.575 249.85 479.221 250.083 477.915 250.55C476.655 250.97 475.511 251.67 474.485 252.65C473.505 253.63 472.711 254.937 472.105 256.57C471.545 258.157 471.265 260.14 471.265 262.52C471.265 265.087 471.801 267.327 472.875 269.24C473.948 271.153 475.395 272.647 477.215 273.72C479.035 274.747 481.041 275.26 483.235 275.26C484.961 275.26 486.385 275.097 487.505 274.77C488.625 274.397 489.558 273.953 490.305 273.44C491.051 272.927 491.705 272.437 492.265 271.97C492.965 271.55 493.665 271.34 494.365 271.34C495.205 271.34 495.905 271.643 496.465 272.25C497.025 272.81 497.305 273.487 497.305 274.28C497.305 275.307 496.791 276.24 495.765 277.08C494.505 278.293 492.755 279.367 490.515 280.3C488.321 281.233 486.011 281.7 483.585 281.7ZM551.299 244.18C552.279 244.18 553.096 244.53 553.749 245.23C554.449 245.883 554.799 246.723 554.799 247.75V266.16C554.799 271.013 553.446 274.817 550.739 277.57C548.033 280.277 544.206 281.63 539.259 281.63C534.359 281.63 530.556 280.277 527.849 277.57C525.189 274.817 523.859 271.013 523.859 266.16V247.75C523.859 246.723 524.186 245.883 524.839 245.23C525.493 244.53 526.333 244.18 527.359 244.18C528.339 244.18 529.156 244.53 529.809 245.23C530.509 245.883 530.859 246.723 530.859 247.75V266.16C530.859 269.193 531.559 271.457 532.959 272.95C534.406 274.443 536.506 275.19 539.259 275.19C542.059 275.19 544.183 274.443 545.629 272.95C547.076 271.457 547.799 269.193 547.799 266.16V247.75C547.799 246.723 548.126 245.883 548.779 245.23C549.433 244.53 550.273 244.18 551.299 244.18ZM581.683 243.55C584.95 243.55 587.843 244.367 590.363 246C592.93 247.633 594.96 249.873 596.453 252.72C597.947 255.52 598.693 258.787 598.693 262.52C598.693 266.253 597.947 269.567 596.453 272.46C594.96 275.307 592.953 277.547 590.433 279.18C587.913 280.813 585.067 281.63 581.893 281.63C580.12 281.63 578.44 281.35 576.853 280.79C575.267 280.23 573.867 279.507 572.653 278.62C571.44 277.687 570.437 276.707 569.643 275.68C568.897 274.653 568.43 273.697 568.243 272.81L570.133 271.9V291.43C570.133 292.457 569.783 293.297 569.083 293.95C568.43 294.65 567.613 295 566.633 295C565.607 295 564.767 294.65 564.113 293.95C563.46 293.297 563.133 292.457 563.133 291.43V247.61C563.133 246.63 563.46 245.79 564.113 245.09C564.767 244.39 565.607 244.04 566.633 244.04C567.613 244.04 568.43 244.39 569.083 245.09C569.783 245.79 570.133 246.63 570.133 247.61V252.44L569.013 251.81C569.153 250.923 569.597 250.013 570.343 249.08C571.09 248.1 572.023 247.19 573.143 246.35C574.31 245.51 575.617 244.833 577.063 244.32C578.557 243.807 580.097 243.55 581.683 243.55ZM580.913 249.99C578.673 249.99 576.713 250.55 575.033 251.67C573.4 252.743 572.117 254.213 571.183 256.08C570.25 257.947 569.783 260.093 569.783 262.52C569.783 264.9 570.25 267.07 571.183 269.03C572.117 270.943 573.4 272.46 575.033 273.58C576.713 274.653 578.673 275.19 580.913 275.19C583.107 275.19 585.02 274.653 586.653 273.58C588.287 272.46 589.57 270.943 590.503 269.03C591.483 267.07 591.973 264.9 591.973 262.52C591.973 260.14 591.483 258.017 590.503 256.15C589.57 254.237 588.287 252.743 586.653 251.67C585.02 250.55 583.107 249.99 580.913 249.99ZM622.802 244.6H639.252C640.186 244.6 640.956 244.927 641.562 245.58C642.216 246.187 642.542 246.957 642.542 247.89C642.542 248.777 642.216 249.523 641.562 250.13C640.956 250.737 640.186 251.04 639.252 251.04H622.802C621.869 251.04 621.076 250.737 620.422 250.13C619.816 249.477 619.512 248.707 619.512 247.82C619.512 246.887 619.816 246.117 620.422 245.51C621.076 244.903 621.869 244.6 622.802 244.6ZM630.152 235.5C631.179 235.5 632.019 235.85 632.672 236.55C633.326 237.203 633.652 238.043 633.652 239.07V271.55C633.652 272.39 633.792 273.067 634.072 273.58C634.352 274.093 634.726 274.443 635.192 274.63C635.706 274.817 636.219 274.91 636.732 274.91C637.246 274.91 637.689 274.817 638.062 274.63C638.482 274.443 638.972 274.35 639.532 274.35C640.092 274.35 640.606 274.607 641.072 275.12C641.539 275.633 641.772 276.333 641.772 277.22C641.772 278.34 641.166 279.25 639.952 279.95C638.739 280.65 637.432 281 636.032 281C635.239 281 634.306 280.93 633.232 280.79C632.159 280.65 631.109 280.3 630.082 279.74C629.102 279.18 628.286 278.293 627.632 277.08C626.979 275.82 626.652 274.07 626.652 271.83V239.07C626.652 238.043 626.979 237.203 627.632 236.55C628.332 235.85 629.172 235.5 630.152 235.5ZM683.832 262.59C683.832 266.323 683.016 269.637 681.382 272.53C679.749 275.377 677.532 277.617 674.732 279.25C671.932 280.883 668.782 281.7 665.282 281.7C661.782 281.7 658.632 280.883 655.832 279.25C653.032 277.617 650.792 275.377 649.112 272.53C647.479 269.637 646.662 266.323 646.662 262.59C646.662 258.81 647.479 255.497 649.112 252.65C650.792 249.757 653.032 247.493 655.832 245.86C658.632 244.18 661.782 243.34 665.282 243.34C668.782 243.34 671.932 244.18 674.732 245.86C677.532 247.493 679.749 249.757 681.382 252.65C683.016 255.497 683.832 258.81 683.832 262.59ZM676.832 262.59C676.832 260.023 676.319 257.807 675.292 255.94C674.266 254.027 672.866 252.533 671.092 251.46C669.366 250.34 667.429 249.78 665.282 249.78C663.136 249.78 661.176 250.34 659.402 251.46C657.629 252.533 656.229 254.027 655.202 255.94C654.176 257.807 653.662 260.023 653.662 262.59C653.662 265.063 654.176 267.257 655.202 269.17C656.229 271.083 657.629 272.577 659.402 273.65C661.176 274.723 663.136 275.26 665.282 275.26C667.429 275.26 669.366 274.723 671.092 273.65C672.866 272.577 674.266 271.083 675.292 269.17C676.319 267.257 676.832 265.063 676.832 262.59ZM693.015 280.93C691.849 280.93 690.939 280.603 690.285 279.95C689.679 279.297 689.375 278.387 689.375 277.22V275.96C689.375 274.793 689.679 273.883 690.285 273.23C690.939 272.577 691.849 272.25 693.015 272.25H693.785C694.952 272.25 695.839 272.577 696.445 273.23C697.052 273.883 697.355 274.793 697.355 275.96V277.22C697.355 278.387 697.052 279.297 696.445 279.95C695.839 280.603 694.952 280.93 693.785 280.93H693.015Z" fill="#FFFEE9"/>
<path d="M1340.32 357.35C1329 356.897 1319.44 349.699 1316.74 339.967C1313.19 327.183 1323.08 315.855 1331.75 311.351C1333.54 310.423 1344.34 304.809 1354.53 310.55C1359.88 313.564 1366.24 320.376 1365.25 329.269C1364.26 338.118 1356.47 344.841 1348.09 345.581C1341.51 346.161 1332.36 343.246 1329.87 335.419C1327.97 329.424 1330.16 321.199 1336.57 318.301C1343.05 315.375 1351.89 318.753 1353.45 324.185C1354.44 327.608 1352.87 333.023 1349.17 333.812C1346.58 334.364 1343.44 332.559 1341.66 329.264" stroke="#71BDFE" stroke-width="5.25" stroke-linecap="round" stroke-linejoin="round"/>
<path d="M668 351.135C668 353.185 668.342 355.607 669.543 358.19C670.874 361.055 679.326 363.879 698.381 367.503C711.117 369.925 730.76 368.735 742.159 368.393C756.322 367.969 761.157 365.298 765.117 362.373C769.038 359.477 771.179 353.93 772.214 347.387C773.132 341.589 771.883 337.686 770.335 335.791C766.963 331.664 758.113 332.499 751.881 333.7C748.931 334.269 747.036 336.972 745.829 339.896C745.203 341.416 744.965 343.163 745.301 344.897C746.959 353.44 761.799 359.728 781.113 365.267C792.151 368.432 804.599 367.7 817.504 367.187C831.508 366.631 844.293 362.544 854.454 358.242C871.221 347.377 881.263 338.38 882.987 335.797C883.686 334.58 884.028 333.555 885.415 331.464" stroke="#FFF89B" stroke-width="6" stroke-linecap="round"/>
<path d="M863.673 336.64C866.075 336.299 872.95 333.555 878.152 330.61C880.101 329.507 882.299 328.71 884.364 327.504C885.37 326.917 886.43 326.639 887.641 327.83C891.627 336.278 891.968 341.113 892.657 343.867C893.004 345.254 893.345 346.621 893.697 351.135" stroke="#FFF89B" stroke-width="6" stroke-linecap="round"/>
<path d="M771.651 87.008C772.046 90.1458 774.879 97.5527 776.391 106.25C778.064 115.875 768.197 122.397 762.108 131.055C758.356 136.39 756.935 142.37 758.272 147.899C761.711 162.112 774.827 165.554 777.429 173.234C781.546 185.384 773.276 193.203 768.816 200.106C766.415 203.823 764.854 207.545 763.939 210.899C761.911 218.323 769.9 224.986 778.091 236.015C783.89 243.823 773.591 251.805 769.923 258.722C767.295 263.68 767.664 269.366 767.769 273.285C770.393 279.421 775.367 285.86 775.344 300.491C774.703 303.643 773.609 305.154 772.42 308.277" stroke="#71BDFE" stroke-width="6" stroke-linecap="round"/>
</svg>
