<svg width="393" height="224" viewBox="0 0 393 224" fill="none" xmlns="http://www.w3.org/2000/svg">
<rect width="393" height="224" fill="#5DABF4"/>
<path d="M66.4031 43.3953C66.4031 43.3953 65.6388 43.8585 65.3637 43.6873C65.0887 43.5161 62.7592 39.1787 62.3699 39.1189C61.9806 39.0591 62.1299 44.6448 61.8275 44.9099C61.5251 45.175 56.7055 48.1156 56.9985 48.9015C57.2911 49.6853 61.82 47.9947 62.019 48.3942C62.218 48.7937 62.5062 54.2641 63.0632 54.668C63.62 55.0698 64.2557 49.2032 64.8998 49.0359C65.544 48.8685 69.5827 50.2785 70.0885 50.0106C70.5944 49.7427 67.4486 46.9869 67.4075 46.6244C67.3664 46.2618 69.7645 41.3093 69.5999 41.2129C69.4352 41.1166 66.4033 43.3974 66.4033 43.3974L66.4031 43.3953Z" stroke="#FFF89B" stroke-width="2" stroke-miterlimit="10"/>
<path d="M87.1354 72.1C86.6314 71.96 86.2254 71.834 85.9174 71.722C85.6094 71.638 85.4554 71.596 85.4554 71.596C85.5114 71.456 85.4834 71.33 85.3714 71.218C85.2874 71.106 85.0914 71.036 84.7834 71.008C84.3634 70.756 83.9714 70.434 83.6074 70.042C83.2714 69.678 82.9914 69.314 82.7674 68.95C82.5434 68.586 82.3754 68.278 82.2634 68.026C82.0674 67.606 81.9694 67.354 81.9694 67.27C81.9974 67.158 82.1654 67.032 82.4734 66.892C82.7814 66.668 83.0054 66.598 83.1454 66.682C83.3134 66.766 83.5094 67.046 83.7334 67.522C84.0974 68.166 84.7134 68.656 85.5814 68.992C86.4774 69.328 87.4714 69.482 88.5634 69.454C89.6834 69.398 90.7474 69.146 91.7554 68.698C92.7914 68.278 93.4354 67.844 93.6874 67.396C93.9674 66.92 93.8694 66.318 93.3934 65.59C93.3094 65.366 93.2114 65.184 93.0994 65.044C92.9874 64.904 92.8054 64.722 92.5534 64.498C92.3294 64.274 91.9514 63.91 91.4194 63.406C90.9994 63.21 90.6074 63.028 90.2434 62.86C89.9074 62.692 89.5434 62.51 89.1514 62.314C88.7034 62.09 88.1574 61.768 87.5134 61.348C86.8974 60.9 86.3094 60.41 85.7494 59.878C85.1894 59.346 84.7834 58.856 84.5314 58.408C84.0834 57.988 83.7474 57.414 83.5234 56.686C83.2994 55.93 83.2154 55.132 83.2714 54.292C83.3274 53.452 83.5374 52.696 83.9014 52.024C84.0694 51.632 84.3494 51.156 84.7414 50.596C85.1614 50.008 85.6234 49.42 86.1274 48.832C86.6314 48.244 87.1214 47.712 87.5974 47.236C88.0734 46.76 88.4654 46.424 88.7734 46.228C88.9974 46.004 89.2354 45.78 89.4874 45.556C89.7394 45.304 89.8654 45.178 89.8654 45.178C89.8934 45.038 89.9354 44.968 89.9914 44.968C90.0754 44.968 90.1174 44.968 90.1174 44.968C90.2574 44.884 90.5654 44.744 91.0414 44.548C91.5174 44.352 92.0354 43.988 92.5954 43.456C94.4714 42.56 95.9974 41.902 97.1734 41.482C98.3494 41.062 99.3154 40.852 100.071 40.852C100.771 40.88 101.401 41.048 101.961 41.356C102.549 41.636 103.025 42.014 103.389 42.49C103.781 42.966 104.019 43.54 104.103 44.212C104.299 44.884 104.243 45.668 103.935 46.564C103.627 47.432 103.165 48.258 102.549 49.042C101.961 49.798 101.317 50.372 100.617 50.764C99.8334 51.1 99.3014 51.254 99.0214 51.226C98.7694 51.17 98.6574 50.876 98.6854 50.344C98.6854 50.12 98.7554 49.854 98.8954 49.546C99.0634 49.238 99.4974 48.692 100.197 47.908C101.093 46.592 101.639 45.542 101.835 44.758C102.031 43.974 101.849 43.54 101.289 43.456C101.121 43.4 100.813 43.4 100.365 43.456C99.9454 43.512 99.4694 43.596 98.9374 43.708C98.4334 43.792 97.9994 43.89 97.6354 44.002C97.2714 44.086 97.0894 44.156 97.0894 44.212C97.0894 44.212 97.0894 44.254 97.0894 44.338C97.0894 44.422 97.0334 44.45 96.9214 44.422C96.8654 44.422 96.6274 44.534 96.2074 44.758C95.7874 44.982 95.2834 45.276 94.6954 45.64C94.1074 46.004 93.5194 46.368 92.9314 46.732C92.3434 47.096 91.8394 47.418 91.4194 47.698C91.0274 47.95 90.8174 48.104 90.7894 48.16C90.7334 48.468 90.4114 48.748 89.8234 49C89.2634 49.336 88.7454 49.826 88.2694 50.47C87.8214 51.114 87.3174 51.912 86.7574 52.864C86.2814 53.508 85.9454 54.208 85.7494 54.964C85.5534 55.692 85.5534 56.28 85.7494 56.728C85.8894 57.176 86.3234 57.75 87.0514 58.45C87.7794 59.15 88.6894 59.822 89.7814 60.466C90.7334 60.998 91.5874 61.53 92.3434 62.062C93.0994 62.566 93.7154 63.056 94.1914 63.532C94.6954 64.008 95.0314 64.428 95.1994 64.792C95.5354 65.268 95.7734 65.758 95.9134 66.262C96.0814 66.738 96.1654 67.2 96.1654 67.648C96.1934 68.096 96.1514 68.502 96.0394 68.866C95.8434 69.314 95.4934 69.776 94.9894 70.252C94.5134 70.728 94.1074 70.952 93.7714 70.924C93.4634 71.008 93.2254 71.106 93.0574 71.218C92.9174 71.33 92.7494 71.428 92.5534 71.512C92.3574 71.624 91.9374 71.736 91.2934 71.848C90.6774 71.96 89.9914 72.03 89.2354 72.058C88.4794 72.114 87.7794 72.128 87.1354 72.1ZM104.392 69.706C104.084 69.65 103.762 69.496 103.426 69.244C103.118 68.964 102.838 68.656 102.586 68.32C102.362 67.956 102.208 67.634 102.124 67.354C102.124 67.298 102.082 67.228 101.998 67.144C101.942 67.06 101.914 67.018 101.914 67.018C101.802 66.934 101.732 66.57 101.704 65.926C101.704 65.254 101.746 64.512 101.83 63.7C101.914 62.888 102.012 62.244 102.124 61.768C102.264 61.32 102.474 60.718 102.754 59.962C103.034 59.178 103.272 58.478 103.468 57.862L104.602 55.426L102.922 54.964C102.726 54.908 102.558 54.796 102.418 54.628C102.306 54.46 102.25 54.32 102.25 54.208C102.25 53.984 102.376 53.718 102.628 53.41C102.88 53.074 103.062 52.906 103.174 52.906C103.314 52.934 103.566 52.948 103.93 52.948C104.322 52.948 104.7 52.934 105.064 52.906C105.428 52.878 105.652 52.85 105.736 52.822C105.848 52.766 105.96 52.696 106.072 52.612C106.184 52.5 106.268 52.346 106.324 52.15C106.464 51.842 106.59 51.562 106.702 51.31C106.814 51.03 106.968 50.722 107.164 50.386C107.36 50.022 107.514 49.714 107.626 49.462C107.766 49.21 107.976 48.86 108.256 48.412C108.396 48.216 108.55 47.978 108.718 47.698C108.886 47.418 109.096 47.18 109.348 46.984C109.6 46.76 109.852 46.662 110.104 46.69C110.384 46.69 110.734 46.872 111.154 47.236C111.378 47.516 111.504 47.726 111.532 47.866C111.56 48.006 111.448 48.272 111.196 48.664C110.972 49.14 110.706 49.616 110.398 50.092C110.118 50.568 109.852 51.044 109.6 51.52C109.152 52.136 109.068 52.486 109.348 52.57C109.628 52.654 110.412 52.598 111.7 52.402C112.512 52.262 113.1 52.304 113.464 52.528C113.828 52.724 114.038 53.06 114.094 53.536C114.178 54.208 114.108 54.614 113.884 54.754C113.66 54.894 113.016 54.964 111.952 54.964C111.28 55.076 110.706 55.146 110.23 55.174C109.754 55.174 109.404 55.174 109.18 55.174C108.816 55.202 108.578 55.216 108.466 55.216C108.354 55.216 108.186 55.244 107.962 55.3C107.738 55.356 107.57 55.454 107.458 55.594C107.374 55.706 107.276 55.874 107.164 56.098C107.052 56.21 106.884 56.504 106.66 56.98C106.436 57.456 106.156 57.974 105.82 58.534C105.428 59.71 105.092 60.886 104.812 62.062C104.532 63.21 104.308 64.33 104.14 65.422C104.028 66.122 104.042 66.612 104.182 66.892C104.322 67.144 104.686 67.298 105.274 67.354C105.582 67.382 106.072 67.382 106.744 67.354C107.444 67.298 107.99 67.214 108.382 67.102C108.69 66.962 109.012 66.822 109.348 66.682C109.684 66.514 109.992 66.346 110.272 66.178C110.524 66.038 110.776 65.898 111.028 65.758C111.28 65.59 111.406 65.506 111.406 65.506C111.546 65.282 111.7 65.212 111.868 65.296C112.036 65.38 112.176 65.59 112.288 65.926C112.288 66.262 112.218 66.612 112.078 66.976C111.938 67.34 111.42 67.774 110.524 68.278C109.264 69.062 108.102 69.538 107.038 69.706C106.002 69.846 105.12 69.846 104.392 69.706ZM114.432 68.488C114.32 68.264 114.18 68.096 114.012 67.984C113.844 67.844 113.76 67.718 113.76 67.606C113.76 67.494 113.746 67.382 113.718 67.27C113.718 67.13 113.662 67.004 113.55 66.892C113.41 66.724 113.424 66.346 113.592 65.758C113.76 65.142 114.04 64.4 114.432 63.532C114.824 62.636 115.286 61.698 115.818 60.718C116.042 60.494 116.266 60.2 116.49 59.836C116.714 59.472 116.882 59.234 116.994 59.122C116.994 59.01 117.036 58.912 117.12 58.828C117.204 58.716 117.302 58.66 117.414 58.66V58.408C117.414 58.268 117.54 58.03 117.792 57.694C118.072 57.358 118.408 56.994 118.8 56.602C119.192 56.182 119.598 55.79 120.018 55.426C120.438 55.034 120.788 54.754 121.068 54.586C121.656 54.194 122.258 53.956 122.874 53.872C123.518 53.788 124.064 53.928 124.512 54.292C124.596 54.376 124.736 54.516 124.932 54.712C125.128 54.908 125.352 55.132 125.604 55.384C125.884 55.608 126.164 55.846 126.444 56.098L127.998 57.484L127.242 59.584C126.878 60.704 126.78 61.684 126.948 62.524C127.144 63.364 127.424 64.092 127.788 64.708C127.928 65.016 128.208 65.31 128.628 65.59C129.076 65.87 129.496 66.038 129.888 66.094C130.112 66.122 130.322 66.206 130.518 66.346C130.714 66.486 130.812 66.71 130.812 67.018C130.812 67.298 130.756 67.522 130.644 67.69C130.532 67.858 130.336 67.97 130.056 68.026C129.132 68.138 128.264 67.914 127.452 67.354C126.668 66.794 125.94 65.87 125.268 64.582C125.156 64.414 125.002 64.106 124.806 63.658C124.638 63.182 124.54 62.874 124.512 62.734C124.4 62.874 124.19 63.14 123.882 63.532C123.574 63.896 123.336 64.162 123.168 64.33C121.18 66.346 119.458 67.704 118.002 68.404C116.574 69.076 115.384 69.104 114.432 68.488ZM115.944 66.136C115.944 66.332 116.238 66.332 116.826 66.136C117.442 65.912 118.1 65.52 118.8 64.96C119.752 64.148 120.704 63.252 121.656 62.272C122.636 61.292 123.42 60.382 124.008 59.542L124.932 58.03C124.652 57.386 124.344 56.952 124.008 56.728C123.7 56.476 123.434 56.35 123.21 56.35C122.846 56.35 122.3 56.686 121.572 57.358C120.872 58.03 120.116 58.926 119.304 60.046C118.492 61.166 117.722 62.398 116.994 63.742C116.714 64.302 116.462 64.848 116.238 65.38C116.042 65.884 115.944 66.136 115.944 66.136ZM130.96 80.122C130.344 80.234 129.924 80.248 129.7 80.164C129.476 80.08 129.168 79.94 128.776 79.744C128.468 79.52 128.23 79.352 128.062 79.24C127.894 79.128 127.81 79.016 127.81 78.904C127.81 78.82 127.838 78.722 127.894 78.61C127.95 78.526 128.048 78.442 128.188 78.358C128.356 78.302 128.58 78.274 128.86 78.274C129.056 78.386 129.378 78.442 129.826 78.442C130.302 78.442 130.596 78.386 130.708 78.274C130.708 78.274 130.834 78.19 131.086 78.022C131.366 77.882 131.73 77.77 132.178 77.686C133.046 77.266 133.816 76.734 134.488 76.09C135.16 75.446 135.804 74.606 136.42 73.57C136.672 73.178 136.938 72.716 137.218 72.184C137.498 71.68 137.694 71.176 137.806 70.672C138.03 70.112 138.282 69.356 138.562 68.404C138.87 67.452 139.136 66.514 139.36 65.59C139.584 64.638 139.71 63.924 139.738 63.448C139.906 61.88 140.172 60.438 140.536 59.122C140.928 57.778 141.264 56.28 141.544 54.628C141.712 54.236 141.838 54.012 141.922 53.956C142.006 53.872 142.188 53.83 142.468 53.83C142.776 53.83 143 53.858 143.14 53.914C143.308 53.942 143.49 54.11 143.686 54.418C143.966 54.95 144.064 55.58 143.98 56.308C143.924 57.008 143.714 57.624 143.35 58.156C143.07 58.548 142.818 59.164 142.594 60.004C142.398 60.816 142.202 61.838 142.006 63.07C141.866 63.686 141.712 64.414 141.544 65.254C141.404 66.066 141.25 66.976 141.082 67.984C140.97 68.264 140.816 68.698 140.62 69.286C140.424 69.846 140.298 70.294 140.242 70.63C140.214 70.742 140.13 70.966 139.99 71.302C139.85 71.638 139.71 71.96 139.57 72.268C139.43 72.604 139.332 72.828 139.276 72.94C138.184 75.208 136.938 76.944 135.538 78.148C134.138 79.352 132.612 80.01 130.96 80.122ZM134.152 67.942C133.844 67.942 133.522 67.774 133.186 67.438C132.878 67.102 132.668 66.836 132.556 66.64C132.444 66.36 132.304 66.094 132.136 65.842C131.968 65.59 131.842 65.282 131.758 64.918C131.702 64.554 131.73 64.106 131.842 63.574C131.954 63.21 132.108 62.692 132.304 62.02C132.528 61.32 132.766 60.564 133.018 59.752C133.298 58.94 133.578 58.142 133.858 57.358C134.166 56.546 134.446 55.832 134.698 55.216C134.95 54.572 135.174 54.11 135.37 53.83C135.538 53.606 135.72 53.466 135.916 53.41C136.14 53.354 136.364 53.382 136.588 53.494C136.812 53.578 137.008 53.76 137.176 54.04C137.484 54.432 137.61 54.768 137.554 55.048C137.498 55.328 137.246 55.874 136.798 56.686C136.686 56.994 136.546 57.33 136.378 57.694C136.21 58.03 136.126 58.254 136.126 58.366C136.098 58.422 136.042 58.618 135.958 58.954C135.902 59.262 135.832 59.556 135.748 59.836C135.664 60.116 135.58 60.256 135.496 60.256C135.384 60.368 135.258 60.69 135.118 61.222C134.978 61.726 134.852 62.3 134.74 62.944C134.628 63.56 134.558 64.106 134.53 64.582C134.502 65.03 134.544 65.254 134.656 65.254C135.524 65.254 136.42 64.918 137.344 64.246C138.296 63.574 139.248 62.594 140.2 61.306L140.914 64.288C140.522 64.484 140.158 64.694 139.822 64.918C139.486 65.114 139.178 65.352 138.898 65.632C138.814 65.744 138.618 65.898 138.31 66.094C138.002 66.29 137.694 66.472 137.386 66.64C137.106 66.78 136.924 66.85 136.84 66.85C136.84 66.85 136.798 66.864 136.714 66.892C136.658 66.892 136.63 66.948 136.63 67.06C136.63 67.116 136.448 67.228 136.084 67.396C135.72 67.536 135.342 67.662 134.95 67.774C134.558 67.886 134.292 67.942 134.152 67.942ZM158.218 72.1C157.294 71.96 156.664 71.61 156.328 71.05C156.02 70.518 155.95 69.692 156.118 68.572C156.286 68.04 156.384 67.564 156.412 67.144C156.468 66.696 156.594 66.416 156.79 66.304C156.79 66.304 156.804 66.262 156.832 66.178C156.888 66.094 156.874 66.01 156.79 65.926C156.79 65.562 156.916 65.058 157.168 64.414C157.224 64.246 157.294 64.05 157.378 63.826C157.49 63.574 157.546 63.448 157.546 63.448C157.406 63.224 157.406 63.042 157.546 62.902C157.686 62.762 157.826 62.636 157.966 62.524C158.134 62.384 158.148 62.23 158.008 62.062C157.952 61.95 158.022 61.698 158.218 61.306C158.414 60.886 158.638 60.452 158.89 60.004C159.142 59.556 159.31 59.206 159.394 58.954C159.394 58.898 159.464 58.702 159.604 58.366C159.744 58.03 159.912 57.638 160.108 57.19C160.304 56.742 160.486 56.336 160.654 55.972C160.85 55.608 160.976 55.37 161.032 55.258C161.312 55.118 161.2 55.02 160.696 54.964C160.192 54.908 159.66 54.894 159.1 54.922C158.232 54.894 157.532 54.852 157 54.796C156.496 54.74 156.076 54.614 155.74 54.418C155.404 54.026 155.278 53.746 155.362 53.578C155.474 53.382 155.81 53.27 156.37 53.242C156.734 53.214 157.014 53.2 157.21 53.2C157.434 53.2 157.714 53.186 158.05 53.158C158.414 53.102 158.974 53.032 159.73 52.948L161.872 52.78L161.998 52.066C162.222 51.702 162.404 51.38 162.544 51.1C162.712 50.792 162.852 50.484 162.964 50.176C163.076 49.868 163.16 49.546 163.216 49.21C163.216 49.21 163.342 48.986 163.594 48.538C163.846 48.062 164 47.572 164.056 47.068C164.392 46.508 164.686 46.004 164.938 45.556C165.19 45.08 165.344 44.786 165.4 44.674C165.708 44.422 165.918 44.296 166.03 44.296C166.17 44.296 166.45 44.436 166.87 44.716C167.122 44.856 167.346 45.024 167.542 45.22C167.738 45.416 167.864 45.626 167.92 45.85C167.976 46.046 167.892 46.242 167.668 46.438C167.612 46.55 167.528 46.76 167.416 47.068C167.304 47.348 167.22 47.586 167.164 47.782C166.996 47.978 166.786 48.3 166.534 48.748C166.31 49.168 166.156 49.602 166.072 50.05C165.848 50.526 165.638 50.96 165.442 51.352C165.246 51.716 165.092 51.898 164.98 51.898C165.036 52.178 165.204 52.318 165.484 52.318C165.764 52.29 166.226 52.262 166.87 52.234C167.402 52.178 167.766 52.122 167.962 52.066C168.186 51.982 168.438 52.01 168.718 52.15C168.858 52.346 168.97 52.57 169.054 52.822C169.138 53.074 169.152 53.312 169.096 53.536C169.068 53.732 168.956 53.872 168.76 53.956C168.62 53.956 168.326 54.04 167.878 54.208C167.458 54.348 166.926 54.432 166.282 54.46L164.056 54.67L163.342 56.098C163.146 56.462 162.978 56.798 162.838 57.106C162.698 57.386 162.6 57.554 162.544 57.61C162.544 57.778 162.446 58.03 162.25 58.366C162.082 58.702 161.9 59.066 161.704 59.458C161.536 59.934 161.34 60.368 161.116 60.76C160.92 61.152 160.822 61.348 160.822 61.348C160.71 61.348 160.654 61.432 160.654 61.6C160.794 61.936 160.752 62.188 160.528 62.356C160.388 62.44 160.262 62.566 160.15 62.734C160.066 62.874 160.024 62.944 160.024 62.944C160.136 63.056 160.15 63.196 160.066 63.364C160.01 63.532 159.926 63.714 159.814 63.91C159.814 64.134 159.744 64.456 159.604 64.876C159.492 65.296 159.366 65.688 159.226 66.052C159.254 66.556 159.282 66.878 159.31 67.018C159.338 67.158 159.408 67.214 159.52 67.186C159.66 67.214 159.786 67.214 159.898 67.186C160.01 67.158 160.122 67.144 160.234 67.144C160.626 66.976 160.416 67.956 159.604 70.084C159.156 70.784 158.848 71.288 158.68 71.596C158.512 71.932 158.358 72.1 158.218 72.1ZM177.372 69.916C177.176 70.028 176.91 69.986 176.574 69.79C176.266 69.594 175.958 69.3 175.65 68.908C175.454 68.572 175.314 68.208 175.23 67.816C175.174 67.424 175.146 66.878 175.146 66.178C175.174 65.618 175.146 65.254 175.062 65.086C175.006 64.918 174.852 64.946 174.6 65.17C174.348 65.366 173.914 65.772 173.298 66.388C172.598 67.088 171.926 67.634 171.282 68.026C170.666 68.418 170.162 68.6 169.77 68.572C169.574 68.572 169.35 68.474 169.098 68.278C168.874 68.054 168.664 67.788 168.468 67.48C168.272 67.144 168.104 66.808 167.964 66.472C167.796 65.856 167.768 65.072 167.88 64.12C168.02 63.14 168.244 62.118 168.552 61.054C168.86 59.99 169.21 58.982 169.602 58.03C170.022 57.078 170.442 56.308 170.862 55.72C171.31 55.132 171.702 54.838 172.038 54.838C172.262 54.838 172.458 54.95 172.626 55.174C172.822 55.398 173.018 55.748 173.214 56.224C173.326 56.42 173.368 56.588 173.34 56.728C173.34 56.868 173.228 57.036 173.004 57.232C172.752 57.568 172.458 58.072 172.122 58.744C171.814 59.416 171.506 60.144 171.198 60.928C170.918 61.712 170.666 62.468 170.442 63.196C170.218 63.924 170.064 64.526 169.98 65.002C169.896 65.45 169.91 65.674 170.022 65.674C170.414 65.674 170.876 65.52 171.408 65.212C171.968 64.876 172.5 64.47 173.004 63.994C173.592 63.406 174.11 62.762 174.558 62.062C175.034 61.362 175.51 60.62 175.986 59.836C176.35 59.276 176.728 58.66 177.12 57.988C177.54 57.316 177.806 56.84 177.918 56.56C178.31 55.832 178.604 55.342 178.8 55.09C178.996 54.81 179.234 54.628 179.514 54.544C179.654 54.544 179.78 54.544 179.892 54.544C180.032 54.544 180.102 54.544 180.102 54.544C180.27 54.572 180.466 54.698 180.69 54.922C180.914 55.034 181.04 55.146 181.068 55.258C181.096 55.342 181.11 55.454 181.11 55.594C180.998 55.874 180.816 56.294 180.564 56.854C180.34 57.386 180.172 57.778 180.06 58.03C179.528 59.234 178.996 60.424 178.464 61.6C177.96 62.748 177.596 63.924 177.372 65.128C177.316 65.52 177.302 65.982 177.33 66.514C177.386 67.018 177.47 67.382 177.582 67.606C177.666 67.774 177.764 67.97 177.876 68.194C178.016 68.39 178.17 68.558 178.338 68.698C178.59 68.866 178.632 69.048 178.464 69.244C178.324 69.44 178.128 69.608 177.876 69.748C177.624 69.86 177.456 69.916 177.372 69.916ZM197.075 68.068C196.515 68.068 196.053 67.956 195.689 67.732C195.325 67.48 195.017 67.074 194.765 66.514C194.653 66.122 194.555 65.688 194.471 65.212C194.415 64.708 194.387 64.246 194.387 63.826C194.387 63.378 194.429 63.084 194.513 62.944C194.625 62.832 194.667 62.636 194.639 62.356C194.639 62.048 194.639 61.726 194.639 61.39C194.611 60.83 194.471 60.522 194.219 60.466C193.995 60.382 193.659 60.466 193.211 60.718C192.707 61.026 192.049 61.446 191.237 61.978C190.425 62.482 189.571 63.042 188.675 63.658C187.807 64.274 186.981 64.918 186.197 65.59C185.581 66.262 185.203 66.78 185.063 67.144C184.951 67.48 184.783 67.648 184.559 67.648C184.335 67.76 184.139 67.774 183.971 67.69C183.831 67.578 183.621 67.41 183.341 67.186C183.145 66.962 182.949 66.752 182.753 66.556C182.557 66.332 182.431 66.164 182.375 66.052C182.375 65.912 182.417 65.618 182.501 65.17C182.585 64.722 182.683 64.274 182.795 63.826C182.935 63.378 183.033 63.084 183.089 62.944C183.229 62.944 183.341 62.804 183.425 62.524C183.537 62.244 183.705 61.936 183.929 61.6C183.985 61.264 184.125 60.816 184.349 60.256C184.601 59.668 184.825 59.15 185.021 58.702C185.413 58.03 185.679 57.47 185.819 57.022C185.987 56.574 186.099 56.014 186.155 55.342C186.127 55.23 186.155 55.132 186.239 55.048C186.323 54.936 186.421 54.88 186.533 54.88C186.757 54.656 187.023 54.6 187.331 54.712C187.639 54.796 187.919 55.006 188.171 55.342C188.675 56.014 188.871 56.714 188.759 57.442C188.675 58.142 188.227 59.15 187.415 60.466C187.219 60.914 187.065 61.264 186.953 61.516C186.869 61.74 186.827 61.922 186.827 62.062C186.827 62.062 186.967 61.964 187.247 61.768C187.555 61.572 187.891 61.348 188.255 61.096C188.647 60.816 188.955 60.606 189.179 60.466C189.319 60.326 189.641 60.074 190.145 59.71C190.649 59.346 191.181 58.996 191.741 58.66C192.329 58.296 192.763 58.086 193.043 58.03C193.267 57.918 193.505 57.82 193.757 57.736C194.009 57.624 194.191 57.568 194.303 57.568C194.527 57.568 194.807 57.694 195.143 57.946C195.507 58.17 195.843 58.45 196.151 58.786C196.459 59.094 196.641 59.36 196.697 59.584C196.697 59.696 196.697 59.808 196.697 59.92C196.725 60.032 196.753 60.144 196.781 60.256C196.893 60.62 196.949 61.11 196.949 61.726C196.977 62.342 196.963 62.902 196.907 63.406C196.851 63.91 196.753 64.204 196.613 64.288C196.613 64.288 196.613 64.33 196.613 64.414C196.641 64.47 196.711 64.498 196.823 64.498C196.823 64.61 196.823 64.68 196.823 64.708C196.683 64.708 196.627 64.834 196.655 65.086C196.683 65.31 196.767 65.562 196.907 65.842C197.075 66.122 197.243 66.346 197.411 66.514C197.747 66.85 197.887 67.172 197.831 67.48C197.775 67.76 197.523 67.956 197.075 68.068ZM203.216 68.992C202.124 68.544 201.41 67.928 201.074 67.144C200.766 66.332 200.71 65.086 200.906 63.406C200.962 62.538 200.99 61.964 200.99 61.684C200.99 61.404 200.836 61.124 200.528 60.844C200.444 60.732 200.29 60.578 200.066 60.382C199.87 60.186 199.786 60.018 199.814 59.878C199.786 59.682 199.8 59.472 199.856 59.248C199.912 58.996 199.996 58.87 200.108 58.87C200.22 58.87 200.332 58.842 200.444 58.786C200.584 58.73 200.71 58.73 200.822 58.786C200.934 58.786 201.06 58.8 201.2 58.828C201.34 58.856 201.41 58.926 201.41 59.038C201.522 59.234 201.704 59.262 201.956 59.122C202.208 58.954 202.474 58.59 202.754 58.03C203.034 57.582 203.398 57.134 203.846 56.686C204.322 56.238 204.784 55.832 205.232 55.468C205.708 55.076 206.1 54.796 206.408 54.628C206.548 54.572 206.758 54.502 207.038 54.418C207.318 54.334 207.612 54.264 207.92 54.208C208.256 54.152 208.536 54.138 208.76 54.166C209.264 54.194 209.684 54.334 210.02 54.586C210.384 54.838 210.72 55.132 211.028 55.468C211.392 55.72 211.616 56.056 211.7 56.476C211.812 56.896 211.84 57.344 211.784 57.82C211.728 58.296 211.602 58.73 211.406 59.122C211.322 59.402 211.084 59.738 210.692 60.13C210.3 60.522 209.852 60.9 209.348 61.264C208.844 61.628 208.382 61.894 207.962 62.062C207.598 62.146 207.122 62.216 206.534 62.272C205.974 62.328 205.442 62.356 204.938 62.356C204.462 62.328 204.14 62.272 203.972 62.188C203.776 62.076 203.622 62.23 203.51 62.65C203.398 63.07 203.314 63.672 203.258 64.456C203.202 65.072 203.202 65.52 203.258 65.8C203.314 66.08 203.37 66.276 203.426 66.388C203.622 66.584 203.888 66.836 204.224 67.144C204.588 67.424 205.092 67.466 205.736 67.27C206.268 67.13 206.786 66.766 207.29 66.178C207.822 65.59 208.312 65.114 208.76 64.75C208.872 64.554 209.054 64.442 209.306 64.414C209.586 64.358 209.88 64.372 210.188 64.456C210.496 64.652 210.622 64.89 210.566 65.17C210.538 65.422 210.398 65.814 210.146 66.346C210.062 66.542 209.866 66.794 209.558 67.102C209.278 67.382 208.956 67.676 208.592 67.984C208.256 68.264 207.948 68.488 207.668 68.656C206.828 69.104 206.044 69.342 205.316 69.37C204.588 69.37 203.888 69.244 203.216 68.992ZM205.694 60.466C206.31 60.326 206.8 60.228 207.164 60.172C207.528 60.116 207.878 59.962 208.214 59.71C208.55 59.43 208.97 58.912 209.474 58.156C209.586 57.848 209.614 57.54 209.558 57.232C209.53 56.924 209.46 56.714 209.348 56.602C209.096 56.322 208.788 56.238 208.424 56.35C208.088 56.434 207.766 56.588 207.458 56.812C207.262 56.896 206.968 57.106 206.576 57.442C206.212 57.75 205.848 58.114 205.484 58.534C205.12 58.926 204.826 59.29 204.602 59.626C204.378 59.962 204.322 60.158 204.434 60.214C204.378 60.326 204.532 60.396 204.896 60.424C205.288 60.452 205.554 60.466 205.694 60.466ZM223.846 69.58C223.734 69.58 223.566 69.566 223.342 69.538C223.146 69.482 222.978 69.356 222.838 69.16C222.418 68.656 222.152 68.236 222.04 67.9C221.928 67.564 221.914 67.074 221.998 66.43C222.054 66.01 222.082 65.646 222.082 65.338C222.11 65.002 222.138 64.722 222.166 64.498C222.054 64.386 221.844 64.47 221.536 64.75C221.256 65.002 220.864 65.324 220.36 65.716C219.408 66.808 218.554 67.648 217.798 68.236C217.07 68.796 216.412 69.174 215.824 69.37C215.236 69.538 214.676 69.594 214.144 69.538C213.668 69.482 213.29 69.286 213.01 68.95C212.73 68.586 212.548 68.124 212.464 67.564C212.408 67.004 212.408 66.402 212.464 65.758C212.576 64.834 212.772 63.952 213.052 63.112C213.36 62.272 213.85 61.334 214.522 60.298C214.83 59.738 215.236 59.192 215.74 58.66C216.272 58.1 216.846 57.61 217.462 57.19C218.106 56.742 218.722 56.42 219.31 56.224C219.954 55.972 220.612 55.832 221.284 55.804C221.956 55.748 222.558 55.804 223.09 55.972C223.426 56.14 223.692 56.224 223.888 56.224C224.112 56.224 224.28 56.084 224.392 55.804C224.532 55.58 224.672 55.244 224.812 54.796C224.952 54.32 225.12 53.914 225.316 53.578L226.24 50.848C226.548 50.092 226.884 49.294 227.248 48.454C227.612 47.614 228.046 46.592 228.55 45.388C229.026 44.492 229.418 43.974 229.726 43.834C230.034 43.666 230.384 43.778 230.776 44.17C231.084 44.534 231.196 44.954 231.112 45.43C231.028 45.878 230.776 46.606 230.356 47.614C230.16 47.922 229.992 48.216 229.852 48.496C229.712 48.748 229.516 49.154 229.264 49.714C228.9 50.582 228.564 51.366 228.256 52.066C227.948 52.738 227.626 53.508 227.29 54.376C227.178 54.824 227.024 55.342 226.828 55.93C226.66 56.518 226.52 57.05 226.408 57.526C226.324 57.974 226.226 58.394 226.114 58.786C226.03 59.15 225.932 59.332 225.82 59.332C225.596 59.584 225.386 60.032 225.19 60.676C224.994 61.292 224.826 61.936 224.686 62.608C224.574 63.28 224.476 63.84 224.392 64.288C224.336 64.624 224.294 65.058 224.266 65.59C224.238 66.122 224.224 66.64 224.224 67.144C224.224 67.62 224.224 67.956 224.224 68.152C224.224 68.768 224.21 69.16 224.182 69.328C224.154 69.496 224.042 69.58 223.846 69.58ZM214.9 66.934C215.488 66.934 216.104 66.682 216.748 66.178C217.42 65.674 218.092 65.114 218.764 64.498C219.184 64.106 219.632 63.588 220.108 62.944C220.612 62.3 221.088 61.656 221.536 61.012C222.012 60.368 222.39 59.808 222.67 59.332C222.95 58.828 223.09 58.52 223.09 58.408C223.09 58.268 222.964 58.17 222.712 58.114C222.46 58.058 222.166 58.03 221.83 58.03C221.522 58.002 221.27 58.016 221.074 58.072C220.458 58.212 219.842 58.492 219.226 58.912C218.638 59.332 217.994 59.962 217.294 60.802C216.566 61.698 215.964 62.622 215.488 63.574C215.04 64.526 214.76 65.324 214.648 65.968C214.536 66.612 214.62 66.934 214.9 66.934Z" fill="#FFF89B"/>
<path d="M237.218 54.92H244.033C244.42 54.92 244.739 55.0553 244.99 55.326C245.261 55.5773 245.396 55.8963 245.396 56.283C245.396 56.6503 245.261 56.9597 244.99 57.211C244.739 57.4623 244.42 57.588 244.033 57.588H237.218C236.832 57.588 236.503 57.4623 236.232 57.211C235.981 56.9403 235.855 56.6213 235.855 56.254C235.855 55.8673 235.981 55.5483 236.232 55.297C236.503 55.0457 236.832 54.92 237.218 54.92ZM240.263 51.15C240.689 51.15 241.037 51.295 241.307 51.585C241.578 51.8557 241.713 52.2037 241.713 52.629V66.085C241.713 66.433 241.771 66.7133 241.887 66.926C242.003 67.1387 242.158 67.2837 242.351 67.361C242.564 67.4383 242.777 67.477 242.989 67.477C243.202 67.477 243.386 67.4383 243.54 67.361C243.714 67.2837 243.917 67.245 244.149 67.245C244.381 67.245 244.594 67.3513 244.787 67.564C244.981 67.7767 245.077 68.0667 245.077 68.434C245.077 68.898 244.826 69.275 244.323 69.565C243.821 69.855 243.279 70 242.699 70C242.371 70 241.984 69.971 241.539 69.913C241.095 69.855 240.66 69.71 240.234 69.478C239.828 69.246 239.49 68.8787 239.219 68.376C238.949 67.854 238.813 67.129 238.813 66.201V52.629C238.813 52.2037 238.949 51.8557 239.219 51.585C239.509 51.295 239.857 51.15 240.263 51.15ZM262.502 62.373C262.502 63.9197 262.164 65.2923 261.487 66.491C260.811 67.6703 259.892 68.5983 258.732 69.275C257.572 69.9517 256.267 70.29 254.817 70.29C253.367 70.29 252.062 69.9517 250.902 69.275C249.742 68.5983 248.814 67.6703 248.118 66.491C247.442 65.2923 247.103 63.9197 247.103 62.373C247.103 60.807 247.442 59.4343 248.118 58.255C248.814 57.0563 249.742 56.1187 250.902 55.442C252.062 54.746 253.367 54.398 254.817 54.398C256.267 54.398 257.572 54.746 258.732 55.442C259.892 56.1187 260.811 57.0563 261.487 58.255C262.164 59.4343 262.502 60.807 262.502 62.373ZM259.602 62.373C259.602 61.3097 259.39 60.3913 258.964 59.618C258.539 58.8253 257.959 58.2067 257.224 57.762C256.509 57.298 255.707 57.066 254.817 57.066C253.928 57.066 253.116 57.298 252.381 57.762C251.647 58.2067 251.067 58.8253 250.641 59.618C250.216 60.3913 250.003 61.3097 250.003 62.373C250.003 63.3977 250.216 64.3063 250.641 65.099C251.067 65.8917 251.647 66.5103 252.381 66.955C253.116 67.3997 253.928 67.622 254.817 67.622C255.707 67.622 256.509 67.3997 257.224 66.955C257.959 66.5103 258.539 65.8917 258.964 65.099C259.39 64.3063 259.602 63.3977 259.602 62.373ZM271.797 67.622C271.623 67.3513 271.546 67.042 271.565 66.694C271.584 66.3267 271.787 66.0173 272.174 65.766C272.445 65.592 272.725 65.5243 273.015 65.563C273.324 65.5823 273.614 65.7273 273.885 65.998C274.426 66.5973 275.026 67.071 275.683 67.419C276.36 67.767 277.172 67.941 278.119 67.941C278.506 67.9217 278.902 67.8637 279.308 67.767C279.714 67.651 280.062 67.4577 280.352 67.187C280.642 66.897 280.787 66.4813 280.787 65.94C280.787 65.4567 280.632 65.07 280.323 64.78C280.014 64.49 279.608 64.258 279.105 64.084C278.602 63.8907 278.061 63.7167 277.481 63.562C276.862 63.388 276.234 63.1947 275.596 62.982C274.977 62.7693 274.417 62.4987 273.914 62.17C273.411 61.822 272.996 61.3773 272.667 60.836C272.358 60.2947 272.203 59.6277 272.203 58.835C272.203 57.9263 272.454 57.1433 272.957 56.486C273.479 55.8287 274.146 55.3163 274.958 54.949C275.789 54.5817 276.688 54.398 277.655 54.398C278.216 54.398 278.805 54.4753 279.424 54.63C280.043 54.7653 280.642 54.9877 281.222 55.297C281.802 55.6063 282.305 56.0123 282.73 56.515C282.923 56.7663 283.03 57.066 283.049 57.414C283.088 57.762 282.933 58.0713 282.585 58.342C282.353 58.5353 282.073 58.6223 281.744 58.603C281.415 58.5837 281.145 58.4773 280.932 58.284C280.565 57.82 280.091 57.4623 279.511 57.211C278.931 56.9403 278.274 56.805 277.539 56.805C277.172 56.805 276.785 56.863 276.379 56.979C275.992 57.0757 275.664 57.2593 275.393 57.53C275.122 57.8007 274.987 58.197 274.987 58.719C274.987 59.2023 275.142 59.589 275.451 59.879C275.78 60.169 276.205 60.4107 276.727 60.604C277.249 60.7973 277.819 60.9713 278.438 61.126C279.037 61.2807 279.627 61.4643 280.207 61.677C280.806 61.8897 281.338 62.17 281.802 62.518C282.285 62.8467 282.672 63.2817 282.962 63.823C283.271 64.345 283.426 65.012 283.426 65.824C283.426 66.7713 283.146 67.5833 282.585 68.26C282.044 68.9173 281.348 69.42 280.497 69.768C279.666 70.116 278.786 70.29 277.858 70.29C276.756 70.29 275.654 70.0967 274.552 69.71C273.469 69.304 272.551 68.608 271.797 67.622ZM293.07 70.29C291.465 70.29 290.073 69.9613 288.894 69.304C287.714 68.6273 286.796 67.709 286.139 66.549C285.501 65.3697 285.182 64.026 285.182 62.518C285.182 60.8167 285.52 59.3667 286.197 58.168C286.893 56.95 287.792 56.022 288.894 55.384C289.996 54.7267 291.165 54.398 292.403 54.398C293.35 54.398 294.249 54.5913 295.1 54.978C295.95 55.3453 296.704 55.8673 297.362 56.544C298.038 57.2013 298.57 57.9843 298.957 58.893C299.343 59.7823 299.546 60.7587 299.566 61.822C299.546 62.2087 299.392 62.5277 299.102 62.779C298.812 63.0303 298.473 63.156 298.087 63.156H286.806L286.11 60.691H297.014L296.463 61.213V60.488C296.424 59.8113 296.202 59.2217 295.796 58.719C295.39 58.197 294.887 57.8007 294.288 57.53C293.688 57.24 293.06 57.095 292.403 57.095C291.823 57.095 291.262 57.1917 290.721 57.385C290.199 57.559 289.725 57.849 289.3 58.255C288.894 58.661 288.565 59.2023 288.314 59.879C288.082 60.5363 287.966 61.358 287.966 62.344C287.966 63.4073 288.188 64.3353 288.633 65.128C289.077 65.9207 289.677 66.5393 290.431 66.984C291.185 67.4093 292.016 67.622 292.925 67.622C293.64 67.622 294.23 67.5543 294.694 67.419C295.158 67.2643 295.544 67.0807 295.854 66.868C296.163 66.6553 296.434 66.4523 296.666 66.259C296.956 66.085 297.246 65.998 297.536 65.998C297.884 65.998 298.174 66.1237 298.406 66.375C298.638 66.607 298.754 66.8873 298.754 67.216C298.754 67.6413 298.541 68.028 298.116 68.376C297.594 68.8787 296.869 69.3233 295.941 69.71C295.032 70.0967 294.075 70.29 293.07 70.29ZM309.369 70.29C307.764 70.29 306.372 69.9613 305.193 69.304C304.013 68.6273 303.095 67.709 302.438 66.549C301.8 65.3697 301.481 64.026 301.481 62.518C301.481 60.8167 301.819 59.3667 302.496 58.168C303.192 56.95 304.091 56.022 305.193 55.384C306.295 54.7267 307.464 54.398 308.702 54.398C309.649 54.398 310.548 54.5913 311.399 54.978C312.249 55.3453 313.003 55.8673 313.661 56.544C314.337 57.2013 314.869 57.9843 315.256 58.893C315.642 59.7823 315.845 60.7587 315.865 61.822C315.845 62.2087 315.691 62.5277 315.401 62.779C315.111 63.0303 314.772 63.156 314.386 63.156H303.105L302.409 60.691H313.313L312.762 61.213V60.488C312.723 59.8113 312.501 59.2217 312.095 58.719C311.689 58.197 311.186 57.8007 310.587 57.53C309.987 57.24 309.359 57.095 308.702 57.095C308.122 57.095 307.561 57.1917 307.02 57.385C306.498 57.559 306.024 57.849 305.599 58.255C305.193 58.661 304.864 59.2023 304.613 59.879C304.381 60.5363 304.265 61.358 304.265 62.344C304.265 63.4073 304.487 64.3353 304.932 65.128C305.376 65.9207 305.976 66.5393 306.73 66.984C307.484 67.4093 308.315 67.622 309.224 67.622C309.939 67.622 310.529 67.5543 310.993 67.419C311.457 67.2643 311.843 67.0807 312.153 66.868C312.462 66.6553 312.733 66.4523 312.965 66.259C313.255 66.085 313.545 65.998 313.835 65.998C314.183 65.998 314.473 66.1237 314.705 66.375C314.937 66.607 315.053 66.8873 315.053 67.216C315.053 67.6413 314.84 68.028 314.415 68.376C313.893 68.8787 313.168 69.3233 312.24 69.71C311.331 70.0967 310.374 70.29 309.369 70.29ZM102.327 86.601C102.695 86.601 103.014 86.746 103.284 87.036C103.574 87.3067 103.719 87.6643 103.719 88.109C103.719 88.2057 103.71 88.3023 103.69 88.399C103.671 88.4957 103.642 88.5827 103.603 88.66L99.1664 101.072C99.0504 101.401 98.8474 101.652 98.5574 101.826C98.2674 101.981 97.9677 102.039 97.6584 102C97.0977 101.961 96.682 101.652 96.4114 101.072L93.1344 92.372L93.8014 92.43L90.7854 101.072C90.5147 101.652 90.099 101.961 89.5384 102C89.2484 102.039 88.9487 101.981 88.6394 101.826C88.3494 101.652 88.1464 101.401 88.0304 101.072L83.5644 88.66C83.487 88.486 83.4484 88.3023 83.4484 88.109C83.4484 87.703 83.574 87.355 83.8254 87.065C84.096 86.7557 84.4537 86.601 84.8984 86.601C85.2077 86.601 85.4784 86.6783 85.7104 86.833C85.9617 86.9877 86.1357 87.2197 86.2324 87.529L89.9444 97.998L89.2774 97.94L92.2934 90.023C92.5447 89.4237 92.9894 89.124 93.6274 89.124C93.9754 89.124 94.246 89.2013 94.4394 89.356C94.6327 89.5107 94.7874 89.733 94.9034 90.023L97.9774 97.969L97.1944 98.056L100.935 87.529C101.129 86.9103 101.593 86.601 102.327 86.601ZM113.774 86.485C115.108 86.485 116.142 86.775 116.877 87.355C117.611 87.9157 118.124 88.6793 118.414 89.646C118.723 90.6127 118.878 91.676 118.878 92.836V100.521C118.878 100.946 118.733 101.304 118.443 101.594C118.172 101.865 117.834 102 117.428 102C117.002 102 116.654 101.865 116.384 101.594C116.113 101.304 115.978 100.946 115.978 100.521V92.836C115.978 92.1593 115.881 91.5407 115.688 90.98C115.514 90.4193 115.195 89.9747 114.731 89.646C114.286 89.3173 113.658 89.153 112.846 89.153C112.092 89.153 111.415 89.3173 110.816 89.646C110.236 89.9747 109.781 90.4193 109.453 90.98C109.143 91.5407 108.989 92.1593 108.989 92.836V100.521C108.989 100.946 108.844 101.304 108.554 101.594C108.283 101.865 107.945 102 107.539 102C107.113 102 106.765 101.865 106.495 101.594C106.224 101.304 106.089 100.946 106.089 100.521V82.019C106.089 81.5937 106.224 81.2457 106.495 80.975C106.765 80.685 107.113 80.54 107.539 80.54C107.945 80.54 108.283 80.685 108.554 80.975C108.844 81.2457 108.989 81.5937 108.989 82.019V89.936L108.467 90.226C108.602 89.8007 108.824 89.3657 109.134 88.921C109.462 88.4763 109.859 88.0703 110.323 87.703C110.806 87.3357 111.338 87.0457 111.918 86.833C112.498 86.601 113.116 86.485 113.774 86.485ZM134.83 86.514C135.255 86.514 135.603 86.659 135.874 86.949C136.144 87.2197 136.28 87.5677 136.28 87.993V100.521C136.28 100.946 136.144 101.304 135.874 101.594C135.603 101.865 135.255 102 134.83 102C134.424 102 134.076 101.865 133.786 101.594C133.515 101.304 133.38 100.946 133.38 100.521V98.433L133.989 98.52C133.989 98.868 133.844 99.2547 133.554 99.68C133.283 100.105 132.906 100.521 132.423 100.927C131.939 101.314 131.369 101.642 130.712 101.913C130.054 102.164 129.349 102.29 128.595 102.29C127.261 102.29 126.062 101.952 124.999 101.275C123.935 100.579 123.094 99.6317 122.476 98.433C121.857 97.2343 121.548 95.8713 121.548 94.344C121.548 92.778 121.857 91.4053 122.476 90.226C123.094 89.0273 123.926 88.0897 124.97 87.413C126.033 86.7363 127.212 86.398 128.508 86.398C129.339 86.398 130.103 86.5333 130.799 86.804C131.514 87.0747 132.133 87.4227 132.655 87.848C133.177 88.2733 133.573 88.7277 133.844 89.211C134.134 89.675 134.279 90.1197 134.279 90.545L133.38 90.632V87.993C133.38 87.587 133.515 87.239 133.786 86.949C134.076 86.659 134.424 86.514 134.83 86.514ZM128.914 99.622C129.822 99.622 130.625 99.39 131.321 98.926C132.017 98.462 132.558 97.8337 132.945 97.041C133.331 96.229 133.525 95.33 133.525 94.344C133.525 93.3387 133.331 92.4397 132.945 91.647C132.558 90.8543 132.017 90.226 131.321 89.762C130.625 89.298 129.822 89.066 128.914 89.066C128.024 89.066 127.232 89.298 126.536 89.762C125.859 90.226 125.318 90.8543 124.912 91.647C124.525 92.4397 124.332 93.3387 124.332 94.344C124.332 95.33 124.525 96.229 124.912 97.041C125.318 97.8337 125.859 98.462 126.536 98.926C127.232 99.39 128.024 99.622 128.914 99.622ZM139.56 86.92H146.375C146.761 86.92 147.08 87.0553 147.332 87.326C147.602 87.5773 147.738 87.8963 147.738 88.283C147.738 88.6503 147.602 88.9597 147.332 89.211C147.08 89.4623 146.761 89.588 146.375 89.588H139.56C139.173 89.588 138.844 89.4623 138.574 89.211C138.322 88.9403 138.197 88.6213 138.197 88.254C138.197 87.8673 138.322 87.5483 138.574 87.297C138.844 87.0457 139.173 86.92 139.56 86.92ZM142.605 83.15C143.03 83.15 143.378 83.295 143.649 83.585C143.919 83.8557 144.055 84.2037 144.055 84.629V98.085C144.055 98.433 144.113 98.7133 144.229 98.926C144.345 99.1387 144.499 99.2837 144.693 99.361C144.905 99.4383 145.118 99.477 145.331 99.477C145.543 99.477 145.727 99.4383 145.882 99.361C146.056 99.2837 146.259 99.245 146.491 99.245C146.723 99.245 146.935 99.3513 147.129 99.564C147.322 99.7767 147.419 100.067 147.419 100.434C147.419 100.898 147.167 101.275 146.665 101.565C146.162 101.855 145.621 102 145.041 102C144.712 102 144.325 101.971 143.881 101.913C143.436 101.855 143.001 101.71 142.576 101.478C142.17 101.246 141.831 100.879 141.561 100.376C141.29 99.854 141.155 99.129 141.155 98.201V84.629C141.155 84.2037 141.29 83.8557 141.561 83.585C141.851 83.295 142.199 83.15 142.605 83.15ZM175.637 86.601C176.005 86.601 176.324 86.746 176.594 87.036C176.884 87.3067 177.029 87.6643 177.029 88.109C177.029 88.2057 177.02 88.3023 177 88.399C176.981 88.4957 176.952 88.5827 176.913 88.66L172.476 101.072C172.36 101.401 172.157 101.652 171.867 101.826C171.577 101.981 171.278 102.039 170.968 102C170.408 101.961 169.992 101.652 169.721 101.072L166.444 92.372L167.111 92.43L164.095 101.072C163.825 101.652 163.409 101.961 162.848 102C162.558 102.039 162.259 101.981 161.949 101.826C161.659 101.652 161.456 101.401 161.34 101.072L156.874 88.66C156.797 88.486 156.758 88.3023 156.758 88.109C156.758 87.703 156.884 87.355 157.135 87.065C157.406 86.7557 157.764 86.601 158.208 86.601C158.518 86.601 158.788 86.6783 159.02 86.833C159.272 86.9877 159.446 87.2197 159.542 87.529L163.254 97.998L162.587 97.94L165.603 90.023C165.855 89.4237 166.299 89.124 166.937 89.124C167.285 89.124 167.556 89.2013 167.749 89.356C167.943 89.5107 168.097 89.733 168.213 90.023L171.287 97.969L170.504 98.056L174.245 87.529C174.439 86.9103 174.903 86.601 175.637 86.601ZM186.503 102.29C184.899 102.29 183.507 101.961 182.327 101.304C181.148 100.627 180.23 99.709 179.572 98.549C178.934 97.3697 178.615 96.026 178.615 94.518C178.615 92.8167 178.954 91.3667 179.63 90.168C180.326 88.95 181.225 88.022 182.327 87.384C183.429 86.7267 184.599 86.398 185.836 86.398C186.784 86.398 187.683 86.5913 188.533 86.978C189.384 87.3453 190.138 87.8673 190.795 88.544C191.472 89.2013 192.004 89.9843 192.39 90.893C192.777 91.7823 192.98 92.7587 192.999 93.822C192.98 94.2087 192.825 94.5277 192.535 94.779C192.245 95.0303 191.907 95.156 191.52 95.156H180.239L179.543 92.691H190.447L189.896 93.213V92.488C189.858 91.8113 189.635 91.2217 189.229 90.719C188.823 90.197 188.321 89.8007 187.721 89.53C187.122 89.24 186.494 89.095 185.836 89.095C185.256 89.095 184.696 89.1917 184.154 89.385C183.632 89.559 183.159 89.849 182.733 90.255C182.327 90.661 181.999 91.2023 181.747 91.879C181.515 92.5363 181.399 93.358 181.399 94.344C181.399 95.4073 181.622 96.3353 182.066 97.128C182.511 97.9207 183.11 98.5393 183.864 98.984C184.618 99.4093 185.45 99.622 186.358 99.622C187.074 99.622 187.663 99.5543 188.127 99.419C188.591 99.2643 188.978 99.0807 189.287 98.868C189.597 98.6553 189.867 98.4523 190.099 98.259C190.389 98.085 190.679 97.998 190.969 97.998C191.317 97.998 191.607 98.1237 191.839 98.375C192.071 98.607 192.187 98.8873 192.187 99.216C192.187 99.6413 191.975 100.028 191.549 100.376C191.027 100.879 190.302 101.323 189.374 101.71C188.466 102.097 187.509 102.29 186.503 102.29ZM199.293 84.281C199.293 84.8803 199.119 85.4797 198.771 86.079C198.443 86.6783 198.017 87.181 197.495 87.587C196.973 87.9737 196.422 88.167 195.842 88.167C195.649 88.167 195.446 88.0897 195.233 87.935C195.04 87.7803 194.943 87.5193 194.943 87.152C194.943 86.7653 195.059 86.543 195.291 86.485C195.543 86.4077 195.784 86.311 196.016 86.195C196.287 86.0597 196.5 85.8953 196.654 85.702C196.809 85.4893 196.886 85.238 196.886 84.948C196.886 84.7353 196.79 84.5517 196.596 84.397C196.422 84.2423 196.19 84.165 195.9 84.165C195.784 84.165 195.649 84.1843 195.494 84.223C195.34 84.2423 195.214 84.2907 195.117 84.368C194.943 84.2713 194.798 84.1553 194.682 84.02C194.566 83.8847 194.508 83.6817 194.508 83.411C194.508 82.889 194.75 82.4443 195.233 82.077C195.717 81.7097 196.268 81.526 196.886 81.526C197.621 81.526 198.201 81.787 198.626 82.309C199.071 82.8117 199.293 83.469 199.293 84.281ZM203.761 102C203.335 102 202.987 101.865 202.717 101.594C202.446 101.304 202.311 100.946 202.311 100.521V88.225C202.311 87.7997 202.446 87.4517 202.717 87.181C202.987 86.891 203.335 86.746 203.761 86.746C204.167 86.746 204.505 86.891 204.776 87.181C205.066 87.4517 205.211 87.7997 205.211 88.225V91.473L204.921 90.226C205.075 89.6847 205.307 89.182 205.617 88.718C205.945 88.254 206.332 87.848 206.777 87.5C207.221 87.152 207.714 86.8813 208.256 86.688C208.816 86.4947 209.396 86.398 209.996 86.398C210.498 86.398 210.933 86.5333 211.301 86.804C211.668 87.0747 211.852 87.413 211.852 87.819C211.852 88.341 211.716 88.7277 211.446 88.979C211.175 89.211 210.875 89.327 210.547 89.327C210.257 89.327 209.976 89.269 209.706 89.153C209.435 89.0177 209.116 88.95 208.749 88.95C208.343 88.95 207.927 89.0563 207.502 89.269C207.076 89.4817 206.69 89.8007 206.342 90.226C205.994 90.632 205.713 91.1153 205.501 91.676C205.307 92.2367 205.211 92.865 205.211 93.561V100.521C205.211 100.946 205.066 101.304 204.776 101.594C204.505 101.865 204.167 102 203.761 102ZM220.305 102.29C218.701 102.29 217.309 101.961 216.129 101.304C214.95 100.627 214.032 99.709 213.374 98.549C212.736 97.3697 212.417 96.026 212.417 94.518C212.417 92.8167 212.756 91.3667 213.432 90.168C214.128 88.95 215.027 88.022 216.129 87.384C217.231 86.7267 218.401 86.398 219.638 86.398C220.586 86.398 221.485 86.5913 222.335 86.978C223.186 87.3453 223.94 87.8673 224.597 88.544C225.274 89.2013 225.806 89.9843 226.192 90.893C226.579 91.7823 226.782 92.7587 226.801 93.822C226.782 94.2087 226.627 94.5277 226.337 94.779C226.047 95.0303 225.709 95.156 225.322 95.156H214.041L213.345 92.691H224.249L223.698 93.213V92.488C223.66 91.8113 223.437 91.2217 223.031 90.719C222.625 90.197 222.123 89.8007 221.523 89.53C220.924 89.24 220.296 89.095 219.638 89.095C219.058 89.095 218.498 89.1917 217.956 89.385C217.434 89.559 216.961 89.849 216.535 90.255C216.129 90.661 215.801 91.2023 215.549 91.879C215.317 92.5363 215.201 93.358 215.201 94.344C215.201 95.4073 215.424 96.3353 215.868 97.128C216.313 97.9207 216.912 98.5393 217.666 98.984C218.42 99.4093 219.252 99.622 220.16 99.622C220.876 99.622 221.465 99.5543 221.929 99.419C222.393 99.2643 222.78 99.0807 223.089 98.868C223.399 98.6553 223.669 98.4523 223.901 98.259C224.191 98.085 224.481 97.998 224.771 97.998C225.119 97.998 225.409 98.1237 225.641 98.375C225.873 98.607 225.989 98.8873 225.989 99.216C225.989 99.6413 225.777 100.028 225.351 100.376C224.829 100.879 224.104 101.323 223.176 101.71C222.268 102.097 221.311 102.29 220.305 102.29ZM248.359 86.746C248.765 86.746 249.103 86.891 249.374 87.181C249.664 87.4517 249.809 87.7997 249.809 88.225V95.852C249.809 97.8627 249.248 99.4383 248.127 100.579C247.005 101.7 245.42 102.261 243.371 102.261C241.341 102.261 239.765 101.7 238.644 100.579C237.542 99.4383 236.991 97.8627 236.991 95.852V88.225C236.991 87.7997 237.126 87.4517 237.397 87.181C237.667 86.891 238.015 86.746 238.441 86.746C238.847 86.746 239.185 86.891 239.456 87.181C239.746 87.4517 239.891 87.7997 239.891 88.225V95.852C239.891 97.1087 240.181 98.0463 240.761 98.665C241.36 99.2837 242.23 99.593 243.371 99.593C244.531 99.593 245.41 99.2837 246.01 98.665C246.609 98.0463 246.909 97.1087 246.909 95.852V88.225C246.909 87.7997 247.044 87.4517 247.315 87.181C247.585 86.891 247.933 86.746 248.359 86.746ZM260.946 86.485C262.3 86.485 263.498 86.8233 264.542 87.5C265.606 88.1767 266.447 89.1047 267.065 90.284C267.684 91.444 267.993 92.7973 267.993 94.344C267.993 95.8907 267.684 97.2633 267.065 98.462C266.447 99.6413 265.615 100.569 264.571 101.246C263.527 101.923 262.348 102.261 261.033 102.261C260.299 102.261 259.603 102.145 258.945 101.913C258.288 101.681 257.708 101.381 257.205 101.014C256.703 100.627 256.287 100.221 255.958 99.796C255.649 99.3707 255.456 98.9743 255.378 98.607L256.161 98.23V106.321C256.161 106.746 256.016 107.094 255.726 107.365C255.456 107.655 255.117 107.8 254.711 107.8C254.286 107.8 253.938 107.655 253.667 107.365C253.397 107.094 253.261 106.746 253.261 106.321V88.167C253.261 87.761 253.397 87.413 253.667 87.123C253.938 86.833 254.286 86.688 254.711 86.688C255.117 86.688 255.456 86.833 255.726 87.123C256.016 87.413 256.161 87.761 256.161 88.167V90.168L255.697 89.907C255.755 89.5397 255.939 89.1627 256.248 88.776C256.558 88.37 256.944 87.993 257.408 87.645C257.892 87.297 258.433 87.0167 259.032 86.804C259.651 86.5913 260.289 86.485 260.946 86.485ZM260.627 89.153C259.699 89.153 258.887 89.385 258.191 89.849C257.515 90.2937 256.983 90.9027 256.596 91.676C256.21 92.4493 256.016 93.3387 256.016 94.344C256.016 95.33 256.21 96.229 256.596 97.041C256.983 97.8337 257.515 98.462 258.191 98.926C258.887 99.3707 259.699 99.593 260.627 99.593C261.536 99.593 262.329 99.3707 263.005 98.926C263.682 98.462 264.214 97.8337 264.6 97.041C265.006 96.229 265.209 95.33 265.209 94.344C265.209 93.358 265.006 92.4783 264.6 91.705C264.214 90.9123 263.682 90.2937 263.005 89.849C262.329 89.385 261.536 89.153 260.627 89.153ZM277.981 86.92H284.796C285.183 86.92 285.502 87.0553 285.753 87.326C286.024 87.5773 286.159 87.8963 286.159 88.283C286.159 88.6503 286.024 88.9597 285.753 89.211C285.502 89.4623 285.183 89.588 284.796 89.588H277.981C277.595 89.588 277.266 89.4623 276.995 89.211C276.744 88.9403 276.618 88.6213 276.618 88.254C276.618 87.8673 276.744 87.5483 276.995 87.297C277.266 87.0457 277.595 86.92 277.981 86.92ZM281.026 83.15C281.452 83.15 281.8 83.295 282.07 83.585C282.341 83.8557 282.476 84.2037 282.476 84.629V98.085C282.476 98.433 282.534 98.7133 282.65 98.926C282.766 99.1387 282.921 99.2837 283.114 99.361C283.327 99.4383 283.54 99.477 283.752 99.477C283.965 99.477 284.149 99.4383 284.303 99.361C284.477 99.2837 284.68 99.245 284.912 99.245C285.144 99.245 285.357 99.3513 285.55 99.564C285.744 99.7767 285.84 100.067 285.84 100.434C285.84 100.898 285.589 101.275 285.086 101.565C284.584 101.855 284.042 102 283.462 102C283.134 102 282.747 101.971 282.302 101.913C281.858 101.855 281.423 101.71 280.997 101.478C280.591 101.246 280.253 100.879 279.982 100.376C279.712 99.854 279.576 99.129 279.576 98.201V84.629C279.576 84.2037 279.712 83.8557 279.982 83.585C280.272 83.295 280.62 83.15 281.026 83.15ZM303.265 94.373C303.265 95.9197 302.927 97.2923 302.25 98.491C301.574 99.6703 300.655 100.598 299.495 101.275C298.335 101.952 297.03 102.29 295.58 102.29C294.13 102.29 292.825 101.952 291.665 101.275C290.505 100.598 289.577 99.6703 288.881 98.491C288.205 97.2923 287.866 95.9197 287.866 94.373C287.866 92.807 288.205 91.4343 288.881 90.255C289.577 89.0563 290.505 88.1187 291.665 87.442C292.825 86.746 294.13 86.398 295.58 86.398C297.03 86.398 298.335 86.746 299.495 87.442C300.655 88.1187 301.574 89.0563 302.25 90.255C302.927 91.4343 303.265 92.807 303.265 94.373ZM300.365 94.373C300.365 93.3097 300.153 92.3913 299.727 91.618C299.302 90.8253 298.722 90.2067 297.987 89.762C297.272 89.298 296.47 89.066 295.58 89.066C294.691 89.066 293.879 89.298 293.144 89.762C292.41 90.2067 291.83 90.8253 291.404 91.618C290.979 92.3913 290.766 93.3097 290.766 94.373C290.766 95.3977 290.979 96.3063 291.404 97.099C291.83 97.8917 292.41 98.5103 293.144 98.955C293.879 99.3997 294.691 99.622 295.58 99.622C296.47 99.622 297.272 99.3997 297.987 98.955C298.722 98.5103 299.302 97.8917 299.727 97.099C300.153 96.3063 300.365 95.3977 300.365 94.373ZM307.07 101.971C306.586 101.971 306.209 101.836 305.939 101.565C305.687 101.294 305.562 100.917 305.562 100.434V99.912C305.562 99.4287 305.687 99.0517 305.939 98.781C306.209 98.5103 306.586 98.375 307.07 98.375H307.389C307.872 98.375 308.239 98.5103 308.491 98.781C308.742 99.0517 308.868 99.4287 308.868 99.912V100.434C308.868 100.917 308.742 101.294 308.491 101.565C308.239 101.836 307.872 101.971 307.389 101.971H307.07Z" fill="#FFFEE9"/>
</svg>
