<svg width="398" height="545" viewBox="0 0 398 545" fill="none" xmlns="http://www.w3.org/2000/svg">
<g clip-path="url(#clip0_552_45)">
<rect x="2" width="393" height="545" rx="22" fill="#FF7C4E"/>
<path d="M123.288 23.2C123.608 23.2 123.888 23.32 124.128 23.56C124.384 23.784 124.512 24.072 124.512 24.424V38.776C124.496 39.128 124.36 39.424 124.104 39.664C123.864 39.888 123.576 40 123.24 40C122.872 40 122.568 39.888 122.328 39.664C122.104 39.424 121.992 39.128 121.992 38.776V24.424C121.992 24.072 122.112 23.784 122.352 23.56C122.592 23.32 122.904 23.2 123.288 23.2ZM134.112 23.2C134.496 23.2 134.8 23.32 135.024 23.56C135.248 23.784 135.36 24.072 135.36 24.424V38.776C135.36 39.128 135.24 39.424 135 39.664C134.776 39.888 134.472 40 134.088 40C133.752 40 133.464 39.888 133.224 39.664C132.984 39.424 132.864 39.128 132.864 38.776V24.424C132.864 24.072 132.984 23.784 133.224 23.56C133.48 23.32 133.776 23.2 134.112 23.2ZM123.192 30.352H134.136L134.112 32.656H123.168L123.192 30.352ZM144.378 40.24C143.05 40.24 141.898 39.968 140.922 39.424C139.946 38.864 139.186 38.104 138.642 37.144C138.114 36.168 137.85 35.056 137.85 33.808C137.85 32.4 138.13 31.2 138.69 30.208C139.266 29.2 140.01 28.432 140.922 27.904C141.834 27.36 142.802 27.088 143.826 27.088C144.61 27.088 145.354 27.248 146.058 27.568C146.762 27.872 147.386 28.304 147.93 28.864C148.49 29.408 148.93 30.056 149.25 30.808C149.57 31.544 149.738 32.352 149.754 33.232C149.738 33.552 149.61 33.816 149.37 34.024C149.13 34.232 148.85 34.336 148.53 34.336H139.194L138.618 32.296H147.642L147.186 32.728V32.128C147.154 31.568 146.97 31.08 146.634 30.664C146.298 30.232 145.882 29.904 145.386 29.68C144.89 29.44 144.37 29.32 143.826 29.32C143.346 29.32 142.882 29.4 142.434 29.56C142.002 29.704 141.61 29.944 141.258 30.28C140.922 30.616 140.65 31.064 140.442 31.624C140.25 32.168 140.154 32.848 140.154 33.664C140.154 34.544 140.338 35.312 140.706 35.968C141.074 36.624 141.57 37.136 142.194 37.504C142.818 37.856 143.506 38.032 144.258 38.032C144.85 38.032 145.338 37.976 145.722 37.864C146.106 37.736 146.426 37.584 146.682 37.408C146.938 37.232 147.162 37.064 147.354 36.904C147.594 36.76 147.834 36.688 148.074 36.688C148.362 36.688 148.602 36.792 148.794 37C148.986 37.192 149.082 37.424 149.082 37.696C149.082 38.048 148.906 38.368 148.554 38.656C148.122 39.072 147.522 39.44 146.754 39.76C146.002 40.08 145.21 40.24 144.378 40.24ZM154.578 38.776C154.578 39.128 154.458 39.424 154.218 39.664C153.994 39.888 153.714 40 153.378 40C153.042 40 152.754 39.888 152.514 39.664C152.29 39.424 152.178 39.128 152.178 38.776V23.464C152.178 23.112 152.298 22.824 152.538 22.6C152.778 22.36 153.066 22.24 153.402 22.24C153.754 22.24 154.034 22.36 154.242 22.6C154.466 22.824 154.578 23.112 154.578 23.464V38.776ZM164.03 27.16C165.15 27.16 166.142 27.44 167.006 28C167.886 28.56 168.582 29.328 169.094 30.304C169.606 31.264 169.862 32.384 169.862 33.664C169.862 34.944 169.606 36.08 169.094 37.072C168.582 38.048 167.894 38.816 167.03 39.376C166.166 39.936 165.19 40.216 164.102 40.216C163.494 40.216 162.918 40.12 162.374 39.928C161.83 39.736 161.35 39.488 160.934 39.184C160.518 38.864 160.174 38.528 159.902 38.176C159.646 37.824 159.486 37.496 159.422 37.192L160.07 36.88V43.576C160.07 43.928 159.95 44.216 159.71 44.44C159.486 44.68 159.206 44.8 158.87 44.8C158.518 44.8 158.23 44.68 158.006 44.44C157.782 44.216 157.67 43.928 157.67 43.576V28.552C157.67 28.216 157.782 27.928 158.006 27.688C158.23 27.448 158.518 27.328 158.87 27.328C159.206 27.328 159.486 27.448 159.71 27.688C159.95 27.928 160.07 28.216 160.07 28.552V30.208L159.686 29.992C159.734 29.688 159.886 29.376 160.142 29.056C160.398 28.72 160.718 28.408 161.102 28.12C161.502 27.832 161.95 27.6 162.446 27.424C162.958 27.248 163.486 27.16 164.03 27.16ZM163.766 29.368C162.998 29.368 162.326 29.56 161.75 29.944C161.19 30.312 160.75 30.816 160.43 31.456C160.11 32.096 159.95 32.832 159.95 33.664C159.95 34.48 160.11 35.224 160.43 35.896C160.75 36.552 161.19 37.072 161.75 37.456C162.326 37.824 162.998 38.008 163.766 38.008C164.518 38.008 165.174 37.824 165.734 37.456C166.294 37.072 166.734 36.552 167.054 35.896C167.39 35.224 167.558 34.48 167.558 33.664C167.558 32.848 167.39 32.12 167.054 31.48C166.734 30.824 166.294 30.312 165.734 29.944C165.174 29.56 164.518 29.368 163.766 29.368ZM190.392 33.688C190.392 34.968 190.112 36.104 189.552 37.096C188.992 38.072 188.232 38.84 187.272 39.4C186.312 39.96 185.232 40.24 184.032 40.24C182.832 40.24 181.752 39.96 180.792 39.4C179.832 38.84 179.064 38.072 178.488 37.096C177.928 36.104 177.648 34.968 177.648 33.688C177.648 32.392 177.928 31.256 178.488 30.28C179.064 29.288 179.832 28.512 180.792 27.952C181.752 27.376 182.832 27.088 184.032 27.088C185.232 27.088 186.312 27.376 187.272 27.952C188.232 28.512 188.992 29.288 189.552 30.28C190.112 31.256 190.392 32.392 190.392 33.688ZM187.992 33.688C187.992 32.808 187.816 32.048 187.464 31.408C187.112 30.752 186.632 30.24 186.024 29.872C185.432 29.488 184.768 29.296 184.032 29.296C183.296 29.296 182.624 29.488 182.016 29.872C181.408 30.24 180.928 30.752 180.576 31.408C180.224 32.048 180.048 32.808 180.048 33.688C180.048 34.536 180.224 35.288 180.576 35.944C180.928 36.6 181.408 37.112 182.016 37.48C182.624 37.848 183.296 38.032 184.032 38.032C184.768 38.032 185.432 37.848 186.024 37.48C186.632 37.112 187.112 36.6 187.464 35.944C187.816 35.288 187.992 34.536 187.992 33.688ZM202.037 27.376C202.373 27.376 202.653 27.496 202.877 27.736C203.117 27.96 203.237 28.248 203.237 28.6V34.912C203.237 36.576 202.773 37.88 201.845 38.824C200.917 39.752 199.605 40.216 197.909 40.216C196.229 40.216 194.925 39.752 193.997 38.824C193.085 37.88 192.629 36.576 192.629 34.912V28.6C192.629 28.248 192.741 27.96 192.965 27.736C193.189 27.496 193.477 27.376 193.829 27.376C194.165 27.376 194.445 27.496 194.669 27.736C194.909 27.96 195.029 28.248 195.029 28.6V34.912C195.029 35.952 195.269 36.728 195.749 37.24C196.245 37.752 196.965 38.008 197.909 38.008C198.869 38.008 199.597 37.752 200.093 37.24C200.589 36.728 200.837 35.952 200.837 34.912V28.6C200.837 28.248 200.949 27.96 201.173 27.736C201.397 27.496 201.685 27.376 202.037 27.376ZM207.294 40C206.942 40 206.654 39.888 206.43 39.664C206.206 39.424 206.094 39.128 206.094 38.776V28.6C206.094 28.248 206.206 27.96 206.43 27.736C206.654 27.496 206.942 27.376 207.294 27.376C207.63 27.376 207.91 27.496 208.134 27.736C208.374 27.96 208.494 28.248 208.494 28.6V31.288L208.254 30.256C208.382 29.808 208.574 29.392 208.83 29.008C209.102 28.624 209.422 28.288 209.79 28C210.158 27.712 210.566 27.488 211.014 27.328C211.478 27.168 211.958 27.088 212.454 27.088C212.87 27.088 213.23 27.2 213.534 27.424C213.838 27.648 213.99 27.928 213.99 28.264C213.99 28.696 213.878 29.016 213.654 29.224C213.43 29.416 213.182 29.512 212.91 29.512C212.67 29.512 212.438 29.464 212.214 29.368C211.99 29.256 211.726 29.2 211.422 29.2C211.086 29.2 210.742 29.288 210.39 29.464C210.038 29.64 209.718 29.904 209.43 30.256C209.142 30.592 208.91 30.992 208.734 31.456C208.574 31.92 208.494 32.44 208.494 33.016V38.776C208.494 39.128 208.374 39.424 208.134 39.664C207.91 39.888 207.63 40 207.294 40ZM232.189 22.24C232.541 22.24 232.829 22.352 233.053 22.576C233.277 22.8 233.389 23.096 233.389 23.464V38.776C233.389 39.128 233.277 39.424 233.053 39.664C232.829 39.888 232.541 40 232.189 40C231.853 40 231.565 39.888 231.325 39.664C231.101 39.424 230.989 39.128 230.989 38.776V37.048L231.493 37.072C231.493 37.36 231.373 37.688 231.133 38.056C230.909 38.408 230.597 38.752 230.197 39.088C229.797 39.424 229.325 39.704 228.781 39.928C228.237 40.136 227.653 40.24 227.029 40.24C225.925 40.24 224.933 39.96 224.053 39.4C223.173 38.824 222.477 38.048 221.965 37.072C221.453 36.08 221.197 34.944 221.197 33.664C221.197 32.384 221.453 31.256 221.965 30.28C222.477 29.288 223.165 28.512 224.029 27.952C224.909 27.376 225.885 27.088 226.957 27.088C227.629 27.088 228.253 27.2 228.829 27.424C229.421 27.648 229.933 27.936 230.365 28.288C230.797 28.64 231.133 29.016 231.373 29.416C231.613 29.8 231.733 30.168 231.733 30.52L230.989 30.592V23.464C230.989 23.112 231.101 22.824 231.325 22.6C231.565 22.36 231.853 22.24 232.189 22.24ZM227.293 38.032C228.061 38.032 228.725 37.84 229.285 37.456C229.861 37.072 230.309 36.552 230.629 35.896C230.949 35.24 231.109 34.496 231.109 33.664C231.109 32.832 230.949 32.088 230.629 31.432C230.309 30.776 229.861 30.256 229.285 29.872C228.709 29.488 228.045 29.296 227.293 29.296C226.557 29.296 225.901 29.488 225.325 29.872C224.765 30.256 224.317 30.776 223.981 31.432C223.661 32.088 223.501 32.832 223.501 33.664C223.501 34.496 223.661 35.24 223.981 35.896C224.317 36.552 224.765 37.072 225.325 37.456C225.901 37.84 226.557 38.032 227.293 38.032ZM248.367 33.688C248.367 34.968 248.087 36.104 247.527 37.096C246.967 38.072 246.207 38.84 245.247 39.4C244.287 39.96 243.207 40.24 242.007 40.24C240.807 40.24 239.727 39.96 238.767 39.4C237.807 38.84 237.039 38.072 236.463 37.096C235.903 36.104 235.623 34.968 235.623 33.688C235.623 32.392 235.903 31.256 236.463 30.28C237.039 29.288 237.807 28.512 238.767 27.952C239.727 27.376 240.807 27.088 242.007 27.088C243.207 27.088 244.287 27.376 245.247 27.952C246.207 28.512 246.967 29.288 247.527 30.28C248.087 31.256 248.367 32.392 248.367 33.688ZM245.967 33.688C245.967 32.808 245.791 32.048 245.439 31.408C245.087 30.752 244.607 30.24 243.999 29.872C243.407 29.488 242.743 29.296 242.007 29.296C241.271 29.296 240.599 29.488 239.991 29.872C239.383 30.24 238.903 30.752 238.551 31.408C238.199 32.048 238.023 32.808 238.023 33.688C238.023 34.536 238.199 35.288 238.551 35.944C238.903 36.6 239.383 37.112 239.991 37.48C240.599 37.848 241.271 38.032 242.007 38.032C242.743 38.032 243.407 37.848 243.999 37.48C244.607 37.112 245.087 36.6 245.439 35.944C245.791 35.288 245.967 34.536 245.967 33.688ZM253.196 38.776C253.196 39.128 253.076 39.424 252.836 39.664C252.612 39.888 252.332 40 251.996 40C251.66 40 251.372 39.888 251.132 39.664C250.908 39.424 250.796 39.128 250.796 38.776V23.464C250.796 23.112 250.916 22.824 251.156 22.6C251.396 22.36 251.684 22.24 252.02 22.24C252.372 22.24 252.652 22.36 252.86 22.6C253.084 22.824 253.196 23.112 253.196 23.464V38.776ZM258.88 38.776C258.88 39.128 258.76 39.424 258.52 39.664C258.296 39.888 258.016 40 257.68 40C257.344 40 257.056 39.888 256.816 39.664C256.592 39.424 256.48 39.128 256.48 38.776V23.464C256.48 23.112 256.6 22.824 256.84 22.6C257.08 22.36 257.368 22.24 257.704 22.24C258.056 22.24 258.336 22.36 258.544 22.6C258.768 22.824 258.88 23.112 258.88 23.464V38.776ZM261.228 38.032C261.084 37.808 261.02 37.552 261.036 37.264C261.052 36.96 261.22 36.704 261.54 36.496C261.764 36.352 261.996 36.296 262.236 36.328C262.492 36.344 262.732 36.464 262.956 36.688C263.404 37.184 263.9 37.576 264.444 37.864C265.004 38.152 265.676 38.296 266.46 38.296C266.78 38.28 267.108 38.232 267.444 38.152C267.78 38.056 268.068 37.896 268.308 37.672C268.548 37.432 268.668 37.088 268.668 36.64C268.668 36.24 268.54 35.92 268.284 35.68C268.028 35.44 267.692 35.248 267.276 35.104C266.86 34.944 266.412 34.8 265.932 34.672C265.42 34.528 264.9 34.368 264.372 34.192C263.86 34.016 263.396 33.792 262.98 33.52C262.564 33.232 262.22 32.864 261.948 32.416C261.692 31.968 261.564 31.416 261.564 30.76C261.564 30.008 261.772 29.36 262.188 28.816C262.62 28.272 263.172 27.848 263.844 27.544C264.532 27.24 265.276 27.088 266.076 27.088C266.54 27.088 267.028 27.152 267.54 27.28C268.052 27.392 268.548 27.576 269.028 27.832C269.508 28.088 269.924 28.424 270.276 28.84C270.436 29.048 270.524 29.296 270.54 29.584C270.572 29.872 270.444 30.128 270.156 30.352C269.964 30.512 269.732 30.584 269.46 30.568C269.188 30.552 268.964 30.464 268.788 30.304C268.484 29.92 268.092 29.624 267.612 29.416C267.132 29.192 266.588 29.08 265.98 29.08C265.676 29.08 265.356 29.128 265.02 29.224C264.7 29.304 264.428 29.456 264.204 29.68C263.98 29.904 263.868 30.232 263.868 30.664C263.868 31.064 263.996 31.384 264.252 31.624C264.524 31.864 264.876 32.064 265.308 32.224C265.74 32.384 266.212 32.528 266.724 32.656C267.22 32.784 267.708 32.936 268.188 33.112C268.684 33.288 269.124 33.52 269.508 33.808C269.908 34.08 270.228 34.44 270.468 34.888C270.724 35.32 270.852 35.872 270.852 36.544C270.852 37.328 270.62 38 270.156 38.56C269.708 39.104 269.132 39.52 268.428 39.808C267.74 40.096 267.012 40.24 266.244 40.24C265.332 40.24 264.42 40.08 263.508 39.76C262.612 39.424 261.852 38.848 261.228 38.032ZM99.981 51.088C100.845 51.088 101.613 51.184 102.285 51.376C102.957 51.552 103.477 51.808 103.845 52.144C104.229 52.464 104.421 52.84 104.421 53.272C104.421 53.544 104.341 53.8 104.181 54.04C104.021 54.264 103.781 54.376 103.461 54.376C103.237 54.376 103.045 54.336 102.885 54.256C102.741 54.176 102.605 54.08 102.477 53.968C102.349 53.856 102.189 53.744 101.997 53.632C101.821 53.536 101.557 53.456 101.205 53.392C100.869 53.328 100.565 53.296 100.293 53.296C99.445 53.296 98.709 53.488 98.085 53.872C97.477 54.256 96.997 54.776 96.645 55.432C96.309 56.088 96.141 56.832 96.141 57.664C96.141 58.496 96.309 59.24 96.645 59.896C96.997 60.552 97.469 61.072 98.061 61.456C98.669 61.84 99.373 62.032 100.173 62.032C100.653 62.032 101.045 62 101.349 61.936C101.653 61.856 101.917 61.76 102.141 61.648C102.381 61.504 102.581 61.36 102.741 61.216C102.917 61.056 103.157 60.976 103.461 60.976C103.813 60.976 104.077 61.088 104.253 61.312C104.445 61.52 104.541 61.784 104.541 62.104C104.541 62.456 104.325 62.8 103.893 63.136C103.477 63.456 102.917 63.72 102.213 63.928C101.509 64.136 100.733 64.24 99.885 64.24C98.637 64.24 97.549 63.952 96.621 63.376C95.709 62.8 94.997 62.016 94.485 61.024C93.989 60.032 93.741 58.912 93.741 57.664C93.741 56.4 94.005 55.28 94.533 54.304C95.061 53.312 95.797 52.528 96.741 51.952C97.685 51.376 98.765 51.088 99.981 51.088ZM112.714 51.16C113.818 51.16 114.674 51.4 115.282 51.88C115.89 52.344 116.314 52.976 116.554 53.776C116.81 54.576 116.938 55.456 116.938 56.416V62.776C116.938 63.128 116.818 63.424 116.578 63.664C116.354 63.888 116.074 64 115.738 64C115.386 64 115.098 63.888 114.874 63.664C114.65 63.424 114.538 63.128 114.538 62.776V56.416C114.538 55.856 114.458 55.344 114.298 54.88C114.154 54.416 113.89 54.048 113.506 53.776C113.138 53.504 112.618 53.368 111.946 53.368C111.322 53.368 110.762 53.504 110.266 53.776C109.786 54.048 109.41 54.416 109.138 54.88C108.882 55.344 108.754 55.856 108.754 56.416V62.776C108.754 63.128 108.634 63.424 108.394 63.664C108.17 63.888 107.89 64 107.554 64C107.202 64 106.914 63.888 106.69 63.664C106.466 63.424 106.354 63.128 106.354 62.776V47.464C106.354 47.112 106.466 46.824 106.69 46.6C106.914 46.36 107.202 46.24 107.554 46.24C107.89 46.24 108.17 46.36 108.394 46.6C108.634 46.824 108.754 47.112 108.754 47.464V54.016L108.322 54.256C108.434 53.904 108.618 53.544 108.874 53.176C109.146 52.808 109.474 52.472 109.858 52.168C110.258 51.864 110.698 51.624 111.178 51.448C111.658 51.256 112.17 51.16 112.714 51.16ZM131.892 57.688C131.892 58.968 131.612 60.104 131.052 61.096C130.492 62.072 129.732 62.84 128.772 63.4C127.812 63.96 126.732 64.24 125.532 64.24C124.332 64.24 123.252 63.96 122.292 63.4C121.332 62.84 120.564 62.072 119.988 61.096C119.428 60.104 119.148 58.968 119.148 57.688C119.148 56.392 119.428 55.256 119.988 54.28C120.564 53.288 121.332 52.512 122.292 51.952C123.252 51.376 124.332 51.088 125.532 51.088C126.732 51.088 127.812 51.376 128.772 51.952C129.732 52.512 130.492 53.288 131.052 54.28C131.612 55.256 131.892 56.392 131.892 57.688ZM129.492 57.688C129.492 56.808 129.316 56.048 128.964 55.408C128.612 54.752 128.132 54.24 127.524 53.872C126.932 53.488 126.268 53.296 125.532 53.296C124.796 53.296 124.124 53.488 123.516 53.872C122.908 54.24 122.428 54.752 122.076 55.408C121.724 56.048 121.548 56.808 121.548 57.688C121.548 58.536 121.724 59.288 122.076 59.944C122.428 60.6 122.908 61.112 123.516 61.48C124.124 61.848 124.796 62.032 125.532 62.032C126.268 62.032 126.932 61.848 127.524 61.48C128.132 61.112 128.612 60.6 128.964 59.944C129.316 59.288 129.492 58.536 129.492 57.688ZM146.225 57.688C146.225 58.968 145.945 60.104 145.385 61.096C144.825 62.072 144.065 62.84 143.105 63.4C142.145 63.96 141.065 64.24 139.865 64.24C138.665 64.24 137.585 63.96 136.625 63.4C135.665 62.84 134.897 62.072 134.321 61.096C133.761 60.104 133.481 58.968 133.481 57.688C133.481 56.392 133.761 55.256 134.321 54.28C134.897 53.288 135.665 52.512 136.625 51.952C137.585 51.376 138.665 51.088 139.865 51.088C141.065 51.088 142.145 51.376 143.105 51.952C144.065 52.512 144.825 53.288 145.385 54.28C145.945 55.256 146.225 56.392 146.225 57.688ZM143.825 57.688C143.825 56.808 143.649 56.048 143.297 55.408C142.945 54.752 142.465 54.24 141.857 53.872C141.265 53.488 140.601 53.296 139.865 53.296C139.129 53.296 138.457 53.488 137.849 53.872C137.241 54.24 136.761 54.752 136.409 55.408C136.057 56.048 135.881 56.808 135.881 57.688C135.881 58.536 136.057 59.288 136.409 59.944C136.761 60.6 137.241 61.112 137.849 61.48C138.457 61.848 139.129 62.032 139.865 62.032C140.601 62.032 141.265 61.848 141.857 61.48C142.465 61.112 142.945 60.6 143.297 59.944C143.649 59.288 143.825 58.536 143.825 57.688ZM147.717 62.032C147.573 61.808 147.509 61.552 147.525 61.264C147.541 60.96 147.709 60.704 148.029 60.496C148.253 60.352 148.485 60.296 148.725 60.328C148.981 60.344 149.221 60.464 149.445 60.688C149.893 61.184 150.389 61.576 150.933 61.864C151.493 62.152 152.165 62.296 152.949 62.296C153.269 62.28 153.597 62.232 153.933 62.152C154.269 62.056 154.557 61.896 154.797 61.672C155.037 61.432 155.157 61.088 155.157 60.64C155.157 60.24 155.029 59.92 154.773 59.68C154.517 59.44 154.181 59.248 153.765 59.104C153.349 58.944 152.901 58.8 152.421 58.672C151.909 58.528 151.389 58.368 150.861 58.192C150.349 58.016 149.885 57.792 149.469 57.52C149.053 57.232 148.709 56.864 148.437 56.416C148.181 55.968 148.053 55.416 148.053 54.76C148.053 54.008 148.261 53.36 148.677 52.816C149.109 52.272 149.661 51.848 150.333 51.544C151.021 51.24 151.765 51.088 152.565 51.088C153.029 51.088 153.517 51.152 154.029 51.28C154.541 51.392 155.037 51.576 155.517 51.832C155.997 52.088 156.413 52.424 156.765 52.84C156.925 53.048 157.013 53.296 157.029 53.584C157.061 53.872 156.933 54.128 156.645 54.352C156.453 54.512 156.221 54.584 155.949 54.568C155.677 54.552 155.453 54.464 155.277 54.304C154.973 53.92 154.581 53.624 154.101 53.416C153.621 53.192 153.077 53.08 152.469 53.08C152.165 53.08 151.845 53.128 151.509 53.224C151.189 53.304 150.917 53.456 150.693 53.68C150.469 53.904 150.357 54.232 150.357 54.664C150.357 55.064 150.485 55.384 150.741 55.624C151.013 55.864 151.365 56.064 151.797 56.224C152.229 56.384 152.701 56.528 153.213 56.656C153.709 56.784 154.197 56.936 154.677 57.112C155.173 57.288 155.613 57.52 155.997 57.808C156.397 58.08 156.717 58.44 156.957 58.888C157.213 59.32 157.341 59.872 157.341 60.544C157.341 61.328 157.109 62 156.645 62.56C156.197 63.104 155.621 63.52 154.917 63.808C154.229 64.096 153.501 64.24 152.733 64.24C151.821 64.24 150.909 64.08 149.997 63.76C149.101 63.424 148.341 62.848 147.717 62.032ZM165.322 64.24C163.994 64.24 162.842 63.968 161.866 63.424C160.89 62.864 160.13 62.104 159.586 61.144C159.058 60.168 158.794 59.056 158.794 57.808C158.794 56.4 159.074 55.2 159.634 54.208C160.21 53.2 160.954 52.432 161.866 51.904C162.778 51.36 163.746 51.088 164.77 51.088C165.554 51.088 166.298 51.248 167.002 51.568C167.706 51.872 168.33 52.304 168.874 52.864C169.434 53.408 169.874 54.056 170.194 54.808C170.514 55.544 170.682 56.352 170.698 57.232C170.682 57.552 170.554 57.816 170.314 58.024C170.074 58.232 169.794 58.336 169.474 58.336H160.138L159.562 56.296H168.586L168.13 56.728V56.128C168.098 55.568 167.914 55.08 167.578 54.664C167.242 54.232 166.826 53.904 166.33 53.68C165.834 53.44 165.314 53.32 164.77 53.32C164.29 53.32 163.826 53.4 163.378 53.56C162.946 53.704 162.554 53.944 162.202 54.28C161.866 54.616 161.594 55.064 161.386 55.624C161.194 56.168 161.098 56.848 161.098 57.664C161.098 58.544 161.282 59.312 161.65 59.968C162.018 60.624 162.514 61.136 163.138 61.504C163.762 61.856 164.45 62.032 165.202 62.032C165.794 62.032 166.282 61.976 166.666 61.864C167.05 61.736 167.37 61.584 167.626 61.408C167.882 61.232 168.106 61.064 168.298 60.904C168.538 60.76 168.778 60.688 169.018 60.688C169.306 60.688 169.546 60.792 169.738 61C169.93 61.192 170.026 61.424 170.026 61.696C170.026 62.048 169.85 62.368 169.498 62.656C169.066 63.072 168.466 63.44 167.698 63.76C166.946 64.08 166.154 64.24 165.322 64.24ZM178.963 51.52H184.603C184.923 51.52 185.187 51.632 185.395 51.856C185.619 52.064 185.731 52.328 185.731 52.648C185.731 52.952 185.619 53.208 185.395 53.416C185.187 53.624 184.923 53.728 184.603 53.728H178.963C178.643 53.728 178.371 53.624 178.147 53.416C177.939 53.192 177.835 52.928 177.835 52.624C177.835 52.304 177.939 52.04 178.147 51.832C178.371 51.624 178.643 51.52 178.963 51.52ZM181.483 48.4C181.835 48.4 182.123 48.52 182.347 48.76C182.571 48.984 182.683 49.272 182.683 49.624V60.76C182.683 61.048 182.731 61.28 182.827 61.456C182.923 61.632 183.051 61.752 183.211 61.816C183.387 61.88 183.563 61.912 183.739 61.912C183.915 61.912 184.067 61.88 184.195 61.816C184.339 61.752 184.507 61.72 184.699 61.72C184.891 61.72 185.067 61.808 185.227 61.984C185.387 62.16 185.467 62.4 185.467 62.704C185.467 63.088 185.259 63.4 184.843 63.64C184.427 63.88 183.979 64 183.499 64C183.227 64 182.907 63.976 182.539 63.928C182.171 63.88 181.811 63.76 181.459 63.568C181.123 63.376 180.843 63.072 180.619 62.656C180.395 62.224 180.283 61.624 180.283 60.856V49.624C180.283 49.272 180.395 48.984 180.619 48.76C180.859 48.52 181.147 48.4 181.483 48.4ZM194.268 51.16C195.372 51.16 196.228 51.4 196.836 51.88C197.444 52.344 197.868 52.976 198.108 53.776C198.364 54.576 198.492 55.456 198.492 56.416V62.776C198.492 63.128 198.372 63.424 198.132 63.664C197.908 63.888 197.628 64 197.292 64C196.94 64 196.652 63.888 196.428 63.664C196.204 63.424 196.092 63.128 196.092 62.776V56.416C196.092 55.856 196.012 55.344 195.852 54.88C195.708 54.416 195.444 54.048 195.06 53.776C194.692 53.504 194.172 53.368 193.5 53.368C192.876 53.368 192.316 53.504 191.82 53.776C191.34 54.048 190.964 54.416 190.692 54.88C190.436 55.344 190.308 55.856 190.308 56.416V62.776C190.308 63.128 190.188 63.424 189.948 63.664C189.724 63.888 189.444 64 189.108 64C188.756 64 188.468 63.888 188.244 63.664C188.02 63.424 187.908 63.128 187.908 62.776V47.464C187.908 47.112 188.02 46.824 188.244 46.6C188.468 46.36 188.756 46.24 189.108 46.24C189.444 46.24 189.724 46.36 189.948 46.6C190.188 46.824 190.308 47.112 190.308 47.464V54.016L189.876 54.256C189.988 53.904 190.172 53.544 190.428 53.176C190.7 52.808 191.028 52.472 191.412 52.168C191.812 51.864 192.252 51.624 192.732 51.448C193.212 51.256 193.724 51.16 194.268 51.16ZM207.23 64.24C205.902 64.24 204.75 63.968 203.774 63.424C202.798 62.864 202.038 62.104 201.494 61.144C200.966 60.168 200.702 59.056 200.702 57.808C200.702 56.4 200.982 55.2 201.542 54.208C202.118 53.2 202.862 52.432 203.774 51.904C204.686 51.36 205.654 51.088 206.678 51.088C207.462 51.088 208.206 51.248 208.91 51.568C209.614 51.872 210.238 52.304 210.782 52.864C211.342 53.408 211.782 54.056 212.102 54.808C212.422 55.544 212.59 56.352 212.606 57.232C212.59 57.552 212.462 57.816 212.222 58.024C211.982 58.232 211.702 58.336 211.382 58.336H202.046L201.47 56.296H210.494L210.038 56.728V56.128C210.006 55.568 209.822 55.08 209.486 54.664C209.15 54.232 208.734 53.904 208.238 53.68C207.742 53.44 207.222 53.32 206.678 53.32C206.198 53.32 205.734 53.4 205.286 53.56C204.854 53.704 204.462 53.944 204.11 54.28C203.774 54.616 203.502 55.064 203.294 55.624C203.102 56.168 203.006 56.848 203.006 57.664C203.006 58.544 203.19 59.312 203.558 59.968C203.926 60.624 204.422 61.136 205.046 61.504C205.67 61.856 206.358 62.032 207.11 62.032C207.702 62.032 208.19 61.976 208.574 61.864C208.958 61.736 209.278 61.584 209.534 61.408C209.79 61.232 210.014 61.064 210.206 60.904C210.446 60.76 210.686 60.688 210.926 60.688C211.214 60.688 211.454 60.792 211.646 61C211.838 61.192 211.934 61.424 211.934 61.696C211.934 62.048 211.758 62.368 211.406 62.656C210.974 63.072 210.374 63.44 209.606 63.76C208.854 64.08 208.062 64.24 207.23 64.24ZM217.095 62.776C217.095 63.128 216.983 63.424 216.759 63.664C216.535 63.888 216.247 64 215.895 64C215.559 64 215.271 63.888 215.031 63.664C214.807 63.424 214.695 63.128 214.695 62.776V52.504C214.695 52.152 214.807 51.864 215.031 51.64C215.271 51.4 215.559 51.28 215.895 51.28C216.247 51.28 216.535 51.4 216.759 51.64C216.983 51.864 217.095 52.152 217.095 52.504V62.776ZM215.871 49.696C215.407 49.696 215.071 49.616 214.863 49.456C214.655 49.28 214.551 48.992 214.551 48.592V48.208C214.551 47.808 214.663 47.528 214.887 47.368C215.111 47.208 215.447 47.128 215.895 47.128C216.375 47.128 216.719 47.216 216.927 47.392C217.135 47.552 217.239 47.824 217.239 48.208V48.592C217.239 49.008 217.127 49.296 216.903 49.456C216.695 49.616 216.351 49.696 215.871 49.696ZM221.043 64C220.691 64 220.403 63.888 220.179 63.664C219.955 63.424 219.843 63.128 219.843 62.776V52.6C219.843 52.248 219.955 51.96 220.179 51.736C220.403 51.496 220.691 51.376 221.043 51.376C221.379 51.376 221.659 51.496 221.883 51.736C222.123 51.96 222.243 52.248 222.243 52.6V55.288L222.003 54.256C222.131 53.808 222.323 53.392 222.579 53.008C222.851 52.624 223.171 52.288 223.539 52C223.907 51.712 224.315 51.488 224.763 51.328C225.227 51.168 225.707 51.088 226.203 51.088C226.619 51.088 226.979 51.2 227.283 51.424C227.587 51.648 227.739 51.928 227.739 52.264C227.739 52.696 227.627 53.016 227.403 53.224C227.179 53.416 226.931 53.512 226.659 53.512C226.419 53.512 226.187 53.464 225.963 53.368C225.739 53.256 225.475 53.2 225.171 53.2C224.835 53.2 224.491 53.288 224.139 53.464C223.787 53.64 223.467 53.904 223.179 54.256C222.891 54.592 222.659 54.992 222.483 55.456C222.323 55.92 222.243 56.44 222.243 57.016V62.776C222.243 63.128 222.123 63.424 221.883 63.664C221.659 63.888 221.379 64 221.043 64ZM238.289 63.52C238.012 63.52 237.788 63.4667 237.617 63.36C237.468 63.2533 237.276 63.104 237.041 62.912C236.636 62.4853 236.348 62.08 236.177 61.696C236.006 61.2907 235.953 60.9067 236.017 60.544C236.081 60.3733 236.102 60.2133 236.081 60.064C236.081 59.8933 236.081 59.808 236.081 59.808C235.974 59.7013 235.942 59.6373 235.985 59.616C236.028 59.5733 236.07 59.5093 236.113 59.424C236.241 59.424 236.284 59.3067 236.241 59.072C236.198 58.9013 236.284 58.528 236.497 57.952C236.71 57.376 236.977 56.832 237.297 56.32C237.425 56.1067 237.617 55.8293 237.873 55.488C238.129 55.1253 238.406 54.7733 238.705 54.432C239.025 54.0693 239.313 53.7813 239.569 53.568C240.102 53.12 240.572 52.7893 240.977 52.576C241.382 52.3627 241.82 52.2027 242.289 52.096C242.758 51.9893 243.078 51.936 243.249 51.936C243.441 51.936 243.697 52.1067 244.017 52.448C244.508 52.6613 244.86 52.9173 245.073 53.216C245.308 53.5147 245.457 53.952 245.521 54.528C245.585 55.168 245.532 55.904 245.361 56.736C245.212 57.5467 244.71 58.56 243.857 59.776C243.324 60.544 242.833 61.12 242.385 61.504C241.937 61.8667 241.404 62.2293 240.785 62.592C240.337 62.8907 239.932 63.1147 239.569 63.264C239.206 63.392 238.78 63.4773 238.289 63.52ZM241.361 60.128C241.873 59.552 242.278 59.008 242.577 58.496C242.897 57.984 243.196 57.3333 243.473 56.544C243.558 56.3093 243.612 56.0213 243.633 55.68C243.654 55.3173 243.644 54.9867 243.601 54.688C243.58 54.368 243.505 54.1867 243.377 54.144C243.121 53.9947 242.812 53.952 242.449 54.016C242.086 54.0587 241.692 54.2613 241.265 54.624C240.604 55.1787 240.028 55.872 239.537 56.704C239.046 57.5147 238.566 58.4427 238.097 59.488C237.777 60.256 237.702 60.8747 237.873 61.344C238.065 61.792 238.46 61.952 239.057 61.824C239.676 61.6747 240.444 61.1093 241.361 60.128ZM254.242 63.936C254.093 64.0213 253.89 63.9893 253.634 63.84C253.4 63.6907 253.165 63.4667 252.93 63.168C252.781 62.912 252.674 62.6347 252.61 62.336C252.568 62.0373 252.546 61.6213 252.546 61.088C252.568 60.6613 252.546 60.384 252.482 60.256C252.44 60.128 252.322 60.1493 252.13 60.32C251.938 60.4693 251.608 60.7787 251.138 61.248C250.605 61.7813 250.093 62.1973 249.602 62.496C249.133 62.7947 248.749 62.9333 248.45 62.912C248.301 62.912 248.13 62.8373 247.938 62.688C247.768 62.5173 247.608 62.3147 247.458 62.08C247.309 61.824 247.181 61.568 247.074 61.312C246.946 60.8427 246.925 60.2453 247.01 59.52C247.117 58.7733 247.288 57.9947 247.522 57.184C247.757 56.3733 248.024 55.6053 248.322 54.88C248.642 54.1547 248.962 53.568 249.282 53.12C249.624 52.672 249.922 52.448 250.178 52.448C250.349 52.448 250.498 52.5333 250.626 52.704C250.776 52.8747 250.925 53.1413 251.074 53.504C251.16 53.6533 251.192 53.7813 251.17 53.888C251.17 53.9947 251.085 54.1227 250.914 54.272C250.722 54.528 250.498 54.912 250.242 55.424C250.008 55.936 249.773 56.4907 249.538 57.088C249.325 57.6853 249.133 58.2613 248.962 58.816C248.792 59.3707 248.674 59.8293 248.61 60.192C248.546 60.5333 248.557 60.704 248.642 60.704C248.941 60.704 249.293 60.5867 249.698 60.352C250.125 60.096 250.53 59.7867 250.914 59.424C251.362 58.976 251.757 58.4853 252.098 57.952C252.461 57.4187 252.824 56.8533 253.186 56.256C253.464 55.8293 253.752 55.36 254.05 54.848C254.37 54.336 254.573 53.9733 254.658 53.76C254.957 53.2053 255.181 52.832 255.33 52.64C255.48 52.4267 255.661 52.288 255.874 52.224C255.981 52.224 256.077 52.224 256.162 52.224C256.269 52.224 256.322 52.224 256.322 52.224C256.45 52.2453 256.6 52.3413 256.77 52.512C256.941 52.5973 257.037 52.6827 257.058 52.768C257.08 52.832 257.09 52.9173 257.09 53.024C257.005 53.2373 256.866 53.5573 256.674 53.984C256.504 54.3893 256.376 54.688 256.29 54.88C255.885 55.7973 255.48 56.704 255.074 57.6C254.69 58.4747 254.413 59.3707 254.242 60.288C254.2 60.5867 254.189 60.9387 254.21 61.344C254.253 61.728 254.317 62.0053 254.402 62.176C254.466 62.304 254.541 62.4533 254.626 62.624C254.733 62.7733 254.85 62.9013 254.978 63.008C255.17 63.136 255.202 63.2747 255.074 63.424C254.968 63.5733 254.818 63.7013 254.626 63.808C254.434 63.8933 254.306 63.936 254.242 63.936ZM260.454 63.776C260.219 63.7333 259.974 63.616 259.718 63.424C259.483 63.2107 259.27 62.976 259.078 62.72C258.907 62.4427 258.79 62.1973 258.726 61.984C258.726 61.9413 258.694 61.888 258.63 61.824C258.587 61.76 258.566 61.728 258.566 61.728C258.481 61.664 258.427 61.3867 258.406 60.896C258.406 60.384 258.438 59.8187 258.502 59.2C258.566 58.5813 258.641 58.0907 258.726 57.728C258.833 57.3867 258.993 56.928 259.206 56.352C259.419 55.7547 259.601 55.2213 259.75 54.752L260.614 52.896L259.334 52.544C259.185 52.5013 259.057 52.416 258.95 52.288C258.865 52.16 258.822 52.0533 258.822 51.968C258.822 51.7973 258.918 51.5947 259.11 51.36C259.302 51.104 259.441 50.976 259.526 50.976C259.633 50.9973 259.825 51.008 260.102 51.008C260.401 51.008 260.689 50.9973 260.966 50.976C261.243 50.9547 261.414 50.9333 261.478 50.912C261.563 50.8693 261.649 50.816 261.734 50.752C261.819 50.6667 261.883 50.5493 261.926 50.4C262.033 50.1653 262.129 49.952 262.214 49.76C262.299 49.5467 262.417 49.312 262.566 49.056C262.715 48.7787 262.833 48.544 262.918 48.352C263.025 48.16 263.185 47.8933 263.398 47.552C263.505 47.4027 263.622 47.2213 263.75 47.008C263.878 46.7947 264.038 46.6133 264.23 46.464C264.422 46.2933 264.614 46.2187 264.806 46.24C265.019 46.24 265.286 46.3787 265.606 46.656C265.777 46.8693 265.873 47.0293 265.894 47.136C265.915 47.2427 265.83 47.4453 265.638 47.744C265.467 48.1067 265.265 48.4693 265.03 48.832C264.817 49.1947 264.614 49.5573 264.422 49.92C264.081 50.3893 264.017 50.656 264.23 50.72C264.443 50.784 265.041 50.7413 266.022 50.592C266.641 50.4853 267.089 50.5173 267.366 50.688C267.643 50.8373 267.803 51.0933 267.846 51.456C267.91 51.968 267.857 52.2773 267.686 52.384C267.515 52.4907 267.025 52.544 266.214 52.544C265.702 52.6293 265.265 52.6827 264.902 52.704C264.539 52.704 264.273 52.704 264.102 52.704C263.825 52.7253 263.643 52.736 263.558 52.736C263.473 52.736 263.345 52.7573 263.174 52.8C263.003 52.8427 262.875 52.9173 262.79 53.024C262.726 53.1093 262.651 53.2373 262.566 53.408C262.481 53.4933 262.353 53.7173 262.182 54.08C262.011 54.4427 261.798 54.8373 261.542 55.264C261.243 56.16 260.987 57.056 260.774 57.952C260.561 58.8267 260.39 59.68 260.262 60.512C260.177 61.0453 260.187 61.4187 260.294 61.632C260.401 61.824 260.678 61.9413 261.126 61.984C261.361 62.0053 261.734 62.0053 262.246 61.984C262.779 61.9413 263.195 61.8773 263.494 61.792C263.729 61.6853 263.974 61.5787 264.23 61.472C264.486 61.344 264.721 61.216 264.934 61.088C265.126 60.9813 265.318 60.8747 265.51 60.768C265.702 60.64 265.798 60.576 265.798 60.576C265.905 60.4053 266.022 60.352 266.15 60.416C266.278 60.48 266.385 60.64 266.47 60.896C266.47 61.152 266.417 61.4187 266.31 61.696C266.203 61.9733 265.809 62.304 265.126 62.688C264.166 63.2853 263.281 63.648 262.47 63.776C261.681 63.8827 261.009 63.8827 260.454 63.776ZM268.616 67.392C268.488 67.4773 268.338 67.456 268.168 67.328C268.018 67.2 267.794 66.9653 267.496 66.624C267.346 66.4533 267.25 66.272 267.208 66.08C267.165 65.888 267.176 65.5253 267.24 64.992C267.325 64.7573 267.368 64.5333 267.368 64.32C267.389 64.1067 267.4 63.9573 267.4 63.872C267.4 63.744 267.432 63.4453 267.496 62.976C267.581 62.5067 267.666 62.016 267.752 61.504C267.837 60.9707 267.912 60.5653 267.976 60.288C267.976 60.2667 267.986 60.2133 268.008 60.128C268.029 60.0427 268.05 59.968 268.072 59.904C268.114 59.712 268.168 59.456 268.232 59.136C268.317 58.816 268.392 58.4213 268.456 57.952C268.626 57.4187 268.765 56.896 268.872 56.384C269 55.8507 269.064 55.488 269.064 55.296C269.064 54.912 269.213 54.6347 269.512 54.464C269.533 54.3573 269.597 54.1973 269.704 53.984C269.81 53.7493 269.906 53.5573 269.992 53.408C270.418 52.192 270.77 51.232 271.048 50.528C271.325 49.8027 271.613 49.1733 271.912 48.64C272.04 48.2773 272.178 47.904 272.328 47.52C272.498 47.136 272.669 46.8373 272.84 46.624C272.946 46.3467 273.192 45.9947 273.576 45.568C273.96 45.12 274.365 44.6933 274.792 44.288C275.218 43.8613 275.56 43.5413 275.816 43.328C276.285 43.0933 276.658 42.9333 276.936 42.848C277.213 42.7627 277.576 42.72 278.024 42.72C278.429 42.72 278.696 42.7733 278.824 42.88C278.973 42.9653 279.186 43.136 279.464 43.392C279.762 43.712 279.933 43.9253 279.976 44.032C280.018 44.1387 280.04 44.3413 280.04 44.64C279.997 44.8533 279.912 45.12 279.784 45.44C279.677 45.7387 279.549 46.048 279.4 46.368C279.25 46.6667 279.101 46.9227 278.952 47.136C278.824 47.3493 278.717 47.456 278.632 47.456C278.376 47.5413 278.184 47.52 278.056 47.392C277.949 47.2427 277.896 47.008 277.896 46.688C277.896 46.5387 277.853 46.4 277.768 46.272C277.704 46.1227 277.672 46.048 277.672 46.048C277.672 45.984 277.682 45.8773 277.704 45.728C277.746 45.5573 277.81 45.3973 277.896 45.248C278.002 45.0347 278.024 44.8747 277.96 44.768C277.917 44.6613 277.778 44.64 277.544 44.704C277.48 44.7467 277.309 44.8747 277.032 45.088C276.754 45.3013 276.456 45.5467 276.136 45.824C275.837 46.08 275.57 46.3253 275.336 46.56C275.101 46.7947 274.984 46.944 274.984 47.008C274.984 47.008 274.941 47.104 274.856 47.296C274.77 47.4667 274.61 47.6907 274.376 47.968C274.226 48.1813 274.088 48.3947 273.96 48.608C273.853 48.8 273.8 48.9173 273.8 48.96C273.8 49.0453 273.789 49.1413 273.768 49.248C273.768 49.3333 273.714 49.376 273.608 49.376C273.608 49.376 273.576 49.472 273.512 49.664C273.448 49.856 273.33 50.1013 273.16 50.4C273.074 50.6133 272.968 50.8373 272.84 51.072C272.712 51.2853 272.605 51.4347 272.52 51.52H272.552C272.552 51.52 272.498 51.6587 272.392 51.936C272.306 52.192 272.21 52.4693 272.104 52.768C271.997 53.0453 271.944 53.2053 271.944 53.248C271.944 53.3333 272.093 53.376 272.392 53.376C272.712 53.376 273.085 53.344 273.512 53.28C273.938 53.1947 274.322 53.1093 274.664 53.024C274.962 52.9387 275.165 52.896 275.272 52.896C275.378 52.896 275.592 52.9387 275.912 53.024C276.168 53.1733 276.317 53.4293 276.36 53.792C276.402 54.1333 276.381 54.3573 276.296 54.464C276.274 54.5493 276.082 54.6667 275.72 54.816C275.378 54.9653 274.984 55.0827 274.536 55.168C274.152 55.2533 273.682 55.3493 273.128 55.456C272.573 55.5627 272.082 55.6587 271.656 55.744C271.25 55.8293 271.048 55.904 271.048 55.968C270.962 55.968 270.888 56.0213 270.824 56.128C270.76 56.2133 270.728 56.288 270.728 56.352C270.728 56.5013 270.717 56.6293 270.696 56.736C270.674 56.8427 270.642 56.9387 270.6 57.024C270.557 57.152 270.482 57.408 270.376 57.792C270.269 58.176 270.152 58.6027 270.024 59.072C269.917 59.5413 269.821 59.968 269.736 60.352C269.672 60.736 269.64 60.992 269.64 61.12C269.512 61.2693 269.437 61.4613 269.416 61.696C269.394 61.9093 269.384 62.1013 269.384 62.272C269.298 62.4427 269.245 62.6027 269.224 62.752C269.202 62.88 269.192 62.9867 269.192 63.072C269.192 63.0933 269.192 63.136 269.192 63.2C269.192 63.264 269.181 63.328 269.16 63.392C269.138 63.6053 269.106 63.8827 269.064 64.224C269.042 64.5867 269.032 64.9387 269.032 65.28L268.936 66.208C268.914 66.4853 268.882 66.72 268.84 66.912C268.797 67.1253 268.722 67.2853 268.616 67.392ZM278.184 63.008C277.864 62.9653 277.586 62.7413 277.352 62.336C277.138 61.9093 277.01 61.5253 276.968 61.184C276.989 61.0133 277.01 60.768 277.032 60.448C277.074 60.128 277.117 59.7973 277.16 59.456C277.245 59.0507 277.362 58.56 277.512 57.984C277.661 57.3867 277.81 56.7893 277.96 56.192C278.13 55.5947 278.28 55.0827 278.408 54.656C278.536 54.2293 278.621 53.9733 278.664 53.888C278.77 53.7173 278.941 53.6747 279.176 53.76C279.41 53.8453 279.602 53.9733 279.752 54.144C279.88 54.3147 279.954 54.5173 279.976 54.752C280.018 54.9867 279.986 55.328 279.88 55.776C279.794 56.224 279.624 56.8853 279.368 57.76C279.282 58.1013 279.197 58.4213 279.112 58.72C279.026 58.9973 278.952 59.2533 278.888 59.488C278.845 59.7227 278.802 59.9467 278.76 60.16C278.738 60.3733 278.717 60.5867 278.696 60.8C278.674 61.0133 278.674 61.2373 278.696 61.472C278.61 62.1973 278.546 62.6453 278.504 62.816C278.461 62.9653 278.354 63.0293 278.184 63.008ZM279.432 50.016C279.41 49.8027 279.421 49.536 279.464 49.216C279.528 48.8747 279.645 48.576 279.816 48.32C279.986 48.0427 280.232 47.8933 280.552 47.872C280.637 47.872 280.712 47.8827 280.776 47.904C280.84 47.9253 281.032 48 281.352 48.128C281.522 48.448 281.693 48.8107 281.864 49.216C282.034 49.6 282.109 49.984 282.088 50.368C282.066 50.7307 281.842 51.0613 281.416 51.36C281.33 51.424 281.245 51.456 281.16 51.456C281.096 51.4347 280.978 51.3707 280.808 51.264C280.658 51.2427 280.466 51.1467 280.232 50.976C280.018 50.784 279.826 50.592 279.656 50.4C279.506 50.1867 279.432 50.0587 279.432 50.016ZM285.927 63.936C285.629 63.8507 285.383 63.7547 285.191 63.648C284.999 63.52 284.743 63.3173 284.423 63.04C284.167 62.6987 283.965 62.3787 283.815 62.08C283.687 61.7813 283.602 61.44 283.559 61.056C283.517 60.6507 283.495 60.1387 283.495 59.52C283.495 59.264 283.538 58.88 283.623 58.368C283.73 57.856 283.847 57.3227 283.975 56.768C284.125 56.192 284.253 55.68 284.359 55.232C284.487 54.784 284.562 54.496 284.583 54.368C284.647 54.0907 284.541 53.9307 284.263 53.888C283.986 53.8453 283.677 53.8347 283.335 53.856C283.015 53.856 282.802 53.824 282.695 53.76C282.61 53.7387 282.567 53.7067 282.567 53.664C282.567 53.6 282.567 53.568 282.567 53.568C282.567 53.4827 282.557 53.4293 282.535 53.408C282.535 53.3653 282.503 53.2907 282.439 53.184C282.397 53.0987 282.418 52.9813 282.503 52.832C282.61 52.6613 282.781 52.5547 283.015 52.512C283.207 52.4693 283.463 52.4373 283.783 52.416C284.125 52.3733 284.466 52.2987 284.807 52.192C285.149 52.064 285.426 51.872 285.639 51.616C285.831 51.1467 286.055 50.624 286.311 50.048C286.567 49.472 286.813 48.96 287.047 48.512C287.303 48.0427 287.474 47.7547 287.559 47.648C287.922 47.456 288.189 47.3813 288.359 47.424C288.53 47.4453 288.722 47.6267 288.935 47.968C289.042 48.1173 289.117 48.2347 289.159 48.32C289.223 48.4053 289.234 48.5333 289.191 48.704C289.149 48.8747 289.031 49.1413 288.839 49.504C288.669 49.8667 288.402 50.3893 288.039 51.072C287.933 51.2853 287.837 51.4773 287.751 51.648C287.666 51.7973 287.623 51.872 287.623 51.872C287.709 51.8933 287.837 51.904 288.007 51.904C288.178 51.904 288.391 51.8933 288.647 51.872C288.882 51.8293 289.181 51.7973 289.543 51.776C289.906 51.7333 290.194 51.7333 290.407 51.776C290.898 51.776 291.261 51.872 291.495 52.064C291.73 52.2347 291.858 52.5333 291.879 52.96C291.922 53.1947 291.869 53.3333 291.719 53.376C291.591 53.4187 291.239 53.44 290.663 53.44C290.471 53.44 290.173 53.4507 289.767 53.472C289.362 53.4933 288.935 53.5147 288.487 53.536C288.061 53.5573 287.687 53.5893 287.367 53.632C287.069 53.6533 286.919 53.6853 286.919 53.728C286.855 53.7707 286.749 53.9733 286.599 54.336C286.471 54.6987 286.333 55.1147 286.183 55.584C286.055 56.032 285.938 56.4373 285.831 56.8C285.682 57.5253 285.565 58.2507 285.479 58.976C285.415 59.7013 285.405 60.3307 285.447 60.864C285.49 61.3973 285.607 61.7707 285.799 61.984C285.991 62.176 286.365 62.2187 286.919 62.112C287.474 61.984 287.922 61.7813 288.263 61.504C288.647 61.184 288.957 61.024 289.191 61.024C289.447 61.024 289.586 61.1413 289.607 61.376C289.65 61.5893 289.533 61.8987 289.255 62.304C288.999 62.688 288.679 63.0293 288.295 63.328C287.911 63.6053 287.506 63.808 287.079 63.936C286.674 64.0427 286.29 64.0427 285.927 63.936ZM294.825 63.552C293.758 63.552 292.98 63.168 292.489 62.4C292.34 62.1867 292.265 61.9733 292.265 61.76C292.286 61.5253 292.35 61.3653 292.457 61.28C292.585 61.1947 292.734 61.2693 292.905 61.504C293.204 61.6747 293.63 61.76 294.185 61.76C294.462 61.76 294.75 61.7387 295.049 61.696C295.348 61.632 295.646 61.5467 295.945 61.44C296.265 61.2907 296.478 61.1627 296.585 61.056C296.692 60.928 296.67 60.8213 296.521 60.736H296.553C295.998 60.5867 295.433 60.352 294.857 60.032C294.302 59.6907 293.822 59.328 293.417 58.944C293.012 58.5387 292.777 58.176 292.713 57.856C292.542 57.1947 292.585 56.5227 292.841 55.84C293.097 55.136 293.46 54.5173 293.929 53.984C294.1 53.8773 294.313 53.7493 294.569 53.6C294.825 53.4293 295.028 53.3333 295.177 53.312V53.344C295.582 52.9173 296.073 52.576 296.649 52.32C297.246 52.064 297.876 51.8293 298.537 51.616L299.017 51.552C299.273 51.5093 299.486 51.488 299.657 51.488C299.636 51.488 299.678 51.5093 299.785 51.552C299.892 51.5733 299.988 51.5947 300.073 51.616C300.201 51.68 300.308 51.712 300.393 51.712C300.67 51.7547 300.926 51.8827 301.161 52.096C301.396 52.3093 301.577 52.5653 301.705 52.864C301.854 53.1413 301.908 53.408 301.865 53.664C301.822 54.0693 301.694 54.432 301.481 54.752C301.289 55.072 301.054 55.2533 300.777 55.296C300.82 55.2747 300.788 55.2427 300.681 55.2C300.596 55.136 300.5 55.072 300.393 55.008L300.297 55.072C300.297 55.072 300.286 55.0507 300.265 55.008C300.265 54.944 300.244 54.8693 300.201 54.784C300.137 54.656 300.105 54.5173 300.105 54.368C300.105 54.1973 300.116 54.016 300.137 53.824C300.18 53.5893 300.18 53.4507 300.137 53.408C300.116 53.3653 299.977 53.3333 299.721 53.312C299.422 53.248 298.985 53.3013 298.409 53.472C297.854 53.6427 297.385 53.8773 297.001 54.176C296.532 54.4747 296.137 54.7627 295.817 55.04C295.497 55.296 295.241 55.552 295.049 55.808C294.857 56.0427 294.686 56.32 294.537 56.64C294.43 56.7893 294.334 56.9387 294.249 57.088C294.185 57.216 294.153 57.3333 294.153 57.44C294.153 57.6747 294.324 57.92 294.665 58.176C295.028 58.4107 295.561 58.688 296.265 59.008C296.82 59.2427 297.289 59.4987 297.673 59.776C298.057 60.0533 298.324 60.3733 298.473 60.736C298.516 60.8213 298.526 60.928 298.505 61.056C298.505 61.1627 298.484 61.2373 298.441 61.28C298.484 61.3227 298.505 61.3547 298.505 61.376V61.344C298.676 61.6 298.676 61.8667 298.505 62.144C298.356 62.4213 298.089 62.6667 297.705 62.88C297.342 63.072 296.894 63.2213 296.361 63.328H296.393C296.116 63.4133 295.838 63.4773 295.561 63.52C295.305 63.5413 295.06 63.552 294.825 63.552ZM303.843 62.336C303.438 62.4853 303.097 62.56 302.819 62.56C302.563 62.5387 302.275 62.4107 301.955 62.176C301.55 61.792 301.411 61.408 301.539 61.024C301.689 60.6187 302.041 60.224 302.595 59.84C302.979 59.6053 303.257 59.4773 303.427 59.456C303.619 59.4347 303.907 59.5093 304.291 59.68C304.931 60.0853 305.209 60.5333 305.123 61.024C305.059 61.5147 304.633 61.952 303.843 62.336Z" fill="#FFF89B"/>
<path d="M107.992 136.64C107.822 136.64 107.684 136.587 107.578 136.481C107.475 136.375 107.424 136.239 107.424 136.072C107.424 135.898 107.475 135.758 107.578 135.652C107.684 135.547 107.822 135.494 107.992 135.494C108.159 135.494 108.297 135.547 108.407 135.652C108.516 135.758 108.57 135.898 108.57 136.072C108.57 136.239 108.516 136.375 108.407 136.481C108.297 136.587 108.159 136.64 107.992 136.64Z" fill="#FFFEE9"/>
<path d="M106.125 135.929C105.49 136.403 104.793 136.64 104.033 136.64C103.49 136.64 103.004 136.52 102.575 136.282C102.145 136.043 101.806 135.717 101.557 135.304C101.308 134.892 101.183 134.426 101.183 133.908C101.183 133.413 101.297 132.972 101.526 132.583C101.754 132.191 102.066 131.882 102.462 131.657C102.858 131.432 103.306 131.319 103.807 131.319C104.326 131.319 104.781 131.442 105.173 131.688C105.569 131.933 105.876 132.276 106.094 132.716C106.316 133.152 106.427 133.659 106.427 134.235V134.399H102.319C102.38 134.665 102.494 134.899 102.662 135.1C102.832 135.298 103.043 135.453 103.296 135.565C103.552 135.674 103.838 135.729 104.155 135.729C104.721 135.729 105.242 135.545 105.716 135.177L106.125 135.929ZM102.273 133.673H105.45C105.415 133.386 105.327 133.137 105.184 132.926C105.04 132.711 104.854 132.544 104.626 132.424C104.401 132.302 104.147 132.24 103.864 132.24C103.577 132.24 103.32 132.302 103.091 132.424C102.863 132.544 102.677 132.711 102.534 132.926C102.394 133.141 102.307 133.389 102.273 133.673Z" fill="#FFFEE9"/>
<path d="M100.528 136.409C100.17 136.563 99.8239 136.639 99.4897 136.639C99.1555 136.639 98.8622 136.568 98.6098 136.425C98.3608 136.281 98.1647 136.08 98.0215 135.821C97.8817 135.558 97.8117 135.257 97.8117 134.915V132.358H96.9165V131.421H97.8629V130.143H98.8604V131.421H100.354V132.358H98.8604V134.721C98.8604 135.021 98.9406 135.26 99.1009 135.437C99.2646 135.611 99.4743 135.698 99.7301 135.698C99.945 135.698 100.158 135.633 100.37 135.504L100.528 136.409Z" fill="#FFFEE9"/>
<path d="M96.1343 136.537H95.2288L95.1674 135.882C94.9798 136.121 94.7428 136.307 94.4563 136.44C94.1699 136.573 93.8527 136.64 93.5048 136.64C93.1399 136.64 92.8142 136.568 92.5277 136.425C92.2413 136.282 92.0162 136.085 91.8525 135.836C91.6888 135.587 91.6069 135.304 91.6069 134.987C91.6069 134.653 91.6956 134.36 91.8729 134.107C92.0503 133.852 92.2924 133.652 92.5994 133.509C92.9063 133.362 93.2559 133.289 93.6481 133.289C93.8936 133.289 94.1426 133.318 94.395 133.376C94.6507 133.434 94.8809 133.516 95.0856 133.621V133.432C95.0856 133.183 95.0208 132.97 94.8912 132.793C94.765 132.612 94.5911 132.474 94.3694 132.378C94.1511 132.283 93.909 132.235 93.643 132.235C93.4076 132.235 93.1672 132.276 92.9217 132.358C92.6795 132.44 92.451 132.566 92.2362 132.736L91.919 131.882C92.2293 131.698 92.5516 131.558 92.8858 131.463C93.2235 131.367 93.5543 131.319 93.8783 131.319C94.3421 131.319 94.7411 131.411 95.0753 131.596C95.413 131.78 95.6739 132.042 95.858 132.383C96.0422 132.721 96.1343 133.12 96.1343 133.58V136.537ZM93.7095 135.749C93.9516 135.749 94.175 135.7 94.3796 135.601C94.5842 135.499 94.7496 135.356 94.8758 135.171C95.0054 134.984 95.0753 134.766 95.0856 134.517V134.445C94.9116 134.315 94.7155 134.215 94.4973 134.143C94.2824 134.068 94.0624 134.031 93.8374 134.031C93.4929 134.031 93.2064 134.112 92.9779 134.276C92.7494 134.44 92.6352 134.65 92.6352 134.905C92.6352 135.066 92.6812 135.211 92.7733 135.34C92.8688 135.466 92.9967 135.567 93.157 135.642C93.3207 135.714 93.5048 135.749 93.7095 135.749Z" fill="#FFFEE9"/>
<path d="M90.3891 136.537H89.2739V128.864H90.3891V136.537Z" fill="#FFFEE9"/>
<path d="M83.7645 139.095H82.7158V131.422H83.6418L83.698 132.153C83.9299 131.894 84.2079 131.691 84.5319 131.544C84.8593 131.394 85.2174 131.319 85.6062 131.319C86.0973 131.319 86.5355 131.435 86.9209 131.667C87.3097 131.899 87.6149 132.216 87.8366 132.619C88.0617 133.018 88.1742 133.471 88.1742 133.979C88.1742 134.484 88.0617 134.938 87.8366 135.34C87.6149 135.743 87.3097 136.06 86.9209 136.292C86.5355 136.524 86.0973 136.64 85.6062 136.64C85.2378 136.64 84.8968 136.573 84.583 136.44C84.2693 136.307 83.9964 136.121 83.7645 135.882V139.095ZM85.4373 135.688C85.7613 135.688 86.0478 135.615 86.2968 135.468C86.5457 135.321 86.7401 135.12 86.88 134.864C87.0232 134.605 87.0948 134.309 87.0948 133.974C87.0948 133.64 87.0232 133.345 86.88 133.089C86.7401 132.83 86.5457 132.627 86.2968 132.481C86.0478 132.334 85.763 132.261 85.4425 132.261C85.1389 132.261 84.8644 132.329 84.6188 132.465C84.3767 132.598 84.1789 132.782 84.0254 133.018C83.8754 133.253 83.7884 133.521 83.7645 133.821V134.138C83.7884 134.438 83.8737 134.706 84.0203 134.941C84.1704 135.173 84.3665 135.356 84.6086 135.489C84.8542 135.622 85.1304 135.688 85.4373 135.688Z" fill="#FFFEE9"/>
<path d="M81.3447 136.537H80.296V133.862C80.296 133.354 80.1869 132.96 79.9686 132.68C79.7538 132.4 79.4502 132.261 79.058 132.261C78.659 132.261 78.347 132.402 78.1219 132.685C77.8968 132.968 77.7842 133.36 77.7842 133.862V136.537H76.7355V133.862C76.7355 133.354 76.6264 132.96 76.4081 132.68C76.1899 132.4 75.8846 132.261 75.4924 132.261C75.0934 132.261 74.7814 132.402 74.5563 132.685C74.3312 132.968 74.2186 133.36 74.2186 133.862V136.537H73.1699V131.422H74.0191L74.06 132.312C74.2306 131.988 74.4608 131.742 74.7507 131.575C75.044 131.405 75.3884 131.319 75.784 131.319C76.2035 131.319 76.5633 131.411 76.8634 131.596C77.1635 131.78 77.3903 132.044 77.5438 132.389C77.7143 132.037 77.9496 131.771 78.2498 131.59C78.5533 131.41 78.9131 131.319 79.3292 131.319C79.9635 131.319 80.458 131.521 80.8127 131.923C81.1674 132.325 81.3447 132.886 81.3447 133.606V136.537Z" fill="#FFFEE9"/>
<path d="M71.7679 135.929C71.1335 136.403 70.4361 136.64 69.6756 136.64C69.1333 136.64 68.6473 136.52 68.2176 136.282C67.7879 136.043 67.4486 135.717 67.1996 135.304C66.9507 134.892 66.8262 134.426 66.8262 133.908C66.8262 133.413 66.9404 132.972 67.1689 132.583C67.3974 132.191 67.7095 131.882 68.1051 131.657C68.5007 131.432 68.9492 131.319 69.4505 131.319C69.9689 131.319 70.4242 131.442 70.8164 131.688C71.212 131.933 71.5189 132.276 71.7372 132.716C71.9589 133.152 72.0697 133.659 72.0697 134.235V134.399H67.9618C68.0232 134.665 68.1375 134.899 68.3046 135.1C68.4751 135.298 68.6866 135.453 68.9389 135.565C69.1947 135.674 69.4812 135.729 69.7984 135.729C70.3645 135.729 70.8846 135.545 71.3586 135.177L71.7679 135.929ZM67.9158 133.673H71.0926C71.0585 133.386 70.9698 133.137 70.8266 132.926C70.6834 132.711 70.4975 132.544 70.269 132.424C70.0439 132.302 69.7898 132.24 69.5068 132.24C69.2203 132.24 68.9628 132.302 68.7343 132.424C68.5058 132.544 68.3199 132.711 68.1767 132.926C68.0369 133.141 67.9499 133.389 67.9158 133.673Z" fill="#FFFEE9"/>
<path d="M66.1717 136.409C65.8136 136.563 65.4675 136.639 65.1332 136.639C64.799 136.639 64.5057 136.568 64.2533 136.425C64.0044 136.281 63.8083 136.08 63.665 135.821C63.5252 135.558 63.4553 135.257 63.4553 134.915V132.358H62.5601V131.421H63.5065V130.143H64.504V131.421H65.9978V132.358H64.504V134.721C64.504 135.021 64.5841 135.26 64.7444 135.437C64.9081 135.611 65.1179 135.698 65.3737 135.698C65.5885 135.698 65.8017 135.633 66.0131 135.504L66.1717 136.409Z" fill="#FFFEE9"/>
<path d="M130.066 121.196C129.432 121.67 128.734 121.907 127.974 121.907C127.432 121.907 126.946 121.787 126.516 121.549C126.086 121.31 125.747 120.984 125.498 120.572C125.249 120.159 125.125 119.693 125.125 119.175C125.125 118.68 125.239 118.239 125.467 117.85C125.696 117.458 126.008 117.149 126.403 116.924C126.799 116.699 127.248 116.586 127.749 116.586C128.267 116.586 128.723 116.709 129.115 116.955C129.51 117.2 129.817 117.543 130.036 117.983C130.257 118.42 130.368 118.926 130.368 119.502V119.666H126.26C126.322 119.932 126.436 120.166 126.603 120.367C126.773 120.565 126.985 120.72 127.237 120.832C127.493 120.942 127.78 120.996 128.097 120.996C128.663 120.996 129.183 120.812 129.657 120.444L130.066 121.196ZM126.214 118.94H129.391C129.357 118.653 129.268 118.404 129.125 118.193C128.982 117.978 128.796 117.811 128.567 117.691C128.342 117.569 128.088 117.507 127.805 117.507C127.519 117.507 127.261 117.569 127.033 117.691C126.804 117.811 126.618 117.978 126.475 118.193C126.335 118.408 126.248 118.657 126.214 118.94Z" fill="#FFFEE9"/>
<path d="M119.231 121.804V114.131H120.28V117.4C120.658 116.857 121.233 116.586 122.004 116.586C122.669 116.586 123.189 116.788 123.564 117.19C123.939 117.592 124.127 118.153 124.127 118.873V121.804H123.078V119.129C123.078 118.621 122.955 118.227 122.71 117.947C122.467 117.667 122.128 117.528 121.692 117.528C121.252 117.528 120.905 117.671 120.653 117.957C120.404 118.24 120.28 118.631 120.28 119.129V121.804H119.231Z" fill="#FFFEE9"/>
<path d="M118.198 121.676C117.84 121.83 117.494 121.907 117.16 121.907C116.825 121.907 116.532 121.835 116.28 121.692C116.031 121.548 115.835 121.347 115.691 121.088C115.552 120.825 115.482 120.524 115.482 120.183V117.625H114.586V116.689H115.533V115.41H116.53V116.689H118.024V117.625H116.53V119.988C116.53 120.288 116.611 120.527 116.771 120.704C116.935 120.878 117.144 120.965 117.4 120.965C117.615 120.965 117.828 120.9 118.039 120.771L118.198 121.676Z" fill="#FFFEE9"/>
<path d="M111.056 121.804H110.13L110.074 121.073C109.842 121.332 109.563 121.537 109.235 121.687C108.911 121.833 108.555 121.907 108.166 121.907C107.675 121.907 107.235 121.791 106.846 121.559C106.457 121.327 106.15 121.01 105.925 120.607C105.704 120.205 105.593 119.751 105.593 119.247C105.593 118.738 105.704 118.285 105.925 117.886C106.15 117.483 106.457 117.166 106.846 116.934C107.235 116.702 107.675 116.586 108.166 116.586C108.534 116.586 108.875 116.653 109.189 116.786C109.506 116.919 109.779 117.105 110.008 117.343V114.131H111.056V121.804ZM108.34 120.965C108.65 120.965 108.93 120.894 109.179 120.751C109.431 120.607 109.632 120.413 109.782 120.167C109.933 119.922 110.008 119.642 110.008 119.328V119.154C110.008 118.841 109.933 118.561 109.782 118.315C109.632 118.07 109.431 117.877 109.179 117.737C108.93 117.598 108.65 117.528 108.34 117.528C108.023 117.528 107.738 117.603 107.486 117.753C107.233 117.903 107.034 118.107 106.887 118.367C106.74 118.622 106.667 118.914 106.667 119.241C106.667 119.569 106.74 119.862 106.887 120.121C107.034 120.38 107.233 120.587 107.486 120.74C107.738 120.89 108.023 120.965 108.34 120.965Z" fill="#FFFEE9"/>
<path d="M104.595 121.804H103.69L103.628 121.15C103.441 121.388 103.204 121.574 102.917 121.707C102.631 121.84 102.314 121.907 101.966 121.907C101.601 121.907 101.275 121.835 100.989 121.692C100.702 121.549 100.477 121.353 100.313 121.104C100.15 120.855 100.068 120.572 100.068 120.254C100.068 119.92 100.157 119.627 100.334 119.374C100.511 119.119 100.753 118.919 101.06 118.776C101.367 118.629 101.717 118.556 102.109 118.556C102.355 118.556 102.604 118.585 102.856 118.643C103.112 118.701 103.342 118.783 103.547 118.888V118.699C103.547 118.45 103.482 118.237 103.352 118.06C103.226 117.879 103.052 117.741 102.83 117.645C102.612 117.55 102.37 117.502 102.104 117.502C101.869 117.502 101.628 117.543 101.383 117.625C101.14 117.707 100.912 117.833 100.697 118.003L100.38 117.149C100.69 116.965 101.013 116.825 101.347 116.73C101.684 116.634 102.015 116.586 102.339 116.586C102.803 116.586 103.202 116.679 103.536 116.863C103.874 117.047 104.135 117.309 104.319 117.65C104.503 117.988 104.595 118.387 104.595 118.848V121.804ZM102.17 121.017C102.413 121.017 102.636 120.967 102.841 120.868C103.045 120.766 103.211 120.623 103.337 120.439C103.466 120.251 103.536 120.033 103.547 119.784V119.712C103.373 119.582 103.176 119.482 102.958 119.41C102.743 119.335 102.523 119.298 102.298 119.298C101.954 119.298 101.667 119.38 101.439 119.543C101.21 119.707 101.096 119.917 101.096 120.172C101.096 120.333 101.142 120.478 101.234 120.607C101.33 120.734 101.458 120.834 101.618 120.909C101.782 120.981 101.966 121.017 102.17 121.017Z" fill="#FFFEE9"/>
<path d="M96.5385 121.907C96.0269 121.907 95.5665 121.791 95.1572 121.559C94.748 121.327 94.4257 121.011 94.1904 120.612C93.9551 120.21 93.8374 119.755 93.8374 119.247C93.8374 118.742 93.9551 118.29 94.1904 117.891C94.4257 117.488 94.748 117.171 95.1572 116.939C95.5665 116.704 96.0269 116.586 96.5385 116.586C97.0534 116.586 97.5138 116.704 97.9197 116.939C98.3255 117.171 98.6444 117.488 98.8763 117.891C99.1116 118.29 99.2293 118.742 99.2293 119.247C99.2293 119.755 99.1116 120.21 98.8763 120.612C98.6444 121.011 98.3255 121.327 97.9197 121.559C97.5138 121.791 97.0534 121.907 96.5385 121.907ZM96.5333 120.965C96.8437 120.965 97.1199 120.89 97.3621 120.74C97.6076 120.587 97.8003 120.382 97.9402 120.126C98.0834 119.867 98.155 119.574 98.155 119.247C98.155 118.919 98.0834 118.628 97.9402 118.372C97.8003 118.113 97.6076 117.908 97.3621 117.758C97.1199 117.604 96.8437 117.528 96.5333 117.528C96.2264 117.528 95.9502 117.604 95.7046 117.758C95.4591 117.908 95.2647 118.113 95.1214 118.372C94.9816 118.628 94.9117 118.919 94.9117 119.247C94.9117 119.574 94.9816 119.867 95.1214 120.126C95.2647 120.382 95.4591 120.587 95.7046 120.74C95.9502 120.89 96.2264 120.965 96.5333 120.965Z" fill="#FFFEE9"/>
<path d="M92.7422 121.804H91.627V114.131H92.7422V121.804Z" fill="#FFFEE9"/>
<path d="M90.2507 121.804H89.2019V118.95C89.2019 118.513 89.0843 118.169 88.849 117.916C88.6171 117.664 88.2999 117.538 87.8975 117.538C87.611 117.538 87.3552 117.603 87.1301 117.732C86.905 117.862 86.7277 118.046 86.5981 118.285C86.4685 118.52 86.4037 118.795 86.4037 119.108V121.804H85.355V116.689H86.24L86.2758 117.512C86.4634 117.212 86.7192 116.984 87.0431 116.827C87.3671 116.667 87.7338 116.586 88.143 116.586C88.791 116.586 89.3043 116.783 89.6828 117.175C90.0614 117.567 90.2507 118.099 90.2507 118.771V121.804Z" fill="#FFFEE9"/>
<path d="M82.7359 121.804H81.5287L80.4851 118.146L79.4415 121.804H78.2342L76.5972 116.688H77.7073L78.8276 120.607L80.0093 116.688H80.9608L82.1425 120.612L83.268 116.688H84.3781L82.7359 121.804Z" fill="#FFFEE9"/>
<path d="M73.3129 121.907C72.8013 121.907 72.3409 121.791 71.9317 121.559C71.5224 121.327 71.2001 121.011 70.9648 120.612C70.7295 120.21 70.6118 119.755 70.6118 119.247C70.6118 118.742 70.7295 118.29 70.9648 117.891C71.2001 117.488 71.5224 117.171 71.9317 116.939C72.3409 116.704 72.8013 116.586 73.3129 116.586C73.8279 116.586 74.2883 116.704 74.6941 116.939C75.0999 117.171 75.4188 117.488 75.6507 117.891C75.886 118.29 76.0037 118.742 76.0037 119.247C76.0037 119.755 75.886 120.21 75.6507 120.612C75.4188 121.011 75.0999 121.327 74.6941 121.559C74.2883 121.791 73.8279 121.907 73.3129 121.907ZM73.3078 120.965C73.6181 120.965 73.8944 120.89 74.1365 120.74C74.382 120.587 74.5747 120.382 74.7146 120.126C74.8578 119.867 74.9294 119.574 74.9294 119.247C74.9294 118.919 74.8578 118.628 74.7146 118.372C74.5747 118.113 74.382 117.908 74.1365 117.758C73.8944 117.604 73.6181 117.528 73.3078 117.528C73.0008 117.528 72.7246 117.604 72.479 117.758C72.2335 117.908 72.0391 118.113 71.8958 118.372C71.756 118.628 71.6861 118.919 71.6861 119.247C71.6861 119.574 71.756 119.867 71.8958 120.126C72.0391 120.382 72.2335 120.587 72.479 120.74C72.7246 120.89 73.0008 120.965 73.3078 120.965Z" fill="#FFFEE9"/>
<path d="M63 121.804V114.131H65.3123C66.2467 114.131 67.0533 114.286 67.732 114.596C68.4106 114.903 68.9324 115.343 69.2974 115.916C69.6623 116.489 69.8447 117.173 69.8447 117.968C69.8447 118.759 69.6623 119.443 69.2974 120.019C68.9324 120.592 68.4106 121.034 67.732 121.344C67.0533 121.651 66.2467 121.804 65.3123 121.804H63ZM64.1254 120.812H65.3583C66.0643 120.812 66.6662 120.701 67.1641 120.479C67.6621 120.254 68.0406 119.93 68.2998 119.507C68.5624 119.081 68.6937 118.568 68.6937 117.968C68.6937 117.364 68.5624 116.851 68.2998 116.428C68.0406 116.005 67.6621 115.683 67.1641 115.461C66.6662 115.236 66.0643 115.123 65.3583 115.123H64.1254V120.812Z" fill="#FFFEE9"/>
<path d="M243.966 121.907C243.796 121.907 243.658 121.854 243.552 121.748C243.45 121.642 243.398 121.506 243.398 121.339C243.398 121.165 243.45 121.025 243.552 120.919C243.658 120.814 243.796 120.761 243.966 120.761C244.133 120.761 244.272 120.814 244.381 120.919C244.49 121.025 244.544 121.165 244.544 121.339C244.544 121.506 244.49 121.642 244.381 121.748C244.272 121.854 244.133 121.907 243.966 121.907Z" fill="#FFFEE9"/>
<path d="M240.718 121.804H239.669V117.625H238.774V116.688H239.669V115.691C239.669 115.357 239.742 115.062 239.889 114.806C240.039 114.547 240.244 114.344 240.503 114.197C240.766 114.05 241.067 113.977 241.408 113.977C241.62 113.977 241.833 114.006 242.048 114.064C242.263 114.122 242.474 114.212 242.682 114.335L242.283 115.159C242.171 115.077 242.053 115.017 241.93 114.98C241.811 114.939 241.692 114.918 241.572 114.918C241.323 114.918 241.119 115.007 240.958 115.184C240.798 115.362 240.718 115.599 240.718 115.895V116.688H242.283V117.625H240.718V121.804Z" fill="#FFFEE9"/>
<path d="M237.802 121.804H236.687V114.131H237.802V121.804Z" fill="#FFFEE9"/>
<path d="M235.284 121.196C234.65 121.67 233.953 121.907 233.192 121.907C232.65 121.907 232.164 121.787 231.734 121.549C231.305 121.31 230.965 120.984 230.716 120.572C230.467 120.159 230.343 119.693 230.343 119.175C230.343 118.68 230.457 118.239 230.686 117.85C230.914 117.458 231.226 117.149 231.622 116.924C232.017 116.699 232.466 116.586 232.967 116.586C233.485 116.586 233.941 116.709 234.333 116.955C234.729 117.2 235.036 117.543 235.254 117.983C235.475 118.42 235.586 118.926 235.586 119.502V119.666H231.478C231.54 119.932 231.654 120.166 231.821 120.367C231.992 120.565 232.203 120.72 232.456 120.832C232.711 120.942 232.998 120.996 233.315 120.996C233.881 120.996 234.401 120.812 234.875 120.444L235.284 121.196ZM231.432 118.94H234.609C234.575 118.653 234.486 118.404 234.343 118.193C234.2 117.978 234.014 117.811 233.786 117.691C233.561 117.569 233.306 117.507 233.023 117.507C232.737 117.507 232.479 117.569 232.251 117.691C232.022 117.811 231.837 117.978 231.693 118.193C231.553 118.408 231.467 118.657 231.432 118.94Z" fill="#FFFEE9"/>
<path d="M225.872 121.359L226.128 120.418C226.244 120.534 226.382 120.636 226.542 120.725C226.706 120.814 226.878 120.884 227.059 120.935C227.243 120.982 227.424 121.006 227.601 121.006C227.881 121.006 228.106 120.947 228.276 120.827C228.447 120.708 228.532 120.549 228.532 120.352C228.532 120.205 228.484 120.084 228.389 119.988C228.297 119.889 228.172 119.804 228.016 119.733C227.862 119.661 227.697 119.591 227.519 119.523C227.291 119.438 227.062 119.339 226.834 119.226C226.609 119.114 226.419 118.963 226.266 118.776C226.113 118.588 226.036 118.341 226.036 118.034C226.036 117.741 226.111 117.487 226.261 117.272C226.411 117.054 226.621 116.885 226.89 116.765C227.16 116.646 227.47 116.586 227.821 116.586C228.367 116.586 228.907 116.723 229.443 116.996L229.136 117.891C229.027 117.812 228.897 117.743 228.747 117.681C228.597 117.62 228.444 117.572 228.287 117.538C228.13 117.5 227.985 117.482 227.852 117.482C227.63 117.482 227.451 117.531 227.315 117.63C227.182 117.729 227.115 117.862 227.115 118.029C227.115 118.131 227.148 118.225 227.212 118.31C227.277 118.392 227.379 118.474 227.519 118.556C227.663 118.634 227.855 118.723 228.097 118.822C228.329 118.914 228.561 119.02 228.793 119.139C229.025 119.258 229.218 119.414 229.371 119.605C229.528 119.796 229.606 120.046 229.606 120.357C229.606 120.664 229.525 120.935 229.361 121.17C229.197 121.402 228.969 121.583 228.675 121.712C228.386 121.842 228.048 121.907 227.663 121.907C227.025 121.907 226.428 121.724 225.872 121.359Z" fill="#FFFEE9"/>
<path d="M223.104 121.804H222.056V116.689H222.971L223.012 117.661C223.19 117.323 223.433 117.06 223.744 116.873C224.058 116.682 224.417 116.586 224.823 116.586C224.922 116.586 225.021 116.593 225.12 116.607C225.222 116.617 225.325 116.634 225.427 116.658L225.294 117.604C225.096 117.553 224.902 117.528 224.711 117.528C224.394 117.528 224.114 117.604 223.872 117.758C223.63 117.908 223.44 118.116 223.304 118.382C223.171 118.648 223.104 118.955 223.104 119.303V121.804Z" fill="#FFFEE9"/>
<path d="M220.577 121.804H219.687L219.651 120.981C219.464 121.281 219.218 121.511 218.915 121.671C218.615 121.828 218.258 121.906 217.846 121.906C217.177 121.906 216.648 121.704 216.26 121.298C215.874 120.888 215.682 120.329 215.682 119.62V116.688H216.73V119.466C216.73 119.92 216.853 120.281 217.099 120.551C217.344 120.82 217.675 120.955 218.091 120.955C218.521 120.955 218.867 120.812 219.13 120.525C219.396 120.235 219.529 119.855 219.529 119.384V116.688H220.577V121.804Z" fill="#FFFEE9"/>
<path d="M211.998 121.907C211.487 121.907 211.026 121.791 210.617 121.559C210.208 121.327 209.886 121.011 209.65 120.612C209.415 120.21 209.297 119.755 209.297 119.247C209.297 118.742 209.415 118.29 209.65 117.891C209.886 117.488 210.208 117.171 210.617 116.939C211.026 116.704 211.487 116.586 211.998 116.586C212.513 116.586 212.974 116.704 213.38 116.939C213.785 117.171 214.104 117.488 214.336 117.891C214.572 118.29 214.689 118.742 214.689 119.247C214.689 119.755 214.572 120.21 214.336 120.612C214.104 121.011 213.785 121.327 213.38 121.559C212.974 121.791 212.513 121.907 211.998 121.907ZM211.993 120.965C212.304 120.965 212.58 120.89 212.822 120.74C213.068 120.587 213.26 120.382 213.4 120.126C213.543 119.867 213.615 119.574 213.615 119.247C213.615 118.919 213.543 118.628 213.4 118.372C213.26 118.113 213.068 117.908 212.822 117.758C212.58 117.604 212.304 117.528 211.993 117.528C211.686 117.528 211.41 117.604 211.165 117.758C210.919 117.908 210.725 118.113 210.581 118.372C210.442 118.628 210.372 118.919 210.372 119.247C210.372 119.574 210.442 119.867 210.581 120.126C210.725 120.382 210.919 120.587 211.165 120.74C211.41 120.89 211.686 120.965 211.993 120.965Z" fill="#FFFEE9"/>
<path d="M205.681 124.362H204.55L205.619 121.773L203.128 116.688H204.299L206.121 120.571L207.727 116.688H208.852L205.681 124.362Z" fill="#FFFEE9"/>
<path d="M198.493 121.804H197.285L196.242 118.146L195.198 121.804H193.991L192.354 116.688H193.464L194.584 120.607L195.766 116.688H196.718L197.899 120.612L199.025 116.688H200.135L198.493 121.804Z" fill="#FFFEE9"/>
<path d="M191.582 121.804H190.677L190.615 121.15C190.428 121.388 190.191 121.574 189.904 121.707C189.618 121.84 189.3 121.907 188.953 121.907C188.588 121.907 188.262 121.835 187.976 121.692C187.689 121.549 187.464 121.353 187.3 121.104C187.137 120.855 187.055 120.572 187.055 120.254C187.055 119.92 187.143 119.627 187.321 119.374C187.498 119.119 187.74 118.919 188.047 118.776C188.354 118.629 188.704 118.556 189.096 118.556C189.341 118.556 189.59 118.585 189.843 118.643C190.098 118.701 190.329 118.783 190.533 118.888V118.699C190.533 118.45 190.469 118.237 190.339 118.06C190.213 117.879 190.039 117.741 189.817 117.645C189.599 117.55 189.357 117.502 189.091 117.502C188.855 117.502 188.615 117.543 188.369 117.625C188.127 117.707 187.899 117.833 187.684 118.003L187.367 117.149C187.677 116.965 187.999 116.825 188.334 116.73C188.671 116.634 189.002 116.586 189.326 116.586C189.79 116.586 190.189 116.679 190.523 116.863C190.861 117.047 191.122 117.309 191.306 117.65C191.49 117.988 191.582 118.387 191.582 118.848V121.804ZM189.157 121.017C189.399 121.017 189.623 120.967 189.827 120.868C190.032 120.766 190.197 120.623 190.324 120.439C190.453 120.251 190.523 120.033 190.533 119.784V119.712C190.359 119.582 190.163 119.482 189.945 119.41C189.73 119.335 189.51 119.298 189.285 119.298C188.941 119.298 188.654 119.38 188.426 119.543C188.197 119.707 188.083 119.917 188.083 120.172C188.083 120.333 188.129 120.478 188.221 120.607C188.317 120.734 188.444 120.834 188.605 120.909C188.768 120.981 188.953 121.017 189.157 121.017Z" fill="#FFFEE9"/>
<path d="M184.338 121.804H183.29V116.689H184.205L184.246 117.661C184.424 117.323 184.667 117.06 184.978 116.873C185.291 116.682 185.651 116.586 186.057 116.586C186.156 116.586 186.255 116.593 186.354 116.607C186.456 116.617 186.558 116.634 186.661 116.658L186.528 117.604C186.33 117.553 186.136 117.528 185.945 117.528C185.627 117.528 185.348 117.604 185.106 117.758C184.863 117.908 184.674 118.116 184.538 118.382C184.405 118.648 184.338 118.955 184.338 119.303V121.804Z" fill="#FFFEE9"/>
<path d="M175.299 121.804V114.131H177.611C178.546 114.131 179.352 114.286 180.031 114.596C180.709 114.903 181.231 115.343 181.596 115.916C181.961 116.489 182.144 117.173 182.144 117.968C182.144 118.759 181.961 119.443 181.596 120.019C181.231 120.592 180.709 121.034 180.031 121.344C179.352 121.651 178.546 121.804 177.611 121.804H175.299ZM176.424 120.812H177.657C178.363 120.812 178.965 120.701 179.463 120.479C179.961 120.254 180.339 119.93 180.599 119.507C180.861 119.081 180.993 118.568 180.993 117.968C180.993 117.364 180.861 116.851 180.599 116.428C180.339 116.005 179.961 115.683 179.463 115.461C178.965 115.236 178.363 115.123 177.657 115.123H176.424V120.812Z" fill="#FFFEE9"/>
<path d="M369.422 121.907C369.251 121.907 369.113 121.854 369.007 121.748C368.905 121.642 368.854 121.506 368.854 121.339C368.854 121.165 368.905 121.025 369.007 120.919C369.113 120.814 369.251 120.761 369.422 120.761C369.589 120.761 369.727 120.814 369.836 120.919C369.945 121.025 370 121.165 370 121.339C370 121.506 369.945 121.642 369.836 121.748C369.727 121.854 369.589 121.907 369.422 121.907Z" fill="#FFFEE9"/>
<path d="M367.555 121.196C366.921 121.67 366.223 121.907 365.463 121.907C364.92 121.907 364.434 121.787 364.005 121.549C363.575 121.31 363.236 120.984 362.987 120.572C362.738 120.159 362.613 119.693 362.613 119.175C362.613 118.68 362.728 118.239 362.956 117.85C363.185 117.458 363.497 117.149 363.892 116.924C364.288 116.699 364.736 116.586 365.238 116.586C365.756 116.586 366.211 116.709 366.603 116.955C366.999 117.2 367.306 117.543 367.524 117.983C367.746 118.42 367.857 118.926 367.857 119.502V119.666H363.749C363.81 119.932 363.925 120.166 364.092 120.367C364.262 120.565 364.474 120.72 364.726 120.832C364.982 120.942 365.268 120.996 365.585 120.996C366.152 120.996 366.672 120.812 367.146 120.444L367.555 121.196ZM363.703 118.94H366.88C366.846 118.653 366.757 118.404 366.614 118.193C366.47 117.978 366.285 117.811 366.056 117.691C365.831 117.569 365.577 117.507 365.294 117.507C365.007 117.507 364.75 117.569 364.521 117.691C364.293 117.811 364.107 117.978 363.964 118.193C363.824 118.408 363.737 118.657 363.703 118.94Z" fill="#FFFEE9"/>
<path d="M359.866 121.804H358.817V116.689H359.733L359.774 117.661C359.951 117.323 360.195 117.06 360.506 116.873C360.819 116.682 361.179 116.586 361.585 116.586C361.684 116.586 361.783 116.593 361.882 116.607C361.984 116.617 362.086 116.634 362.189 116.658L362.056 117.604C361.858 117.553 361.663 117.528 361.472 117.528C361.155 117.528 360.876 117.604 360.633 117.758C360.391 117.908 360.202 118.116 360.066 118.382C359.933 118.648 359.866 118.955 359.866 119.303V121.804Z" fill="#FFFEE9"/>
<path d="M357.339 121.804H356.449L356.413 120.981C356.226 121.281 355.98 121.511 355.676 121.671C355.376 121.828 355.02 121.906 354.607 121.906C353.939 121.906 353.41 121.704 353.021 121.298C352.636 120.888 352.443 120.329 352.443 119.62V116.688H353.492V119.466C353.492 119.92 353.615 120.281 353.86 120.551C354.106 120.82 354.437 120.955 354.853 120.955C355.283 120.955 355.629 120.812 355.891 120.525C356.157 120.235 356.29 119.855 356.29 119.384V116.688H357.339V121.804Z" fill="#FFFEE9"/>
<path d="M351.513 121.676C351.154 121.83 350.808 121.907 350.474 121.907C350.14 121.907 349.847 121.835 349.594 121.692C349.345 121.548 349.149 121.347 349.006 121.088C348.866 120.825 348.796 120.524 348.796 120.183V117.625H347.901V116.689H348.847V115.41H349.845V116.689H351.339V117.625H349.845V119.988C349.845 120.288 349.925 120.527 350.085 120.704C350.249 120.878 350.459 120.965 350.714 120.965C350.929 120.965 351.142 120.9 351.354 120.771L351.513 121.676Z" fill="#FFFEE9"/>
<path d="M347.302 121.042C347.053 121.318 346.755 121.532 346.407 121.682C346.059 121.832 345.682 121.907 345.277 121.907C344.765 121.907 344.305 121.791 343.895 121.559C343.489 121.327 343.169 121.01 342.934 120.607C342.698 120.205 342.581 119.751 342.581 119.247C342.581 118.738 342.698 118.285 342.934 117.886C343.169 117.483 343.489 117.166 343.895 116.934C344.305 116.702 344.765 116.586 345.277 116.586C345.679 116.586 346.054 116.661 346.402 116.812C346.75 116.958 347.048 117.17 347.297 117.446L346.678 118.096C346.511 117.918 346.31 117.782 346.075 117.686C345.843 117.587 345.595 117.538 345.333 117.538C345.009 117.538 344.721 117.611 344.468 117.758C344.216 117.905 344.018 118.106 343.875 118.362C343.732 118.614 343.66 118.907 343.66 119.241C343.66 119.572 343.732 119.867 343.875 120.126C344.018 120.386 344.216 120.589 344.468 120.735C344.721 120.882 345.009 120.955 345.333 120.955C345.595 120.955 345.844 120.906 346.08 120.807C346.315 120.708 346.514 120.572 346.678 120.398L347.302 121.042Z" fill="#FFFEE9"/>
<path d="M340.943 115.205C340.783 115.205 340.648 115.149 340.539 115.036C340.43 114.924 340.375 114.787 340.375 114.627C340.375 114.467 340.43 114.332 340.539 114.223C340.648 114.11 340.783 114.054 340.943 114.054C341.107 114.054 341.243 114.11 341.353 114.223C341.465 114.332 341.521 114.467 341.521 114.627C341.521 114.787 341.465 114.924 341.353 115.036C341.243 115.149 341.107 115.205 340.943 115.205ZM341.465 121.804H340.416V116.689H341.465V121.804Z" fill="#FFFEE9"/>
<path d="M334.891 124.362H333.843V116.689H334.769L334.825 117.42C335.057 117.161 335.335 116.958 335.659 116.812C335.986 116.661 336.344 116.586 336.733 116.586C337.224 116.586 337.662 116.702 338.048 116.934C338.437 117.166 338.742 117.483 338.964 117.886C339.189 118.285 339.301 118.738 339.301 119.247C339.301 119.751 339.189 120.205 338.964 120.607C338.742 121.01 338.437 121.327 338.048 121.559C337.662 121.791 337.224 121.907 336.733 121.907C336.365 121.907 336.024 121.84 335.71 121.707C335.396 121.574 335.123 121.388 334.891 121.15V124.362ZM336.564 120.955C336.888 120.955 337.175 120.882 337.424 120.735C337.673 120.589 337.867 120.387 338.007 120.132C338.15 119.872 338.222 119.576 338.222 119.241C338.222 118.907 338.15 118.612 338.007 118.356C337.867 118.097 337.673 117.894 337.424 117.748C337.175 117.601 336.89 117.528 336.569 117.528C336.266 117.528 335.991 117.596 335.746 117.732C335.504 117.865 335.306 118.05 335.152 118.285C335.002 118.52 334.915 118.788 334.891 119.088V119.405C334.915 119.705 335.001 119.973 335.147 120.208C335.297 120.44 335.493 120.623 335.736 120.756C335.981 120.889 336.257 120.955 336.564 120.955Z" fill="#FFFEE9"/>
<path d="M329.97 121.804H329.065L329.003 121.15C328.816 121.388 328.579 121.574 328.292 121.707C328.006 121.84 327.689 121.907 327.341 121.907C326.976 121.907 326.65 121.835 326.364 121.692C326.077 121.549 325.852 121.353 325.688 121.104C325.525 120.855 325.443 120.572 325.443 120.254C325.443 119.92 325.532 119.627 325.709 119.374C325.886 119.119 326.128 118.919 326.435 118.776C326.742 118.629 327.092 118.556 327.484 118.556C327.73 118.556 327.979 118.585 328.231 118.643C328.487 118.701 328.717 118.783 328.922 118.888V118.699C328.922 118.45 328.857 118.237 328.727 118.06C328.601 117.879 328.427 117.741 328.205 117.645C327.987 117.55 327.745 117.502 327.479 117.502C327.244 117.502 327.003 117.543 326.758 117.625C326.515 117.707 326.287 117.833 326.072 118.003L325.755 117.149C326.065 116.965 326.388 116.825 326.722 116.73C327.059 116.634 327.39 116.586 327.714 116.586C328.178 116.586 328.577 116.679 328.911 116.863C329.249 117.047 329.51 117.309 329.694 117.65C329.878 117.988 329.97 118.387 329.97 118.848V121.804ZM327.545 121.017C327.788 121.017 328.011 120.967 328.216 120.868C328.42 120.766 328.586 120.623 328.712 120.439C328.841 120.251 328.911 120.033 328.922 119.784V119.712C328.748 119.582 328.551 119.482 328.333 119.41C328.118 119.335 327.898 119.298 327.673 119.298C327.329 119.298 327.042 119.38 326.814 119.543C326.585 119.707 326.471 119.917 326.471 120.172C326.471 120.333 326.517 120.478 326.609 120.607C326.705 120.734 326.833 120.834 326.993 120.909C327.157 120.981 327.341 121.017 327.545 121.017Z" fill="#FFFEE9"/>
<path d="M318.353 121.359L318.608 120.418C318.724 120.534 318.862 120.636 319.023 120.725C319.186 120.814 319.359 120.884 319.539 120.935C319.724 120.982 319.904 121.006 320.082 121.006C320.361 121.006 320.586 120.947 320.757 120.827C320.927 120.708 321.013 120.549 321.013 120.352C321.013 120.205 320.965 120.084 320.869 119.988C320.777 119.889 320.653 119.804 320.496 119.733C320.343 119.661 320.177 119.591 320 119.523C319.771 119.438 319.543 119.339 319.314 119.226C319.089 119.114 318.9 118.963 318.746 118.776C318.593 118.588 318.516 118.341 318.516 118.034C318.516 117.741 318.591 117.487 318.741 117.272C318.891 117.054 319.101 116.885 319.371 116.765C319.64 116.646 319.95 116.586 320.302 116.586C320.847 116.586 321.388 116.723 321.923 116.996L321.616 117.891C321.507 117.812 321.378 117.743 321.228 117.681C321.077 117.62 320.924 117.572 320.767 117.538C320.61 117.5 320.465 117.482 320.332 117.482C320.111 117.482 319.932 117.531 319.795 117.63C319.662 117.729 319.596 117.862 319.596 118.029C319.596 118.131 319.628 118.225 319.693 118.31C319.758 118.392 319.86 118.474 320 118.556C320.143 118.634 320.336 118.723 320.578 118.822C320.81 118.914 321.042 119.02 321.274 119.139C321.505 119.258 321.698 119.414 321.852 119.605C322.009 119.796 322.087 120.046 322.087 120.357C322.087 120.664 322.005 120.935 321.841 121.17C321.678 121.402 321.449 121.583 321.156 121.712C320.866 121.842 320.528 121.907 320.143 121.907C319.505 121.907 318.908 121.724 318.353 121.359Z" fill="#FFFEE9"/>
<path d="M317.232 121.804H316.342L316.306 120.981C316.119 121.281 315.873 121.511 315.57 121.671C315.269 121.828 314.913 121.906 314.5 121.906C313.832 121.906 313.303 121.704 312.914 121.298C312.529 120.888 312.336 120.329 312.336 119.62V116.688H313.385V119.466C313.385 119.92 313.508 120.281 313.753 120.551C313.999 120.82 314.33 120.955 314.746 120.955C315.176 120.955 315.522 120.812 315.784 120.525C316.05 120.235 316.183 119.855 316.183 119.384V116.688H317.232V121.804Z" fill="#FFFEE9"/>
<path d="M308.469 121.804H307.354V114.131H308.469V121.804Z" fill="#FFFEE9"/>
<path d="M305.338 115.205C305.178 115.205 305.043 115.149 304.934 115.036C304.825 114.924 304.771 114.787 304.771 114.627C304.771 114.467 304.825 114.332 304.934 114.223C305.043 114.11 305.178 114.054 305.338 114.054C305.502 114.054 305.638 114.11 305.748 114.223C305.86 114.332 305.916 114.467 305.916 114.627C305.916 114.787 305.86 114.924 305.748 115.036C305.638 115.149 305.502 115.205 305.338 115.205ZM305.86 121.804H304.811V116.689H305.86V121.804Z" fill="#FFFEE9"/>
<path d="M303.42 121.804H302.514L302.453 121.15C302.265 121.388 302.028 121.574 301.742 121.707C301.456 121.84 301.138 121.907 300.79 121.907C300.426 121.907 300.1 121.835 299.813 121.692C299.527 121.549 299.302 121.353 299.138 121.104C298.974 120.855 298.893 120.572 298.893 120.254C298.893 119.92 298.981 119.627 299.159 119.374C299.336 119.119 299.578 118.919 299.885 118.776C300.192 118.629 300.542 118.556 300.934 118.556C301.179 118.556 301.428 118.585 301.681 118.643C301.936 118.701 302.167 118.783 302.371 118.888V118.699C302.371 118.45 302.306 118.237 302.177 118.06C302.051 117.879 301.877 117.741 301.655 117.645C301.437 117.55 301.195 117.502 300.929 117.502C300.693 117.502 300.453 117.543 300.207 117.625C299.965 117.707 299.737 117.833 299.522 118.003L299.205 117.149C299.515 116.965 299.837 116.825 300.171 116.73C300.509 116.634 300.84 116.586 301.164 116.586C301.628 116.586 302.027 116.679 302.361 116.863C302.699 117.047 302.96 117.309 303.144 117.65C303.328 117.988 303.42 118.387 303.42 118.848V121.804ZM300.995 121.017C301.237 121.017 301.461 120.967 301.665 120.868C301.87 120.766 302.035 120.623 302.161 120.439C302.291 120.251 302.361 120.033 302.371 119.784V119.712C302.197 119.582 302.001 119.482 301.783 119.41C301.568 119.335 301.348 119.298 301.123 119.298C300.779 119.298 300.492 119.38 300.264 119.543C300.035 119.707 299.921 119.917 299.921 120.172C299.921 120.333 299.967 120.478 300.059 120.607C300.154 120.734 300.282 120.834 300.443 120.909C300.606 120.981 300.79 121.017 300.995 121.017Z" fill="#FFFEE9"/>
<path d="M297.777 121.804H296.729V119.129C296.729 118.621 296.62 118.227 296.401 117.947C296.186 117.668 295.883 117.528 295.491 117.528C295.092 117.528 294.78 117.669 294.554 117.952C294.329 118.235 294.217 118.628 294.217 119.129V121.804H293.168V119.129C293.168 118.621 293.059 118.227 292.841 117.947C292.622 117.668 292.317 117.528 291.925 117.528C291.526 117.528 291.214 117.669 290.989 117.952C290.764 118.235 290.651 118.628 290.651 119.129V121.804H289.603V116.689H290.452L290.493 117.579C290.663 117.255 290.893 117.009 291.183 116.842C291.477 116.672 291.821 116.586 292.217 116.586C292.636 116.586 292.996 116.679 293.296 116.863C293.596 117.047 293.823 117.311 293.976 117.656C294.147 117.304 294.382 117.038 294.682 116.858C294.986 116.677 295.346 116.586 295.762 116.586C296.396 116.586 296.891 116.788 297.245 117.19C297.6 117.593 297.777 118.154 297.777 118.873V121.804Z" fill="#FFFEE9"/>
<path d="M283.341 121.804V114.131H288.124V115.123H284.467V117.42H287.915V118.413H284.467V120.812H288.176V121.804H283.341Z" fill="#FFFEE9"/>
<path d="M41.6549 111.883C41.8691 111.729 42.2033 111.593 42.5975 111.683C42.9563 111.764 43.1791 111.993 43.2938 112.142C43.4135 112.297 43.4933 112.466 43.548 112.604C43.7535 113.121 43.8736 113.916 43.9592 114.693C44.1339 116.278 44.2202 118.452 44.3099 119.579C44.3262 119.784 44.3516 119.979 44.379 120.218C44.4049 120.444 44.4315 120.702 44.4362 120.965C44.4399 121.169 44.4304 121.385 44.3963 121.608C44.998 121.666 45.6936 121.75 46.4671 121.87C47.0031 121.954 47.3698 122.456 47.2863 122.992C47.2028 123.528 46.7007 123.895 46.1647 123.811C43.7855 123.44 42.2052 123.442 41.9366 123.442C41.9198 123.442 41.9016 123.442 41.8883 123.441C41.8831 123.441 41.869 123.441 41.8535 123.441C41.8483 123.441 41.8254 123.44 41.7969 123.438C41.7873 123.437 41.7453 123.433 41.6926 123.423C41.6718 123.419 41.6027 123.405 41.5193 123.372C41.474 123.352 41.3629 123.293 41.2994 123.25C41.2026 123.168 41.0071 122.905 40.9342 122.717C40.8999 122.472 40.9934 122.041 41.0941 121.873C41.1726 121.78 41.3209 121.653 41.3831 121.613C41.4914 121.549 41.587 121.522 41.607 121.516C41.6691 121.498 41.7198 121.49 41.7284 121.489C41.7595 121.484 41.7846 121.481 41.7892 121.481C41.8051 121.479 41.8195 121.478 41.8237 121.478C41.8345 121.477 41.852 121.476 41.8627 121.475C41.9162 121.472 42.0113 121.465 42.1265 121.451C42.2421 121.438 42.3472 121.42 42.4363 121.402C42.4626 121.293 42.4751 121.164 42.4721 121.001C42.4692 120.837 42.4522 120.659 42.4274 120.442C42.4041 120.239 42.3717 119.984 42.3519 119.735C42.2532 118.494 42.185 116.629 42.0255 115.088C42.0113 115.128 41.9991 115.164 41.989 115.196C41.9718 115.25 41.9641 115.282 41.9612 115.294C41.9236 115.803 41.4999 116.203 40.9822 116.203C40.4398 116.203 40 115.763 40 115.221C40 114.993 40.068 114.755 40.1151 114.606C40.1738 114.419 40.2557 114.203 40.3565 113.97C40.5584 113.504 40.8522 112.934 41.231 112.346C41.3229 112.203 41.4591 112.024 41.6549 111.883Z" fill="#FFFEE9"/>
<path d="M49.4312 121.384C49.8148 121 50.4366 121 50.8201 121.384L51.582 122.146C51.9656 122.529 51.9656 123.151 51.582 123.535C51.1985 123.918 50.5767 123.918 50.1931 123.535L49.4312 122.773C49.0477 122.389 49.0477 121.767 49.4312 121.384Z" fill="#FFFEE9"/>
<path d="M156.343 114.766C156.343 114.506 156.347 113.988 156.59 113.193C156.84 112.374 157.454 111.877 158.04 111.582C158.62 111.29 159.269 111.144 159.797 111.06C160.469 110.954 161.369 110.98 161.992 111.208C162.738 111.48 163.177 112.08 163.427 112.673C163.674 113.261 163.78 113.937 163.817 114.575C163.889 115.856 163.695 117.238 163.5 118.081C163.224 119.278 162.312 120.519 161.389 121.536C161.183 121.763 160.97 121.986 160.754 122.202C161.051 122.195 161.356 122.192 161.667 122.195L162.085 122.202L162.103 122.202L162.121 122.204C163.057 122.261 163.449 122.383 163.833 122.511C164.347 122.682 164.626 123.239 164.454 123.753C164.282 124.268 163.726 124.546 163.212 124.374C163.058 124.323 162.95 124.288 162.791 124.255C162.63 124.222 162.396 124.189 162.019 124.165C160.979 124.142 159.991 124.18 159.185 124.254C158.758 124.294 158.402 124.341 158.126 124.389C157.931 124.48 157.745 124.533 157.603 124.562C157.495 124.584 157.353 124.605 157.21 124.601C157.172 124.599 157.106 124.595 157.027 124.579C157.001 124.574 156.754 124.532 156.536 124.326C156.396 124.193 156.239 123.962 156.228 123.643C156.218 123.344 156.342 123.128 156.424 123.018C156.567 122.827 156.743 122.74 156.772 122.725L156.83 122.695L156.892 122.673C157.037 122.621 157.209 122.574 157.403 122.531C158.15 121.965 159.11 121.125 159.935 120.216C160.824 119.236 161.431 118.312 161.586 117.639C161.751 116.925 161.915 115.735 161.855 114.687C161.825 114.161 161.742 113.734 161.616 113.436C161.493 113.143 161.376 113.074 161.319 113.053C161.102 112.974 160.561 112.928 160.105 113C159.656 113.071 159.238 113.178 158.924 113.337C158.615 113.493 158.507 113.643 158.469 113.767C158.303 114.311 158.307 114.618 158.307 114.766C158.307 115.309 157.867 115.748 157.325 115.749C156.783 115.749 156.343 115.309 156.343 114.766Z" fill="#FFFEE9"/>
<path d="M167.204 123.003C167.447 122.518 168.037 122.321 168.522 122.564L169.142 122.874C169.627 123.116 169.823 123.706 169.581 124.192C169.338 124.677 168.748 124.873 168.263 124.631L167.643 124.321C167.158 124.078 166.961 123.488 167.204 123.003Z" fill="#FFFEE9"/>
<path d="M269.301 111.089C269.835 110.968 270.576 110.949 271.171 111.167C272.232 111.556 272.65 112.527 272.824 113.295C273.002 114.074 272.999 114.939 273.001 115.53C273.003 116.378 272.67 117.007 272.264 117.458C272.313 117.475 272.363 117.493 272.411 117.513C272.544 117.568 272.733 117.658 272.907 117.807L272.98 117.875L273.059 117.959C273.442 118.382 273.594 118.879 273.674 119.248C273.717 119.447 273.746 119.645 273.768 119.793C273.793 119.957 273.81 120.062 273.831 120.145C274.084 121.154 273.544 122.048 273.048 122.644C271.676 124.293 269.604 124.273 268.572 124.316L268.455 124.321L268.339 124.298C267.552 124.142 266.827 123.833 266.219 123.483C266.016 123.383 265.639 123.238 265.037 122.838C264.585 122.538 264.461 121.929 264.761 121.477C265.061 121.025 265.67 120.901 266.122 121.201C266.606 121.522 266.765 121.559 267.113 121.734L267.14 121.748L267.167 121.763C267.604 122.019 268.101 122.232 268.612 122.348C269.798 122.297 270.841 122.226 271.538 121.387C271.724 121.165 271.834 120.98 271.889 120.839C271.941 120.705 271.931 120.644 271.925 120.622C271.878 120.434 271.848 120.237 271.826 120.086C271.8 119.92 271.781 119.788 271.754 119.662C271.714 119.48 271.672 119.378 271.634 119.319C271.588 119.302 271.521 119.28 271.428 119.257C271.188 119.196 270.927 119.151 270.615 119.089C270.473 119.061 270.317 119.027 270.174 118.989C270.046 118.954 269.855 118.897 269.68 118.797C269.573 118.736 269.041 118.416 269.092 117.748C269.114 117.45 269.253 117.236 269.357 117.114C269.461 116.991 269.576 116.905 269.663 116.847L269.742 116.798C269.822 116.753 269.899 116.716 269.939 116.697C270.019 116.659 270.085 116.629 270.167 116.588C270.323 116.51 270.478 116.423 270.616 116.316C270.879 116.114 271.037 115.886 271.036 115.534C271.035 114.897 271.029 114.258 270.909 113.731C270.786 113.192 270.613 113.055 270.494 113.011C270.354 112.96 270.018 112.941 269.736 113.005C269.585 113.039 269.52 113.07 269.495 113.085C269.486 113.091 269.485 113.093 269.487 113.091C269.489 113.088 269.488 113.089 269.482 113.099C269.295 113.454 269.166 113.744 269.087 113.953C269.048 114.058 269.024 114.134 269.012 114.181C269.01 114.189 269.008 114.195 269.007 114.2C268.971 114.71 268.547 115.113 268.028 115.113C267.485 115.113 267.045 114.673 267.045 114.131C267.045 113.957 267.083 113.791 267.112 113.68C267.146 113.551 267.193 113.41 267.249 113.26C267.362 112.961 267.527 112.596 267.746 112.181C268.125 111.463 268.776 111.208 269.301 111.089Z" fill="#FFFEE9"/>
<path d="M276.733 122.941C277.275 122.941 277.715 123.381 277.715 123.924C277.715 124.466 277.275 124.906 276.733 124.906H276.461C275.918 124.906 275.479 124.466 275.479 123.924C275.479 123.381 275.918 122.941 276.461 122.941H276.733Z" fill="#FFFEE9"/>
<path d="M90.6539 147.996C90.6539 147.544 91.0204 147.178 91.4724 147.178C91.9244 147.178 92.2909 147.544 92.2909 147.996C92.2909 149.803 92.135 153.793 91.9306 155.347C91.9202 155.426 91.9006 155.518 91.8679 155.614C92.2977 155.229 92.9038 154.625 93.73 153.799C94.0496 153.48 94.5678 153.48 94.8874 153.799C95.207 154.119 95.207 154.637 94.8874 154.957C93.9432 155.901 93.2069 156.639 92.6982 157.061C92.4515 157.265 92.1804 157.465 91.8813 157.57C91.5171 157.697 91.1752 157.664 90.8639 157.528L90.7805 157.492L90.7073 157.437C90.4605 157.256 89.5571 156.647 88.9178 156.085C88.7525 155.94 88.5897 155.785 88.45 155.629C88.3182 155.482 88.1688 155.291 88.0727 155.073C87.981 154.865 87.8644 154.451 88.1229 154.044C88.3589 153.672 88.7514 153.566 88.9814 153.529L89.0316 153.523C89.2794 153.499 89.4697 153.589 89.5163 153.611C89.6012 153.65 89.674 153.698 89.7241 153.732C89.8268 153.803 89.9368 153.893 90.0323 153.973C90.1563 154.077 90.2755 154.18 90.3943 154.28C90.5427 152.503 90.6539 149.499 90.6539 147.996Z" fill="#FFFEE9"/>
<path d="M96.757 159.862C97.2084 159.839 97.5937 160.185 97.6174 160.637C97.641 161.088 97.2943 161.473 96.843 161.497C92.9718 161.7 89.4146 161.701 87.6102 161.701H85.673C85.221 161.701 84.8545 161.334 84.8545 160.882C84.8545 160.43 85.2209 160.064 85.673 160.064H87.6102C89.4131 160.064 92.9326 160.064 96.757 159.862Z" fill="#FFFEE9"/>
<path d="M202.333 149.312C202.541 149.156 202.819 149.101 203.085 149.189C203.192 149.225 203.357 149.279 203.53 149.366L203.553 149.377L203.575 149.39C203.721 149.475 203.905 149.56 204.246 149.726L204.645 149.923L204.724 149.963L204.793 150.018C204.941 150.138 205.132 150.275 205.369 150.448C205.594 150.612 205.85 150.803 206.083 151.002C206.31 151.196 206.558 151.433 206.739 151.7C206.911 151.955 207.117 152.383 206.98 152.881C206.895 153.188 206.681 153.435 206.563 153.57C206.433 153.718 206.218 153.942 206.05 154.126C205.788 154.415 205.586 154.674 205.392 154.931C205.204 155.182 205.003 155.461 204.773 155.736C204.078 156.568 203.243 157.391 202.317 158.942C202.054 159.385 201.914 159.735 201.73 160.114C201.583 160.418 201.328 160.933 200.789 161.166C200.531 161.278 199.902 161.506 199.273 161.599C198.965 161.644 198.582 161.67 198.221 161.584C197.838 161.493 197.376 161.242 197.194 160.683C197.132 160.489 197.116 160.278 197.108 160.165C197.097 160.004 197.096 159.936 197.087 159.864C197.072 159.748 197.032 159.584 196.968 159.35C196.909 159.136 196.83 158.864 196.77 158.603C196.711 158.344 196.657 158.037 196.662 157.733C196.667 157.433 196.734 157.039 197.014 156.706L197.103 156.604C197.551 156.106 198.011 155.818 198.864 154.259C199.562 152.984 200.158 151.899 200.589 151.103C200.805 150.705 200.977 150.383 201.1 150.149C201.161 150.031 201.208 149.94 201.24 149.873C201.281 149.789 201.279 149.786 201.268 149.82C201.411 149.391 201.874 149.158 202.303 149.3C202.313 149.304 202.323 149.309 202.333 149.312ZM202.551 150.907C202.422 151.153 202.245 151.484 202.028 151.883C201.595 152.683 200.996 153.774 200.3 155.045C199.323 156.829 198.625 157.359 198.302 157.72C198.301 157.731 198.299 157.745 198.299 157.763C198.297 157.869 198.317 158.024 198.366 158.239C198.415 158.454 198.478 158.669 198.546 158.916C198.608 159.142 198.679 159.411 198.711 159.658C198.72 159.735 198.726 159.812 198.73 159.874C198.734 159.93 198.736 159.964 198.738 160.003C198.812 160.003 198.911 159.998 199.034 159.98C199.45 159.918 199.903 159.761 200.1 159.68C200.118 159.655 200.17 159.58 200.257 159.4C200.391 159.124 200.6 158.626 200.912 158.104C201.924 156.406 202.9 155.424 203.516 154.686C203.71 154.454 203.872 154.23 204.084 153.948C204.29 153.673 204.527 153.367 204.84 153.024C204.945 152.909 205.042 152.805 205.125 152.717C205.197 152.64 205.255 152.576 205.305 152.52C205.24 152.447 205.147 152.355 205.021 152.248C204.838 152.092 204.626 151.933 204.402 151.769C204.218 151.635 204.014 151.487 203.841 151.352C203.392 151.129 203.026 150.96 202.786 150.824C202.746 150.804 202.701 150.788 202.624 150.762C202.601 150.807 202.577 150.856 202.551 150.907Z" fill="#FFFEE9"/>
<path d="M203.902 146.732C204.312 146.428 204.77 146.517 205.035 146.624C205.301 146.732 205.55 146.918 205.744 147.074C205.948 147.238 206.18 147.444 206.393 147.627C206.617 147.819 206.843 148.008 207.077 148.178C207.398 148.412 207.77 148.695 208.1 149.002C208.417 149.296 208.761 149.669 208.955 150.094L209.158 150.538L208.864 150.928C208.34 151.623 207.603 152.431 206.905 153.148L206.884 153.169L206.863 153.188C206.767 153.274 206.683 153.341 206.604 153.406C206.524 153.472 206.425 153.554 206.275 153.688C205.937 153.988 205.419 153.957 205.119 153.619C204.819 153.281 204.85 152.764 205.188 152.464C205.358 152.313 205.473 152.217 205.565 152.141C205.651 152.071 205.699 152.031 205.756 151.981C206.267 151.456 206.775 150.904 207.19 150.404C207.132 150.341 207.064 150.274 206.987 150.202C206.728 149.962 206.418 149.724 206.113 149.502C205.825 149.292 205.559 149.068 205.326 148.868C205.083 148.659 204.894 148.491 204.718 148.35C204.685 148.323 204.654 148.3 204.626 148.278C204.486 148.413 204.32 148.592 204.137 148.838C203.894 149.164 203.675 149.49 203.508 149.771C203.33 150.07 203.243 150.262 203.221 150.335C203.092 150.768 202.635 151.014 202.202 150.884C201.769 150.755 201.523 150.299 201.653 149.866C201.736 149.587 201.914 149.248 202.102 148.932C202.302 148.598 202.552 148.225 202.823 147.861C203.271 147.26 203.67 146.934 203.821 146.799L203.902 146.732Z" fill="#FFFEE9"/>
<path d="M208.827 157.802C209.065 157.77 209.507 157.771 209.835 158.171C210.057 158.443 210.168 158.78 210.235 159.036C210.306 159.308 210.357 159.613 210.402 159.88C210.48 160.344 210.546 160.699 210.636 160.951L210.637 160.951C210.88 160.951 211.236 160.906 211.753 160.829C213.469 160.366 214.93 159.879 215.863 159.523L215.872 159.519L215.881 159.516C216.456 159.312 217.15 159.093 218.079 158.869C218.518 158.763 218.96 159.033 219.066 159.472C219.172 159.912 218.902 160.354 218.463 160.46C217.594 160.67 216.955 160.872 216.43 161.058C215.43 161.439 213.906 161.945 212.134 162.422L212.089 162.434L212.042 162.441C211.528 162.518 211.033 162.588 210.639 162.588C210.441 162.588 210.209 162.572 209.987 162.501C209.753 162.425 209.479 162.269 209.305 161.964C208.986 161.407 208.872 160.651 208.787 160.152C208.747 159.913 208.712 159.714 208.673 159.544C208.295 159.682 207.647 159.956 206.684 160.466C205.651 161.014 204.832 161.448 204.263 161.744C203.98 161.892 203.753 162.008 203.591 162.088C203.511 162.128 203.439 162.163 203.381 162.189C203.353 162.201 203.318 162.217 203.281 162.23C203.263 162.237 203.234 162.247 203.199 162.257C203.183 162.262 203.089 162.289 202.968 162.289C202.516 162.289 202.15 161.923 202.15 161.471C202.15 161.106 202.388 160.798 202.718 160.692C202.747 160.679 202.795 160.656 202.864 160.622C203.011 160.549 203.225 160.439 203.507 160.292C204.069 159.999 204.882 159.569 205.918 159.02C207.453 158.206 208.356 157.894 208.739 157.817L208.827 157.802ZM202.836 160.664C202.831 160.665 202.826 160.665 202.821 160.666C202.826 160.665 202.831 160.665 202.836 160.664Z" fill="#FFFEE9"/>
<path d="M327.764 147.166C328.186 146.991 328.795 146.78 329.429 146.874C329.552 146.892 329.728 146.93 329.902 147.018C330.043 147.09 330.263 147.238 330.393 147.505C330.644 147.392 330.946 147.406 331.19 147.571C331.565 147.824 331.664 148.333 331.411 148.708C331.324 148.836 331.24 148.961 331.154 149.087C331.049 149.243 330.937 149.403 330.8 149.582C330.847 150.088 330.881 150.701 330.892 151.458C330.913 152.943 330.95 155.716 330.891 157.179C330.859 157.947 330.824 158.481 330.749 158.853C330.709 159.047 330.651 159.245 330.547 159.428C330.435 159.627 330.294 159.768 330.146 159.874C329.31 160.478 328.266 160.86 325.599 160.888C323.631 160.909 319.876 160.988 317.618 160.843C316.148 160.749 315.151 160.659 314.486 160.559C314.155 160.509 313.878 160.454 313.655 160.384C313.449 160.321 313.193 160.218 312.992 160.017C312.904 159.929 312.805 159.805 312.735 159.617C312.68 159.47 312.655 159.314 312.64 159.17C312.609 158.88 312.593 158.408 312.583 157.614C312.561 156.003 312.562 153.004 312.562 151.488V149.887C312.562 149.435 312.928 149.069 313.38 149.069C313.388 149.069 313.395 149.069 313.403 149.07C313.44 149.008 313.488 148.947 313.549 148.889C313.686 148.76 313.847 148.69 313.999 148.662L314.513 148.572C315.038 148.485 315.584 148.405 316.05 148.324C316.459 148.253 316.854 148.226 317.266 148.195C317.684 148.165 318.152 148.129 318.76 148.047C318.953 148.021 319.233 148.025 319.495 148.029C319.792 148.035 320.143 148.045 320.572 148.049C321.419 148.058 322.523 148.042 323.795 147.917C324.543 147.844 325.188 147.806 325.651 147.766C326.141 147.724 326.483 147.677 326.783 147.589C326.864 147.566 326.98 147.518 327.163 147.434C327.327 147.36 327.545 147.256 327.764 147.166ZM328.983 148.497C328.832 148.518 328.639 148.575 328.391 148.678C328.207 148.754 328.037 148.835 327.842 148.924C327.665 149.005 327.45 149.1 327.243 149.16C326.779 149.296 326.303 149.353 325.79 149.397C325.25 149.444 324.708 149.473 323.954 149.547C322.604 149.679 321.438 149.695 320.556 149.686C320.119 149.682 319.741 149.671 319.465 149.666C319.323 149.663 319.21 149.662 319.121 149.663C319.077 149.664 319.043 149.665 319.017 149.666C318.993 149.668 318.982 149.669 318.98 149.669C318.32 149.758 317.81 149.797 317.386 149.828C316.956 149.86 316.645 149.883 316.329 149.937C316.029 149.989 315.753 150.032 315.485 150.074C315.61 150.187 315.754 150.313 315.917 150.453C316.565 151.006 317.483 151.738 318.666 152.646C320.627 154.152 322.043 154.812 322.56 155.029C322.567 155.024 322.574 155.02 322.582 155.015C322.812 154.854 323.162 154.552 323.779 154.007C324.824 153.084 326.678 151.351 327.739 150.39L327.742 150.388C328.371 149.823 328.791 149.404 329.091 149.073C329.057 148.844 329.02 148.655 328.983 148.497ZM314.199 151.488C314.199 153.009 314.199 155.995 314.22 157.593C314.228 158.242 314.241 158.623 314.256 158.852C314.366 158.878 314.519 158.909 314.728 158.94C315.32 159.028 316.257 159.115 317.724 159.21C319.901 159.35 323.563 159.272 325.582 159.251C327.992 159.226 328.688 158.896 329.13 158.587C329.134 158.572 329.139 158.553 329.144 158.529C329.189 158.306 329.222 157.904 329.255 157.112C329.312 155.705 329.276 152.988 329.255 151.481C329.254 151.394 329.252 151.309 329.25 151.227C329.122 151.346 328.985 151.471 328.837 151.603L328.838 151.604C327.82 152.525 325.909 154.31 324.862 155.235C324.276 155.752 323.843 156.131 323.517 156.358C323.221 156.564 322.734 156.851 322.166 156.635C321.83 156.506 320.13 155.834 317.669 153.945C316.478 153.031 315.533 152.278 314.854 151.697C314.603 151.483 314.384 151.288 314.199 151.114V151.488Z" fill="#FFFEE9"/>
</g>
<defs>
<clipPath id="clip0_552_45">
<rect width="398" height="545" fill="white"/>
</clipPath>
</defs>
</svg>
