<svg width="59" height="44" viewBox="0 0 59 44" fill="none" xmlns="http://www.w3.org/2000/svg">
<path d="M3 9.77533C3 9.9023 3 10.0293 3 14.6656C3 19.3019 3 28.4437 3.0643 33.3436C3.1286 38.2435 3.25721 38.6244 3.58066 38.9476C4.29873 39.6651 7.13478 40.1673 16.1058 40.7444C22.8791 41.1801 34.2076 40.9406 40.2949 40.8771C48.2107 40.7946 50.7935 39.6632 52.746 38.2531C53.5643 37.6621 53.7904 36.7121 53.9852 31.945C54.1644 27.5619 54.0515 19.1788 53.9872 14.6079C53.8974 8.22884 53.2721 5.42758 52.7557 3.68848C52.6382 3.29291 52.1107 3.11134 51.6548 3.04401C49.2126 2.68336 46.3976 4.64267 44.6401 5.15632C42.3078 5.83793 39.6401 5.79694 35.0533 6.24711C27.0451 7.03306 21.1915 6.43949 19.769 6.63186C15.8955 7.15575 13.7949 7.08203 11.5813 7.46486C9.49552 7.8256 7.42706 8.10548 5.34408 8.49024C4.97971 8.55754 5.20574 9.25206 5.52919 9.83112C6.24772 11.1174 10.3693 14.6194 17.6237 20.1868C24.9162 25.7835 29.8858 27.7281 30.7276 28.0493C31.6344 28.3955 32.7424 27.478 36.4153 24.2345C39.6111 21.4124 45.361 16.0392 48.5352 13.165C52.8785 9.26745 54.1762 7.47448 55.2167 5.93353C55.4778 5.54685 55.735 5.16594 56 4.77349" stroke="#FFFEE9" stroke-width="5" stroke-linecap="round"/>
</svg>
