<svg width="145" height="131" viewBox="0 0 145 131" fill="none" xmlns="http://www.w3.org/2000/svg">
<path d="M96.5054 49.1804C96.5054 49.1804 90.3704 52.287 88.1627 51.1387C85.9551 49.9905 67.2558 20.9045 64.131 20.5035C61.0061 20.1025 62.2045 57.5599 59.7772 59.3375C57.3499 61.1152 18.6633 80.8347 21.0147 86.1048C23.364 91.3607 59.7169 80.0238 61.3146 82.7029C62.9123 85.382 65.2251 122.065 69.6964 124.774C74.1658 127.469 79.2685 88.1277 84.4391 87.0056C89.6097 85.8835 122.028 95.3389 126.089 93.5422C130.149 91.7455 104.898 73.2656 104.568 70.8343C104.238 68.403 123.488 35.1917 122.166 34.5458C120.845 33.8999 96.5073 49.1946 96.5073 49.1946L96.5054 49.1804Z" stroke="#FFE33B" stroke-width="5.25" stroke-miterlimit="10"/>
</svg>
