<svg width="59" height="53" viewBox="0 0 59 53" fill="none" xmlns="http://www.w3.org/2000/svg">
<path d="M24.5167 4.21579C23.9842 4.21579 20.0712 4.21579 14.0255 4.3817C9.07394 4.51758 8.11696 5.88996 6.9955 6.51714C5.57038 7.31415 4.44329 9.64553 3.85432 11.5422C3.14129 13.8383 3.27073 18.6046 3.04751 22.7134C2.95249 24.4625 3.00179 27.3676 3.17929 29.8173C3.67018 36.592 4.43254 38.8907 4.70416 41.035C4.98348 43.2399 6.22365 44.5115 9.44147 46.8154C13.1588 49.4768 17.8686 49.3782 22.0613 49.6295C28.903 50.0397 33.6552 49.632 34.9945 49.5064C38.4811 49.1791 40.2871 49.2122 41.9908 49.0036C43.9592 48.7625 45.7573 48.4581 47.504 47.8322C48.9608 47.3102 50.7756 46.3667 52.3462 44.9036C53.7848 43.5636 53.7393 42.1787 54.3216 40.8804C55.0088 39.3479 55.17 36.4121 55.4887 34.386C55.7002 33.0418 55.8021 31.9552 55.9365 28.8796C56.0528 26.2207 55.9822 21.3245 55.9379 18.6373C55.8727 14.6906 55.5358 13.019 55.1768 11.8036C54.833 10.6398 54.1911 9.49973 53.5201 8.49296C52.7648 7.35968 51.4157 6.73458 50.3386 6.18658C49.2626 5.63915 48.1885 5.30676 46.4874 5.13834C44.2782 4.9196 42.7237 4.46716 41.1961 4.21704C39.738 3.97829 38.1518 3.71303 36.8918 3.46291C35.6364 3.21371 34.2038 3.04437 30.0017 3.00038C28.2563 2.98211 27.2114 3.62757 26.1343 3.75451C25.8641 3.79599 25.5978 3.87894 25.2388 3.92168C24.8798 3.96441 24.436 3.96441 23.9788 3.96441" stroke="#FFFEE9" stroke-width="5" stroke-linecap="round"/>
<path d="M27.475 17.036C26.3159 17.036 23.4571 17.3678 21.3406 18.3305C19.6837 19.0843 18.9659 21.3797 18.3769 24.1851C17.6663 27.5697 18.6862 30.6857 19.3572 32.1085C20.3026 34.1132 23.6023 36.0451 25.6315 36.9349C27.301 37.6671 31.4768 37.6489 34.3719 37.1486C35.7682 36.9073 36.6135 35.5574 37.8694 33.9687C39.1358 32.3667 39.3943 29.4489 39.4884 24.8048C39.5398 22.2675 38.4153 21.3144 36.9389 19.9318C35.6977 18.7695 34.2038 18.3783 33.1267 17.8341C32.1393 17.3351 30.9766 17.3728 29.8995 17.0372C29.3629 16.87 28.8224 16.7016 28.2415 16.5759C27.9268 16.5332 27.5718 16.5332 27.2061 16.5332" stroke="#FFFEE9" stroke-width="5" stroke-linecap="round"/>
<path d="M43.7067 13.6705C43.7067 13.7748 43.7067 14.1936 43.7904 14.7728C43.8231 14.9988 44.0415 15.0391 44.2672 15.066C44.493 15.0929 44.7719 15.0929 44.9436 14.9885C45.6205 14.5771 45.3975 13.7779 45.3138 13.4358C45.2769 13.2849 45.0628 13.2501 44.8928 13.2232C44.7229 13.1964 44.5555 13.1964 44.4135 13.2746C44.2715 13.3528 44.1599 13.5093 44.1024 13.6942C44.0449 13.8791 44.0449 14.0877 44.0449 14.3026" stroke="#FFFEE9" stroke-width="5" stroke-linecap="round"/>
</svg>
