<?xml version="1.0" encoding="UTF-8"?>
<svg id="Layer_1" data-name="Layer 1" xmlns="http://www.w3.org/2000/svg" viewBox="0 0 138.69 138.69">
  <defs>
    <style>
      .cls-1 {
        fill: #4f96eb;
      }

      .cls-1, .cls-2 {
        stroke-width: 0px;
      }

      .cls-2 {
        fill: #fff89b;
      }
    </style>
  </defs>
  <circle class="cls-1" cx="69.35" cy="69.35" r="69.35"/>
  <path class="cls-2" d="m68.51,99.63c-9.9,0-19-1.47-27.05-4.38-7.47-2.7-12.76-6.31-16.15-11.06-4.1-5.72-3.66-14.34.99-19.62,2.53-2.87,6.3-4.72,9.6-4.72,1.3,0,2.51.28,3.59.83.17.09.36.13.55.13.59,0,1.08-.42,1.16-1.01.64-4.59,2.6-8.99,5.51-12.39,4.49-5.23,11.49-8.36,18.71-8.36,6.09,0,11.66,2.22,15.69,6.24.36.36.65.71.88,1.05-.39.14-.78.31-1.14.49-3.78,1.92-5.82,5.38-5.45,9.28.22,2.36,1.38,4.67,3.25,6.5.25.25.51.49.76.74,1.62,1.56,3.15,3.04,4.29,5,1.48,2.54,1.95,5.29,1.32,7.74-1.44,5.66-8.13,8.38-14.13,8.55-.2,0-.4,0-.6,0-1.99,0-3.82-.3-5.43-.89-2.37-.86-4.55-2.42-6.14-4.38-.8-.99-.65-1.23-.18-2.03.14-.24.3-.51.47-.84.61-1.24.96-2.61,1.02-3.97.04-.93-.58-1.97-1.67-2.04-.12-.02-.25-.03-.37-.03-1.22,0-1.28,1.18-1.31,1.97,0,.17-.01.34-.03.49-.11,1.05-.73,2.09-1.61,2.72-.64.46-1.44.71-2.29.71-.25,0-.5-.02-.74-.06-.21-.03-.43-.09-.66-.15-.44-.11-.89-.23-1.33-.23-.71,0-1.24.33-1.56.97-.14.29-.19.62-.14.93.31,1.69,2.21,1.81,2.83,1.84.22.01.44.03.66.05.58.04,1.19.09,1.78.09.39,0,.74-.02,1.05-.06.88,1.39,1.92,2.58,3.2,3.66,1.66,1.41,3.56,2.54,5.65,3.37,2.39.95,4.88,1.43,7.41,1.43,3.59,0,7.12-.95,10.48-2.81,4.03-2.24,6.74-5.61,7.64-9.49.31-1.34.37-2.73.17-4.13-.53-3.78-3.03-6.37-5.44-8.87-.65-.67-1.31-1.36-1.93-2.06-1.36-1.54-3.09-3.89-2.46-6.56.29-1.24,1.06-2.4,2.12-3.19,3.43-2.81,8.23-3.23,10.78-3.23,1.81,0,3.57.2,5.09.58,7.92,1.99,13.27,9.09,13,17.27-.02.73.46,1.36,1.15,1.51,2.64.55,5.02,2.21,6.53,4.54,1.82,2.79,2.45,5.58,1.88,8.29-1.24,5.87-7.77,9.8-10.52,11.23-5.72,2.95-12.34,4.99-21.46,6.6-6.64,1.17-13.18,1.76-19.45,1.76h0Zm-.1-28.61c-.39,0-.78.13-1.1.37-.68.52-.87,1.38-.53,2.42.23.69.53,1.36.83,2,.13.29.27.57.39.86.09.21.21.39.35.54.39.41.88.64,1.36.64.26,0,.51-.06.76-.19.95-.49,1.35-1.58.93-2.54l-.06-.14c-.3-.67-.58-1.31-.82-2-.11-.32-.23-.59-.36-.82-.36-.62-.83-.99-1.42-1.11-.11-.02-.22-.03-.33-.03Zm5.98-2.22c-.25,0-.49.06-.74.19-1.75.92-.81,3.01-.35,4.02.09.2.19.41.29.61.18.37.36.75.51,1.13l.05.14c.17.45.34.91.88,1.2.24.13.52.2.81.2s.59-.07.84-.22c.53-.3.9-.9.97-1.57.02-.24,0-.48-.05-.75-.07-.32-.18-.63-.3-.93l-.08-.23c-.19-.51-.39-1.01-.58-1.51l-.16-.41c-.34-.86-1.09-1.87-2.07-1.87Z"/>
</svg>