<svg width="188" height="50" viewBox="0 0 188 50" fill="none" xmlns="http://www.w3.org/2000/svg">
<path d="M25.4984 26.0699C25.3492 25.6308 25.1173 25.2289 24.7527 24.9472C24.2224 24.5371 23.4477 24.4749 22.8553 24.7856C22.006 25.233 21.8445 26.1527 21.9522 27.0352C22.0392 27.7353 22.1966 28.4271 22.3623 29.1148C22.4949 29.6658 22.5487 30.3784 22.818 30.8755C23.2281 31.6378 23.9821 32.1349 24.848 31.8822C25.8629 31.5881 26.4554 30.6104 26.2275 29.6078C26.0287 28.7378 25.834 27.9051 25.7097 27.0144C25.6641 26.6996 25.602 26.3806 25.4984 26.0782V26.0699Z" fill="white"/>
<path d="M33.3986 29.3634C33.3944 28.9201 33.2991 28.481 33.2287 28.0377C33.1044 27.2713 32.9594 26.5049 32.8186 25.7385C32.6114 24.5992 31.8409 23.0705 30.4323 23.4848C28.6261 24.0192 29.0362 26.1155 29.3676 27.5323C29.5333 28.2366 29.7488 28.945 29.8731 29.6575C29.9725 30.2375 30.0139 30.7595 30.5152 31.1655C30.9419 31.5135 31.5467 31.6253 32.0729 31.4555C32.6694 31.2608 33.1168 30.7181 33.2991 30.1174C33.3737 29.8647 33.4027 29.6161 33.3986 29.3634Z" fill="white"/>
<path d="M48.4741 0.223169C46.7548 -0.141394 44.961 -0.0502533 43.2708 0.430308C39.041 1.62757 35.8428 4.82577 35.3954 9.31239C35.1219 12.0715 35.9795 14.7891 37.5413 17.0511C39.2316 19.5036 40.9591 21.7531 41.9492 24.6033C42.9725 27.5447 43.0802 30.8672 41.7214 33.7299C38.7054 40.089 30.0802 41.3691 23.8205 40.3293C21.5088 39.9482 19.2137 39.2149 17.2003 38.001C14.6898 36.4848 12.5936 34.2643 11.2182 31.6709C10.2322 29.8067 11.0483 29.7238 12.1918 28.2158C13.1073 27.0061 13.7826 25.6059 14.143 24.1311C14.3667 23.2114 13.9359 22.1136 12.9457 21.8567C11.2513 21.2063 11.1975 22.9338 10.8702 23.9861C10.4849 25.2248 9.50309 26.3102 8.33069 26.8487C7.14171 27.3956 5.79944 27.3624 4.58561 26.915C3.67834 26.5794 2.53081 25.7219 1.54069 26.1279C0.919272 26.3847 0.50085 27.0641 0.554706 27.7353C0.658275 29.0692 1.94254 29.612 3.07352 29.9061C4.35363 30.2417 5.81188 30.7181 7.10442 30.7554C7.75898 32.5533 8.67869 34.1483 9.86352 35.6314C11.4046 37.5536 13.273 39.2149 15.3444 40.5447C21.4094 44.4472 28.5225 45.0728 35.3084 42.8771C39.766 41.4313 43.7513 38.5023 45.7026 34.1483C46.3323 32.7439 46.6886 31.2318 46.7714 29.6948C47.0697 24.3216 43.5235 20.4316 40.984 16.09C39.5464 13.6333 38.4113 10.7582 39.6666 7.97843C40.3046 6.56575 41.4687 5.41405 42.8648 4.74706C44.3935 4.01794 46.2453 4.2085 47.9024 4.30378C48.7309 4.34935 49.6424 4.24578 50.1436 3.50009C50.5455 2.90353 50.5993 2.14541 50.3466 1.47843C50.1063 0.848727 49.6465 0.525582 49.0085 0.355728C48.8304 0.310158 48.6564 0.264588 48.4782 0.227303L48.4741 0.223169Z" fill="white"/>
<path d="M168.821 43.6849C167.442 43.6766 166.34 41.9491 165.544 38.5479C164.882 35.7101 164.438 33.0836 164.186 30.5192C163.755 27.0641 163.477 23.7789 163.369 20.763C163.361 20.5766 163.34 20.009 162.934 19.8764L162.81 19.8557C162.147 19.8557 161.17 21.4341 160.465 22.7598C160.068 23.5138 159.72 24.3051 159.384 25.0673C159.156 25.5852 158.933 26.103 158.688 26.6126L156.513 31.1696C155.929 32.3917 155.254 33.4523 154.541 34.5791L154.347 34.8857C153.344 36.4641 152.383 37.2678 151.48 37.2678C151.045 37.2678 150.61 37.0772 150.183 36.7002C149.819 36.3771 149.574 35.9214 149.371 35.5195C147.403 31.559 147.093 26.9274 146.794 22.445C146.745 21.6785 146.691 20.9204 146.633 20.1789C146.624 20.0794 146.604 19.7729 146.368 19.7024C145.725 19.7024 144.437 23.1161 144.425 23.1492L142.585 28.0543C141.906 29.8647 141.454 31.6046 140.97 33.4481L140.758 34.2518C140.68 34.5584 140.609 34.8815 140.539 35.213C140.24 36.6132 139.934 38.059 138.712 38.784C138.397 38.9705 138.024 39.074 137.659 39.074C137.212 39.074 136.819 38.9207 136.553 38.639C136.023 38.0756 136.077 37.1849 136.197 36.3812C136.964 31.2815 138.956 26.3392 140.932 21.7117C141.802 19.6734 142.838 17.5026 144.101 15.0874C144.748 13.8487 146.094 11.2678 147.867 11.2678C147.938 11.2678 148.012 11.2678 148.083 11.2802C148.696 11.3548 149.263 11.8229 149.57 12.5023C149.856 13.1444 149.893 13.886 149.889 14.524C149.881 16.4089 150.055 18.3188 150.22 20.1664C150.452 22.7267 150.775 25.3863 151.206 28.3318C151.31 29.0319 151.583 30.2126 152.279 30.2126C152.503 30.2126 152.739 30.0801 152.975 29.8191C153.398 29.3551 153.659 28.7585 153.907 28.1785C155.291 24.9803 156.753 22.1798 158.377 19.6154C159.682 17.5606 160.88 15.7295 162.355 14.1428C162.636 13.8404 163.635 12.8586 164.712 12.8586C164.832 12.8586 164.952 12.871 165.064 12.8959C165.979 13.103 166.568 14.089 166.605 14.9217C166.825 19.7646 167.148 23.6919 167.624 27.2796C167.69 27.7684 167.748 28.2614 167.811 28.7544C168.022 30.4612 168.237 32.226 168.639 33.9038C168.639 34.7283 168.933 35.6894 169.223 36.6132C169.356 37.0441 169.488 37.4625 169.579 37.8519C169.662 38.1958 169.762 38.552 169.861 38.9125C170.126 39.857 170.4 40.8347 170.391 41.7627C170.383 42.3965 170.151 43.1878 169.521 43.5151C169.298 43.6311 169.062 43.6891 168.821 43.6891H168.813L168.821 43.6849Z" fill="white"/>
<path d="M55.0528 37.6862C55.0155 37.7856 54.9699 37.8809 54.9036 37.9845C54.5018 38.6225 53.7519 38.9912 52.9731 38.8503C52.3227 38.7302 51.6143 38.3739 51.4775 37.7152C51.2621 36.6712 51.5024 35.3663 51.5397 34.3057C51.5811 33.1333 51.6474 31.9568 51.7261 30.7885C51.8048 29.5912 51.8338 28.394 51.9374 27.1967C52.0368 26.0326 51.7261 23.7085 53.0394 22.9835C53.6442 22.648 54.4686 22.8095 54.9865 23.2528C55.5043 23.6961 55.7488 24.3631 55.7902 25.0176C55.844 25.8296 55.7073 26.6747 55.699 27.4867C55.6866 28.5721 55.4215 29.6658 55.3635 30.7512C55.2889 32.0893 55.2226 33.4233 55.1812 34.7614C55.1646 35.3124 55.0859 35.8965 55.1149 36.4475C55.1398 36.9032 55.206 37.2844 55.0569 37.6903L55.0528 37.6862Z" fill="white"/>
<path d="M57.1739 17.1422C57.0455 17.4156 56.8715 17.6642 56.6519 17.8755C55.9269 18.5797 54.7918 18.7993 53.8473 18.4513C52.8447 18.0826 51.867 16.9641 52.0866 15.829C52.302 14.7187 53.3418 13.7369 54.4272 13.5504C55.5624 13.3516 56.8093 13.9979 57.2526 15.0708C57.5219 15.7295 57.4763 16.4959 57.1698 17.1422H57.1739Z" fill="white"/>
<path d="M66.5532 22.3911C67.0586 22.2627 67.5972 22.2544 68.1026 22.3828C68.7447 22.5486 69.2958 22.909 69.8053 23.315C70.8079 24.1187 70.957 23.9902 71.8021 23.0747C72.4732 22.3497 73.2604 21.7076 74.1925 21.3306C76.1437 20.5434 77.9831 21.3264 79.2591 22.8303C80.999 24.8809 81.2269 28.0336 81.521 30.5814C81.6246 31.4762 81.7075 32.3752 81.8318 33.27C81.9395 34.0489 82.3786 35.0763 82.2874 35.8468C82.1424 37.0441 80.5392 38.2704 79.3585 37.5827C78.2441 36.9364 78.1571 34.9561 78.182 33.8376C78.2317 31.9071 78.1281 29.989 77.7967 28.0833C77.6724 27.3542 77.5067 26.6085 77.0717 26.0078C76.4213 25.1046 74.9009 24.7276 73.9066 25.3283C72.7094 26.0533 72.639 27.6234 72.6182 28.8373C72.5934 30.3908 72.7715 31.8905 72.8834 33.4357C72.9497 34.3637 72.9994 35.3663 72.4774 36.1493C71.9678 36.9115 70.7623 37.2637 70.0704 36.6588C69.5609 36.2155 69.4987 35.4698 69.4739 34.8029C69.3952 32.7025 69.7514 22.8137 64.9127 26.0078C63.5829 26.8819 63.6823 28.6964 63.7154 30.076C63.7403 31.1862 63.848 32.2882 63.9019 33.3985C63.9516 34.3306 64.2499 35.2503 64.2291 36.1824C64.2084 36.9074 63.9433 37.6655 63.355 38.1129C62.7709 38.5645 61.8346 38.6059 61.3126 38.0881C60.9646 37.7442 60.8569 37.2388 60.7865 36.7624C60.6001 35.4906 60.7492 34.2311 60.6581 32.9676C60.5711 31.7952 60.5006 30.6062 60.4385 29.4255C60.3391 27.3293 59.9621 25.1461 60.3225 23.0498C60.4841 22.2876 61.3458 21.6081 62.1578 21.5626C62.6342 21.5377 63.2183 21.72 63.5456 22.0721C63.9143 22.474 63.7983 23.2155 64.4031 23.3647C64.9334 23.4931 65.5962 22.7598 66.0354 22.5651C66.2052 22.4906 66.3834 22.4284 66.5657 22.3828L66.5532 22.3911Z" fill="white"/>
<path d="M105.57 13.335C106.104 15.1164 105.57 18.1531 105.557 19.3586C105.528 22.2917 105.499 25.2206 105.47 28.1537C105.45 30.221 105.574 31.9941 105.922 33.9826C106.15 35.3041 105.305 37.5702 103.556 37.0151C103.059 36.8577 102.682 36.4227 102.479 35.9421C102.276 35.4616 102.218 34.9313 102.177 34.4093C101.808 29.7984 102.197 24.9928 102.197 20.357C102.197 18.6253 102.26 16.9061 102.251 15.1827C102.247 14.4039 102.276 13.5919 102.661 12.9166C103.047 12.2413 103.908 11.7732 104.621 12.0839C105.093 12.2869 105.387 12.7426 105.566 13.3309L105.57 13.335Z" fill="white"/>
<path d="M126.445 33.067C126.864 33.2369 127.116 33.7257 127.12 34.1897C127.137 35.6604 125.695 36.8038 124.519 37.4252C124.067 37.6613 123.582 37.8395 123.172 38.1419C122.646 38.5272 122.53 38.9373 122.472 39.538C122.402 40.2299 122.153 40.9507 121.975 41.6218C121.374 43.8714 120.492 46.0505 118.715 47.6288C116.614 49.4931 113.089 50.5495 110.786 48.387C109.236 46.9287 109.025 44.4389 110.023 42.6202C110.694 41.3981 111.755 40.437 112.898 39.6664C114.199 38.784 115.923 38.2828 117.377 37.6572C117.87 37.4459 118.677 37.1642 118.996 36.7002C119.452 36.0374 119.291 34.981 119.195 34.2228C119.175 34.0696 119.121 33.7796 118.947 33.7216C118.773 33.6636 118.673 33.8334 118.541 33.9163C115.173 36.0498 109.924 34.7821 108.888 30.6104C108.408 28.684 108.838 26.8239 109.029 24.8975C109.149 23.6878 109.539 22.1135 110.976 21.952C113.205 21.7034 112.637 24.2139 112.36 25.6059C112.177 26.5214 111.933 27.4329 111.912 28.365C111.879 29.8398 112.331 31.2069 113.897 31.6005C115.053 31.8905 116.333 31.6336 117.281 30.9169C118.76 29.8067 118.934 28.0211 119.025 26.3185C119.1 24.9182 118.963 23.0291 120.455 22.3C120.587 22.2213 121.022 22.0763 121.151 22.0845C122.824 22.1798 122.862 23.4724 122.853 24.7856C122.758 26.422 122.795 28.0584 122.812 29.6948C122.82 30.5151 122.829 31.3312 122.812 32.1515C122.8 32.6652 122.559 34.2726 122.978 34.633C123.442 35.0348 124.577 33.8251 124.937 33.5476C125.347 33.2369 125.832 32.9096 126.333 33.0297C126.375 33.038 126.412 33.0505 126.453 33.067H126.445ZM114.361 46.3487C114.767 46.2659 115.169 46.0753 115.517 45.8557C116.569 45.1929 117.443 44.2649 118.073 43.1961C118.441 42.5705 118.769 41.9077 118.972 41.2117C119.03 41.0087 119.282 40.3169 119.146 40.1222C118.984 39.8902 118.715 40.118 118.495 40.2092C116.933 40.8761 115.363 41.5017 114 42.5374C113.416 42.9807 112.865 43.5151 112.625 44.2111C112.385 44.9029 112.55 45.7812 113.168 46.1747C113.524 46.4026 113.942 46.4316 114.361 46.3487Z" fill="white"/>
<path d="M87.387 46.2907C86.8195 46.2907 86.3016 46.0629 86.0075 45.6817C85.6512 45.2219 85.5974 44.6171 85.5642 43.9294C85.4814 42.1894 85.3861 40.4453 85.2908 38.6971C85.2038 37.0855 85.1126 35.474 85.0339 33.8624C84.9594 32.2758 84.8144 30.6808 84.6735 29.1438C84.5492 27.7933 84.425 26.4386 84.3462 25.0673L84.3214 24.6779C84.2427 23.4641 84.1557 22.0887 84.5824 20.9494C84.8351 20.2742 85.5186 20.038 86.0738 20.038C86.4383 20.038 86.8029 20.1374 87.1012 20.3197C87.59 20.618 87.735 21.2229 87.8759 21.8111C87.9463 22.1136 88.0167 22.3953 88.1286 22.648C89.5206 22.2171 90.7717 21.9727 91.9565 21.9603C95.6891 21.9603 98.7921 24.6489 99.2395 28.2117C99.5833 30.9335 98.1831 33.8334 95.8383 35.2585C95.0677 35.7267 94.1522 36.0622 93.046 36.286C92.7353 36.3481 92.4205 36.3978 92.1056 36.4475L91.5422 36.5387C91.2812 36.5842 91.012 36.6008 90.7468 36.6008C90.548 36.6008 90.3491 36.5925 90.1585 36.576C90.0011 36.5635 89.8975 36.5552 89.8023 36.5552C89.5454 36.5552 89.2513 36.6091 89.0317 36.9902C88.7873 37.4169 88.8246 37.9389 88.8536 38.3573L89.1767 42.8978C89.243 43.8548 89.3466 45.2799 88.5097 45.9345C88.2114 46.1665 87.8137 46.2949 87.387 46.2949V46.2907ZM91.6168 25.4899C90.2745 25.4899 88.692 25.9125 88.2777 27.1014C88.1617 27.4287 88.112 27.7891 88.1203 28.2407C88.1203 28.452 88.1369 28.6674 88.1576 28.8745L88.1742 29.0568C88.257 29.9724 88.3274 30.7595 88.6464 31.6626C88.9406 32.5036 89.4957 32.9593 90.3864 33.1043C90.6225 33.1416 90.8587 33.1582 91.1031 33.1582C91.7286 33.1582 92.3749 33.038 92.9715 32.8102C94.177 32.3503 95.1671 31.4182 95.6228 30.3121C95.9833 29.4297 95.9708 28.5183 95.5856 27.669C94.9476 26.2646 93.3982 25.6349 92.1595 25.5148C91.9938 25.4982 91.8115 25.4899 91.6209 25.4899H91.6168Z" fill="white"/>
<path d="M181.018 37.9389C176.535 38.6556 172.119 35.3911 171.378 30.8092C170.988 28.4023 171.668 25.7261 173.113 23.9902C174.062 22.851 175.45 22.039 176.817 21.8194C177.724 21.6744 178.582 21.7822 179.369 22.1384C181.117 22.9297 182.298 24.8519 182.302 26.9192C182.306 28.3816 181.718 29.8605 180.686 30.9749C179.754 31.9858 178.648 32.6362 177.571 32.8061C177.364 32.8392 177.157 32.8558 176.941 32.8516C176.796 32.8516 176.639 32.8516 176.498 32.8765C176.266 32.9138 176.133 32.9925 176.092 33.1168C176.051 33.241 176.113 33.386 176.287 33.5642C176.544 33.8252 176.879 34.0613 177.211 34.2104C178.255 34.6786 179.481 34.8484 180.57 34.6744C181.138 34.5833 181.66 34.4052 182.116 34.14C183.296 33.4565 184.224 32.2468 184.875 30.54C185.04 30.1008 185.426 29.3427 186.13 29.2308C186.569 29.1646 187.05 29.3924 187.336 29.7901C187.655 30.2334 187.7 30.772 187.684 31.1448C187.534 34.2394 184.655 36.924 181.958 37.7277C181.652 37.8188 181.337 37.8892 181.022 37.9431L181.018 37.9389ZM177.289 24.8395C176.568 24.9555 175.79 25.3739 175.309 25.9042C174.684 26.5919 174.336 27.5489 174.381 28.4686C174.394 28.7006 174.452 28.9077 174.559 29.0776C174.841 29.5333 175.458 29.7528 176.208 29.6658L176.415 29.6368C176.738 29.5871 177.546 29.4214 178.085 29.0154C178.806 28.4686 179.212 27.5945 179.224 26.5505C179.232 25.9166 179.058 25.4444 178.714 25.1419C178.371 24.8478 177.882 24.7401 177.293 24.8354L177.289 24.8395Z" fill="white"/>
</svg>
